%TF.GenerationSoftware,KiCad,Pcbnew,9.0.2*%
%TF.CreationDate,2025-06-30T00:07:05+01:00*%
%TF.ProjectId,6502pc,36353032-7063-42e6-9b69-6361645f7063,rev?*%
%TF.SameCoordinates,Original*%
%TF.FileFunction,Legend,Top*%
%TF.FilePolarity,Positive*%
%FSLAX46Y46*%
G04 Gerber Fmt 4.6, Leading zero omitted, Abs format (unit mm)*
G04 Created by KiCad (PCBNEW 9.0.2) date 2025-06-30 00:07:05*
%MOMM*%
%LPD*%
G01*
G04 APERTURE LIST*
%ADD10C,0.200000*%
%ADD11C,0.150000*%
%ADD12C,0.120000*%
%ADD13C,0.152400*%
%ADD14C,0.000000*%
G04 APERTURE END LIST*
D10*
X114850606Y-120196609D02*
X114993463Y-120244228D01*
X114993463Y-120244228D02*
X115041082Y-120291847D01*
X115041082Y-120291847D02*
X115088701Y-120387085D01*
X115088701Y-120387085D02*
X115088701Y-120529942D01*
X115088701Y-120529942D02*
X115041082Y-120625180D01*
X115041082Y-120625180D02*
X114993463Y-120672800D01*
X114993463Y-120672800D02*
X114898225Y-120720419D01*
X114898225Y-120720419D02*
X114517273Y-120720419D01*
X114517273Y-120720419D02*
X114517273Y-119720419D01*
X114517273Y-119720419D02*
X114850606Y-119720419D01*
X114850606Y-119720419D02*
X114945844Y-119768038D01*
X114945844Y-119768038D02*
X114993463Y-119815657D01*
X114993463Y-119815657D02*
X115041082Y-119910895D01*
X115041082Y-119910895D02*
X115041082Y-120006133D01*
X115041082Y-120006133D02*
X114993463Y-120101371D01*
X114993463Y-120101371D02*
X114945844Y-120148990D01*
X114945844Y-120148990D02*
X114850606Y-120196609D01*
X114850606Y-120196609D02*
X114517273Y-120196609D01*
X115707749Y-120244228D02*
X115707749Y-120720419D01*
X115374416Y-119720419D02*
X115707749Y-120244228D01*
X115707749Y-120244228D02*
X116041082Y-119720419D01*
X116993464Y-119720419D02*
X117564892Y-119720419D01*
X117279178Y-120720419D02*
X117279178Y-119720419D01*
X118088702Y-119720419D02*
X118279178Y-119720419D01*
X118279178Y-119720419D02*
X118374416Y-119768038D01*
X118374416Y-119768038D02*
X118469654Y-119863276D01*
X118469654Y-119863276D02*
X118517273Y-120053752D01*
X118517273Y-120053752D02*
X118517273Y-120387085D01*
X118517273Y-120387085D02*
X118469654Y-120577561D01*
X118469654Y-120577561D02*
X118374416Y-120672800D01*
X118374416Y-120672800D02*
X118279178Y-120720419D01*
X118279178Y-120720419D02*
X118088702Y-120720419D01*
X118088702Y-120720419D02*
X117993464Y-120672800D01*
X117993464Y-120672800D02*
X117898226Y-120577561D01*
X117898226Y-120577561D02*
X117850607Y-120387085D01*
X117850607Y-120387085D02*
X117850607Y-120053752D01*
X117850607Y-120053752D02*
X117898226Y-119863276D01*
X117898226Y-119863276D02*
X117993464Y-119768038D01*
X117993464Y-119768038D02*
X118088702Y-119720419D01*
X118945845Y-120720419D02*
X118945845Y-119720419D01*
X118945845Y-119720419D02*
X119279178Y-120434704D01*
X119279178Y-120434704D02*
X119612511Y-119720419D01*
X119612511Y-119720419D02*
X119612511Y-120720419D01*
X120802988Y-120672800D02*
X120945845Y-120720419D01*
X120945845Y-120720419D02*
X121183940Y-120720419D01*
X121183940Y-120720419D02*
X121279178Y-120672800D01*
X121279178Y-120672800D02*
X121326797Y-120625180D01*
X121326797Y-120625180D02*
X121374416Y-120529942D01*
X121374416Y-120529942D02*
X121374416Y-120434704D01*
X121374416Y-120434704D02*
X121326797Y-120339466D01*
X121326797Y-120339466D02*
X121279178Y-120291847D01*
X121279178Y-120291847D02*
X121183940Y-120244228D01*
X121183940Y-120244228D02*
X120993464Y-120196609D01*
X120993464Y-120196609D02*
X120898226Y-120148990D01*
X120898226Y-120148990D02*
X120850607Y-120101371D01*
X120850607Y-120101371D02*
X120802988Y-120006133D01*
X120802988Y-120006133D02*
X120802988Y-119910895D01*
X120802988Y-119910895D02*
X120850607Y-119815657D01*
X120850607Y-119815657D02*
X120898226Y-119768038D01*
X120898226Y-119768038D02*
X120993464Y-119720419D01*
X120993464Y-119720419D02*
X121231559Y-119720419D01*
X121231559Y-119720419D02*
X121374416Y-119768038D01*
X121802988Y-120720419D02*
X121802988Y-119720419D01*
X121802988Y-119720419D02*
X122136321Y-120434704D01*
X122136321Y-120434704D02*
X122469654Y-119720419D01*
X122469654Y-119720419D02*
X122469654Y-120720419D01*
X122945845Y-120720419D02*
X122945845Y-119720419D01*
X123279178Y-119720419D02*
X123850606Y-119720419D01*
X123564892Y-120720419D02*
X123564892Y-119720419D01*
X124183940Y-120720419D02*
X124183940Y-119720419D01*
X124183940Y-120196609D02*
X124755368Y-120196609D01*
X124755368Y-120720419D02*
X124755368Y-119720419D01*
X125850607Y-119720419D02*
X126183940Y-120720419D01*
X126183940Y-120720419D02*
X126517273Y-119720419D01*
X127374416Y-120720419D02*
X126802988Y-120720419D01*
X127088702Y-120720419D02*
X127088702Y-119720419D01*
X127088702Y-119720419D02*
X126993464Y-119863276D01*
X126993464Y-119863276D02*
X126898226Y-119958514D01*
X126898226Y-119958514D02*
X126802988Y-120006133D01*
D11*
X154301866Y-55968419D02*
X154301866Y-56682704D01*
X154301866Y-56682704D02*
X154254247Y-56825561D01*
X154254247Y-56825561D02*
X154159009Y-56920800D01*
X154159009Y-56920800D02*
X154016152Y-56968419D01*
X154016152Y-56968419D02*
X153920914Y-56968419D01*
X154825676Y-56968419D02*
X155016152Y-56968419D01*
X155016152Y-56968419D02*
X155111390Y-56920800D01*
X155111390Y-56920800D02*
X155159009Y-56873180D01*
X155159009Y-56873180D02*
X155254247Y-56730323D01*
X155254247Y-56730323D02*
X155301866Y-56539847D01*
X155301866Y-56539847D02*
X155301866Y-56158895D01*
X155301866Y-56158895D02*
X155254247Y-56063657D01*
X155254247Y-56063657D02*
X155206628Y-56016038D01*
X155206628Y-56016038D02*
X155111390Y-55968419D01*
X155111390Y-55968419D02*
X154920914Y-55968419D01*
X154920914Y-55968419D02*
X154825676Y-56016038D01*
X154825676Y-56016038D02*
X154778057Y-56063657D01*
X154778057Y-56063657D02*
X154730438Y-56158895D01*
X154730438Y-56158895D02*
X154730438Y-56396990D01*
X154730438Y-56396990D02*
X154778057Y-56492228D01*
X154778057Y-56492228D02*
X154825676Y-56539847D01*
X154825676Y-56539847D02*
X154920914Y-56587466D01*
X154920914Y-56587466D02*
X155111390Y-56587466D01*
X155111390Y-56587466D02*
X155206628Y-56539847D01*
X155206628Y-56539847D02*
X155254247Y-56492228D01*
X155254247Y-56492228D02*
X155301866Y-56396990D01*
X75983619Y-49304533D02*
X76697904Y-49304533D01*
X76697904Y-49304533D02*
X76840761Y-49352152D01*
X76840761Y-49352152D02*
X76936000Y-49447390D01*
X76936000Y-49447390D02*
X76983619Y-49590247D01*
X76983619Y-49590247D02*
X76983619Y-49685485D01*
X75983619Y-48399771D02*
X75983619Y-48590247D01*
X75983619Y-48590247D02*
X76031238Y-48685485D01*
X76031238Y-48685485D02*
X76078857Y-48733104D01*
X76078857Y-48733104D02*
X76221714Y-48828342D01*
X76221714Y-48828342D02*
X76412190Y-48875961D01*
X76412190Y-48875961D02*
X76793142Y-48875961D01*
X76793142Y-48875961D02*
X76888380Y-48828342D01*
X76888380Y-48828342D02*
X76936000Y-48780723D01*
X76936000Y-48780723D02*
X76983619Y-48685485D01*
X76983619Y-48685485D02*
X76983619Y-48495009D01*
X76983619Y-48495009D02*
X76936000Y-48399771D01*
X76936000Y-48399771D02*
X76888380Y-48352152D01*
X76888380Y-48352152D02*
X76793142Y-48304533D01*
X76793142Y-48304533D02*
X76555047Y-48304533D01*
X76555047Y-48304533D02*
X76459809Y-48352152D01*
X76459809Y-48352152D02*
X76412190Y-48399771D01*
X76412190Y-48399771D02*
X76364571Y-48495009D01*
X76364571Y-48495009D02*
X76364571Y-48685485D01*
X76364571Y-48685485D02*
X76412190Y-48780723D01*
X76412190Y-48780723D02*
X76459809Y-48828342D01*
X76459809Y-48828342D02*
X76555047Y-48875961D01*
X77899333Y-46990800D02*
X78042190Y-47038419D01*
X78042190Y-47038419D02*
X78280285Y-47038419D01*
X78280285Y-47038419D02*
X78375523Y-46990800D01*
X78375523Y-46990800D02*
X78423142Y-46943180D01*
X78423142Y-46943180D02*
X78470761Y-46847942D01*
X78470761Y-46847942D02*
X78470761Y-46752704D01*
X78470761Y-46752704D02*
X78423142Y-46657466D01*
X78423142Y-46657466D02*
X78375523Y-46609847D01*
X78375523Y-46609847D02*
X78280285Y-46562228D01*
X78280285Y-46562228D02*
X78089809Y-46514609D01*
X78089809Y-46514609D02*
X77994571Y-46466990D01*
X77994571Y-46466990D02*
X77946952Y-46419371D01*
X77946952Y-46419371D02*
X77899333Y-46324133D01*
X77899333Y-46324133D02*
X77899333Y-46228895D01*
X77899333Y-46228895D02*
X77946952Y-46133657D01*
X77946952Y-46133657D02*
X77994571Y-46086038D01*
X77994571Y-46086038D02*
X78089809Y-46038419D01*
X78089809Y-46038419D02*
X78327904Y-46038419D01*
X78327904Y-46038419D02*
X78470761Y-46086038D01*
X78899333Y-47038419D02*
X78899333Y-46038419D01*
X78899333Y-46038419D02*
X79137428Y-46038419D01*
X79137428Y-46038419D02*
X79280285Y-46086038D01*
X79280285Y-46086038D02*
X79375523Y-46181276D01*
X79375523Y-46181276D02*
X79423142Y-46276514D01*
X79423142Y-46276514D02*
X79470761Y-46466990D01*
X79470761Y-46466990D02*
X79470761Y-46609847D01*
X79470761Y-46609847D02*
X79423142Y-46800323D01*
X79423142Y-46800323D02*
X79375523Y-46895561D01*
X79375523Y-46895561D02*
X79280285Y-46990800D01*
X79280285Y-46990800D02*
X79137428Y-47038419D01*
X79137428Y-47038419D02*
X78899333Y-47038419D01*
X79899333Y-46657466D02*
X80661238Y-46657466D01*
X81708856Y-46943180D02*
X81661237Y-46990800D01*
X81661237Y-46990800D02*
X81518380Y-47038419D01*
X81518380Y-47038419D02*
X81423142Y-47038419D01*
X81423142Y-47038419D02*
X81280285Y-46990800D01*
X81280285Y-46990800D02*
X81185047Y-46895561D01*
X81185047Y-46895561D02*
X81137428Y-46800323D01*
X81137428Y-46800323D02*
X81089809Y-46609847D01*
X81089809Y-46609847D02*
X81089809Y-46466990D01*
X81089809Y-46466990D02*
X81137428Y-46276514D01*
X81137428Y-46276514D02*
X81185047Y-46181276D01*
X81185047Y-46181276D02*
X81280285Y-46086038D01*
X81280285Y-46086038D02*
X81423142Y-46038419D01*
X81423142Y-46038419D02*
X81518380Y-46038419D01*
X81518380Y-46038419D02*
X81661237Y-46086038D01*
X81661237Y-46086038D02*
X81708856Y-46133657D01*
X82565999Y-47038419D02*
X82565999Y-46514609D01*
X82565999Y-46514609D02*
X82518380Y-46419371D01*
X82518380Y-46419371D02*
X82423142Y-46371752D01*
X82423142Y-46371752D02*
X82232666Y-46371752D01*
X82232666Y-46371752D02*
X82137428Y-46419371D01*
X82565999Y-46990800D02*
X82470761Y-47038419D01*
X82470761Y-47038419D02*
X82232666Y-47038419D01*
X82232666Y-47038419D02*
X82137428Y-46990800D01*
X82137428Y-46990800D02*
X82089809Y-46895561D01*
X82089809Y-46895561D02*
X82089809Y-46800323D01*
X82089809Y-46800323D02*
X82137428Y-46705085D01*
X82137428Y-46705085D02*
X82232666Y-46657466D01*
X82232666Y-46657466D02*
X82470761Y-46657466D01*
X82470761Y-46657466D02*
X82565999Y-46609847D01*
X83042190Y-47038419D02*
X83042190Y-46371752D01*
X83042190Y-46562228D02*
X83089809Y-46466990D01*
X83089809Y-46466990D02*
X83137428Y-46419371D01*
X83137428Y-46419371D02*
X83232666Y-46371752D01*
X83232666Y-46371752D02*
X83327904Y-46371752D01*
X84089809Y-47038419D02*
X84089809Y-46038419D01*
X84089809Y-46990800D02*
X83994571Y-47038419D01*
X83994571Y-47038419D02*
X83804095Y-47038419D01*
X83804095Y-47038419D02*
X83708857Y-46990800D01*
X83708857Y-46990800D02*
X83661238Y-46943180D01*
X83661238Y-46943180D02*
X83613619Y-46847942D01*
X83613619Y-46847942D02*
X83613619Y-46562228D01*
X83613619Y-46562228D02*
X83661238Y-46466990D01*
X83661238Y-46466990D02*
X83708857Y-46419371D01*
X83708857Y-46419371D02*
X83804095Y-46371752D01*
X83804095Y-46371752D02*
X83994571Y-46371752D01*
X83994571Y-46371752D02*
X84089809Y-46419371D01*
X85661238Y-46514609D02*
X85804095Y-46562228D01*
X85804095Y-46562228D02*
X85851714Y-46609847D01*
X85851714Y-46609847D02*
X85899333Y-46705085D01*
X85899333Y-46705085D02*
X85899333Y-46847942D01*
X85899333Y-46847942D02*
X85851714Y-46943180D01*
X85851714Y-46943180D02*
X85804095Y-46990800D01*
X85804095Y-46990800D02*
X85708857Y-47038419D01*
X85708857Y-47038419D02*
X85327905Y-47038419D01*
X85327905Y-47038419D02*
X85327905Y-46038419D01*
X85327905Y-46038419D02*
X85661238Y-46038419D01*
X85661238Y-46038419D02*
X85756476Y-46086038D01*
X85756476Y-46086038D02*
X85804095Y-46133657D01*
X85804095Y-46133657D02*
X85851714Y-46228895D01*
X85851714Y-46228895D02*
X85851714Y-46324133D01*
X85851714Y-46324133D02*
X85804095Y-46419371D01*
X85804095Y-46419371D02*
X85756476Y-46466990D01*
X85756476Y-46466990D02*
X85661238Y-46514609D01*
X85661238Y-46514609D02*
X85327905Y-46514609D01*
X86470762Y-47038419D02*
X86375524Y-46990800D01*
X86375524Y-46990800D02*
X86327905Y-46943180D01*
X86327905Y-46943180D02*
X86280286Y-46847942D01*
X86280286Y-46847942D02*
X86280286Y-46562228D01*
X86280286Y-46562228D02*
X86327905Y-46466990D01*
X86327905Y-46466990D02*
X86375524Y-46419371D01*
X86375524Y-46419371D02*
X86470762Y-46371752D01*
X86470762Y-46371752D02*
X86613619Y-46371752D01*
X86613619Y-46371752D02*
X86708857Y-46419371D01*
X86708857Y-46419371D02*
X86756476Y-46466990D01*
X86756476Y-46466990D02*
X86804095Y-46562228D01*
X86804095Y-46562228D02*
X86804095Y-46847942D01*
X86804095Y-46847942D02*
X86756476Y-46943180D01*
X86756476Y-46943180D02*
X86708857Y-46990800D01*
X86708857Y-46990800D02*
X86613619Y-47038419D01*
X86613619Y-47038419D02*
X86470762Y-47038419D01*
X87661238Y-47038419D02*
X87661238Y-46514609D01*
X87661238Y-46514609D02*
X87613619Y-46419371D01*
X87613619Y-46419371D02*
X87518381Y-46371752D01*
X87518381Y-46371752D02*
X87327905Y-46371752D01*
X87327905Y-46371752D02*
X87232667Y-46419371D01*
X87661238Y-46990800D02*
X87566000Y-47038419D01*
X87566000Y-47038419D02*
X87327905Y-47038419D01*
X87327905Y-47038419D02*
X87232667Y-46990800D01*
X87232667Y-46990800D02*
X87185048Y-46895561D01*
X87185048Y-46895561D02*
X87185048Y-46800323D01*
X87185048Y-46800323D02*
X87232667Y-46705085D01*
X87232667Y-46705085D02*
X87327905Y-46657466D01*
X87327905Y-46657466D02*
X87566000Y-46657466D01*
X87566000Y-46657466D02*
X87661238Y-46609847D01*
X88137429Y-47038419D02*
X88137429Y-46371752D01*
X88137429Y-46562228D02*
X88185048Y-46466990D01*
X88185048Y-46466990D02*
X88232667Y-46419371D01*
X88232667Y-46419371D02*
X88327905Y-46371752D01*
X88327905Y-46371752D02*
X88423143Y-46371752D01*
X89185048Y-47038419D02*
X89185048Y-46038419D01*
X89185048Y-46990800D02*
X89089810Y-47038419D01*
X89089810Y-47038419D02*
X88899334Y-47038419D01*
X88899334Y-47038419D02*
X88804096Y-46990800D01*
X88804096Y-46990800D02*
X88756477Y-46943180D01*
X88756477Y-46943180D02*
X88708858Y-46847942D01*
X88708858Y-46847942D02*
X88708858Y-46562228D01*
X88708858Y-46562228D02*
X88756477Y-46466990D01*
X88756477Y-46466990D02*
X88804096Y-46419371D01*
X88804096Y-46419371D02*
X88899334Y-46371752D01*
X88899334Y-46371752D02*
X89089810Y-46371752D01*
X89089810Y-46371752D02*
X89185048Y-46419371D01*
X43192266Y-45143519D02*
X43192266Y-45857804D01*
X43192266Y-45857804D02*
X43144647Y-46000661D01*
X43144647Y-46000661D02*
X43049409Y-46095900D01*
X43049409Y-46095900D02*
X42906552Y-46143519D01*
X42906552Y-46143519D02*
X42811314Y-46143519D01*
X44192266Y-46143519D02*
X43620838Y-46143519D01*
X43906552Y-46143519D02*
X43906552Y-45143519D01*
X43906552Y-45143519D02*
X43811314Y-45286376D01*
X43811314Y-45286376D02*
X43716076Y-45381614D01*
X43716076Y-45381614D02*
X43620838Y-45429233D01*
X142690380Y-58707257D02*
X142738000Y-58754876D01*
X142738000Y-58754876D02*
X142785619Y-58897733D01*
X142785619Y-58897733D02*
X142785619Y-58992971D01*
X142785619Y-58992971D02*
X142738000Y-59135828D01*
X142738000Y-59135828D02*
X142642761Y-59231066D01*
X142642761Y-59231066D02*
X142547523Y-59278685D01*
X142547523Y-59278685D02*
X142357047Y-59326304D01*
X142357047Y-59326304D02*
X142214190Y-59326304D01*
X142214190Y-59326304D02*
X142023714Y-59278685D01*
X142023714Y-59278685D02*
X141928476Y-59231066D01*
X141928476Y-59231066D02*
X141833238Y-59135828D01*
X141833238Y-59135828D02*
X141785619Y-58992971D01*
X141785619Y-58992971D02*
X141785619Y-58897733D01*
X141785619Y-58897733D02*
X141833238Y-58754876D01*
X141833238Y-58754876D02*
X141880857Y-58707257D01*
X142785619Y-57754876D02*
X142785619Y-58326304D01*
X142785619Y-58040590D02*
X141785619Y-58040590D01*
X141785619Y-58040590D02*
X141928476Y-58135828D01*
X141928476Y-58135828D02*
X142023714Y-58231066D01*
X142023714Y-58231066D02*
X142071333Y-58326304D01*
X142118952Y-56897733D02*
X142785619Y-56897733D01*
X141738000Y-57135828D02*
X142452285Y-57373923D01*
X142452285Y-57373923D02*
X142452285Y-56754876D01*
X71534419Y-68098894D02*
X70534419Y-68098894D01*
X70534419Y-68098894D02*
X70534419Y-67860799D01*
X70534419Y-67860799D02*
X70582038Y-67717942D01*
X70582038Y-67717942D02*
X70677276Y-67622704D01*
X70677276Y-67622704D02*
X70772514Y-67575085D01*
X70772514Y-67575085D02*
X70962990Y-67527466D01*
X70962990Y-67527466D02*
X71105847Y-67527466D01*
X71105847Y-67527466D02*
X71296323Y-67575085D01*
X71296323Y-67575085D02*
X71391561Y-67622704D01*
X71391561Y-67622704D02*
X71486800Y-67717942D01*
X71486800Y-67717942D02*
X71534419Y-67860799D01*
X71534419Y-67860799D02*
X71534419Y-68098894D01*
X71534419Y-66575085D02*
X71534419Y-67146513D01*
X71534419Y-66860799D02*
X70534419Y-66860799D01*
X70534419Y-66860799D02*
X70677276Y-66956037D01*
X70677276Y-66956037D02*
X70772514Y-67051275D01*
X70772514Y-67051275D02*
X70820133Y-67146513D01*
X110598857Y-84326075D02*
X110551238Y-84278456D01*
X110551238Y-84278456D02*
X110503619Y-84183218D01*
X110503619Y-84183218D02*
X110503619Y-83945123D01*
X110503619Y-83945123D02*
X110551238Y-83849885D01*
X110551238Y-83849885D02*
X110598857Y-83802266D01*
X110598857Y-83802266D02*
X110694095Y-83754647D01*
X110694095Y-83754647D02*
X110789333Y-83754647D01*
X110789333Y-83754647D02*
X110932190Y-83802266D01*
X110932190Y-83802266D02*
X111503619Y-84373694D01*
X111503619Y-84373694D02*
X111503619Y-83754647D01*
X110932190Y-83183218D02*
X110884571Y-83278456D01*
X110884571Y-83278456D02*
X110836952Y-83326075D01*
X110836952Y-83326075D02*
X110741714Y-83373694D01*
X110741714Y-83373694D02*
X110694095Y-83373694D01*
X110694095Y-83373694D02*
X110598857Y-83326075D01*
X110598857Y-83326075D02*
X110551238Y-83278456D01*
X110551238Y-83278456D02*
X110503619Y-83183218D01*
X110503619Y-83183218D02*
X110503619Y-82992742D01*
X110503619Y-82992742D02*
X110551238Y-82897504D01*
X110551238Y-82897504D02*
X110598857Y-82849885D01*
X110598857Y-82849885D02*
X110694095Y-82802266D01*
X110694095Y-82802266D02*
X110741714Y-82802266D01*
X110741714Y-82802266D02*
X110836952Y-82849885D01*
X110836952Y-82849885D02*
X110884571Y-82897504D01*
X110884571Y-82897504D02*
X110932190Y-82992742D01*
X110932190Y-82992742D02*
X110932190Y-83183218D01*
X110932190Y-83183218D02*
X110979809Y-83278456D01*
X110979809Y-83278456D02*
X111027428Y-83326075D01*
X111027428Y-83326075D02*
X111122666Y-83373694D01*
X111122666Y-83373694D02*
X111313142Y-83373694D01*
X111313142Y-83373694D02*
X111408380Y-83326075D01*
X111408380Y-83326075D02*
X111456000Y-83278456D01*
X111456000Y-83278456D02*
X111503619Y-83183218D01*
X111503619Y-83183218D02*
X111503619Y-82992742D01*
X111503619Y-82992742D02*
X111456000Y-82897504D01*
X111456000Y-82897504D02*
X111408380Y-82849885D01*
X111408380Y-82849885D02*
X111313142Y-82802266D01*
X111313142Y-82802266D02*
X111122666Y-82802266D01*
X111122666Y-82802266D02*
X111027428Y-82849885D01*
X111027428Y-82849885D02*
X110979809Y-82897504D01*
X110979809Y-82897504D02*
X110932190Y-82992742D01*
X111408380Y-81802266D02*
X111456000Y-81849885D01*
X111456000Y-81849885D02*
X111503619Y-81992742D01*
X111503619Y-81992742D02*
X111503619Y-82087980D01*
X111503619Y-82087980D02*
X111456000Y-82230837D01*
X111456000Y-82230837D02*
X111360761Y-82326075D01*
X111360761Y-82326075D02*
X111265523Y-82373694D01*
X111265523Y-82373694D02*
X111075047Y-82421313D01*
X111075047Y-82421313D02*
X110932190Y-82421313D01*
X110932190Y-82421313D02*
X110741714Y-82373694D01*
X110741714Y-82373694D02*
X110646476Y-82326075D01*
X110646476Y-82326075D02*
X110551238Y-82230837D01*
X110551238Y-82230837D02*
X110503619Y-82087980D01*
X110503619Y-82087980D02*
X110503619Y-81992742D01*
X110503619Y-81992742D02*
X110551238Y-81849885D01*
X110551238Y-81849885D02*
X110598857Y-81802266D01*
X110598857Y-81421313D02*
X110551238Y-81373694D01*
X110551238Y-81373694D02*
X110503619Y-81278456D01*
X110503619Y-81278456D02*
X110503619Y-81040361D01*
X110503619Y-81040361D02*
X110551238Y-80945123D01*
X110551238Y-80945123D02*
X110598857Y-80897504D01*
X110598857Y-80897504D02*
X110694095Y-80849885D01*
X110694095Y-80849885D02*
X110789333Y-80849885D01*
X110789333Y-80849885D02*
X110932190Y-80897504D01*
X110932190Y-80897504D02*
X111503619Y-81468932D01*
X111503619Y-81468932D02*
X111503619Y-80849885D01*
X110503619Y-79945123D02*
X110503619Y-80421313D01*
X110503619Y-80421313D02*
X110979809Y-80468932D01*
X110979809Y-80468932D02*
X110932190Y-80421313D01*
X110932190Y-80421313D02*
X110884571Y-80326075D01*
X110884571Y-80326075D02*
X110884571Y-80087980D01*
X110884571Y-80087980D02*
X110932190Y-79992742D01*
X110932190Y-79992742D02*
X110979809Y-79945123D01*
X110979809Y-79945123D02*
X111075047Y-79897504D01*
X111075047Y-79897504D02*
X111313142Y-79897504D01*
X111313142Y-79897504D02*
X111408380Y-79945123D01*
X111408380Y-79945123D02*
X111456000Y-79992742D01*
X111456000Y-79992742D02*
X111503619Y-80087980D01*
X111503619Y-80087980D02*
X111503619Y-80326075D01*
X111503619Y-80326075D02*
X111456000Y-80421313D01*
X111456000Y-80421313D02*
X111408380Y-80468932D01*
X110503619Y-79040361D02*
X110503619Y-79230837D01*
X110503619Y-79230837D02*
X110551238Y-79326075D01*
X110551238Y-79326075D02*
X110598857Y-79373694D01*
X110598857Y-79373694D02*
X110741714Y-79468932D01*
X110741714Y-79468932D02*
X110932190Y-79516551D01*
X110932190Y-79516551D02*
X111313142Y-79516551D01*
X111313142Y-79516551D02*
X111408380Y-79468932D01*
X111408380Y-79468932D02*
X111456000Y-79421313D01*
X111456000Y-79421313D02*
X111503619Y-79326075D01*
X111503619Y-79326075D02*
X111503619Y-79135599D01*
X111503619Y-79135599D02*
X111456000Y-79040361D01*
X111456000Y-79040361D02*
X111408380Y-78992742D01*
X111408380Y-78992742D02*
X111313142Y-78945123D01*
X111313142Y-78945123D02*
X111075047Y-78945123D01*
X111075047Y-78945123D02*
X110979809Y-78992742D01*
X110979809Y-78992742D02*
X110932190Y-79040361D01*
X110932190Y-79040361D02*
X110884571Y-79135599D01*
X110884571Y-79135599D02*
X110884571Y-79326075D01*
X110884571Y-79326075D02*
X110932190Y-79421313D01*
X110932190Y-79421313D02*
X110979809Y-79468932D01*
X110979809Y-79468932D02*
X111075047Y-79516551D01*
X142362819Y-49347333D02*
X143077104Y-49347333D01*
X143077104Y-49347333D02*
X143219961Y-49394952D01*
X143219961Y-49394952D02*
X143315200Y-49490190D01*
X143315200Y-49490190D02*
X143362819Y-49633047D01*
X143362819Y-49633047D02*
X143362819Y-49728285D01*
X143362819Y-48871142D02*
X142362819Y-48871142D01*
X142362819Y-48871142D02*
X142362819Y-48490190D01*
X142362819Y-48490190D02*
X142410438Y-48394952D01*
X142410438Y-48394952D02*
X142458057Y-48347333D01*
X142458057Y-48347333D02*
X142553295Y-48299714D01*
X142553295Y-48299714D02*
X142696152Y-48299714D01*
X142696152Y-48299714D02*
X142791390Y-48347333D01*
X142791390Y-48347333D02*
X142839009Y-48394952D01*
X142839009Y-48394952D02*
X142886628Y-48490190D01*
X142886628Y-48490190D02*
X142886628Y-48871142D01*
X143362819Y-47347333D02*
X143362819Y-47918761D01*
X143362819Y-47633047D02*
X142362819Y-47633047D01*
X142362819Y-47633047D02*
X142505676Y-47728285D01*
X142505676Y-47728285D02*
X142600914Y-47823523D01*
X142600914Y-47823523D02*
X142648533Y-47918761D01*
X140713676Y-51816800D02*
X140856533Y-51864419D01*
X140856533Y-51864419D02*
X141094628Y-51864419D01*
X141094628Y-51864419D02*
X141189866Y-51816800D01*
X141189866Y-51816800D02*
X141237485Y-51769180D01*
X141237485Y-51769180D02*
X141285104Y-51673942D01*
X141285104Y-51673942D02*
X141285104Y-51578704D01*
X141285104Y-51578704D02*
X141237485Y-51483466D01*
X141237485Y-51483466D02*
X141189866Y-51435847D01*
X141189866Y-51435847D02*
X141094628Y-51388228D01*
X141094628Y-51388228D02*
X140904152Y-51340609D01*
X140904152Y-51340609D02*
X140808914Y-51292990D01*
X140808914Y-51292990D02*
X140761295Y-51245371D01*
X140761295Y-51245371D02*
X140713676Y-51150133D01*
X140713676Y-51150133D02*
X140713676Y-51054895D01*
X140713676Y-51054895D02*
X140761295Y-50959657D01*
X140761295Y-50959657D02*
X140808914Y-50912038D01*
X140808914Y-50912038D02*
X140904152Y-50864419D01*
X140904152Y-50864419D02*
X141142247Y-50864419D01*
X141142247Y-50864419D02*
X141285104Y-50912038D01*
X141713676Y-51864419D02*
X141713676Y-50864419D01*
X141713676Y-50864419D02*
X141951771Y-50864419D01*
X141951771Y-50864419D02*
X142094628Y-50912038D01*
X142094628Y-50912038D02*
X142189866Y-51007276D01*
X142189866Y-51007276D02*
X142237485Y-51102514D01*
X142237485Y-51102514D02*
X142285104Y-51292990D01*
X142285104Y-51292990D02*
X142285104Y-51435847D01*
X142285104Y-51435847D02*
X142237485Y-51626323D01*
X142237485Y-51626323D02*
X142189866Y-51721561D01*
X142189866Y-51721561D02*
X142094628Y-51816800D01*
X142094628Y-51816800D02*
X141951771Y-51864419D01*
X141951771Y-51864419D02*
X141713676Y-51864419D01*
X143427961Y-50816800D02*
X142570819Y-52102514D01*
X144094628Y-51340609D02*
X143761295Y-51340609D01*
X143761295Y-51864419D02*
X143761295Y-50864419D01*
X143761295Y-50864419D02*
X144237485Y-50864419D01*
X144475581Y-50864419D02*
X145047009Y-50864419D01*
X144761295Y-51864419D02*
X144761295Y-50864419D01*
X145380343Y-51864419D02*
X145380343Y-50864419D01*
X145380343Y-50864419D02*
X145618438Y-50864419D01*
X145618438Y-50864419D02*
X145761295Y-50912038D01*
X145761295Y-50912038D02*
X145856533Y-51007276D01*
X145856533Y-51007276D02*
X145904152Y-51102514D01*
X145904152Y-51102514D02*
X145951771Y-51292990D01*
X145951771Y-51292990D02*
X145951771Y-51435847D01*
X145951771Y-51435847D02*
X145904152Y-51626323D01*
X145904152Y-51626323D02*
X145856533Y-51721561D01*
X145856533Y-51721561D02*
X145761295Y-51816800D01*
X145761295Y-51816800D02*
X145618438Y-51864419D01*
X145618438Y-51864419D02*
X145380343Y-51864419D01*
X146380343Y-51864419D02*
X146380343Y-50864419D01*
X147523200Y-50864419D02*
X148142247Y-50864419D01*
X148142247Y-50864419D02*
X147808914Y-51245371D01*
X147808914Y-51245371D02*
X147951771Y-51245371D01*
X147951771Y-51245371D02*
X148047009Y-51292990D01*
X148047009Y-51292990D02*
X148094628Y-51340609D01*
X148094628Y-51340609D02*
X148142247Y-51435847D01*
X148142247Y-51435847D02*
X148142247Y-51673942D01*
X148142247Y-51673942D02*
X148094628Y-51769180D01*
X148094628Y-51769180D02*
X148047009Y-51816800D01*
X148047009Y-51816800D02*
X147951771Y-51864419D01*
X147951771Y-51864419D02*
X147666057Y-51864419D01*
X147666057Y-51864419D02*
X147570819Y-51816800D01*
X147570819Y-51816800D02*
X147523200Y-51769180D01*
X148570819Y-51769180D02*
X148618438Y-51816800D01*
X148618438Y-51816800D02*
X148570819Y-51864419D01*
X148570819Y-51864419D02*
X148523200Y-51816800D01*
X148523200Y-51816800D02*
X148570819Y-51769180D01*
X148570819Y-51769180D02*
X148570819Y-51864419D01*
X148951771Y-50864419D02*
X149570818Y-50864419D01*
X149570818Y-50864419D02*
X149237485Y-51245371D01*
X149237485Y-51245371D02*
X149380342Y-51245371D01*
X149380342Y-51245371D02*
X149475580Y-51292990D01*
X149475580Y-51292990D02*
X149523199Y-51340609D01*
X149523199Y-51340609D02*
X149570818Y-51435847D01*
X149570818Y-51435847D02*
X149570818Y-51673942D01*
X149570818Y-51673942D02*
X149523199Y-51769180D01*
X149523199Y-51769180D02*
X149475580Y-51816800D01*
X149475580Y-51816800D02*
X149380342Y-51864419D01*
X149380342Y-51864419D02*
X149094628Y-51864419D01*
X149094628Y-51864419D02*
X148999390Y-51816800D01*
X148999390Y-51816800D02*
X148951771Y-51769180D01*
X150904152Y-51864419D02*
X150808914Y-51816800D01*
X150808914Y-51816800D02*
X150761295Y-51769180D01*
X150761295Y-51769180D02*
X150713676Y-51673942D01*
X150713676Y-51673942D02*
X150713676Y-51388228D01*
X150713676Y-51388228D02*
X150761295Y-51292990D01*
X150761295Y-51292990D02*
X150808914Y-51245371D01*
X150808914Y-51245371D02*
X150904152Y-51197752D01*
X150904152Y-51197752D02*
X151047009Y-51197752D01*
X151047009Y-51197752D02*
X151142247Y-51245371D01*
X151142247Y-51245371D02*
X151189866Y-51292990D01*
X151189866Y-51292990D02*
X151237485Y-51388228D01*
X151237485Y-51388228D02*
X151237485Y-51673942D01*
X151237485Y-51673942D02*
X151189866Y-51769180D01*
X151189866Y-51769180D02*
X151142247Y-51816800D01*
X151142247Y-51816800D02*
X151047009Y-51864419D01*
X151047009Y-51864419D02*
X150904152Y-51864419D01*
X151666057Y-51864419D02*
X151666057Y-51197752D01*
X151666057Y-51388228D02*
X151713676Y-51292990D01*
X151713676Y-51292990D02*
X151761295Y-51245371D01*
X151761295Y-51245371D02*
X151856533Y-51197752D01*
X151856533Y-51197752D02*
X151951771Y-51197752D01*
X153523200Y-50864419D02*
X153047010Y-50864419D01*
X153047010Y-50864419D02*
X152999391Y-51340609D01*
X152999391Y-51340609D02*
X153047010Y-51292990D01*
X153047010Y-51292990D02*
X153142248Y-51245371D01*
X153142248Y-51245371D02*
X153380343Y-51245371D01*
X153380343Y-51245371D02*
X153475581Y-51292990D01*
X153475581Y-51292990D02*
X153523200Y-51340609D01*
X153523200Y-51340609D02*
X153570819Y-51435847D01*
X153570819Y-51435847D02*
X153570819Y-51673942D01*
X153570819Y-51673942D02*
X153523200Y-51769180D01*
X153523200Y-51769180D02*
X153475581Y-51816800D01*
X153475581Y-51816800D02*
X153380343Y-51864419D01*
X153380343Y-51864419D02*
X153142248Y-51864419D01*
X153142248Y-51864419D02*
X153047010Y-51816800D01*
X153047010Y-51816800D02*
X152999391Y-51769180D01*
X153904153Y-51197752D02*
X154142248Y-51864419D01*
X154142248Y-51864419D02*
X154380343Y-51197752D01*
X96462380Y-60332857D02*
X96510000Y-60380476D01*
X96510000Y-60380476D02*
X96557619Y-60523333D01*
X96557619Y-60523333D02*
X96557619Y-60618571D01*
X96557619Y-60618571D02*
X96510000Y-60761428D01*
X96510000Y-60761428D02*
X96414761Y-60856666D01*
X96414761Y-60856666D02*
X96319523Y-60904285D01*
X96319523Y-60904285D02*
X96129047Y-60951904D01*
X96129047Y-60951904D02*
X95986190Y-60951904D01*
X95986190Y-60951904D02*
X95795714Y-60904285D01*
X95795714Y-60904285D02*
X95700476Y-60856666D01*
X95700476Y-60856666D02*
X95605238Y-60761428D01*
X95605238Y-60761428D02*
X95557619Y-60618571D01*
X95557619Y-60618571D02*
X95557619Y-60523333D01*
X95557619Y-60523333D02*
X95605238Y-60380476D01*
X95605238Y-60380476D02*
X95652857Y-60332857D01*
X96557619Y-59380476D02*
X96557619Y-59951904D01*
X96557619Y-59666190D02*
X95557619Y-59666190D01*
X95557619Y-59666190D02*
X95700476Y-59761428D01*
X95700476Y-59761428D02*
X95795714Y-59856666D01*
X95795714Y-59856666D02*
X95843333Y-59951904D01*
X95652857Y-58999523D02*
X95605238Y-58951904D01*
X95605238Y-58951904D02*
X95557619Y-58856666D01*
X95557619Y-58856666D02*
X95557619Y-58618571D01*
X95557619Y-58618571D02*
X95605238Y-58523333D01*
X95605238Y-58523333D02*
X95652857Y-58475714D01*
X95652857Y-58475714D02*
X95748095Y-58428095D01*
X95748095Y-58428095D02*
X95843333Y-58428095D01*
X95843333Y-58428095D02*
X95986190Y-58475714D01*
X95986190Y-58475714D02*
X96557619Y-59047142D01*
X96557619Y-59047142D02*
X96557619Y-58428095D01*
X84226495Y-52954019D02*
X84226495Y-53763542D01*
X84226495Y-53763542D02*
X84274114Y-53858780D01*
X84274114Y-53858780D02*
X84321733Y-53906400D01*
X84321733Y-53906400D02*
X84416971Y-53954019D01*
X84416971Y-53954019D02*
X84607447Y-53954019D01*
X84607447Y-53954019D02*
X84702685Y-53906400D01*
X84702685Y-53906400D02*
X84750304Y-53858780D01*
X84750304Y-53858780D02*
X84797923Y-53763542D01*
X84797923Y-53763542D02*
X84797923Y-52954019D01*
X85797923Y-53954019D02*
X85226495Y-53954019D01*
X85512209Y-53954019D02*
X85512209Y-52954019D01*
X85512209Y-52954019D02*
X85416971Y-53096876D01*
X85416971Y-53096876D02*
X85321733Y-53192114D01*
X85321733Y-53192114D02*
X85226495Y-53239733D01*
X84443219Y-91437885D02*
X85443219Y-91199790D01*
X85443219Y-91199790D02*
X84728933Y-91009314D01*
X84728933Y-91009314D02*
X85443219Y-90818838D01*
X85443219Y-90818838D02*
X84443219Y-90580743D01*
X84443219Y-89771219D02*
X84443219Y-89961695D01*
X84443219Y-89961695D02*
X84490838Y-90056933D01*
X84490838Y-90056933D02*
X84538457Y-90104552D01*
X84538457Y-90104552D02*
X84681314Y-90199790D01*
X84681314Y-90199790D02*
X84871790Y-90247409D01*
X84871790Y-90247409D02*
X85252742Y-90247409D01*
X85252742Y-90247409D02*
X85347980Y-90199790D01*
X85347980Y-90199790D02*
X85395600Y-90152171D01*
X85395600Y-90152171D02*
X85443219Y-90056933D01*
X85443219Y-90056933D02*
X85443219Y-89866457D01*
X85443219Y-89866457D02*
X85395600Y-89771219D01*
X85395600Y-89771219D02*
X85347980Y-89723600D01*
X85347980Y-89723600D02*
X85252742Y-89675981D01*
X85252742Y-89675981D02*
X85014647Y-89675981D01*
X85014647Y-89675981D02*
X84919409Y-89723600D01*
X84919409Y-89723600D02*
X84871790Y-89771219D01*
X84871790Y-89771219D02*
X84824171Y-89866457D01*
X84824171Y-89866457D02*
X84824171Y-90056933D01*
X84824171Y-90056933D02*
X84871790Y-90152171D01*
X84871790Y-90152171D02*
X84919409Y-90199790D01*
X84919409Y-90199790D02*
X85014647Y-90247409D01*
X84443219Y-88771219D02*
X84443219Y-89247409D01*
X84443219Y-89247409D02*
X84919409Y-89295028D01*
X84919409Y-89295028D02*
X84871790Y-89247409D01*
X84871790Y-89247409D02*
X84824171Y-89152171D01*
X84824171Y-89152171D02*
X84824171Y-88914076D01*
X84824171Y-88914076D02*
X84871790Y-88818838D01*
X84871790Y-88818838D02*
X84919409Y-88771219D01*
X84919409Y-88771219D02*
X85014647Y-88723600D01*
X85014647Y-88723600D02*
X85252742Y-88723600D01*
X85252742Y-88723600D02*
X85347980Y-88771219D01*
X85347980Y-88771219D02*
X85395600Y-88818838D01*
X85395600Y-88818838D02*
X85443219Y-88914076D01*
X85443219Y-88914076D02*
X85443219Y-89152171D01*
X85443219Y-89152171D02*
X85395600Y-89247409D01*
X85395600Y-89247409D02*
X85347980Y-89295028D01*
X85347980Y-87723600D02*
X85395600Y-87771219D01*
X85395600Y-87771219D02*
X85443219Y-87914076D01*
X85443219Y-87914076D02*
X85443219Y-88009314D01*
X85443219Y-88009314D02*
X85395600Y-88152171D01*
X85395600Y-88152171D02*
X85300361Y-88247409D01*
X85300361Y-88247409D02*
X85205123Y-88295028D01*
X85205123Y-88295028D02*
X85014647Y-88342647D01*
X85014647Y-88342647D02*
X84871790Y-88342647D01*
X84871790Y-88342647D02*
X84681314Y-88295028D01*
X84681314Y-88295028D02*
X84586076Y-88247409D01*
X84586076Y-88247409D02*
X84490838Y-88152171D01*
X84490838Y-88152171D02*
X84443219Y-88009314D01*
X84443219Y-88009314D02*
X84443219Y-87914076D01*
X84443219Y-87914076D02*
X84490838Y-87771219D01*
X84490838Y-87771219D02*
X84538457Y-87723600D01*
X84443219Y-87104552D02*
X84443219Y-87009314D01*
X84443219Y-87009314D02*
X84490838Y-86914076D01*
X84490838Y-86914076D02*
X84538457Y-86866457D01*
X84538457Y-86866457D02*
X84633695Y-86818838D01*
X84633695Y-86818838D02*
X84824171Y-86771219D01*
X84824171Y-86771219D02*
X85062266Y-86771219D01*
X85062266Y-86771219D02*
X85252742Y-86818838D01*
X85252742Y-86818838D02*
X85347980Y-86866457D01*
X85347980Y-86866457D02*
X85395600Y-86914076D01*
X85395600Y-86914076D02*
X85443219Y-87009314D01*
X85443219Y-87009314D02*
X85443219Y-87104552D01*
X85443219Y-87104552D02*
X85395600Y-87199790D01*
X85395600Y-87199790D02*
X85347980Y-87247409D01*
X85347980Y-87247409D02*
X85252742Y-87295028D01*
X85252742Y-87295028D02*
X85062266Y-87342647D01*
X85062266Y-87342647D02*
X84824171Y-87342647D01*
X84824171Y-87342647D02*
X84633695Y-87295028D01*
X84633695Y-87295028D02*
X84538457Y-87247409D01*
X84538457Y-87247409D02*
X84490838Y-87199790D01*
X84490838Y-87199790D02*
X84443219Y-87104552D01*
X84538457Y-86390266D02*
X84490838Y-86342647D01*
X84490838Y-86342647D02*
X84443219Y-86247409D01*
X84443219Y-86247409D02*
X84443219Y-86009314D01*
X84443219Y-86009314D02*
X84490838Y-85914076D01*
X84490838Y-85914076D02*
X84538457Y-85866457D01*
X84538457Y-85866457D02*
X84633695Y-85818838D01*
X84633695Y-85818838D02*
X84728933Y-85818838D01*
X84728933Y-85818838D02*
X84871790Y-85866457D01*
X84871790Y-85866457D02*
X85443219Y-86437885D01*
X85443219Y-86437885D02*
X85443219Y-85818838D01*
X85395600Y-85437885D02*
X85443219Y-85295028D01*
X85443219Y-85295028D02*
X85443219Y-85056933D01*
X85443219Y-85056933D02*
X85395600Y-84961695D01*
X85395600Y-84961695D02*
X85347980Y-84914076D01*
X85347980Y-84914076D02*
X85252742Y-84866457D01*
X85252742Y-84866457D02*
X85157504Y-84866457D01*
X85157504Y-84866457D02*
X85062266Y-84914076D01*
X85062266Y-84914076D02*
X85014647Y-84961695D01*
X85014647Y-84961695D02*
X84967028Y-85056933D01*
X84967028Y-85056933D02*
X84919409Y-85247409D01*
X84919409Y-85247409D02*
X84871790Y-85342647D01*
X84871790Y-85342647D02*
X84824171Y-85390266D01*
X84824171Y-85390266D02*
X84728933Y-85437885D01*
X84728933Y-85437885D02*
X84633695Y-85437885D01*
X84633695Y-85437885D02*
X84538457Y-85390266D01*
X84538457Y-85390266D02*
X84490838Y-85342647D01*
X84490838Y-85342647D02*
X84443219Y-85247409D01*
X84443219Y-85247409D02*
X84443219Y-85009314D01*
X84443219Y-85009314D02*
X84490838Y-84866457D01*
X85443219Y-84533123D02*
X84776552Y-84009314D01*
X84776552Y-84533123D02*
X85443219Y-84009314D01*
X85443219Y-83628361D02*
X84443219Y-83628361D01*
X84443219Y-83628361D02*
X84443219Y-83247409D01*
X84443219Y-83247409D02*
X84490838Y-83152171D01*
X84490838Y-83152171D02*
X84538457Y-83104552D01*
X84538457Y-83104552D02*
X84633695Y-83056933D01*
X84633695Y-83056933D02*
X84776552Y-83056933D01*
X84776552Y-83056933D02*
X84871790Y-83104552D01*
X84871790Y-83104552D02*
X84919409Y-83152171D01*
X84919409Y-83152171D02*
X84967028Y-83247409D01*
X84967028Y-83247409D02*
X84967028Y-83628361D01*
X45557219Y-115395333D02*
X46271504Y-115395333D01*
X46271504Y-115395333D02*
X46414361Y-115442952D01*
X46414361Y-115442952D02*
X46509600Y-115538190D01*
X46509600Y-115538190D02*
X46557219Y-115681047D01*
X46557219Y-115681047D02*
X46557219Y-115776285D01*
X45557219Y-115014380D02*
X45557219Y-114395333D01*
X45557219Y-114395333D02*
X45938171Y-114728666D01*
X45938171Y-114728666D02*
X45938171Y-114585809D01*
X45938171Y-114585809D02*
X45985790Y-114490571D01*
X45985790Y-114490571D02*
X46033409Y-114442952D01*
X46033409Y-114442952D02*
X46128647Y-114395333D01*
X46128647Y-114395333D02*
X46366742Y-114395333D01*
X46366742Y-114395333D02*
X46461980Y-114442952D01*
X46461980Y-114442952D02*
X46509600Y-114490571D01*
X46509600Y-114490571D02*
X46557219Y-114585809D01*
X46557219Y-114585809D02*
X46557219Y-114871523D01*
X46557219Y-114871523D02*
X46509600Y-114966761D01*
X46509600Y-114966761D02*
X46461980Y-115014380D01*
X24530323Y-113129219D02*
X24530323Y-112129219D01*
X24530323Y-112129219D02*
X24911275Y-112129219D01*
X24911275Y-112129219D02*
X25006513Y-112176838D01*
X25006513Y-112176838D02*
X25054132Y-112224457D01*
X25054132Y-112224457D02*
X25101751Y-112319695D01*
X25101751Y-112319695D02*
X25101751Y-112462552D01*
X25101751Y-112462552D02*
X25054132Y-112557790D01*
X25054132Y-112557790D02*
X25006513Y-112605409D01*
X25006513Y-112605409D02*
X24911275Y-112653028D01*
X24911275Y-112653028D02*
X24530323Y-112653028D01*
X25673180Y-113129219D02*
X25577942Y-113081600D01*
X25577942Y-113081600D02*
X25530323Y-113033980D01*
X25530323Y-113033980D02*
X25482704Y-112938742D01*
X25482704Y-112938742D02*
X25482704Y-112653028D01*
X25482704Y-112653028D02*
X25530323Y-112557790D01*
X25530323Y-112557790D02*
X25577942Y-112510171D01*
X25577942Y-112510171D02*
X25673180Y-112462552D01*
X25673180Y-112462552D02*
X25816037Y-112462552D01*
X25816037Y-112462552D02*
X25911275Y-112510171D01*
X25911275Y-112510171D02*
X25958894Y-112557790D01*
X25958894Y-112557790D02*
X26006513Y-112653028D01*
X26006513Y-112653028D02*
X26006513Y-112938742D01*
X26006513Y-112938742D02*
X25958894Y-113033980D01*
X25958894Y-113033980D02*
X25911275Y-113081600D01*
X25911275Y-113081600D02*
X25816037Y-113129219D01*
X25816037Y-113129219D02*
X25673180Y-113129219D01*
X26435085Y-113129219D02*
X26435085Y-112462552D01*
X26435085Y-112653028D02*
X26482704Y-112557790D01*
X26482704Y-112557790D02*
X26530323Y-112510171D01*
X26530323Y-112510171D02*
X26625561Y-112462552D01*
X26625561Y-112462552D02*
X26720799Y-112462552D01*
X26911276Y-112462552D02*
X27292228Y-112462552D01*
X27054133Y-112129219D02*
X27054133Y-112986361D01*
X27054133Y-112986361D02*
X27101752Y-113081600D01*
X27101752Y-113081600D02*
X27196990Y-113129219D01*
X27196990Y-113129219D02*
X27292228Y-113129219D01*
X28720800Y-112605409D02*
X28863657Y-112653028D01*
X28863657Y-112653028D02*
X28911276Y-112700647D01*
X28911276Y-112700647D02*
X28958895Y-112795885D01*
X28958895Y-112795885D02*
X28958895Y-112938742D01*
X28958895Y-112938742D02*
X28911276Y-113033980D01*
X28911276Y-113033980D02*
X28863657Y-113081600D01*
X28863657Y-113081600D02*
X28768419Y-113129219D01*
X28768419Y-113129219D02*
X28387467Y-113129219D01*
X28387467Y-113129219D02*
X28387467Y-112129219D01*
X28387467Y-112129219D02*
X28720800Y-112129219D01*
X28720800Y-112129219D02*
X28816038Y-112176838D01*
X28816038Y-112176838D02*
X28863657Y-112224457D01*
X28863657Y-112224457D02*
X28911276Y-112319695D01*
X28911276Y-112319695D02*
X28911276Y-112414933D01*
X28911276Y-112414933D02*
X28863657Y-112510171D01*
X28863657Y-112510171D02*
X28816038Y-112557790D01*
X28816038Y-112557790D02*
X28720800Y-112605409D01*
X28720800Y-112605409D02*
X28387467Y-112605409D01*
X62049500Y-42331528D02*
X62097119Y-42188671D01*
X62097119Y-42188671D02*
X62097119Y-41950576D01*
X62097119Y-41950576D02*
X62049500Y-41855338D01*
X62049500Y-41855338D02*
X62001880Y-41807719D01*
X62001880Y-41807719D02*
X61906642Y-41760100D01*
X61906642Y-41760100D02*
X61811404Y-41760100D01*
X61811404Y-41760100D02*
X61716166Y-41807719D01*
X61716166Y-41807719D02*
X61668547Y-41855338D01*
X61668547Y-41855338D02*
X61620928Y-41950576D01*
X61620928Y-41950576D02*
X61573309Y-42141052D01*
X61573309Y-42141052D02*
X61525690Y-42236290D01*
X61525690Y-42236290D02*
X61478071Y-42283909D01*
X61478071Y-42283909D02*
X61382833Y-42331528D01*
X61382833Y-42331528D02*
X61287595Y-42331528D01*
X61287595Y-42331528D02*
X61192357Y-42283909D01*
X61192357Y-42283909D02*
X61144738Y-42236290D01*
X61144738Y-42236290D02*
X61097119Y-42141052D01*
X61097119Y-42141052D02*
X61097119Y-41902957D01*
X61097119Y-41902957D02*
X61144738Y-41760100D01*
X61097119Y-41426766D02*
X62097119Y-41188671D01*
X62097119Y-41188671D02*
X61382833Y-40998195D01*
X61382833Y-40998195D02*
X62097119Y-40807719D01*
X62097119Y-40807719D02*
X61097119Y-40569624D01*
X62192357Y-40426767D02*
X62192357Y-39664862D01*
X62049500Y-39474385D02*
X62097119Y-39331528D01*
X62097119Y-39331528D02*
X62097119Y-39093433D01*
X62097119Y-39093433D02*
X62049500Y-38998195D01*
X62049500Y-38998195D02*
X62001880Y-38950576D01*
X62001880Y-38950576D02*
X61906642Y-38902957D01*
X61906642Y-38902957D02*
X61811404Y-38902957D01*
X61811404Y-38902957D02*
X61716166Y-38950576D01*
X61716166Y-38950576D02*
X61668547Y-38998195D01*
X61668547Y-38998195D02*
X61620928Y-39093433D01*
X61620928Y-39093433D02*
X61573309Y-39283909D01*
X61573309Y-39283909D02*
X61525690Y-39379147D01*
X61525690Y-39379147D02*
X61478071Y-39426766D01*
X61478071Y-39426766D02*
X61382833Y-39474385D01*
X61382833Y-39474385D02*
X61287595Y-39474385D01*
X61287595Y-39474385D02*
X61192357Y-39426766D01*
X61192357Y-39426766D02*
X61144738Y-39379147D01*
X61144738Y-39379147D02*
X61097119Y-39283909D01*
X61097119Y-39283909D02*
X61097119Y-39045814D01*
X61097119Y-39045814D02*
X61144738Y-38902957D01*
X62097119Y-38474385D02*
X61097119Y-38474385D01*
X61097119Y-38474385D02*
X61097119Y-38093433D01*
X61097119Y-38093433D02*
X61144738Y-37998195D01*
X61144738Y-37998195D02*
X61192357Y-37950576D01*
X61192357Y-37950576D02*
X61287595Y-37902957D01*
X61287595Y-37902957D02*
X61430452Y-37902957D01*
X61430452Y-37902957D02*
X61525690Y-37950576D01*
X61525690Y-37950576D02*
X61573309Y-37998195D01*
X61573309Y-37998195D02*
X61620928Y-38093433D01*
X61620928Y-38093433D02*
X61620928Y-38474385D01*
X62049500Y-37522004D02*
X62097119Y-37379147D01*
X62097119Y-37379147D02*
X62097119Y-37141052D01*
X62097119Y-37141052D02*
X62049500Y-37045814D01*
X62049500Y-37045814D02*
X62001880Y-36998195D01*
X62001880Y-36998195D02*
X61906642Y-36950576D01*
X61906642Y-36950576D02*
X61811404Y-36950576D01*
X61811404Y-36950576D02*
X61716166Y-36998195D01*
X61716166Y-36998195D02*
X61668547Y-37045814D01*
X61668547Y-37045814D02*
X61620928Y-37141052D01*
X61620928Y-37141052D02*
X61573309Y-37331528D01*
X61573309Y-37331528D02*
X61525690Y-37426766D01*
X61525690Y-37426766D02*
X61478071Y-37474385D01*
X61478071Y-37474385D02*
X61382833Y-37522004D01*
X61382833Y-37522004D02*
X61287595Y-37522004D01*
X61287595Y-37522004D02*
X61192357Y-37474385D01*
X61192357Y-37474385D02*
X61144738Y-37426766D01*
X61144738Y-37426766D02*
X61097119Y-37331528D01*
X61097119Y-37331528D02*
X61097119Y-37093433D01*
X61097119Y-37093433D02*
X61144738Y-36950576D01*
X61097119Y-36664861D02*
X61097119Y-36093433D01*
X62097119Y-36379147D02*
X61097119Y-36379147D01*
X53254761Y-112263219D02*
X52921428Y-111787028D01*
X52683333Y-112263219D02*
X52683333Y-111263219D01*
X52683333Y-111263219D02*
X53064285Y-111263219D01*
X53064285Y-111263219D02*
X53159523Y-111310838D01*
X53159523Y-111310838D02*
X53207142Y-111358457D01*
X53207142Y-111358457D02*
X53254761Y-111453695D01*
X53254761Y-111453695D02*
X53254761Y-111596552D01*
X53254761Y-111596552D02*
X53207142Y-111691790D01*
X53207142Y-111691790D02*
X53159523Y-111739409D01*
X53159523Y-111739409D02*
X53064285Y-111787028D01*
X53064285Y-111787028D02*
X52683333Y-111787028D01*
X53540476Y-111263219D02*
X53873809Y-112263219D01*
X53873809Y-112263219D02*
X54207142Y-111263219D01*
X55064285Y-112263219D02*
X54492857Y-112263219D01*
X54778571Y-112263219D02*
X54778571Y-111263219D01*
X54778571Y-111263219D02*
X54683333Y-111406076D01*
X54683333Y-111406076D02*
X54588095Y-111501314D01*
X54588095Y-111501314D02*
X54492857Y-111548933D01*
X144780096Y-41656919D02*
X144780096Y-42466442D01*
X144780096Y-42466442D02*
X144827715Y-42561680D01*
X144827715Y-42561680D02*
X144875334Y-42609300D01*
X144875334Y-42609300D02*
X144970572Y-42656919D01*
X144970572Y-42656919D02*
X145161048Y-42656919D01*
X145161048Y-42656919D02*
X145256286Y-42609300D01*
X145256286Y-42609300D02*
X145303905Y-42561680D01*
X145303905Y-42561680D02*
X145351524Y-42466442D01*
X145351524Y-42466442D02*
X145351524Y-41656919D01*
X145875334Y-42656919D02*
X146065810Y-42656919D01*
X146065810Y-42656919D02*
X146161048Y-42609300D01*
X146161048Y-42609300D02*
X146208667Y-42561680D01*
X146208667Y-42561680D02*
X146303905Y-42418823D01*
X146303905Y-42418823D02*
X146351524Y-42228347D01*
X146351524Y-42228347D02*
X146351524Y-41847395D01*
X146351524Y-41847395D02*
X146303905Y-41752157D01*
X146303905Y-41752157D02*
X146256286Y-41704538D01*
X146256286Y-41704538D02*
X146161048Y-41656919D01*
X146161048Y-41656919D02*
X145970572Y-41656919D01*
X145970572Y-41656919D02*
X145875334Y-41704538D01*
X145875334Y-41704538D02*
X145827715Y-41752157D01*
X145827715Y-41752157D02*
X145780096Y-41847395D01*
X145780096Y-41847395D02*
X145780096Y-42085490D01*
X145780096Y-42085490D02*
X145827715Y-42180728D01*
X145827715Y-42180728D02*
X145875334Y-42228347D01*
X145875334Y-42228347D02*
X145970572Y-42275966D01*
X145970572Y-42275966D02*
X146161048Y-42275966D01*
X146161048Y-42275966D02*
X146256286Y-42228347D01*
X146256286Y-42228347D02*
X146303905Y-42180728D01*
X146303905Y-42180728D02*
X146351524Y-42085490D01*
X59588495Y-53055619D02*
X59588495Y-53865142D01*
X59588495Y-53865142D02*
X59636114Y-53960380D01*
X59636114Y-53960380D02*
X59683733Y-54008000D01*
X59683733Y-54008000D02*
X59778971Y-54055619D01*
X59778971Y-54055619D02*
X59969447Y-54055619D01*
X59969447Y-54055619D02*
X60064685Y-54008000D01*
X60064685Y-54008000D02*
X60112304Y-53960380D01*
X60112304Y-53960380D02*
X60159923Y-53865142D01*
X60159923Y-53865142D02*
X60159923Y-53055619D01*
X60540876Y-53055619D02*
X61207542Y-53055619D01*
X61207542Y-53055619D02*
X60778971Y-54055619D01*
X59805219Y-91333104D02*
X60805219Y-91095009D01*
X60805219Y-91095009D02*
X60090933Y-90904533D01*
X60090933Y-90904533D02*
X60805219Y-90714057D01*
X60805219Y-90714057D02*
X59805219Y-90475962D01*
X59805219Y-89666438D02*
X59805219Y-89856914D01*
X59805219Y-89856914D02*
X59852838Y-89952152D01*
X59852838Y-89952152D02*
X59900457Y-89999771D01*
X59900457Y-89999771D02*
X60043314Y-90095009D01*
X60043314Y-90095009D02*
X60233790Y-90142628D01*
X60233790Y-90142628D02*
X60614742Y-90142628D01*
X60614742Y-90142628D02*
X60709980Y-90095009D01*
X60709980Y-90095009D02*
X60757600Y-90047390D01*
X60757600Y-90047390D02*
X60805219Y-89952152D01*
X60805219Y-89952152D02*
X60805219Y-89761676D01*
X60805219Y-89761676D02*
X60757600Y-89666438D01*
X60757600Y-89666438D02*
X60709980Y-89618819D01*
X60709980Y-89618819D02*
X60614742Y-89571200D01*
X60614742Y-89571200D02*
X60376647Y-89571200D01*
X60376647Y-89571200D02*
X60281409Y-89618819D01*
X60281409Y-89618819D02*
X60233790Y-89666438D01*
X60233790Y-89666438D02*
X60186171Y-89761676D01*
X60186171Y-89761676D02*
X60186171Y-89952152D01*
X60186171Y-89952152D02*
X60233790Y-90047390D01*
X60233790Y-90047390D02*
X60281409Y-90095009D01*
X60281409Y-90095009D02*
X60376647Y-90142628D01*
X59805219Y-88666438D02*
X59805219Y-89142628D01*
X59805219Y-89142628D02*
X60281409Y-89190247D01*
X60281409Y-89190247D02*
X60233790Y-89142628D01*
X60233790Y-89142628D02*
X60186171Y-89047390D01*
X60186171Y-89047390D02*
X60186171Y-88809295D01*
X60186171Y-88809295D02*
X60233790Y-88714057D01*
X60233790Y-88714057D02*
X60281409Y-88666438D01*
X60281409Y-88666438D02*
X60376647Y-88618819D01*
X60376647Y-88618819D02*
X60614742Y-88618819D01*
X60614742Y-88618819D02*
X60709980Y-88666438D01*
X60709980Y-88666438D02*
X60757600Y-88714057D01*
X60757600Y-88714057D02*
X60805219Y-88809295D01*
X60805219Y-88809295D02*
X60805219Y-89047390D01*
X60805219Y-89047390D02*
X60757600Y-89142628D01*
X60757600Y-89142628D02*
X60709980Y-89190247D01*
X60709980Y-87618819D02*
X60757600Y-87666438D01*
X60757600Y-87666438D02*
X60805219Y-87809295D01*
X60805219Y-87809295D02*
X60805219Y-87904533D01*
X60805219Y-87904533D02*
X60757600Y-88047390D01*
X60757600Y-88047390D02*
X60662361Y-88142628D01*
X60662361Y-88142628D02*
X60567123Y-88190247D01*
X60567123Y-88190247D02*
X60376647Y-88237866D01*
X60376647Y-88237866D02*
X60233790Y-88237866D01*
X60233790Y-88237866D02*
X60043314Y-88190247D01*
X60043314Y-88190247D02*
X59948076Y-88142628D01*
X59948076Y-88142628D02*
X59852838Y-88047390D01*
X59852838Y-88047390D02*
X59805219Y-87904533D01*
X59805219Y-87904533D02*
X59805219Y-87809295D01*
X59805219Y-87809295D02*
X59852838Y-87666438D01*
X59852838Y-87666438D02*
X59900457Y-87618819D01*
X59900457Y-87237866D02*
X59852838Y-87190247D01*
X59852838Y-87190247D02*
X59805219Y-87095009D01*
X59805219Y-87095009D02*
X59805219Y-86856914D01*
X59805219Y-86856914D02*
X59852838Y-86761676D01*
X59852838Y-86761676D02*
X59900457Y-86714057D01*
X59900457Y-86714057D02*
X59995695Y-86666438D01*
X59995695Y-86666438D02*
X60090933Y-86666438D01*
X60090933Y-86666438D02*
X60233790Y-86714057D01*
X60233790Y-86714057D02*
X60805219Y-87285485D01*
X60805219Y-87285485D02*
X60805219Y-86666438D01*
X59900457Y-86285485D02*
X59852838Y-86237866D01*
X59852838Y-86237866D02*
X59805219Y-86142628D01*
X59805219Y-86142628D02*
X59805219Y-85904533D01*
X59805219Y-85904533D02*
X59852838Y-85809295D01*
X59852838Y-85809295D02*
X59900457Y-85761676D01*
X59900457Y-85761676D02*
X59995695Y-85714057D01*
X59995695Y-85714057D02*
X60090933Y-85714057D01*
X60090933Y-85714057D02*
X60233790Y-85761676D01*
X60233790Y-85761676D02*
X60805219Y-86333104D01*
X60805219Y-86333104D02*
X60805219Y-85714057D01*
X60805219Y-85285485D02*
X59805219Y-85285485D01*
X59805219Y-85285485D02*
X60805219Y-84714057D01*
X60805219Y-84714057D02*
X59805219Y-84714057D01*
X60805219Y-84333104D02*
X60138552Y-83809295D01*
X60138552Y-84333104D02*
X60805219Y-83809295D01*
X60805219Y-83428342D02*
X59805219Y-83428342D01*
X59805219Y-83428342D02*
X59805219Y-83047390D01*
X59805219Y-83047390D02*
X59852838Y-82952152D01*
X59852838Y-82952152D02*
X59900457Y-82904533D01*
X59900457Y-82904533D02*
X59995695Y-82856914D01*
X59995695Y-82856914D02*
X60138552Y-82856914D01*
X60138552Y-82856914D02*
X60233790Y-82904533D01*
X60233790Y-82904533D02*
X60281409Y-82952152D01*
X60281409Y-82952152D02*
X60329028Y-83047390D01*
X60329028Y-83047390D02*
X60329028Y-83428342D01*
X84364533Y-106469980D02*
X84316914Y-106517600D01*
X84316914Y-106517600D02*
X84174057Y-106565219D01*
X84174057Y-106565219D02*
X84078819Y-106565219D01*
X84078819Y-106565219D02*
X83935962Y-106517600D01*
X83935962Y-106517600D02*
X83840724Y-106422361D01*
X83840724Y-106422361D02*
X83793105Y-106327123D01*
X83793105Y-106327123D02*
X83745486Y-106136647D01*
X83745486Y-106136647D02*
X83745486Y-105993790D01*
X83745486Y-105993790D02*
X83793105Y-105803314D01*
X83793105Y-105803314D02*
X83840724Y-105708076D01*
X83840724Y-105708076D02*
X83935962Y-105612838D01*
X83935962Y-105612838D02*
X84078819Y-105565219D01*
X84078819Y-105565219D02*
X84174057Y-105565219D01*
X84174057Y-105565219D02*
X84316914Y-105612838D01*
X84316914Y-105612838D02*
X84364533Y-105660457D01*
X84840724Y-106565219D02*
X85031200Y-106565219D01*
X85031200Y-106565219D02*
X85126438Y-106517600D01*
X85126438Y-106517600D02*
X85174057Y-106469980D01*
X85174057Y-106469980D02*
X85269295Y-106327123D01*
X85269295Y-106327123D02*
X85316914Y-106136647D01*
X85316914Y-106136647D02*
X85316914Y-105755695D01*
X85316914Y-105755695D02*
X85269295Y-105660457D01*
X85269295Y-105660457D02*
X85221676Y-105612838D01*
X85221676Y-105612838D02*
X85126438Y-105565219D01*
X85126438Y-105565219D02*
X84935962Y-105565219D01*
X84935962Y-105565219D02*
X84840724Y-105612838D01*
X84840724Y-105612838D02*
X84793105Y-105660457D01*
X84793105Y-105660457D02*
X84745486Y-105755695D01*
X84745486Y-105755695D02*
X84745486Y-105993790D01*
X84745486Y-105993790D02*
X84793105Y-106089028D01*
X84793105Y-106089028D02*
X84840724Y-106136647D01*
X84840724Y-106136647D02*
X84935962Y-106184266D01*
X84935962Y-106184266D02*
X85126438Y-106184266D01*
X85126438Y-106184266D02*
X85221676Y-106136647D01*
X85221676Y-106136647D02*
X85269295Y-106089028D01*
X85269295Y-106089028D02*
X85316914Y-105993790D01*
X28168933Y-61059219D02*
X28168933Y-60059219D01*
X28168933Y-60059219D02*
X28502266Y-60773504D01*
X28502266Y-60773504D02*
X28835599Y-60059219D01*
X28835599Y-60059219D02*
X28835599Y-61059219D01*
X29264171Y-60773504D02*
X29740361Y-60773504D01*
X29168933Y-61059219D02*
X29502266Y-60059219D01*
X29502266Y-60059219D02*
X29835599Y-61059219D01*
X30073695Y-60059219D02*
X30740361Y-61059219D01*
X30740361Y-60059219D02*
X30073695Y-61059219D01*
X31073695Y-60154457D02*
X31121314Y-60106838D01*
X31121314Y-60106838D02*
X31216552Y-60059219D01*
X31216552Y-60059219D02*
X31454647Y-60059219D01*
X31454647Y-60059219D02*
X31549885Y-60106838D01*
X31549885Y-60106838D02*
X31597504Y-60154457D01*
X31597504Y-60154457D02*
X31645123Y-60249695D01*
X31645123Y-60249695D02*
X31645123Y-60344933D01*
X31645123Y-60344933D02*
X31597504Y-60487790D01*
X31597504Y-60487790D02*
X31026076Y-61059219D01*
X31026076Y-61059219D02*
X31645123Y-61059219D01*
X31978457Y-60059219D02*
X32597504Y-60059219D01*
X32597504Y-60059219D02*
X32264171Y-60440171D01*
X32264171Y-60440171D02*
X32407028Y-60440171D01*
X32407028Y-60440171D02*
X32502266Y-60487790D01*
X32502266Y-60487790D02*
X32549885Y-60535409D01*
X32549885Y-60535409D02*
X32597504Y-60630647D01*
X32597504Y-60630647D02*
X32597504Y-60868742D01*
X32597504Y-60868742D02*
X32549885Y-60963980D01*
X32549885Y-60963980D02*
X32502266Y-61011600D01*
X32502266Y-61011600D02*
X32407028Y-61059219D01*
X32407028Y-61059219D02*
X32121314Y-61059219D01*
X32121314Y-61059219D02*
X32026076Y-61011600D01*
X32026076Y-61011600D02*
X31978457Y-60963980D01*
X32978457Y-60154457D02*
X33026076Y-60106838D01*
X33026076Y-60106838D02*
X33121314Y-60059219D01*
X33121314Y-60059219D02*
X33359409Y-60059219D01*
X33359409Y-60059219D02*
X33454647Y-60106838D01*
X33454647Y-60106838D02*
X33502266Y-60154457D01*
X33502266Y-60154457D02*
X33549885Y-60249695D01*
X33549885Y-60249695D02*
X33549885Y-60344933D01*
X33549885Y-60344933D02*
X33502266Y-60487790D01*
X33502266Y-60487790D02*
X32930838Y-61059219D01*
X32930838Y-61059219D02*
X33549885Y-61059219D01*
X135534495Y-53774819D02*
X135534495Y-54584342D01*
X135534495Y-54584342D02*
X135582114Y-54679580D01*
X135582114Y-54679580D02*
X135629733Y-54727200D01*
X135629733Y-54727200D02*
X135724971Y-54774819D01*
X135724971Y-54774819D02*
X135915447Y-54774819D01*
X135915447Y-54774819D02*
X136010685Y-54727200D01*
X136010685Y-54727200D02*
X136058304Y-54679580D01*
X136058304Y-54679580D02*
X136105923Y-54584342D01*
X136105923Y-54584342D02*
X136105923Y-53774819D01*
X136724971Y-54203390D02*
X136629733Y-54155771D01*
X136629733Y-54155771D02*
X136582114Y-54108152D01*
X136582114Y-54108152D02*
X136534495Y-54012914D01*
X136534495Y-54012914D02*
X136534495Y-53965295D01*
X136534495Y-53965295D02*
X136582114Y-53870057D01*
X136582114Y-53870057D02*
X136629733Y-53822438D01*
X136629733Y-53822438D02*
X136724971Y-53774819D01*
X136724971Y-53774819D02*
X136915447Y-53774819D01*
X136915447Y-53774819D02*
X137010685Y-53822438D01*
X137010685Y-53822438D02*
X137058304Y-53870057D01*
X137058304Y-53870057D02*
X137105923Y-53965295D01*
X137105923Y-53965295D02*
X137105923Y-54012914D01*
X137105923Y-54012914D02*
X137058304Y-54108152D01*
X137058304Y-54108152D02*
X137010685Y-54155771D01*
X137010685Y-54155771D02*
X136915447Y-54203390D01*
X136915447Y-54203390D02*
X136724971Y-54203390D01*
X136724971Y-54203390D02*
X136629733Y-54251009D01*
X136629733Y-54251009D02*
X136582114Y-54298628D01*
X136582114Y-54298628D02*
X136534495Y-54393866D01*
X136534495Y-54393866D02*
X136534495Y-54584342D01*
X136534495Y-54584342D02*
X136582114Y-54679580D01*
X136582114Y-54679580D02*
X136629733Y-54727200D01*
X136629733Y-54727200D02*
X136724971Y-54774819D01*
X136724971Y-54774819D02*
X136915447Y-54774819D01*
X136915447Y-54774819D02*
X137010685Y-54727200D01*
X137010685Y-54727200D02*
X137058304Y-54679580D01*
X137058304Y-54679580D02*
X137105923Y-54584342D01*
X137105923Y-54584342D02*
X137105923Y-54393866D01*
X137105923Y-54393866D02*
X137058304Y-54298628D01*
X137058304Y-54298628D02*
X137010685Y-54251009D01*
X137010685Y-54251009D02*
X136915447Y-54203390D01*
X65061619Y-116512933D02*
X65775904Y-116512933D01*
X65775904Y-116512933D02*
X65918761Y-116560552D01*
X65918761Y-116560552D02*
X66014000Y-116655790D01*
X66014000Y-116655790D02*
X66061619Y-116798647D01*
X66061619Y-116798647D02*
X66061619Y-116893885D01*
X65061619Y-115560552D02*
X65061619Y-116036742D01*
X65061619Y-116036742D02*
X65537809Y-116084361D01*
X65537809Y-116084361D02*
X65490190Y-116036742D01*
X65490190Y-116036742D02*
X65442571Y-115941504D01*
X65442571Y-115941504D02*
X65442571Y-115703409D01*
X65442571Y-115703409D02*
X65490190Y-115608171D01*
X65490190Y-115608171D02*
X65537809Y-115560552D01*
X65537809Y-115560552D02*
X65633047Y-115512933D01*
X65633047Y-115512933D02*
X65871142Y-115512933D01*
X65871142Y-115512933D02*
X65966380Y-115560552D01*
X65966380Y-115560552D02*
X66014000Y-115608171D01*
X66014000Y-115608171D02*
X66061619Y-115703409D01*
X66061619Y-115703409D02*
X66061619Y-115941504D01*
X66061619Y-115941504D02*
X66014000Y-116036742D01*
X66014000Y-116036742D02*
X65966380Y-116084361D01*
X93734761Y-113738819D02*
X93734761Y-112738819D01*
X93734761Y-112738819D02*
X93972856Y-112738819D01*
X93972856Y-112738819D02*
X94115713Y-112786438D01*
X94115713Y-112786438D02*
X94210951Y-112881676D01*
X94210951Y-112881676D02*
X94258570Y-112976914D01*
X94258570Y-112976914D02*
X94306189Y-113167390D01*
X94306189Y-113167390D02*
X94306189Y-113310247D01*
X94306189Y-113310247D02*
X94258570Y-113500723D01*
X94258570Y-113500723D02*
X94210951Y-113595961D01*
X94210951Y-113595961D02*
X94115713Y-113691200D01*
X94115713Y-113691200D02*
X93972856Y-113738819D01*
X93972856Y-113738819D02*
X93734761Y-113738819D01*
X94734761Y-113738819D02*
X94734761Y-113072152D01*
X94734761Y-112738819D02*
X94687142Y-112786438D01*
X94687142Y-112786438D02*
X94734761Y-112834057D01*
X94734761Y-112834057D02*
X94782380Y-112786438D01*
X94782380Y-112786438D02*
X94734761Y-112738819D01*
X94734761Y-112738819D02*
X94734761Y-112834057D01*
X95163332Y-113691200D02*
X95258570Y-113738819D01*
X95258570Y-113738819D02*
X95449046Y-113738819D01*
X95449046Y-113738819D02*
X95544284Y-113691200D01*
X95544284Y-113691200D02*
X95591903Y-113595961D01*
X95591903Y-113595961D02*
X95591903Y-113548342D01*
X95591903Y-113548342D02*
X95544284Y-113453104D01*
X95544284Y-113453104D02*
X95449046Y-113405485D01*
X95449046Y-113405485D02*
X95306189Y-113405485D01*
X95306189Y-113405485D02*
X95210951Y-113357866D01*
X95210951Y-113357866D02*
X95163332Y-113262628D01*
X95163332Y-113262628D02*
X95163332Y-113215009D01*
X95163332Y-113215009D02*
X95210951Y-113119771D01*
X95210951Y-113119771D02*
X95306189Y-113072152D01*
X95306189Y-113072152D02*
X95449046Y-113072152D01*
X95449046Y-113072152D02*
X95544284Y-113119771D01*
X96020475Y-113072152D02*
X96020475Y-114072152D01*
X96020475Y-113119771D02*
X96115713Y-113072152D01*
X96115713Y-113072152D02*
X96306189Y-113072152D01*
X96306189Y-113072152D02*
X96401427Y-113119771D01*
X96401427Y-113119771D02*
X96449046Y-113167390D01*
X96449046Y-113167390D02*
X96496665Y-113262628D01*
X96496665Y-113262628D02*
X96496665Y-113548342D01*
X96496665Y-113548342D02*
X96449046Y-113643580D01*
X96449046Y-113643580D02*
X96401427Y-113691200D01*
X96401427Y-113691200D02*
X96306189Y-113738819D01*
X96306189Y-113738819D02*
X96115713Y-113738819D01*
X96115713Y-113738819D02*
X96020475Y-113691200D01*
X97068094Y-113738819D02*
X96972856Y-113691200D01*
X96972856Y-113691200D02*
X96925237Y-113595961D01*
X96925237Y-113595961D02*
X96925237Y-112738819D01*
X97877618Y-113738819D02*
X97877618Y-113215009D01*
X97877618Y-113215009D02*
X97829999Y-113119771D01*
X97829999Y-113119771D02*
X97734761Y-113072152D01*
X97734761Y-113072152D02*
X97544285Y-113072152D01*
X97544285Y-113072152D02*
X97449047Y-113119771D01*
X97877618Y-113691200D02*
X97782380Y-113738819D01*
X97782380Y-113738819D02*
X97544285Y-113738819D01*
X97544285Y-113738819D02*
X97449047Y-113691200D01*
X97449047Y-113691200D02*
X97401428Y-113595961D01*
X97401428Y-113595961D02*
X97401428Y-113500723D01*
X97401428Y-113500723D02*
X97449047Y-113405485D01*
X97449047Y-113405485D02*
X97544285Y-113357866D01*
X97544285Y-113357866D02*
X97782380Y-113357866D01*
X97782380Y-113357866D02*
X97877618Y-113310247D01*
X98258571Y-113072152D02*
X98496666Y-113738819D01*
X98734761Y-113072152D02*
X98496666Y-113738819D01*
X98496666Y-113738819D02*
X98401428Y-113976914D01*
X98401428Y-113976914D02*
X98353809Y-114024533D01*
X98353809Y-114024533D02*
X98258571Y-114072152D01*
X100449047Y-113643580D02*
X100401428Y-113691200D01*
X100401428Y-113691200D02*
X100258571Y-113738819D01*
X100258571Y-113738819D02*
X100163333Y-113738819D01*
X100163333Y-113738819D02*
X100020476Y-113691200D01*
X100020476Y-113691200D02*
X99925238Y-113595961D01*
X99925238Y-113595961D02*
X99877619Y-113500723D01*
X99877619Y-113500723D02*
X99830000Y-113310247D01*
X99830000Y-113310247D02*
X99830000Y-113167390D01*
X99830000Y-113167390D02*
X99877619Y-112976914D01*
X99877619Y-112976914D02*
X99925238Y-112881676D01*
X99925238Y-112881676D02*
X100020476Y-112786438D01*
X100020476Y-112786438D02*
X100163333Y-112738819D01*
X100163333Y-112738819D02*
X100258571Y-112738819D01*
X100258571Y-112738819D02*
X100401428Y-112786438D01*
X100401428Y-112786438D02*
X100449047Y-112834057D01*
X101020476Y-113738819D02*
X100925238Y-113691200D01*
X100925238Y-113691200D02*
X100877619Y-113643580D01*
X100877619Y-113643580D02*
X100830000Y-113548342D01*
X100830000Y-113548342D02*
X100830000Y-113262628D01*
X100830000Y-113262628D02*
X100877619Y-113167390D01*
X100877619Y-113167390D02*
X100925238Y-113119771D01*
X100925238Y-113119771D02*
X101020476Y-113072152D01*
X101020476Y-113072152D02*
X101163333Y-113072152D01*
X101163333Y-113072152D02*
X101258571Y-113119771D01*
X101258571Y-113119771D02*
X101306190Y-113167390D01*
X101306190Y-113167390D02*
X101353809Y-113262628D01*
X101353809Y-113262628D02*
X101353809Y-113548342D01*
X101353809Y-113548342D02*
X101306190Y-113643580D01*
X101306190Y-113643580D02*
X101258571Y-113691200D01*
X101258571Y-113691200D02*
X101163333Y-113738819D01*
X101163333Y-113738819D02*
X101020476Y-113738819D01*
X101782381Y-113072152D02*
X101782381Y-113738819D01*
X101782381Y-113167390D02*
X101830000Y-113119771D01*
X101830000Y-113119771D02*
X101925238Y-113072152D01*
X101925238Y-113072152D02*
X102068095Y-113072152D01*
X102068095Y-113072152D02*
X102163333Y-113119771D01*
X102163333Y-113119771D02*
X102210952Y-113215009D01*
X102210952Y-113215009D02*
X102210952Y-113738819D01*
X102687143Y-113072152D02*
X102687143Y-113738819D01*
X102687143Y-113167390D02*
X102734762Y-113119771D01*
X102734762Y-113119771D02*
X102830000Y-113072152D01*
X102830000Y-113072152D02*
X102972857Y-113072152D01*
X102972857Y-113072152D02*
X103068095Y-113119771D01*
X103068095Y-113119771D02*
X103115714Y-113215009D01*
X103115714Y-113215009D02*
X103115714Y-113738819D01*
X103972857Y-113691200D02*
X103877619Y-113738819D01*
X103877619Y-113738819D02*
X103687143Y-113738819D01*
X103687143Y-113738819D02*
X103591905Y-113691200D01*
X103591905Y-113691200D02*
X103544286Y-113595961D01*
X103544286Y-113595961D02*
X103544286Y-113215009D01*
X103544286Y-113215009D02*
X103591905Y-113119771D01*
X103591905Y-113119771D02*
X103687143Y-113072152D01*
X103687143Y-113072152D02*
X103877619Y-113072152D01*
X103877619Y-113072152D02*
X103972857Y-113119771D01*
X103972857Y-113119771D02*
X104020476Y-113215009D01*
X104020476Y-113215009D02*
X104020476Y-113310247D01*
X104020476Y-113310247D02*
X103544286Y-113405485D01*
X104877619Y-113691200D02*
X104782381Y-113738819D01*
X104782381Y-113738819D02*
X104591905Y-113738819D01*
X104591905Y-113738819D02*
X104496667Y-113691200D01*
X104496667Y-113691200D02*
X104449048Y-113643580D01*
X104449048Y-113643580D02*
X104401429Y-113548342D01*
X104401429Y-113548342D02*
X104401429Y-113262628D01*
X104401429Y-113262628D02*
X104449048Y-113167390D01*
X104449048Y-113167390D02*
X104496667Y-113119771D01*
X104496667Y-113119771D02*
X104591905Y-113072152D01*
X104591905Y-113072152D02*
X104782381Y-113072152D01*
X104782381Y-113072152D02*
X104877619Y-113119771D01*
X105163334Y-113072152D02*
X105544286Y-113072152D01*
X105306191Y-112738819D02*
X105306191Y-113595961D01*
X105306191Y-113595961D02*
X105353810Y-113691200D01*
X105353810Y-113691200D02*
X105449048Y-113738819D01*
X105449048Y-113738819D02*
X105544286Y-113738819D01*
X106020477Y-113738819D02*
X105925239Y-113691200D01*
X105925239Y-113691200D02*
X105877620Y-113643580D01*
X105877620Y-113643580D02*
X105830001Y-113548342D01*
X105830001Y-113548342D02*
X105830001Y-113262628D01*
X105830001Y-113262628D02*
X105877620Y-113167390D01*
X105877620Y-113167390D02*
X105925239Y-113119771D01*
X105925239Y-113119771D02*
X106020477Y-113072152D01*
X106020477Y-113072152D02*
X106163334Y-113072152D01*
X106163334Y-113072152D02*
X106258572Y-113119771D01*
X106258572Y-113119771D02*
X106306191Y-113167390D01*
X106306191Y-113167390D02*
X106353810Y-113262628D01*
X106353810Y-113262628D02*
X106353810Y-113548342D01*
X106353810Y-113548342D02*
X106306191Y-113643580D01*
X106306191Y-113643580D02*
X106258572Y-113691200D01*
X106258572Y-113691200D02*
X106163334Y-113738819D01*
X106163334Y-113738819D02*
X106020477Y-113738819D01*
X106782382Y-113738819D02*
X106782382Y-113072152D01*
X106782382Y-113262628D02*
X106830001Y-113167390D01*
X106830001Y-113167390D02*
X106877620Y-113119771D01*
X106877620Y-113119771D02*
X106972858Y-113072152D01*
X106972858Y-113072152D02*
X107068096Y-113072152D01*
X51047428Y-77398990D02*
X51523619Y-77398990D01*
X50523619Y-77732323D02*
X51047428Y-77398990D01*
X51047428Y-77398990D02*
X50523619Y-77065657D01*
X51523619Y-76208514D02*
X51523619Y-76779942D01*
X51523619Y-76494228D02*
X50523619Y-76494228D01*
X50523619Y-76494228D02*
X50666476Y-76589466D01*
X50666476Y-76589466D02*
X50761714Y-76684704D01*
X50761714Y-76684704D02*
X50809333Y-76779942D01*
X135487580Y-85538628D02*
X135535200Y-85586247D01*
X135535200Y-85586247D02*
X135582819Y-85729104D01*
X135582819Y-85729104D02*
X135582819Y-85824342D01*
X135582819Y-85824342D02*
X135535200Y-85967199D01*
X135535200Y-85967199D02*
X135439961Y-86062437D01*
X135439961Y-86062437D02*
X135344723Y-86110056D01*
X135344723Y-86110056D02*
X135154247Y-86157675D01*
X135154247Y-86157675D02*
X135011390Y-86157675D01*
X135011390Y-86157675D02*
X134820914Y-86110056D01*
X134820914Y-86110056D02*
X134725676Y-86062437D01*
X134725676Y-86062437D02*
X134630438Y-85967199D01*
X134630438Y-85967199D02*
X134582819Y-85824342D01*
X134582819Y-85824342D02*
X134582819Y-85729104D01*
X134582819Y-85729104D02*
X134630438Y-85586247D01*
X134630438Y-85586247D02*
X134678057Y-85538628D01*
X135106628Y-84919580D02*
X135582819Y-84919580D01*
X134582819Y-85252913D02*
X135106628Y-84919580D01*
X135106628Y-84919580D02*
X134582819Y-84586247D01*
X134582819Y-83824342D02*
X134582819Y-84014818D01*
X134582819Y-84014818D02*
X134630438Y-84110056D01*
X134630438Y-84110056D02*
X134678057Y-84157675D01*
X134678057Y-84157675D02*
X134820914Y-84252913D01*
X134820914Y-84252913D02*
X135011390Y-84300532D01*
X135011390Y-84300532D02*
X135392342Y-84300532D01*
X135392342Y-84300532D02*
X135487580Y-84252913D01*
X135487580Y-84252913D02*
X135535200Y-84205294D01*
X135535200Y-84205294D02*
X135582819Y-84110056D01*
X135582819Y-84110056D02*
X135582819Y-83919580D01*
X135582819Y-83919580D02*
X135535200Y-83824342D01*
X135535200Y-83824342D02*
X135487580Y-83776723D01*
X135487580Y-83776723D02*
X135392342Y-83729104D01*
X135392342Y-83729104D02*
X135154247Y-83729104D01*
X135154247Y-83729104D02*
X135059009Y-83776723D01*
X135059009Y-83776723D02*
X135011390Y-83824342D01*
X135011390Y-83824342D02*
X134963771Y-83919580D01*
X134963771Y-83919580D02*
X134963771Y-84110056D01*
X134963771Y-84110056D02*
X135011390Y-84205294D01*
X135011390Y-84205294D02*
X135059009Y-84252913D01*
X135059009Y-84252913D02*
X135154247Y-84300532D01*
X134678057Y-83348151D02*
X134630438Y-83300532D01*
X134630438Y-83300532D02*
X134582819Y-83205294D01*
X134582819Y-83205294D02*
X134582819Y-82967199D01*
X134582819Y-82967199D02*
X134630438Y-82871961D01*
X134630438Y-82871961D02*
X134678057Y-82824342D01*
X134678057Y-82824342D02*
X134773295Y-82776723D01*
X134773295Y-82776723D02*
X134868533Y-82776723D01*
X134868533Y-82776723D02*
X135011390Y-82824342D01*
X135011390Y-82824342D02*
X135582819Y-83395770D01*
X135582819Y-83395770D02*
X135582819Y-82776723D01*
X134678057Y-82395770D02*
X134630438Y-82348151D01*
X134630438Y-82348151D02*
X134582819Y-82252913D01*
X134582819Y-82252913D02*
X134582819Y-82014818D01*
X134582819Y-82014818D02*
X134630438Y-81919580D01*
X134630438Y-81919580D02*
X134678057Y-81871961D01*
X134678057Y-81871961D02*
X134773295Y-81824342D01*
X134773295Y-81824342D02*
X134868533Y-81824342D01*
X134868533Y-81824342D02*
X135011390Y-81871961D01*
X135011390Y-81871961D02*
X135582819Y-82443389D01*
X135582819Y-82443389D02*
X135582819Y-81824342D01*
X134582819Y-80919580D02*
X134582819Y-81395770D01*
X134582819Y-81395770D02*
X135059009Y-81443389D01*
X135059009Y-81443389D02*
X135011390Y-81395770D01*
X135011390Y-81395770D02*
X134963771Y-81300532D01*
X134963771Y-81300532D02*
X134963771Y-81062437D01*
X134963771Y-81062437D02*
X135011390Y-80967199D01*
X135011390Y-80967199D02*
X135059009Y-80919580D01*
X135059009Y-80919580D02*
X135154247Y-80871961D01*
X135154247Y-80871961D02*
X135392342Y-80871961D01*
X135392342Y-80871961D02*
X135487580Y-80919580D01*
X135487580Y-80919580D02*
X135535200Y-80967199D01*
X135535200Y-80967199D02*
X135582819Y-81062437D01*
X135582819Y-81062437D02*
X135582819Y-81300532D01*
X135582819Y-81300532D02*
X135535200Y-81395770D01*
X135535200Y-81395770D02*
X135487580Y-81443389D01*
X134582819Y-80014818D02*
X134582819Y-80205294D01*
X134582819Y-80205294D02*
X134630438Y-80300532D01*
X134630438Y-80300532D02*
X134678057Y-80348151D01*
X134678057Y-80348151D02*
X134820914Y-80443389D01*
X134820914Y-80443389D02*
X135011390Y-80491008D01*
X135011390Y-80491008D02*
X135392342Y-80491008D01*
X135392342Y-80491008D02*
X135487580Y-80443389D01*
X135487580Y-80443389D02*
X135535200Y-80395770D01*
X135535200Y-80395770D02*
X135582819Y-80300532D01*
X135582819Y-80300532D02*
X135582819Y-80110056D01*
X135582819Y-80110056D02*
X135535200Y-80014818D01*
X135535200Y-80014818D02*
X135487580Y-79967199D01*
X135487580Y-79967199D02*
X135392342Y-79919580D01*
X135392342Y-79919580D02*
X135154247Y-79919580D01*
X135154247Y-79919580D02*
X135059009Y-79967199D01*
X135059009Y-79967199D02*
X135011390Y-80014818D01*
X135011390Y-80014818D02*
X134963771Y-80110056D01*
X134963771Y-80110056D02*
X134963771Y-80300532D01*
X134963771Y-80300532D02*
X135011390Y-80395770D01*
X135011390Y-80395770D02*
X135059009Y-80443389D01*
X135059009Y-80443389D02*
X135154247Y-80491008D01*
X135201866Y-79491008D02*
X135201866Y-78729104D01*
X134582819Y-78348151D02*
X134582819Y-77681485D01*
X134582819Y-77681485D02*
X135582819Y-78110056D01*
X134582819Y-77110056D02*
X134582819Y-77014818D01*
X134582819Y-77014818D02*
X134630438Y-76919580D01*
X134630438Y-76919580D02*
X134678057Y-76871961D01*
X134678057Y-76871961D02*
X134773295Y-76824342D01*
X134773295Y-76824342D02*
X134963771Y-76776723D01*
X134963771Y-76776723D02*
X135201866Y-76776723D01*
X135201866Y-76776723D02*
X135392342Y-76824342D01*
X135392342Y-76824342D02*
X135487580Y-76871961D01*
X135487580Y-76871961D02*
X135535200Y-76919580D01*
X135535200Y-76919580D02*
X135582819Y-77014818D01*
X135582819Y-77014818D02*
X135582819Y-77110056D01*
X135582819Y-77110056D02*
X135535200Y-77205294D01*
X135535200Y-77205294D02*
X135487580Y-77252913D01*
X135487580Y-77252913D02*
X135392342Y-77300532D01*
X135392342Y-77300532D02*
X135201866Y-77348151D01*
X135201866Y-77348151D02*
X134963771Y-77348151D01*
X134963771Y-77348151D02*
X134773295Y-77300532D01*
X134773295Y-77300532D02*
X134678057Y-77252913D01*
X134678057Y-77252913D02*
X134630438Y-77205294D01*
X134630438Y-77205294D02*
X134582819Y-77110056D01*
X135582819Y-76348151D02*
X134582819Y-76348151D01*
X134582819Y-76348151D02*
X134582819Y-75967199D01*
X134582819Y-75967199D02*
X134630438Y-75871961D01*
X134630438Y-75871961D02*
X134678057Y-75824342D01*
X134678057Y-75824342D02*
X134773295Y-75776723D01*
X134773295Y-75776723D02*
X134916152Y-75776723D01*
X134916152Y-75776723D02*
X135011390Y-75824342D01*
X135011390Y-75824342D02*
X135059009Y-75871961D01*
X135059009Y-75871961D02*
X135106628Y-75967199D01*
X135106628Y-75967199D02*
X135106628Y-76348151D01*
X135487580Y-74776723D02*
X135535200Y-74824342D01*
X135535200Y-74824342D02*
X135582819Y-74967199D01*
X135582819Y-74967199D02*
X135582819Y-75062437D01*
X135582819Y-75062437D02*
X135535200Y-75205294D01*
X135535200Y-75205294D02*
X135439961Y-75300532D01*
X135439961Y-75300532D02*
X135344723Y-75348151D01*
X135344723Y-75348151D02*
X135154247Y-75395770D01*
X135154247Y-75395770D02*
X135011390Y-75395770D01*
X135011390Y-75395770D02*
X134820914Y-75348151D01*
X134820914Y-75348151D02*
X134725676Y-75300532D01*
X134725676Y-75300532D02*
X134630438Y-75205294D01*
X134630438Y-75205294D02*
X134582819Y-75062437D01*
X134582819Y-75062437D02*
X134582819Y-74967199D01*
X134582819Y-74967199D02*
X134630438Y-74824342D01*
X134630438Y-74824342D02*
X134678057Y-74776723D01*
X130621580Y-58859657D02*
X130669200Y-58907276D01*
X130669200Y-58907276D02*
X130716819Y-59050133D01*
X130716819Y-59050133D02*
X130716819Y-59145371D01*
X130716819Y-59145371D02*
X130669200Y-59288228D01*
X130669200Y-59288228D02*
X130573961Y-59383466D01*
X130573961Y-59383466D02*
X130478723Y-59431085D01*
X130478723Y-59431085D02*
X130288247Y-59478704D01*
X130288247Y-59478704D02*
X130145390Y-59478704D01*
X130145390Y-59478704D02*
X129954914Y-59431085D01*
X129954914Y-59431085D02*
X129859676Y-59383466D01*
X129859676Y-59383466D02*
X129764438Y-59288228D01*
X129764438Y-59288228D02*
X129716819Y-59145371D01*
X129716819Y-59145371D02*
X129716819Y-59050133D01*
X129716819Y-59050133D02*
X129764438Y-58907276D01*
X129764438Y-58907276D02*
X129812057Y-58859657D01*
X130716819Y-57907276D02*
X130716819Y-58478704D01*
X130716819Y-58192990D02*
X129716819Y-58192990D01*
X129716819Y-58192990D02*
X129859676Y-58288228D01*
X129859676Y-58288228D02*
X129954914Y-58383466D01*
X129954914Y-58383466D02*
X130002533Y-58478704D01*
X129716819Y-57573942D02*
X129716819Y-56954895D01*
X129716819Y-56954895D02*
X130097771Y-57288228D01*
X130097771Y-57288228D02*
X130097771Y-57145371D01*
X130097771Y-57145371D02*
X130145390Y-57050133D01*
X130145390Y-57050133D02*
X130193009Y-57002514D01*
X130193009Y-57002514D02*
X130288247Y-56954895D01*
X130288247Y-56954895D02*
X130526342Y-56954895D01*
X130526342Y-56954895D02*
X130621580Y-57002514D01*
X130621580Y-57002514D02*
X130669200Y-57050133D01*
X130669200Y-57050133D02*
X130716819Y-57145371D01*
X130716819Y-57145371D02*
X130716819Y-57431085D01*
X130716819Y-57431085D02*
X130669200Y-57526323D01*
X130669200Y-57526323D02*
X130621580Y-57573942D01*
X100452019Y-60299504D02*
X101261542Y-60299504D01*
X101261542Y-60299504D02*
X101356780Y-60251885D01*
X101356780Y-60251885D02*
X101404400Y-60204266D01*
X101404400Y-60204266D02*
X101452019Y-60109028D01*
X101452019Y-60109028D02*
X101452019Y-59918552D01*
X101452019Y-59918552D02*
X101404400Y-59823314D01*
X101404400Y-59823314D02*
X101356780Y-59775695D01*
X101356780Y-59775695D02*
X101261542Y-59728076D01*
X101261542Y-59728076D02*
X100452019Y-59728076D01*
X100452019Y-58823314D02*
X100452019Y-59013790D01*
X100452019Y-59013790D02*
X100499638Y-59109028D01*
X100499638Y-59109028D02*
X100547257Y-59156647D01*
X100547257Y-59156647D02*
X100690114Y-59251885D01*
X100690114Y-59251885D02*
X100880590Y-59299504D01*
X100880590Y-59299504D02*
X101261542Y-59299504D01*
X101261542Y-59299504D02*
X101356780Y-59251885D01*
X101356780Y-59251885D02*
X101404400Y-59204266D01*
X101404400Y-59204266D02*
X101452019Y-59109028D01*
X101452019Y-59109028D02*
X101452019Y-58918552D01*
X101452019Y-58918552D02*
X101404400Y-58823314D01*
X101404400Y-58823314D02*
X101356780Y-58775695D01*
X101356780Y-58775695D02*
X101261542Y-58728076D01*
X101261542Y-58728076D02*
X101023447Y-58728076D01*
X101023447Y-58728076D02*
X100928209Y-58775695D01*
X100928209Y-58775695D02*
X100880590Y-58823314D01*
X100880590Y-58823314D02*
X100832971Y-58918552D01*
X100832971Y-58918552D02*
X100832971Y-59109028D01*
X100832971Y-59109028D02*
X100880590Y-59204266D01*
X100880590Y-59204266D02*
X100928209Y-59251885D01*
X100928209Y-59251885D02*
X101023447Y-59299504D01*
X112530286Y-58992419D02*
X113196952Y-58992419D01*
X113196952Y-58992419D02*
X112768381Y-59992419D01*
X114006476Y-59325752D02*
X114006476Y-59992419D01*
X113768381Y-58944800D02*
X113530286Y-59659085D01*
X113530286Y-59659085D02*
X114149333Y-59659085D01*
X114530286Y-59992419D02*
X114530286Y-58992419D01*
X114530286Y-59468609D02*
X115101714Y-59468609D01*
X115101714Y-59992419D02*
X115101714Y-58992419D01*
X116149333Y-59897180D02*
X116101714Y-59944800D01*
X116101714Y-59944800D02*
X115958857Y-59992419D01*
X115958857Y-59992419D02*
X115863619Y-59992419D01*
X115863619Y-59992419D02*
X115720762Y-59944800D01*
X115720762Y-59944800D02*
X115625524Y-59849561D01*
X115625524Y-59849561D02*
X115577905Y-59754323D01*
X115577905Y-59754323D02*
X115530286Y-59563847D01*
X115530286Y-59563847D02*
X115530286Y-59420990D01*
X115530286Y-59420990D02*
X115577905Y-59230514D01*
X115577905Y-59230514D02*
X115625524Y-59135276D01*
X115625524Y-59135276D02*
X115720762Y-59040038D01*
X115720762Y-59040038D02*
X115863619Y-58992419D01*
X115863619Y-58992419D02*
X115958857Y-58992419D01*
X115958857Y-58992419D02*
X116101714Y-59040038D01*
X116101714Y-59040038D02*
X116149333Y-59087657D01*
X116768381Y-58992419D02*
X116863619Y-58992419D01*
X116863619Y-58992419D02*
X116958857Y-59040038D01*
X116958857Y-59040038D02*
X117006476Y-59087657D01*
X117006476Y-59087657D02*
X117054095Y-59182895D01*
X117054095Y-59182895D02*
X117101714Y-59373371D01*
X117101714Y-59373371D02*
X117101714Y-59611466D01*
X117101714Y-59611466D02*
X117054095Y-59801942D01*
X117054095Y-59801942D02*
X117006476Y-59897180D01*
X117006476Y-59897180D02*
X116958857Y-59944800D01*
X116958857Y-59944800D02*
X116863619Y-59992419D01*
X116863619Y-59992419D02*
X116768381Y-59992419D01*
X116768381Y-59992419D02*
X116673143Y-59944800D01*
X116673143Y-59944800D02*
X116625524Y-59897180D01*
X116625524Y-59897180D02*
X116577905Y-59801942D01*
X116577905Y-59801942D02*
X116530286Y-59611466D01*
X116530286Y-59611466D02*
X116530286Y-59373371D01*
X116530286Y-59373371D02*
X116577905Y-59182895D01*
X116577905Y-59182895D02*
X116625524Y-59087657D01*
X116625524Y-59087657D02*
X116673143Y-59040038D01*
X116673143Y-59040038D02*
X116768381Y-58992419D01*
X117720762Y-58992419D02*
X117816000Y-58992419D01*
X117816000Y-58992419D02*
X117911238Y-59040038D01*
X117911238Y-59040038D02*
X117958857Y-59087657D01*
X117958857Y-59087657D02*
X118006476Y-59182895D01*
X118006476Y-59182895D02*
X118054095Y-59373371D01*
X118054095Y-59373371D02*
X118054095Y-59611466D01*
X118054095Y-59611466D02*
X118006476Y-59801942D01*
X118006476Y-59801942D02*
X117958857Y-59897180D01*
X117958857Y-59897180D02*
X117911238Y-59944800D01*
X117911238Y-59944800D02*
X117816000Y-59992419D01*
X117816000Y-59992419D02*
X117720762Y-59992419D01*
X117720762Y-59992419D02*
X117625524Y-59944800D01*
X117625524Y-59944800D02*
X117577905Y-59897180D01*
X117577905Y-59897180D02*
X117530286Y-59801942D01*
X117530286Y-59801942D02*
X117482667Y-59611466D01*
X117482667Y-59611466D02*
X117482667Y-59373371D01*
X117482667Y-59373371D02*
X117530286Y-59182895D01*
X117530286Y-59182895D02*
X117577905Y-59087657D01*
X117577905Y-59087657D02*
X117625524Y-59040038D01*
X117625524Y-59040038D02*
X117720762Y-58992419D01*
X102046589Y-34897219D02*
X101713256Y-34421028D01*
X101475161Y-34897219D02*
X101475161Y-33897219D01*
X101475161Y-33897219D02*
X101856113Y-33897219D01*
X101856113Y-33897219D02*
X101951351Y-33944838D01*
X101951351Y-33944838D02*
X101998970Y-33992457D01*
X101998970Y-33992457D02*
X102046589Y-34087695D01*
X102046589Y-34087695D02*
X102046589Y-34230552D01*
X102046589Y-34230552D02*
X101998970Y-34325790D01*
X101998970Y-34325790D02*
X101951351Y-34373409D01*
X101951351Y-34373409D02*
X101856113Y-34421028D01*
X101856113Y-34421028D02*
X101475161Y-34421028D01*
X102856113Y-34849600D02*
X102760875Y-34897219D01*
X102760875Y-34897219D02*
X102570399Y-34897219D01*
X102570399Y-34897219D02*
X102475161Y-34849600D01*
X102475161Y-34849600D02*
X102427542Y-34754361D01*
X102427542Y-34754361D02*
X102427542Y-34373409D01*
X102427542Y-34373409D02*
X102475161Y-34278171D01*
X102475161Y-34278171D02*
X102570399Y-34230552D01*
X102570399Y-34230552D02*
X102760875Y-34230552D01*
X102760875Y-34230552D02*
X102856113Y-34278171D01*
X102856113Y-34278171D02*
X102903732Y-34373409D01*
X102903732Y-34373409D02*
X102903732Y-34468647D01*
X102903732Y-34468647D02*
X102427542Y-34563885D01*
X103284685Y-34849600D02*
X103379923Y-34897219D01*
X103379923Y-34897219D02*
X103570399Y-34897219D01*
X103570399Y-34897219D02*
X103665637Y-34849600D01*
X103665637Y-34849600D02*
X103713256Y-34754361D01*
X103713256Y-34754361D02*
X103713256Y-34706742D01*
X103713256Y-34706742D02*
X103665637Y-34611504D01*
X103665637Y-34611504D02*
X103570399Y-34563885D01*
X103570399Y-34563885D02*
X103427542Y-34563885D01*
X103427542Y-34563885D02*
X103332304Y-34516266D01*
X103332304Y-34516266D02*
X103284685Y-34421028D01*
X103284685Y-34421028D02*
X103284685Y-34373409D01*
X103284685Y-34373409D02*
X103332304Y-34278171D01*
X103332304Y-34278171D02*
X103427542Y-34230552D01*
X103427542Y-34230552D02*
X103570399Y-34230552D01*
X103570399Y-34230552D02*
X103665637Y-34278171D01*
X104522780Y-34849600D02*
X104427542Y-34897219D01*
X104427542Y-34897219D02*
X104237066Y-34897219D01*
X104237066Y-34897219D02*
X104141828Y-34849600D01*
X104141828Y-34849600D02*
X104094209Y-34754361D01*
X104094209Y-34754361D02*
X104094209Y-34373409D01*
X104094209Y-34373409D02*
X104141828Y-34278171D01*
X104141828Y-34278171D02*
X104237066Y-34230552D01*
X104237066Y-34230552D02*
X104427542Y-34230552D01*
X104427542Y-34230552D02*
X104522780Y-34278171D01*
X104522780Y-34278171D02*
X104570399Y-34373409D01*
X104570399Y-34373409D02*
X104570399Y-34468647D01*
X104570399Y-34468647D02*
X104094209Y-34563885D01*
X104856114Y-34230552D02*
X105237066Y-34230552D01*
X104998971Y-33897219D02*
X104998971Y-34754361D01*
X104998971Y-34754361D02*
X105046590Y-34849600D01*
X105046590Y-34849600D02*
X105141828Y-34897219D01*
X105141828Y-34897219D02*
X105237066Y-34897219D01*
X106284686Y-34849600D02*
X106427543Y-34897219D01*
X106427543Y-34897219D02*
X106665638Y-34897219D01*
X106665638Y-34897219D02*
X106760876Y-34849600D01*
X106760876Y-34849600D02*
X106808495Y-34801980D01*
X106808495Y-34801980D02*
X106856114Y-34706742D01*
X106856114Y-34706742D02*
X106856114Y-34611504D01*
X106856114Y-34611504D02*
X106808495Y-34516266D01*
X106808495Y-34516266D02*
X106760876Y-34468647D01*
X106760876Y-34468647D02*
X106665638Y-34421028D01*
X106665638Y-34421028D02*
X106475162Y-34373409D01*
X106475162Y-34373409D02*
X106379924Y-34325790D01*
X106379924Y-34325790D02*
X106332305Y-34278171D01*
X106332305Y-34278171D02*
X106284686Y-34182933D01*
X106284686Y-34182933D02*
X106284686Y-34087695D01*
X106284686Y-34087695D02*
X106332305Y-33992457D01*
X106332305Y-33992457D02*
X106379924Y-33944838D01*
X106379924Y-33944838D02*
X106475162Y-33897219D01*
X106475162Y-33897219D02*
X106713257Y-33897219D01*
X106713257Y-33897219D02*
X106856114Y-33944838D01*
X107189448Y-34230552D02*
X107379924Y-34897219D01*
X107379924Y-34897219D02*
X107570400Y-34421028D01*
X107570400Y-34421028D02*
X107760876Y-34897219D01*
X107760876Y-34897219D02*
X107951352Y-34230552D01*
X108332305Y-34897219D02*
X108332305Y-34230552D01*
X108332305Y-33897219D02*
X108284686Y-33944838D01*
X108284686Y-33944838D02*
X108332305Y-33992457D01*
X108332305Y-33992457D02*
X108379924Y-33944838D01*
X108379924Y-33944838D02*
X108332305Y-33897219D01*
X108332305Y-33897219D02*
X108332305Y-33992457D01*
X108665638Y-34230552D02*
X109046590Y-34230552D01*
X108808495Y-33897219D02*
X108808495Y-34754361D01*
X108808495Y-34754361D02*
X108856114Y-34849600D01*
X108856114Y-34849600D02*
X108951352Y-34897219D01*
X108951352Y-34897219D02*
X109046590Y-34897219D01*
X109808495Y-34849600D02*
X109713257Y-34897219D01*
X109713257Y-34897219D02*
X109522781Y-34897219D01*
X109522781Y-34897219D02*
X109427543Y-34849600D01*
X109427543Y-34849600D02*
X109379924Y-34801980D01*
X109379924Y-34801980D02*
X109332305Y-34706742D01*
X109332305Y-34706742D02*
X109332305Y-34421028D01*
X109332305Y-34421028D02*
X109379924Y-34325790D01*
X109379924Y-34325790D02*
X109427543Y-34278171D01*
X109427543Y-34278171D02*
X109522781Y-34230552D01*
X109522781Y-34230552D02*
X109713257Y-34230552D01*
X109713257Y-34230552D02*
X109808495Y-34278171D01*
X110237067Y-34897219D02*
X110237067Y-33897219D01*
X110665638Y-34897219D02*
X110665638Y-34373409D01*
X110665638Y-34373409D02*
X110618019Y-34278171D01*
X110618019Y-34278171D02*
X110522781Y-34230552D01*
X110522781Y-34230552D02*
X110379924Y-34230552D01*
X110379924Y-34230552D02*
X110284686Y-34278171D01*
X110284686Y-34278171D02*
X110237067Y-34325790D01*
X60418742Y-106571580D02*
X60371123Y-106619200D01*
X60371123Y-106619200D02*
X60228266Y-106666819D01*
X60228266Y-106666819D02*
X60133028Y-106666819D01*
X60133028Y-106666819D02*
X59990171Y-106619200D01*
X59990171Y-106619200D02*
X59894933Y-106523961D01*
X59894933Y-106523961D02*
X59847314Y-106428723D01*
X59847314Y-106428723D02*
X59799695Y-106238247D01*
X59799695Y-106238247D02*
X59799695Y-106095390D01*
X59799695Y-106095390D02*
X59847314Y-105904914D01*
X59847314Y-105904914D02*
X59894933Y-105809676D01*
X59894933Y-105809676D02*
X59990171Y-105714438D01*
X59990171Y-105714438D02*
X60133028Y-105666819D01*
X60133028Y-105666819D02*
X60228266Y-105666819D01*
X60228266Y-105666819D02*
X60371123Y-105714438D01*
X60371123Y-105714438D02*
X60418742Y-105762057D01*
X61371123Y-106666819D02*
X60799695Y-106666819D01*
X61085409Y-106666819D02*
X61085409Y-105666819D01*
X61085409Y-105666819D02*
X60990171Y-105809676D01*
X60990171Y-105809676D02*
X60894933Y-105904914D01*
X60894933Y-105904914D02*
X60799695Y-105952533D01*
X61990171Y-105666819D02*
X62085409Y-105666819D01*
X62085409Y-105666819D02*
X62180647Y-105714438D01*
X62180647Y-105714438D02*
X62228266Y-105762057D01*
X62228266Y-105762057D02*
X62275885Y-105857295D01*
X62275885Y-105857295D02*
X62323504Y-106047771D01*
X62323504Y-106047771D02*
X62323504Y-106285866D01*
X62323504Y-106285866D02*
X62275885Y-106476342D01*
X62275885Y-106476342D02*
X62228266Y-106571580D01*
X62228266Y-106571580D02*
X62180647Y-106619200D01*
X62180647Y-106619200D02*
X62085409Y-106666819D01*
X62085409Y-106666819D02*
X61990171Y-106666819D01*
X61990171Y-106666819D02*
X61894933Y-106619200D01*
X61894933Y-106619200D02*
X61847314Y-106571580D01*
X61847314Y-106571580D02*
X61799695Y-106476342D01*
X61799695Y-106476342D02*
X61752076Y-106285866D01*
X61752076Y-106285866D02*
X61752076Y-106047771D01*
X61752076Y-106047771D02*
X61799695Y-105857295D01*
X61799695Y-105857295D02*
X61847314Y-105762057D01*
X61847314Y-105762057D02*
X61894933Y-105714438D01*
X61894933Y-105714438D02*
X61990171Y-105666819D01*
X23659619Y-49253733D02*
X24373904Y-49253733D01*
X24373904Y-49253733D02*
X24516761Y-49301352D01*
X24516761Y-49301352D02*
X24612000Y-49396590D01*
X24612000Y-49396590D02*
X24659619Y-49539447D01*
X24659619Y-49539447D02*
X24659619Y-49634685D01*
X23992952Y-48348971D02*
X24659619Y-48348971D01*
X23612000Y-48587066D02*
X24326285Y-48825161D01*
X24326285Y-48825161D02*
X24326285Y-48206114D01*
X26176552Y-46733619D02*
X26176552Y-45733619D01*
X26176552Y-45733619D02*
X26557504Y-45733619D01*
X26557504Y-45733619D02*
X26652742Y-45781238D01*
X26652742Y-45781238D02*
X26700361Y-45828857D01*
X26700361Y-45828857D02*
X26747980Y-45924095D01*
X26747980Y-45924095D02*
X26747980Y-46066952D01*
X26747980Y-46066952D02*
X26700361Y-46162190D01*
X26700361Y-46162190D02*
X26652742Y-46209809D01*
X26652742Y-46209809D02*
X26557504Y-46257428D01*
X26557504Y-46257428D02*
X26176552Y-46257428D01*
X27319409Y-46733619D02*
X27224171Y-46686000D01*
X27224171Y-46686000D02*
X27176552Y-46638380D01*
X27176552Y-46638380D02*
X27128933Y-46543142D01*
X27128933Y-46543142D02*
X27128933Y-46257428D01*
X27128933Y-46257428D02*
X27176552Y-46162190D01*
X27176552Y-46162190D02*
X27224171Y-46114571D01*
X27224171Y-46114571D02*
X27319409Y-46066952D01*
X27319409Y-46066952D02*
X27462266Y-46066952D01*
X27462266Y-46066952D02*
X27557504Y-46114571D01*
X27557504Y-46114571D02*
X27605123Y-46162190D01*
X27605123Y-46162190D02*
X27652742Y-46257428D01*
X27652742Y-46257428D02*
X27652742Y-46543142D01*
X27652742Y-46543142D02*
X27605123Y-46638380D01*
X27605123Y-46638380D02*
X27557504Y-46686000D01*
X27557504Y-46686000D02*
X27462266Y-46733619D01*
X27462266Y-46733619D02*
X27319409Y-46733619D01*
X28081314Y-46733619D02*
X28081314Y-46066952D01*
X28081314Y-46257428D02*
X28128933Y-46162190D01*
X28128933Y-46162190D02*
X28176552Y-46114571D01*
X28176552Y-46114571D02*
X28271790Y-46066952D01*
X28271790Y-46066952D02*
X28367028Y-46066952D01*
X28557505Y-46066952D02*
X28938457Y-46066952D01*
X28700362Y-45733619D02*
X28700362Y-46590761D01*
X28700362Y-46590761D02*
X28747981Y-46686000D01*
X28747981Y-46686000D02*
X28843219Y-46733619D01*
X28843219Y-46733619D02*
X28938457Y-46733619D01*
X29986077Y-46447904D02*
X30462267Y-46447904D01*
X29890839Y-46733619D02*
X30224172Y-45733619D01*
X30224172Y-45733619D02*
X30557505Y-46733619D01*
X151525789Y-40078819D02*
X151192456Y-39602628D01*
X150954361Y-40078819D02*
X150954361Y-39078819D01*
X150954361Y-39078819D02*
X151335313Y-39078819D01*
X151335313Y-39078819D02*
X151430551Y-39126438D01*
X151430551Y-39126438D02*
X151478170Y-39174057D01*
X151478170Y-39174057D02*
X151525789Y-39269295D01*
X151525789Y-39269295D02*
X151525789Y-39412152D01*
X151525789Y-39412152D02*
X151478170Y-39507390D01*
X151478170Y-39507390D02*
X151430551Y-39555009D01*
X151430551Y-39555009D02*
X151335313Y-39602628D01*
X151335313Y-39602628D02*
X150954361Y-39602628D01*
X152335313Y-40031200D02*
X152240075Y-40078819D01*
X152240075Y-40078819D02*
X152049599Y-40078819D01*
X152049599Y-40078819D02*
X151954361Y-40031200D01*
X151954361Y-40031200D02*
X151906742Y-39935961D01*
X151906742Y-39935961D02*
X151906742Y-39555009D01*
X151906742Y-39555009D02*
X151954361Y-39459771D01*
X151954361Y-39459771D02*
X152049599Y-39412152D01*
X152049599Y-39412152D02*
X152240075Y-39412152D01*
X152240075Y-39412152D02*
X152335313Y-39459771D01*
X152335313Y-39459771D02*
X152382932Y-39555009D01*
X152382932Y-39555009D02*
X152382932Y-39650247D01*
X152382932Y-39650247D02*
X151906742Y-39745485D01*
X152763885Y-40031200D02*
X152859123Y-40078819D01*
X152859123Y-40078819D02*
X153049599Y-40078819D01*
X153049599Y-40078819D02*
X153144837Y-40031200D01*
X153144837Y-40031200D02*
X153192456Y-39935961D01*
X153192456Y-39935961D02*
X153192456Y-39888342D01*
X153192456Y-39888342D02*
X153144837Y-39793104D01*
X153144837Y-39793104D02*
X153049599Y-39745485D01*
X153049599Y-39745485D02*
X152906742Y-39745485D01*
X152906742Y-39745485D02*
X152811504Y-39697866D01*
X152811504Y-39697866D02*
X152763885Y-39602628D01*
X152763885Y-39602628D02*
X152763885Y-39555009D01*
X152763885Y-39555009D02*
X152811504Y-39459771D01*
X152811504Y-39459771D02*
X152906742Y-39412152D01*
X152906742Y-39412152D02*
X153049599Y-39412152D01*
X153049599Y-39412152D02*
X153144837Y-39459771D01*
X154001980Y-40031200D02*
X153906742Y-40078819D01*
X153906742Y-40078819D02*
X153716266Y-40078819D01*
X153716266Y-40078819D02*
X153621028Y-40031200D01*
X153621028Y-40031200D02*
X153573409Y-39935961D01*
X153573409Y-39935961D02*
X153573409Y-39555009D01*
X153573409Y-39555009D02*
X153621028Y-39459771D01*
X153621028Y-39459771D02*
X153716266Y-39412152D01*
X153716266Y-39412152D02*
X153906742Y-39412152D01*
X153906742Y-39412152D02*
X154001980Y-39459771D01*
X154001980Y-39459771D02*
X154049599Y-39555009D01*
X154049599Y-39555009D02*
X154049599Y-39650247D01*
X154049599Y-39650247D02*
X153573409Y-39745485D01*
X154335314Y-39412152D02*
X154716266Y-39412152D01*
X154478171Y-39078819D02*
X154478171Y-39935961D01*
X154478171Y-39935961D02*
X154525790Y-40031200D01*
X154525790Y-40031200D02*
X154621028Y-40078819D01*
X154621028Y-40078819D02*
X154716266Y-40078819D01*
X155763886Y-40031200D02*
X155906743Y-40078819D01*
X155906743Y-40078819D02*
X156144838Y-40078819D01*
X156144838Y-40078819D02*
X156240076Y-40031200D01*
X156240076Y-40031200D02*
X156287695Y-39983580D01*
X156287695Y-39983580D02*
X156335314Y-39888342D01*
X156335314Y-39888342D02*
X156335314Y-39793104D01*
X156335314Y-39793104D02*
X156287695Y-39697866D01*
X156287695Y-39697866D02*
X156240076Y-39650247D01*
X156240076Y-39650247D02*
X156144838Y-39602628D01*
X156144838Y-39602628D02*
X155954362Y-39555009D01*
X155954362Y-39555009D02*
X155859124Y-39507390D01*
X155859124Y-39507390D02*
X155811505Y-39459771D01*
X155811505Y-39459771D02*
X155763886Y-39364533D01*
X155763886Y-39364533D02*
X155763886Y-39269295D01*
X155763886Y-39269295D02*
X155811505Y-39174057D01*
X155811505Y-39174057D02*
X155859124Y-39126438D01*
X155859124Y-39126438D02*
X155954362Y-39078819D01*
X155954362Y-39078819D02*
X156192457Y-39078819D01*
X156192457Y-39078819D02*
X156335314Y-39126438D01*
X156668648Y-39412152D02*
X156859124Y-40078819D01*
X156859124Y-40078819D02*
X157049600Y-39602628D01*
X157049600Y-39602628D02*
X157240076Y-40078819D01*
X157240076Y-40078819D02*
X157430552Y-39412152D01*
X157811505Y-40078819D02*
X157811505Y-39412152D01*
X157811505Y-39078819D02*
X157763886Y-39126438D01*
X157763886Y-39126438D02*
X157811505Y-39174057D01*
X157811505Y-39174057D02*
X157859124Y-39126438D01*
X157859124Y-39126438D02*
X157811505Y-39078819D01*
X157811505Y-39078819D02*
X157811505Y-39174057D01*
X158144838Y-39412152D02*
X158525790Y-39412152D01*
X158287695Y-39078819D02*
X158287695Y-39935961D01*
X158287695Y-39935961D02*
X158335314Y-40031200D01*
X158335314Y-40031200D02*
X158430552Y-40078819D01*
X158430552Y-40078819D02*
X158525790Y-40078819D01*
X159287695Y-40031200D02*
X159192457Y-40078819D01*
X159192457Y-40078819D02*
X159001981Y-40078819D01*
X159001981Y-40078819D02*
X158906743Y-40031200D01*
X158906743Y-40031200D02*
X158859124Y-39983580D01*
X158859124Y-39983580D02*
X158811505Y-39888342D01*
X158811505Y-39888342D02*
X158811505Y-39602628D01*
X158811505Y-39602628D02*
X158859124Y-39507390D01*
X158859124Y-39507390D02*
X158906743Y-39459771D01*
X158906743Y-39459771D02*
X159001981Y-39412152D01*
X159001981Y-39412152D02*
X159192457Y-39412152D01*
X159192457Y-39412152D02*
X159287695Y-39459771D01*
X159716267Y-40078819D02*
X159716267Y-39078819D01*
X160144838Y-40078819D02*
X160144838Y-39555009D01*
X160144838Y-39555009D02*
X160097219Y-39459771D01*
X160097219Y-39459771D02*
X160001981Y-39412152D01*
X160001981Y-39412152D02*
X159859124Y-39412152D01*
X159859124Y-39412152D02*
X159763886Y-39459771D01*
X159763886Y-39459771D02*
X159716267Y-39507390D01*
X50786819Y-49202933D02*
X51501104Y-49202933D01*
X51501104Y-49202933D02*
X51643961Y-49250552D01*
X51643961Y-49250552D02*
X51739200Y-49345790D01*
X51739200Y-49345790D02*
X51786819Y-49488647D01*
X51786819Y-49488647D02*
X51786819Y-49583885D01*
X50786819Y-48821980D02*
X50786819Y-48155314D01*
X50786819Y-48155314D02*
X51786819Y-48583885D01*
X53265866Y-46159009D02*
X52932533Y-46159009D01*
X52932533Y-46682819D02*
X52932533Y-45682819D01*
X52932533Y-45682819D02*
X53408723Y-45682819D01*
X53646819Y-45682819D02*
X54218247Y-45682819D01*
X53932533Y-46682819D02*
X53932533Y-45682819D01*
X54551581Y-46682819D02*
X54551581Y-45682819D01*
X54551581Y-45682819D02*
X54789676Y-45682819D01*
X54789676Y-45682819D02*
X54932533Y-45730438D01*
X54932533Y-45730438D02*
X55027771Y-45825676D01*
X55027771Y-45825676D02*
X55075390Y-45920914D01*
X55075390Y-45920914D02*
X55123009Y-46111390D01*
X55123009Y-46111390D02*
X55123009Y-46254247D01*
X55123009Y-46254247D02*
X55075390Y-46444723D01*
X55075390Y-46444723D02*
X55027771Y-46539961D01*
X55027771Y-46539961D02*
X54932533Y-46635200D01*
X54932533Y-46635200D02*
X54789676Y-46682819D01*
X54789676Y-46682819D02*
X54551581Y-46682819D01*
X55551581Y-46682819D02*
X55551581Y-45682819D01*
X56742057Y-46635200D02*
X56884914Y-46682819D01*
X56884914Y-46682819D02*
X57123009Y-46682819D01*
X57123009Y-46682819D02*
X57218247Y-46635200D01*
X57218247Y-46635200D02*
X57265866Y-46587580D01*
X57265866Y-46587580D02*
X57313485Y-46492342D01*
X57313485Y-46492342D02*
X57313485Y-46397104D01*
X57313485Y-46397104D02*
X57265866Y-46301866D01*
X57265866Y-46301866D02*
X57218247Y-46254247D01*
X57218247Y-46254247D02*
X57123009Y-46206628D01*
X57123009Y-46206628D02*
X56932533Y-46159009D01*
X56932533Y-46159009D02*
X56837295Y-46111390D01*
X56837295Y-46111390D02*
X56789676Y-46063771D01*
X56789676Y-46063771D02*
X56742057Y-45968533D01*
X56742057Y-45968533D02*
X56742057Y-45873295D01*
X56742057Y-45873295D02*
X56789676Y-45778057D01*
X56789676Y-45778057D02*
X56837295Y-45730438D01*
X56837295Y-45730438D02*
X56932533Y-45682819D01*
X56932533Y-45682819D02*
X57170628Y-45682819D01*
X57170628Y-45682819D02*
X57313485Y-45730438D01*
X57884914Y-46682819D02*
X57789676Y-46635200D01*
X57789676Y-46635200D02*
X57742057Y-46587580D01*
X57742057Y-46587580D02*
X57694438Y-46492342D01*
X57694438Y-46492342D02*
X57694438Y-46206628D01*
X57694438Y-46206628D02*
X57742057Y-46111390D01*
X57742057Y-46111390D02*
X57789676Y-46063771D01*
X57789676Y-46063771D02*
X57884914Y-46016152D01*
X57884914Y-46016152D02*
X58027771Y-46016152D01*
X58027771Y-46016152D02*
X58123009Y-46063771D01*
X58123009Y-46063771D02*
X58170628Y-46111390D01*
X58170628Y-46111390D02*
X58218247Y-46206628D01*
X58218247Y-46206628D02*
X58218247Y-46492342D01*
X58218247Y-46492342D02*
X58170628Y-46587580D01*
X58170628Y-46587580D02*
X58123009Y-46635200D01*
X58123009Y-46635200D02*
X58027771Y-46682819D01*
X58027771Y-46682819D02*
X57884914Y-46682819D01*
X59075390Y-46635200D02*
X58980152Y-46682819D01*
X58980152Y-46682819D02*
X58789676Y-46682819D01*
X58789676Y-46682819D02*
X58694438Y-46635200D01*
X58694438Y-46635200D02*
X58646819Y-46587580D01*
X58646819Y-46587580D02*
X58599200Y-46492342D01*
X58599200Y-46492342D02*
X58599200Y-46206628D01*
X58599200Y-46206628D02*
X58646819Y-46111390D01*
X58646819Y-46111390D02*
X58694438Y-46063771D01*
X58694438Y-46063771D02*
X58789676Y-46016152D01*
X58789676Y-46016152D02*
X58980152Y-46016152D01*
X58980152Y-46016152D02*
X59075390Y-46063771D01*
X59503962Y-46682819D02*
X59503962Y-45682819D01*
X59599200Y-46301866D02*
X59884914Y-46682819D01*
X59884914Y-46016152D02*
X59503962Y-46397104D01*
X60694438Y-46635200D02*
X60599200Y-46682819D01*
X60599200Y-46682819D02*
X60408724Y-46682819D01*
X60408724Y-46682819D02*
X60313486Y-46635200D01*
X60313486Y-46635200D02*
X60265867Y-46539961D01*
X60265867Y-46539961D02*
X60265867Y-46159009D01*
X60265867Y-46159009D02*
X60313486Y-46063771D01*
X60313486Y-46063771D02*
X60408724Y-46016152D01*
X60408724Y-46016152D02*
X60599200Y-46016152D01*
X60599200Y-46016152D02*
X60694438Y-46063771D01*
X60694438Y-46063771D02*
X60742057Y-46159009D01*
X60742057Y-46159009D02*
X60742057Y-46254247D01*
X60742057Y-46254247D02*
X60265867Y-46349485D01*
X61027772Y-46016152D02*
X61408724Y-46016152D01*
X61170629Y-45682819D02*
X61170629Y-46539961D01*
X61170629Y-46539961D02*
X61218248Y-46635200D01*
X61218248Y-46635200D02*
X61313486Y-46682819D01*
X61313486Y-46682819D02*
X61408724Y-46682819D01*
X33643219Y-84424304D02*
X34643219Y-84186209D01*
X34643219Y-84186209D02*
X33928933Y-83995733D01*
X33928933Y-83995733D02*
X34643219Y-83805257D01*
X34643219Y-83805257D02*
X33643219Y-83567162D01*
X33643219Y-82757638D02*
X33643219Y-82948114D01*
X33643219Y-82948114D02*
X33690838Y-83043352D01*
X33690838Y-83043352D02*
X33738457Y-83090971D01*
X33738457Y-83090971D02*
X33881314Y-83186209D01*
X33881314Y-83186209D02*
X34071790Y-83233828D01*
X34071790Y-83233828D02*
X34452742Y-83233828D01*
X34452742Y-83233828D02*
X34547980Y-83186209D01*
X34547980Y-83186209D02*
X34595600Y-83138590D01*
X34595600Y-83138590D02*
X34643219Y-83043352D01*
X34643219Y-83043352D02*
X34643219Y-82852876D01*
X34643219Y-82852876D02*
X34595600Y-82757638D01*
X34595600Y-82757638D02*
X34547980Y-82710019D01*
X34547980Y-82710019D02*
X34452742Y-82662400D01*
X34452742Y-82662400D02*
X34214647Y-82662400D01*
X34214647Y-82662400D02*
X34119409Y-82710019D01*
X34119409Y-82710019D02*
X34071790Y-82757638D01*
X34071790Y-82757638D02*
X34024171Y-82852876D01*
X34024171Y-82852876D02*
X34024171Y-83043352D01*
X34024171Y-83043352D02*
X34071790Y-83138590D01*
X34071790Y-83138590D02*
X34119409Y-83186209D01*
X34119409Y-83186209D02*
X34214647Y-83233828D01*
X33643219Y-81757638D02*
X33643219Y-82233828D01*
X33643219Y-82233828D02*
X34119409Y-82281447D01*
X34119409Y-82281447D02*
X34071790Y-82233828D01*
X34071790Y-82233828D02*
X34024171Y-82138590D01*
X34024171Y-82138590D02*
X34024171Y-81900495D01*
X34024171Y-81900495D02*
X34071790Y-81805257D01*
X34071790Y-81805257D02*
X34119409Y-81757638D01*
X34119409Y-81757638D02*
X34214647Y-81710019D01*
X34214647Y-81710019D02*
X34452742Y-81710019D01*
X34452742Y-81710019D02*
X34547980Y-81757638D01*
X34547980Y-81757638D02*
X34595600Y-81805257D01*
X34595600Y-81805257D02*
X34643219Y-81900495D01*
X34643219Y-81900495D02*
X34643219Y-82138590D01*
X34643219Y-82138590D02*
X34595600Y-82233828D01*
X34595600Y-82233828D02*
X34547980Y-82281447D01*
X34547980Y-80710019D02*
X34595600Y-80757638D01*
X34595600Y-80757638D02*
X34643219Y-80900495D01*
X34643219Y-80900495D02*
X34643219Y-80995733D01*
X34643219Y-80995733D02*
X34595600Y-81138590D01*
X34595600Y-81138590D02*
X34500361Y-81233828D01*
X34500361Y-81233828D02*
X34405123Y-81281447D01*
X34405123Y-81281447D02*
X34214647Y-81329066D01*
X34214647Y-81329066D02*
X34071790Y-81329066D01*
X34071790Y-81329066D02*
X33881314Y-81281447D01*
X33881314Y-81281447D02*
X33786076Y-81233828D01*
X33786076Y-81233828D02*
X33690838Y-81138590D01*
X33690838Y-81138590D02*
X33643219Y-80995733D01*
X33643219Y-80995733D02*
X33643219Y-80900495D01*
X33643219Y-80900495D02*
X33690838Y-80757638D01*
X33690838Y-80757638D02*
X33738457Y-80710019D01*
X33643219Y-79805257D02*
X33643219Y-80281447D01*
X33643219Y-80281447D02*
X34119409Y-80329066D01*
X34119409Y-80329066D02*
X34071790Y-80281447D01*
X34071790Y-80281447D02*
X34024171Y-80186209D01*
X34024171Y-80186209D02*
X34024171Y-79948114D01*
X34024171Y-79948114D02*
X34071790Y-79852876D01*
X34071790Y-79852876D02*
X34119409Y-79805257D01*
X34119409Y-79805257D02*
X34214647Y-79757638D01*
X34214647Y-79757638D02*
X34452742Y-79757638D01*
X34452742Y-79757638D02*
X34547980Y-79805257D01*
X34547980Y-79805257D02*
X34595600Y-79852876D01*
X34595600Y-79852876D02*
X34643219Y-79948114D01*
X34643219Y-79948114D02*
X34643219Y-80186209D01*
X34643219Y-80186209D02*
X34595600Y-80281447D01*
X34595600Y-80281447D02*
X34547980Y-80329066D01*
X34643219Y-78805257D02*
X34643219Y-79376685D01*
X34643219Y-79090971D02*
X33643219Y-79090971D01*
X33643219Y-79090971D02*
X33786076Y-79186209D01*
X33786076Y-79186209D02*
X33881314Y-79281447D01*
X33881314Y-79281447D02*
X33928933Y-79376685D01*
X34643219Y-78376685D02*
X33643219Y-78376685D01*
X33643219Y-78376685D02*
X34643219Y-77805257D01*
X34643219Y-77805257D02*
X33643219Y-77805257D01*
X34643219Y-77424304D02*
X33976552Y-76900495D01*
X33976552Y-77424304D02*
X34643219Y-76900495D01*
X34643219Y-76519542D02*
X33643219Y-76519542D01*
X33643219Y-76519542D02*
X33643219Y-76138590D01*
X33643219Y-76138590D02*
X33690838Y-76043352D01*
X33690838Y-76043352D02*
X33738457Y-75995733D01*
X33738457Y-75995733D02*
X33833695Y-75948114D01*
X33833695Y-75948114D02*
X33976552Y-75948114D01*
X33976552Y-75948114D02*
X34071790Y-75995733D01*
X34071790Y-75995733D02*
X34119409Y-76043352D01*
X34119409Y-76043352D02*
X34167028Y-76138590D01*
X34167028Y-76138590D02*
X34167028Y-76519542D01*
D12*
%TO.C,J9*%
X157235200Y-60553600D02*
X157235200Y-106333600D01*
X157235200Y-57953600D02*
X157235200Y-59283600D01*
X155905200Y-57953600D02*
X157235200Y-57953600D01*
X154635200Y-60553600D02*
X157235200Y-60553600D01*
X154635200Y-57953600D02*
X154635200Y-60553600D01*
X152035200Y-106333600D02*
X157235200Y-106333600D01*
X152035200Y-57953600D02*
X154635200Y-57953600D01*
X152035200Y-57953600D02*
X152035200Y-106333600D01*
%TO.C,C2*%
X47702800Y-84248000D02*
X47702800Y-94488000D01*
X50442800Y-84248000D02*
X47702800Y-84248000D01*
X50442800Y-84248000D02*
X50442800Y-94488000D01*
X50442800Y-94488000D02*
X47702800Y-94488000D01*
%TO.C,R2*%
X45212000Y-86538000D02*
X45212000Y-87488000D01*
X45212000Y-92278000D02*
X45212000Y-91328000D01*
X44292000Y-91328000D02*
X46132000Y-91328000D01*
X46132000Y-87488000D01*
X44292000Y-87488000D01*
X44292000Y-91328000D01*
%TO.C,J6*%
X77968800Y-47641200D02*
X79298800Y-47641200D01*
X77968800Y-48971200D02*
X77968800Y-47641200D01*
X80568800Y-47641200D02*
X93328800Y-47641200D01*
X80568800Y-50301200D02*
X80568800Y-47641200D01*
X80568800Y-50301200D02*
X93328800Y-50301200D01*
X93328800Y-50301200D02*
X93328800Y-47641200D01*
%TO.C,J1*%
X28040600Y-44748700D02*
X28040600Y-32408700D01*
X37735600Y-45643038D02*
X37985600Y-45210025D01*
X37985600Y-45210025D02*
X38235600Y-45643038D01*
X38235600Y-45643038D02*
X37735600Y-45643038D01*
X59010600Y-32408700D02*
X59010600Y-44748700D01*
X59010600Y-44748700D02*
X28040600Y-44748700D01*
%TO.C,C3*%
X47398000Y-55738400D02*
X50138000Y-55738400D01*
X47398000Y-65978400D02*
X47398000Y-55738400D01*
X47398000Y-65978400D02*
X50138000Y-65978400D01*
X50138000Y-65978400D02*
X50138000Y-55738400D01*
%TO.C,C14*%
X143460800Y-52944400D02*
X146200800Y-52944400D01*
X143460800Y-63184400D02*
X143460800Y-52944400D01*
X143460800Y-63184400D02*
X146200800Y-63184400D01*
X146200800Y-63184400D02*
X146200800Y-52944400D01*
%TO.C,D1*%
X72999600Y-64490800D02*
X72999600Y-65440800D01*
X72999600Y-70230800D02*
X72999600Y-69280800D01*
X72079600Y-69280800D02*
X73919600Y-69280800D01*
X73919600Y-65440800D01*
X72079600Y-65440800D01*
X72079600Y-69280800D01*
%TO.C,U2*%
X104588800Y-70348800D02*
X104588800Y-106028800D01*
X104588800Y-106028800D02*
X110048800Y-106028800D01*
X112048800Y-106028800D02*
X117508800Y-106028800D01*
X117508800Y-70348800D02*
X104588800Y-70348800D01*
X117508800Y-106028800D02*
X117508800Y-70348800D01*
X110048800Y-106028800D02*
G75*
G02*
X112048800Y-106028800I1000000J0D01*
G01*
%TO.C,JP1*%
X143908000Y-49894000D02*
X143908000Y-48514000D01*
X145288000Y-49894000D02*
X143908000Y-49894000D01*
X146558000Y-47134000D02*
X151748000Y-47134000D01*
X146558000Y-49894000D02*
X146558000Y-47134000D01*
X146558000Y-49894000D02*
X151748000Y-49894000D01*
X151748000Y-49894000D02*
X151748000Y-47134000D01*
%TO.C,C12*%
X97232800Y-54570000D02*
X99972800Y-54570000D01*
X97232800Y-64810000D02*
X97232800Y-54570000D01*
X97232800Y-64810000D02*
X99972800Y-64810000D01*
X99972800Y-64810000D02*
X99972800Y-54570000D01*
%TO.C,C7*%
X129855600Y-107799200D02*
X129855600Y-110539200D01*
X129855600Y-107799200D02*
X140095600Y-107799200D01*
X129855600Y-110539200D02*
X140095600Y-110539200D01*
X140095600Y-107799200D02*
X140095600Y-110539200D01*
%TO.C,D2*%
X23164800Y-94107200D02*
X23164800Y-95057200D01*
X23164800Y-99847200D02*
X23164800Y-98897200D01*
X22244800Y-98897200D02*
X24084800Y-98897200D01*
X24084800Y-95057200D01*
X22244800Y-95057200D01*
X22244800Y-98897200D01*
%TO.C,R3*%
X76403200Y-36246000D02*
X76403200Y-37196000D01*
X76403200Y-41986000D02*
X76403200Y-41036000D01*
X75483200Y-41036000D02*
X77323200Y-41036000D01*
X77323200Y-37196000D01*
X75483200Y-37196000D01*
X75483200Y-41036000D01*
%TO.C,X1*%
X117870800Y-34889200D02*
X117870800Y-47039200D01*
X117870800Y-47039200D02*
X138020800Y-47039200D01*
X138020800Y-34139200D02*
X118620800Y-34139200D01*
X138770800Y-46289200D02*
X138770800Y-34889200D01*
X117870800Y-34889200D02*
G75*
G02*
X118620800Y-34139200I750000J0D01*
G01*
X138020800Y-34139200D02*
G75*
G02*
X138770800Y-34889200I0J-750000D01*
G01*
X138770800Y-46289200D02*
G75*
G02*
X138020800Y-47039200I-750000J0D01*
G01*
%TO.C,C8*%
X105827200Y-107850000D02*
X105827200Y-110590000D01*
X105827200Y-107850000D02*
X116067200Y-107850000D01*
X105827200Y-110590000D02*
X116067200Y-110590000D01*
X116067200Y-107850000D02*
X116067200Y-110590000D01*
%TO.C,U1*%
X78528400Y-54499200D02*
X78528400Y-105419200D01*
X78528400Y-105419200D02*
X91448400Y-105419200D01*
X83988400Y-54499200D02*
X78528400Y-54499200D01*
X91448400Y-54499200D02*
X85988400Y-54499200D01*
X91448400Y-105419200D02*
X91448400Y-54499200D01*
X85988400Y-54499200D02*
G75*
G02*
X83988400Y-54499200I-1000000J0D01*
G01*
%TO.C,J3*%
X24222400Y-113732000D02*
X24222400Y-116392000D01*
X42062400Y-113732000D02*
X24222400Y-113732000D01*
X42062400Y-113732000D02*
X42062400Y-116392000D01*
X42062400Y-116392000D02*
X24222400Y-116392000D01*
X44662400Y-115062000D02*
X44662400Y-116392000D01*
X44662400Y-116392000D02*
X43332400Y-116392000D01*
%TO.C,SW2*%
X62642300Y-34310100D02*
X62642300Y-44210100D01*
X65697300Y-38583433D02*
X64427300Y-38583433D01*
X67482300Y-34310100D02*
X62642300Y-34310100D01*
X67482300Y-34310100D02*
X67482300Y-44210100D01*
X67482300Y-44210100D02*
X62642300Y-44210100D01*
X67722300Y-34070100D02*
X66339300Y-34070100D01*
X67722300Y-34070100D02*
X67722300Y-35453100D01*
X65697300Y-37230100D02*
X64427300Y-37230100D01*
X64427300Y-38583433D01*
X65697300Y-38583433D01*
X65697300Y-37230100D01*
G36*
X65697300Y-37230100D02*
G01*
X64427300Y-37230100D01*
X64427300Y-38583433D01*
X65697300Y-38583433D01*
X65697300Y-37230100D01*
G37*
X65697300Y-37230100D02*
X64427300Y-37230100D01*
X64427300Y-41290100D01*
X65697300Y-41290100D01*
X65697300Y-37230100D01*
%TO.C,C6*%
X35012000Y-67311600D02*
X35012000Y-70051600D01*
X35012000Y-67311600D02*
X45252000Y-67311600D01*
X35012000Y-70051600D02*
X45252000Y-70051600D01*
X45252000Y-67311600D02*
X45252000Y-70051600D01*
%TO.C,RV1*%
X48215000Y-115413400D02*
X48215000Y-117823400D01*
X48215000Y-115413400D02*
X49735000Y-115413400D01*
X48215000Y-116618400D02*
X48975000Y-116618400D01*
X48215000Y-117823400D02*
X49735000Y-117823400D01*
X49735000Y-112948400D02*
X49735000Y-117998400D01*
X49735000Y-112948400D02*
X59485000Y-112948400D01*
X49735000Y-115413400D02*
X49735000Y-117823400D01*
X49735000Y-117998400D02*
X59485000Y-117998400D01*
X59485000Y-112948400D02*
X59485000Y-117998400D01*
D13*
%TO.C,U9*%
X143542002Y-46393100D02*
X147541998Y-46393100D01*
X143179850Y-43710859D02*
G75*
G02*
X147904151Y-43710860I2362150J-1094741D01*
G01*
X143439437Y-46340996D02*
G75*
G02*
X143179843Y-45900344I2102663J1535496D01*
G01*
X147904151Y-45900340D02*
G75*
G02*
X147644557Y-46340993I-2362251J1094840D01*
G01*
X141287500Y-44805600D02*
G75*
G02*
X141033500Y-44805600I-127000J0D01*
G01*
X141033500Y-44805600D02*
G75*
G02*
X141287500Y-44805600I127000J0D01*
G01*
D12*
%TO.C,D3*%
X70544400Y-40320400D02*
X70700400Y-40320400D01*
X72860400Y-40320400D02*
X73016400Y-40320400D01*
X70544884Y-40320400D02*
G75*
G02*
X70700400Y-37088963I1235516J1560000D01*
G01*
X70700400Y-39801361D02*
G75*
G02*
X70700400Y-37719439I1080000J1040961D01*
G01*
X72860400Y-37088963D02*
G75*
G02*
X73015916Y-40320400I-1080000J-1671437D01*
G01*
X72860400Y-37719439D02*
G75*
G02*
X72860400Y-39801361I-1080000J-1040961D01*
G01*
%TO.C,U7*%
X53890400Y-54600800D02*
X53890400Y-105520800D01*
X53890400Y-105520800D02*
X66810400Y-105520800D01*
X59350400Y-54600800D02*
X53890400Y-54600800D01*
X66810400Y-54600800D02*
X61350400Y-54600800D01*
X66810400Y-105520800D02*
X66810400Y-54600800D01*
X61350400Y-54600800D02*
G75*
G02*
X59350400Y-54600800I-1000000J0D01*
G01*
%TO.C,C9*%
X79411200Y-107240400D02*
X79411200Y-109980400D01*
X79411200Y-107240400D02*
X89651200Y-107240400D01*
X79411200Y-109980400D02*
X89651200Y-109980400D01*
X89651200Y-107240400D02*
X89651200Y-109980400D01*
D14*
%TO.C,REF\u002A\u002A*%
G36*
X125831165Y-91804864D02*
G01*
X125879865Y-91989492D01*
X125788664Y-92160622D01*
X125624192Y-92213065D01*
X125505947Y-92117757D01*
X125428956Y-91907323D01*
X125527609Y-91752525D01*
X125663207Y-91719846D01*
X125831165Y-91804864D01*
G37*
G36*
X124268527Y-99959190D02*
G01*
X124360428Y-100086248D01*
X124353850Y-100139949D01*
X124215309Y-100283729D01*
X124011277Y-100308845D01*
X123876070Y-100220257D01*
X123871113Y-100039051D01*
X123914063Y-99975415D01*
X124086774Y-99909913D01*
X124268527Y-99959190D01*
G37*
G36*
X128383914Y-104003592D02*
G01*
X128389794Y-104159320D01*
X128299605Y-104376799D01*
X128155726Y-104453059D01*
X128025242Y-104359371D01*
X128008498Y-104322615D01*
X128000135Y-104076267D01*
X128157707Y-103930920D01*
X128256529Y-103916322D01*
X128383914Y-104003592D01*
G37*
G36*
X129079981Y-93469322D02*
G01*
X129171882Y-93596380D01*
X129165304Y-93650081D01*
X129026763Y-93793861D01*
X128822730Y-93818978D01*
X128687524Y-93730389D01*
X128682567Y-93549183D01*
X128725517Y-93485547D01*
X128898228Y-93420045D01*
X129079981Y-93469322D01*
G37*
G36*
X129303769Y-86308089D02*
G01*
X129395671Y-86435146D01*
X129389092Y-86488848D01*
X129250552Y-86632627D01*
X129046519Y-86657744D01*
X128911312Y-86569155D01*
X128906356Y-86387950D01*
X128949306Y-86324314D01*
X129122016Y-86258812D01*
X129303769Y-86308089D01*
G37*
G36*
X133123571Y-86267196D02*
G01*
X133168464Y-86481082D01*
X133104014Y-86685829D01*
X132969338Y-86775262D01*
X132770881Y-86724038D01*
X132705604Y-86636926D01*
X132680595Y-86376790D01*
X132787276Y-86189562D01*
X132969338Y-86146369D01*
X133123571Y-86267196D01*
G37*
G36*
X133426535Y-93515231D02*
G01*
X133426462Y-93692799D01*
X133308271Y-93877238D01*
X133110900Y-93946241D01*
X132964220Y-93887004D01*
X132885175Y-93677762D01*
X132950083Y-93452517D01*
X133072308Y-93350616D01*
X133302367Y-93348701D01*
X133426535Y-93515231D01*
G37*
G36*
X134076190Y-103972261D02*
G01*
X134096401Y-104166941D01*
X133995072Y-104371093D01*
X133819329Y-104458086D01*
X133652826Y-104401711D01*
X133602815Y-104321580D01*
X133594724Y-104074620D01*
X133769964Y-103934045D01*
X133907190Y-103916322D01*
X134076190Y-103972261D01*
G37*
G36*
X136649758Y-91775785D02*
G01*
X136669970Y-91970465D01*
X136568641Y-92174617D01*
X136392897Y-92261610D01*
X136226394Y-92205235D01*
X136176383Y-92125104D01*
X136168293Y-91878144D01*
X136343533Y-91737569D01*
X136480758Y-91719846D01*
X136649758Y-91775785D01*
G37*
G36*
X138194331Y-99924715D02*
G01*
X138243475Y-100072050D01*
X138236490Y-100138747D01*
X138130590Y-100348737D01*
X137943774Y-100438642D01*
X137775674Y-100376871D01*
X137708183Y-100208549D01*
X137697209Y-100093268D01*
X137771878Y-99931017D01*
X137984727Y-99888128D01*
X138194331Y-99924715D01*
G37*
G36*
X132655980Y-113717261D02*
G01*
X132895529Y-113860091D01*
X132992637Y-113946212D01*
X133063857Y-114046834D01*
X133113979Y-114196280D01*
X133147793Y-114428871D01*
X133170088Y-114778928D01*
X133185653Y-115280774D01*
X133199279Y-115968729D01*
X133200677Y-116046729D01*
X133235863Y-118015000D01*
X133788122Y-118015000D01*
X134232555Y-118074530D01*
X134567068Y-118234776D01*
X134750306Y-118468223D01*
X134765525Y-118665272D01*
X134720627Y-118749278D01*
X134598773Y-118807097D01*
X134362191Y-118845158D01*
X133973110Y-118869894D01*
X133469790Y-118885865D01*
X132210247Y-118917523D01*
X132240292Y-116313769D01*
X132251555Y-115475358D01*
X132264885Y-114834572D01*
X132282341Y-114365249D01*
X132305985Y-114041226D01*
X132337874Y-113836338D01*
X132380069Y-113724425D01*
X132434630Y-113679321D01*
X132447952Y-113675870D01*
X132655980Y-113717261D01*
G37*
G36*
X122703377Y-113678891D02*
G01*
X123256833Y-113693445D01*
X123625496Y-113713484D01*
X123848351Y-113746859D01*
X123964381Y-113801423D01*
X124012569Y-113885026D01*
X124024089Y-113944886D01*
X123965931Y-114234702D01*
X123746763Y-114456055D01*
X123429287Y-114546243D01*
X123422697Y-114546278D01*
X123150954Y-114546278D01*
X123150954Y-116504428D01*
X123149202Y-117216009D01*
X123141584Y-117738364D01*
X123124556Y-118106041D01*
X123094575Y-118353590D01*
X123048097Y-118515560D01*
X122981578Y-118626501D01*
X122927165Y-118686366D01*
X122660598Y-118855654D01*
X122423641Y-118910155D01*
X122143905Y-118910155D01*
X122143905Y-116735306D01*
X122143905Y-114560457D01*
X121781027Y-114525394D01*
X121468816Y-114430693D01*
X121271499Y-114182697D01*
X121264891Y-114169046D01*
X121189908Y-113967882D01*
X121205963Y-113826559D01*
X121339560Y-113736045D01*
X121617201Y-113687310D01*
X122065392Y-113671322D01*
X122703377Y-113678891D01*
G37*
G36*
X143635443Y-113691123D02*
G01*
X143695154Y-113738835D01*
X143738870Y-113844463D01*
X143769728Y-114036330D01*
X143790866Y-114342756D01*
X143805424Y-114792062D01*
X143816538Y-115412569D01*
X143825695Y-116101475D01*
X143834083Y-116905417D01*
X143835030Y-117515571D01*
X143826727Y-117961863D01*
X143807366Y-118274223D01*
X143775138Y-118482579D01*
X143728234Y-118616858D01*
X143668485Y-118703016D01*
X143430666Y-118858073D01*
X143148927Y-118911566D01*
X142928902Y-118844815D01*
X142918942Y-118835558D01*
X142896297Y-118705812D01*
X142876417Y-118387097D01*
X142860416Y-117914226D01*
X142849405Y-117322013D01*
X142844497Y-116645272D01*
X142844346Y-116500869D01*
X142845608Y-115730956D01*
X142851417Y-115152026D01*
X142864802Y-114731276D01*
X142888798Y-114435905D01*
X142926433Y-114233112D01*
X142980742Y-114090095D01*
X143054755Y-113974052D01*
X143081046Y-113939859D01*
X143347203Y-113710903D01*
X143556597Y-113673007D01*
X143635443Y-113691123D01*
G37*
G36*
X132906412Y-104441344D02*
G01*
X133156124Y-104633878D01*
X133221438Y-104699582D01*
X133576036Y-104968030D01*
X133939183Y-105014545D01*
X134323746Y-104839719D01*
X134431869Y-104755529D01*
X134805242Y-104548155D01*
X135234501Y-104465913D01*
X135642467Y-104511587D01*
X135951959Y-104687963D01*
X135963469Y-104700268D01*
X136097032Y-104873818D01*
X136120679Y-104955750D01*
X136012472Y-105026695D01*
X135761793Y-105190299D01*
X135413731Y-105417146D01*
X135235535Y-105533201D01*
X134145462Y-106359215D01*
X133149055Y-107343145D01*
X132290866Y-108435673D01*
X131667393Y-109483062D01*
X131516311Y-109761253D01*
X131403651Y-109932479D01*
X131372909Y-109958613D01*
X131356512Y-109852333D01*
X131342137Y-109555947D01*
X131330601Y-109103134D01*
X131322720Y-108527572D01*
X131319312Y-107862941D01*
X131319236Y-107744878D01*
X131319236Y-105531144D01*
X131910199Y-104947522D01*
X132225044Y-104662362D01*
X132504335Y-104454470D01*
X132692344Y-104364791D01*
X132704513Y-104363899D01*
X132906412Y-104441344D01*
G37*
G36*
X129626625Y-104484747D02*
G01*
X129979672Y-104763719D01*
X130178635Y-104957387D01*
X130764750Y-105550875D01*
X130734284Y-107716190D01*
X130719601Y-108502137D01*
X130699902Y-109080833D01*
X130673929Y-109468784D01*
X130640425Y-109682497D01*
X130598133Y-109738477D01*
X130581319Y-109724245D01*
X130432861Y-109475089D01*
X130390598Y-109375290D01*
X130230777Y-109049536D01*
X129955982Y-108611274D01*
X129603718Y-108111792D01*
X129211496Y-107602380D01*
X128816823Y-107134328D01*
X128525982Y-106825573D01*
X128060158Y-106401750D01*
X127510570Y-105956433D01*
X126986906Y-105577911D01*
X126927343Y-105538789D01*
X126547979Y-105281314D01*
X126253032Y-105058505D01*
X126084905Y-104903521D01*
X126061650Y-104861829D01*
X126160427Y-104645852D01*
X126444425Y-104512838D01*
X126804811Y-104475793D01*
X127201128Y-104523991D01*
X127496005Y-104694807D01*
X127560605Y-104755529D01*
X127930869Y-104996602D01*
X128324887Y-105040102D01*
X128689348Y-104888297D01*
X128875255Y-104699582D01*
X129106621Y-104459049D01*
X129346343Y-104385314D01*
X129626625Y-104484747D01*
G37*
G36*
X120055662Y-113710593D02*
G01*
X120414223Y-113725397D01*
X120628035Y-113757836D01*
X120736588Y-113814267D01*
X120779375Y-113901043D01*
X120781476Y-113911211D01*
X120741364Y-114203262D01*
X120509946Y-114414369D01*
X120109804Y-114529416D01*
X119832731Y-114546278D01*
X119234654Y-114546278D01*
X119234654Y-115155849D01*
X119234654Y-115765420D01*
X119821051Y-115799241D01*
X120183510Y-115837265D01*
X120374743Y-115910849D01*
X120446278Y-116037202D01*
X120399566Y-116318083D01*
X120178105Y-116538770D01*
X119829932Y-116660220D01*
X119664889Y-116672269D01*
X119234654Y-116672269D01*
X119234654Y-117343635D01*
X119234654Y-118015000D01*
X119832731Y-118015000D01*
X120337198Y-118074307D01*
X120656076Y-118254409D01*
X120794220Y-118558574D01*
X120801174Y-118667203D01*
X120790604Y-118773228D01*
X120733009Y-118842848D01*
X120589569Y-118883704D01*
X120321459Y-118903439D01*
X119889856Y-118909692D01*
X119566825Y-118910155D01*
X118970765Y-118901690D01*
X118573158Y-118874472D01*
X118349243Y-118825762D01*
X118277788Y-118767640D01*
X118263123Y-118618057D01*
X118252688Y-118279184D01*
X118246807Y-117785484D01*
X118245805Y-117171420D01*
X118250006Y-116471456D01*
X118253327Y-116166098D01*
X118283553Y-113707071D01*
X119512858Y-113707071D01*
X120055662Y-113710593D01*
G37*
G36*
X129838646Y-113651124D02*
G01*
X130308539Y-113657400D01*
X130615057Y-113685550D01*
X130818475Y-113749555D01*
X130979069Y-113863399D01*
X131051221Y-113932408D01*
X131332505Y-114213692D01*
X131297897Y-116403302D01*
X131285410Y-117214011D01*
X131266179Y-117828304D01*
X131224015Y-118273354D01*
X131142733Y-118576334D01*
X131006146Y-118764417D01*
X130798069Y-118864776D01*
X130502313Y-118904584D01*
X130102694Y-118911014D01*
X129804619Y-118910155D01*
X129295054Y-118902734D01*
X128959558Y-118874901D01*
X128748741Y-118818299D01*
X128613207Y-118724572D01*
X128595168Y-118705529D01*
X128531042Y-118608006D01*
X128483342Y-118456575D01*
X128449758Y-118220578D01*
X128437008Y-118015000D01*
X129417033Y-118015000D01*
X129867525Y-118015000D01*
X130318016Y-118015000D01*
X130287128Y-116308613D01*
X130256240Y-114602225D01*
X129836637Y-114567497D01*
X129417033Y-114532769D01*
X129417033Y-116273885D01*
X129417033Y-118015000D01*
X128437008Y-118015000D01*
X128427976Y-117869362D01*
X128415686Y-117372268D01*
X128410574Y-116698642D01*
X128410016Y-116273885D01*
X128409985Y-116250200D01*
X128410195Y-115422981D01*
X128420627Y-114792761D01*
X128455983Y-114332792D01*
X128530964Y-114016330D01*
X128660272Y-113816630D01*
X128858607Y-113706944D01*
X129140673Y-113660528D01*
X129521170Y-113650635D01*
X129838646Y-113651124D01*
G37*
G36*
X136511773Y-113655440D02*
G01*
X136877584Y-113668652D01*
X137391871Y-113693914D01*
X137729671Y-113731556D01*
X137938273Y-113791482D01*
X138064966Y-113883598D01*
X138097976Y-113924272D01*
X138156187Y-114053339D01*
X138199168Y-114277324D01*
X138228789Y-114624221D01*
X138246917Y-115122026D01*
X138255421Y-115798737D01*
X138256681Y-116302025D01*
X138256098Y-117130683D01*
X138244153Y-117762303D01*
X138205548Y-118223603D01*
X138124988Y-118541300D01*
X137987176Y-118742112D01*
X137776816Y-118852755D01*
X137478611Y-118899946D01*
X137077266Y-118910402D01*
X136763450Y-118910155D01*
X136248807Y-118903058D01*
X135908862Y-118876360D01*
X135694821Y-118821949D01*
X135557888Y-118731713D01*
X135532613Y-118705529D01*
X135467821Y-118606860D01*
X135419813Y-118453658D01*
X135386202Y-118214882D01*
X135374051Y-118015000D01*
X136354478Y-118015000D01*
X136802055Y-118015000D01*
X137249632Y-118015000D01*
X137249632Y-116280639D01*
X137249632Y-114546278D01*
X136802055Y-114546278D01*
X136354478Y-114546278D01*
X136354478Y-116280639D01*
X136354478Y-118015000D01*
X135374051Y-118015000D01*
X135364597Y-117859493D01*
X135352610Y-117356451D01*
X135347850Y-116674714D01*
X135347430Y-116299802D01*
X135347445Y-116280639D01*
X135348111Y-115457111D01*
X135360160Y-114812368D01*
X135398589Y-114339763D01*
X135478407Y-114013486D01*
X135614624Y-113807725D01*
X135822250Y-113696671D01*
X136116296Y-113654513D01*
X136511773Y-113655440D01*
G37*
G36*
X131901081Y-82101617D02*
G01*
X132243252Y-82636474D01*
X132651962Y-83243383D01*
X133056263Y-83817817D01*
X133189005Y-83999141D01*
X133701361Y-84721354D01*
X134068247Y-85318699D01*
X134304860Y-85822089D01*
X134426397Y-86262437D01*
X134451182Y-86566706D01*
X134351308Y-87176667D01*
X134064396Y-87857116D01*
X133605874Y-88583196D01*
X132991165Y-89330047D01*
X132326284Y-89991097D01*
X131894633Y-90386823D01*
X131607265Y-90630680D01*
X131435072Y-90712278D01*
X131348948Y-90621231D01*
X131319786Y-90347151D01*
X131318479Y-89879651D01*
X131319236Y-89631707D01*
X131319236Y-88411320D01*
X131925767Y-87812323D01*
X132268314Y-87492843D01*
X132510896Y-87319952D01*
X132695673Y-87267377D01*
X132782118Y-87278656D01*
X133110436Y-87268486D01*
X133439846Y-87116502D01*
X133679059Y-86873761D01*
X133733445Y-86746591D01*
X133748131Y-86311748D01*
X133581727Y-85960517D01*
X133266539Y-85736316D01*
X132938069Y-85677555D01*
X132531366Y-85776359D01*
X132239320Y-86043138D01*
X132106178Y-86433445D01*
X132102496Y-86516927D01*
X131999244Y-86904301D01*
X131788664Y-87167194D01*
X131569041Y-87360125D01*
X131416658Y-87462748D01*
X131397034Y-87467864D01*
X131376961Y-87360672D01*
X131358809Y-87057900D01*
X131343274Y-86587754D01*
X131331049Y-85978438D01*
X131322832Y-85258157D01*
X131319316Y-84455117D01*
X131319236Y-84311528D01*
X131319236Y-81155193D01*
X131901081Y-82101617D01*
G37*
G36*
X116609999Y-113670345D02*
G01*
X116837070Y-113703549D01*
X116992982Y-113772213D01*
X117128549Y-113885123D01*
X117165769Y-113921846D01*
X117290122Y-114060621D01*
X117370717Y-114211343D01*
X117416979Y-114423722D01*
X117438331Y-114747469D01*
X117444195Y-115232295D01*
X117444346Y-115391453D01*
X117441930Y-115921946D01*
X117427497Y-116278605D01*
X117390270Y-116511383D01*
X117319473Y-116670231D01*
X117204328Y-116805101D01*
X117122525Y-116883108D01*
X116800705Y-117183734D01*
X117064721Y-117907076D01*
X117227359Y-118371349D01*
X117305409Y-118666122D01*
X117298987Y-118829035D01*
X117208209Y-118897728D01*
X117067806Y-118910155D01*
X116682431Y-118802777D01*
X116358516Y-118484091D01*
X116100791Y-117959269D01*
X116046607Y-117794315D01*
X115906906Y-117394582D01*
X115782825Y-117187797D01*
X115662924Y-117144349D01*
X115557991Y-117224522D01*
X115486773Y-117443265D01*
X115437844Y-117839469D01*
X115430249Y-117936336D01*
X115373164Y-118414229D01*
X115270283Y-118708936D01*
X115095207Y-118860216D01*
X114821537Y-118907829D01*
X114784795Y-118908441D01*
X114530970Y-118910155D01*
X114561006Y-116308613D01*
X114563267Y-116112798D01*
X115420024Y-116112798D01*
X115933773Y-116112798D01*
X116447522Y-116112798D01*
X116414436Y-115357511D01*
X116381350Y-114602225D01*
X115933773Y-114602225D01*
X115486196Y-114602225D01*
X115453110Y-115357511D01*
X115420024Y-116112798D01*
X114563267Y-116112798D01*
X114591042Y-113707071D01*
X115739117Y-113675170D01*
X116260952Y-113663814D01*
X116609999Y-113670345D01*
G37*
G36*
X146877202Y-113671627D02*
G01*
X147262424Y-113753675D01*
X147496774Y-113928072D01*
X147615653Y-114225622D01*
X147654458Y-114677131D01*
X147655800Y-114826014D01*
X147651927Y-115216680D01*
X147625523Y-115434236D01*
X147554405Y-115529357D01*
X147416393Y-115552721D01*
X147337459Y-115553326D01*
X146978558Y-115454641D01*
X146733230Y-115191556D01*
X146648751Y-114838422D01*
X146629125Y-114640063D01*
X146526803Y-114562513D01*
X146276623Y-114563697D01*
X146229148Y-114567497D01*
X145809544Y-114602225D01*
X145778656Y-116308613D01*
X145747768Y-118015000D01*
X146198260Y-118015000D01*
X146489151Y-117998697D01*
X146618796Y-117926573D01*
X146648746Y-117763808D01*
X146648751Y-117760162D01*
X146739259Y-117387607D01*
X146976442Y-117117898D01*
X147308788Y-117008210D01*
X147326462Y-117007952D01*
X147655800Y-117007952D01*
X147655800Y-117773870D01*
X147640345Y-118240755D01*
X147570263Y-118559060D01*
X147409975Y-118756947D01*
X147123903Y-118862578D01*
X146676468Y-118904118D01*
X146220337Y-118910155D01*
X145714317Y-118903359D01*
X145379385Y-118876712D01*
X145163085Y-118820823D01*
X145012960Y-118726299D01*
X144970337Y-118686366D01*
X144892605Y-118594716D01*
X144835285Y-118475930D01*
X144795330Y-118297390D01*
X144769695Y-118026483D01*
X144755333Y-117630591D01*
X144749198Y-117077099D01*
X144748243Y-116333391D01*
X144748262Y-116308613D01*
X144752899Y-115631819D01*
X144764791Y-115029232D01*
X144782582Y-114537643D01*
X144804915Y-114193845D01*
X144830435Y-114034630D01*
X144832183Y-114031531D01*
X145056228Y-113836297D01*
X145433451Y-113713657D01*
X145989739Y-113656929D01*
X146305712Y-113651124D01*
X146877202Y-113671627D01*
G37*
G36*
X126933400Y-113688531D02*
G01*
X127223851Y-113784569D01*
X127396699Y-113982437D01*
X127482467Y-114313897D01*
X127511675Y-114810714D01*
X127514831Y-115378732D01*
X127513044Y-115957522D01*
X127502642Y-116354895D01*
X127476064Y-116613220D01*
X127425748Y-116774866D01*
X127344133Y-116882202D01*
X127230361Y-116972720D01*
X126945891Y-117179942D01*
X127230361Y-117935708D01*
X127397230Y-118390379D01*
X127482409Y-118676017D01*
X127486341Y-118831763D01*
X127409464Y-118896756D01*
X127252221Y-118910138D01*
X127241335Y-118910155D01*
X126882864Y-118802903D01*
X126553668Y-118499677D01*
X126279878Y-118028268D01*
X126189166Y-117791212D01*
X126032538Y-117412787D01*
X125874375Y-117184492D01*
X125797870Y-117139615D01*
X125696404Y-117151951D01*
X125639858Y-117268584D01*
X125616153Y-117533986D01*
X125612628Y-117821612D01*
X125569607Y-118357063D01*
X125433168Y-118703170D01*
X125192241Y-118878674D01*
X124969796Y-118910155D01*
X124870007Y-118897435D01*
X124801875Y-118834274D01*
X124757671Y-118683170D01*
X124729669Y-118406623D01*
X124710140Y-117967132D01*
X124698871Y-117595397D01*
X124688222Y-116892748D01*
X124690558Y-116125665D01*
X125612628Y-116125665D01*
X126088179Y-116091258D01*
X126563729Y-116056851D01*
X126599065Y-115562302D01*
X126613608Y-115076415D01*
X126559586Y-114770982D01*
X126416736Y-114607945D01*
X126164791Y-114549243D01*
X126058073Y-114546278D01*
X125612628Y-114546278D01*
X125612628Y-115335971D01*
X125612628Y-116125665D01*
X124690558Y-116125665D01*
X124690640Y-116098711D01*
X124705234Y-115337994D01*
X124705306Y-115335971D01*
X124717474Y-114993855D01*
X124773421Y-113707071D01*
X125877603Y-113674886D01*
X126494825Y-113662558D01*
X126933400Y-113688531D01*
G37*
G36*
X130690802Y-81532615D02*
G01*
X130713276Y-81834340D01*
X130732331Y-82301648D01*
X130747045Y-82905441D01*
X130756496Y-83616618D01*
X130759764Y-84390771D01*
X130756481Y-85179037D01*
X130747225Y-85888473D01*
X130732890Y-86489980D01*
X130714368Y-86954458D01*
X130692552Y-87252808D01*
X130668805Y-87355970D01*
X130487871Y-87264892D01*
X130276804Y-87041215D01*
X130090679Y-86759270D01*
X129984573Y-86493387D01*
X129976505Y-86421633D01*
X129881658Y-86091059D01*
X129644044Y-85793069D01*
X129334047Y-85600436D01*
X129148623Y-85565661D01*
X128873973Y-85637497D01*
X128584157Y-85811996D01*
X128565417Y-85827688D01*
X128314096Y-86170921D01*
X128266577Y-86562362D01*
X128424134Y-86955004D01*
X128531204Y-87087490D01*
X128771782Y-87286552D01*
X129038282Y-87337757D01*
X129209177Y-87322631D01*
X129437043Y-87308875D01*
X129625852Y-87359743D01*
X129835158Y-87507149D01*
X130124516Y-87783007D01*
X130188252Y-87847301D01*
X130759764Y-88426002D01*
X130759764Y-89569400D01*
X130751316Y-90044637D01*
X130728506Y-90423300D01*
X130695138Y-90658536D01*
X130666938Y-90712798D01*
X130546562Y-90642419D01*
X130307213Y-90455052D01*
X129993568Y-90186351D01*
X129881425Y-90085952D01*
X129237791Y-89447701D01*
X128672508Y-88778257D01*
X128207792Y-88111961D01*
X127865861Y-87483154D01*
X127668928Y-86926180D01*
X127629182Y-86604403D01*
X127671649Y-86237314D01*
X127805156Y-85828948D01*
X128045077Y-85348394D01*
X128406787Y-84764741D01*
X128890876Y-84067618D01*
X129384262Y-83377098D01*
X129761461Y-82837778D01*
X130040770Y-82421985D01*
X130240487Y-82102049D01*
X130378911Y-81850297D01*
X130434472Y-81733282D01*
X130559598Y-81515330D01*
X130665831Y-81425573D01*
X130690802Y-81532615D01*
G37*
G36*
X140538012Y-113651124D02*
G01*
X141123271Y-113666637D01*
X141521170Y-113731985D01*
X141767090Y-113875382D01*
X141896415Y-114125042D01*
X141944524Y-114509178D01*
X141949192Y-114776411D01*
X141949192Y-115553326D01*
X141627210Y-115553326D01*
X141304225Y-115489025D01*
X141115445Y-115274678D01*
X141035965Y-114937908D01*
X140983512Y-114712283D01*
X140846898Y-114607817D01*
X140582258Y-114567722D01*
X140388814Y-114560229D01*
X140248741Y-114594656D01*
X140154230Y-114700920D01*
X140097474Y-114908939D01*
X140070661Y-115248628D01*
X140065985Y-115749905D01*
X140075635Y-116442687D01*
X140076741Y-116504428D01*
X140102936Y-117959053D01*
X140550513Y-117959053D01*
X140838434Y-117946006D01*
X140972299Y-117867299D01*
X141021752Y-117663590D01*
X141032277Y-117548533D01*
X141030296Y-117257981D01*
X140929303Y-117091359D01*
X140752541Y-116987554D01*
X140513571Y-116809929D01*
X140439277Y-116543108D01*
X140438619Y-116502920D01*
X140438619Y-116168745D01*
X141165932Y-116168745D01*
X141893245Y-116168745D01*
X141925294Y-117330320D01*
X141934943Y-117952269D01*
X141903820Y-118384992D01*
X141802081Y-118662784D01*
X141599883Y-118819942D01*
X141267380Y-118890759D01*
X140774729Y-118909532D01*
X140550513Y-118910155D01*
X140042102Y-118903067D01*
X139707308Y-118876086D01*
X139496244Y-118820635D01*
X139359027Y-118728137D01*
X139332726Y-118700786D01*
X139266933Y-118603159D01*
X139218102Y-118455453D01*
X139183811Y-118226541D01*
X139161636Y-117885291D01*
X139149154Y-117400576D01*
X139143942Y-116741266D01*
X139143296Y-116267086D01*
X139143980Y-115437081D01*
X139155478Y-114804155D01*
X139192015Y-114341624D01*
X139267819Y-114022804D01*
X139397117Y-113821011D01*
X139594135Y-113709563D01*
X139873099Y-113661774D01*
X140248237Y-113650961D01*
X140538012Y-113651124D01*
G37*
G36*
X122726761Y-96660075D02*
G01*
X123412270Y-97569719D01*
X124254229Y-98438205D01*
X125186523Y-99201017D01*
X125650771Y-99513232D01*
X126570346Y-100114575D01*
X127491682Y-100767788D01*
X128367950Y-101436740D01*
X129152322Y-102085302D01*
X129797969Y-102677344D01*
X129948531Y-102829119D01*
X130322456Y-103225929D01*
X130561989Y-103512728D01*
X130695537Y-103733051D01*
X130751513Y-103930432D01*
X130759764Y-104072238D01*
X130738011Y-104358016D01*
X130655837Y-104453980D01*
X130487875Y-104363549D01*
X130256240Y-104140110D01*
X129957194Y-103897349D01*
X129628303Y-103808737D01*
X129503314Y-103804428D01*
X129061918Y-103724268D01*
X128831784Y-103580639D01*
X128450729Y-103358409D01*
X128043395Y-103343412D01*
X127661587Y-103533158D01*
X127548171Y-103642335D01*
X127260700Y-103854326D01*
X126874596Y-103916322D01*
X126685660Y-103903484D01*
X126510209Y-103847807D01*
X126312004Y-103723550D01*
X126054808Y-103504969D01*
X125702382Y-103166324D01*
X125414603Y-102879198D01*
X124985609Y-102442122D01*
X124693594Y-102123462D01*
X124513043Y-101887762D01*
X124418437Y-101699566D01*
X124384262Y-101523418D01*
X124381791Y-101444077D01*
X124468378Y-101032816D01*
X124650988Y-100793183D01*
X124911951Y-100470280D01*
X124974121Y-100142086D01*
X124875734Y-99791248D01*
X124626821Y-99456992D01*
X124262461Y-99278254D01*
X123878736Y-99282590D01*
X123519940Y-99471392D01*
X123300321Y-99784370D01*
X123233349Y-100160554D01*
X123332493Y-100538975D01*
X123542584Y-100804201D01*
X123719704Y-101003870D01*
X123802772Y-101254114D01*
X123822320Y-101612481D01*
X123827328Y-101853469D01*
X123859746Y-102045023D01*
X123945665Y-102228548D01*
X124111177Y-102445455D01*
X124382372Y-102737148D01*
X124785341Y-103145038D01*
X124792551Y-103152281D01*
X125201188Y-103569323D01*
X125467940Y-103862263D01*
X125613858Y-104060403D01*
X125659994Y-104193048D01*
X125627396Y-104289499D01*
X125618057Y-104301411D01*
X125496053Y-104424541D01*
X125371281Y-104453926D01*
X125194400Y-104375026D01*
X124916069Y-104173300D01*
X124755495Y-104047221D01*
X123807655Y-103178890D01*
X123068999Y-102235670D01*
X122535481Y-101208373D01*
X122203051Y-100087813D01*
X122067663Y-98864802D01*
X122085011Y-97985925D01*
X122125467Y-97460684D01*
X122173240Y-96966282D01*
X122220268Y-96582577D01*
X122237543Y-96475353D01*
X122319540Y-96027776D01*
X122726761Y-96660075D01*
G37*
G36*
X139806299Y-96100126D02*
G01*
X139857552Y-96207247D01*
X139900514Y-96414578D01*
X139943447Y-96795973D01*
X139982013Y-97301747D01*
X140011873Y-97882218D01*
X140017765Y-98041873D01*
X140034661Y-98761744D01*
X140027657Y-99314265D01*
X139993468Y-99754921D01*
X139928807Y-100139200D01*
X139881910Y-100335705D01*
X139476702Y-101493891D01*
X138893314Y-102519730D01*
X138123969Y-103424673D01*
X137320497Y-104105537D01*
X136976641Y-104352947D01*
X136759996Y-104481798D01*
X136619830Y-104509242D01*
X136505413Y-104452431D01*
X136445816Y-104401243D01*
X136365716Y-104315500D01*
X136344223Y-104223942D01*
X136401421Y-104096224D01*
X136557393Y-103902001D01*
X136832224Y-103610928D01*
X137245165Y-103193495D01*
X138256681Y-102177756D01*
X138256681Y-101597499D01*
X138280866Y-101204020D01*
X138373383Y-100938956D01*
X138536416Y-100737507D01*
X138768175Y-100377158D01*
X138797835Y-99995102D01*
X138624489Y-99642309D01*
X138557178Y-99571950D01*
X138209879Y-99361004D01*
X137861959Y-99333554D01*
X137549018Y-99453188D01*
X137306659Y-99683499D01*
X137170484Y-99988076D01*
X137176095Y-100330510D01*
X137359093Y-100674391D01*
X137417474Y-100737507D01*
X137624711Y-101030641D01*
X137695800Y-101403841D01*
X137697209Y-101485494D01*
X137687086Y-101692337D01*
X137639122Y-101872858D01*
X137526927Y-102066225D01*
X137324109Y-102311602D01*
X137004277Y-102648155D01*
X136720467Y-102935033D01*
X136307375Y-103345841D01*
X136010583Y-103622502D01*
X135790510Y-103791442D01*
X135607578Y-103879084D01*
X135422207Y-103911854D01*
X135250699Y-103916322D01*
X134871337Y-103878368D01*
X134605518Y-103739448D01*
X134498423Y-103636586D01*
X134148737Y-103405310D01*
X133747309Y-103375318D01*
X133344949Y-103548989D01*
X133302800Y-103580639D01*
X132937445Y-103755569D01*
X132593089Y-103804428D01*
X132281276Y-103843006D01*
X132006551Y-103987643D01*
X131743557Y-104218766D01*
X131319236Y-104633105D01*
X131319236Y-104156157D01*
X131351685Y-103823931D01*
X131474875Y-103530642D01*
X131727569Y-103185345D01*
X131738839Y-103171679D01*
X132200578Y-102678965D01*
X132834488Y-102102665D01*
X133614800Y-101463600D01*
X134515747Y-100782596D01*
X135511561Y-100080475D01*
X135831205Y-99864654D01*
X136681823Y-99279509D01*
X137370299Y-98763311D01*
X137933307Y-98282268D01*
X138407516Y-97802589D01*
X138829600Y-97290485D01*
X139210734Y-96750647D01*
X139470389Y-96365932D01*
X139637181Y-96145252D01*
X139739641Y-96064639D01*
X139806299Y-96100126D01*
G37*
G36*
X135812614Y-86990653D02*
G01*
X136045399Y-87211952D01*
X136346502Y-87534060D01*
X136681784Y-87918753D01*
X137017104Y-88327803D01*
X137318325Y-88722983D01*
X137381101Y-88810595D01*
X138021963Y-89829317D01*
X138518710Y-90854997D01*
X138857476Y-91851501D01*
X139024394Y-92782699D01*
X139039941Y-93133106D01*
X138977366Y-93869337D01*
X138782190Y-94590993D01*
X138443236Y-95313484D01*
X137949326Y-96052217D01*
X137289283Y-96822599D01*
X136451930Y-97640038D01*
X135426090Y-98519941D01*
X134732011Y-99071437D01*
X134139134Y-99542270D01*
X133514768Y-100056200D01*
X132922431Y-100559829D01*
X132425645Y-100999757D01*
X132298311Y-101117345D01*
X131319236Y-102034304D01*
X131319236Y-100820474D01*
X131319236Y-99606644D01*
X134004698Y-96922930D01*
X136690161Y-94239216D01*
X136690161Y-93527133D01*
X136700964Y-93121597D01*
X136747295Y-92869782D01*
X136850038Y-92702103D01*
X136969897Y-92595009D01*
X137198309Y-92297929D01*
X137250098Y-91953152D01*
X137147627Y-91615382D01*
X136913262Y-91339319D01*
X136569367Y-91179666D01*
X136383361Y-91160375D01*
X136027148Y-91250263D01*
X135803128Y-91455200D01*
X135601296Y-91848208D01*
X135622092Y-92226424D01*
X135850954Y-92569225D01*
X136028148Y-92795753D01*
X136111485Y-93068306D01*
X136130690Y-93433653D01*
X136130690Y-94018345D01*
X135149401Y-94995087D01*
X134764510Y-95369176D01*
X134430494Y-95677053D01*
X134181858Y-95888061D01*
X134053109Y-95971544D01*
X134049963Y-95971829D01*
X133896908Y-95897081D01*
X133692322Y-95716886D01*
X133688520Y-95712855D01*
X133483204Y-95345150D01*
X133439484Y-94908203D01*
X133555286Y-94485396D01*
X133724963Y-94247640D01*
X133951007Y-93894390D01*
X133990071Y-93523488D01*
X133863380Y-93188374D01*
X133592155Y-92942494D01*
X133197619Y-92839289D01*
X133165491Y-92838789D01*
X132763011Y-92929838D01*
X132482336Y-93167355D01*
X132344688Y-93497897D01*
X132371290Y-93868022D01*
X132583365Y-94224286D01*
X132606020Y-94247640D01*
X132783024Y-94473789D01*
X132866395Y-94745769D01*
X132885756Y-95113086D01*
X132903457Y-95483932D01*
X132984360Y-95733719D01*
X133170161Y-95964139D01*
X133277372Y-96068179D01*
X133439628Y-96221208D01*
X133541855Y-96346195D01*
X133568886Y-96471747D01*
X133505554Y-96626468D01*
X133336692Y-96838966D01*
X133047134Y-97137847D01*
X132621713Y-97551717D01*
X132353679Y-97810360D01*
X131319236Y-98809684D01*
X131320491Y-95572474D01*
X131321747Y-92335265D01*
X132225335Y-91674023D01*
X132984731Y-91086762D01*
X133681946Y-90486955D01*
X134287031Y-89904058D01*
X134770041Y-89367527D01*
X135101028Y-88906818D01*
X135172282Y-88775429D01*
X135353337Y-88306997D01*
X135491011Y-87780949D01*
X135528081Y-87551785D01*
X135580368Y-87206600D01*
X135639883Y-86973078D01*
X135682287Y-86908392D01*
X135812614Y-86990653D01*
G37*
G36*
X126472564Y-87119533D02*
G01*
X126505505Y-87367187D01*
X126507782Y-87463666D01*
X126548440Y-87818474D01*
X126653068Y-88260457D01*
X126748927Y-88554636D01*
X127050749Y-89120780D01*
X127558502Y-89756603D01*
X128267216Y-90456930D01*
X129171925Y-91216584D01*
X129668795Y-91596640D01*
X130759764Y-92409186D01*
X130759764Y-95533239D01*
X130756810Y-96343256D01*
X130748467Y-97075192D01*
X130735518Y-97700699D01*
X130718744Y-98191424D01*
X130698926Y-98519018D01*
X130676847Y-98655129D01*
X130673634Y-98657291D01*
X130558518Y-98581018D01*
X130328230Y-98376769D01*
X130018966Y-98081402D01*
X129666921Y-97731773D01*
X129308290Y-97364738D01*
X128979268Y-97017153D01*
X128716050Y-96725876D01*
X128554831Y-96527764D01*
X128521879Y-96466211D01*
X128596478Y-96321516D01*
X128782792Y-96102351D01*
X128857562Y-96027776D01*
X129065679Y-95792780D01*
X129165088Y-95548294D01*
X129192940Y-95195084D01*
X129193245Y-95131192D01*
X129216458Y-94745063D01*
X129306111Y-94489827D01*
X129472980Y-94293414D01*
X129702786Y-93953154D01*
X129757180Y-93578419D01*
X129655984Y-93224804D01*
X129419019Y-92947901D01*
X129066107Y-92803303D01*
X128938382Y-92794031D01*
X128490660Y-92880846D01*
X128180136Y-93143665D01*
X128065415Y-93365688D01*
X128035987Y-93721744D01*
X128164803Y-94092424D01*
X128415247Y-94376831D01*
X128605800Y-94633278D01*
X128644238Y-94982856D01*
X128536632Y-95360399D01*
X128292184Y-95697751D01*
X127950595Y-96025014D01*
X126949453Y-95007559D01*
X126537014Y-94585131D01*
X126256928Y-94281565D01*
X126083606Y-94057180D01*
X125991456Y-93872298D01*
X125954888Y-93687239D01*
X125948312Y-93462325D01*
X125948311Y-93455251D01*
X125977128Y-93074956D01*
X126085922Y-92818428D01*
X126228046Y-92661148D01*
X126450214Y-92323383D01*
X126510375Y-91924269D01*
X126404950Y-91545488D01*
X126283994Y-91384163D01*
X126039651Y-91205147D01*
X125737902Y-91143200D01*
X125444786Y-91156319D01*
X125118979Y-91285333D01*
X124893634Y-91557334D01*
X124786044Y-91907554D01*
X124813499Y-92271221D01*
X124993292Y-92583565D01*
X125050036Y-92634974D01*
X125199282Y-92784204D01*
X125274578Y-92967628D01*
X125294859Y-93256564D01*
X125287705Y-93530020D01*
X125259947Y-94210137D01*
X128009856Y-96968112D01*
X130759764Y-99726088D01*
X130759764Y-100814156D01*
X130751758Y-101276327D01*
X130730205Y-101640320D01*
X130698808Y-101858287D01*
X130675844Y-101899104D01*
X130567316Y-101824203D01*
X130334309Y-101622695D01*
X130011310Y-101325493D01*
X129640822Y-100971310D01*
X129135633Y-100501066D01*
X128557672Y-99995342D01*
X127995612Y-99530534D01*
X127715094Y-99312243D01*
X126601296Y-98441765D01*
X125672624Y-97644958D01*
X124910531Y-96902762D01*
X124296470Y-96196118D01*
X123811893Y-95505967D01*
X123538868Y-95020631D01*
X123319688Y-94571653D01*
X123188011Y-94230752D01*
X123122330Y-93910561D01*
X123101138Y-93523713D01*
X123100716Y-93240710D01*
X123217613Y-92112515D01*
X123549746Y-90970072D01*
X124090401Y-89827732D01*
X124832860Y-88699847D01*
X125710627Y-87663679D01*
X126007516Y-87361096D01*
X126250759Y-87134967D01*
X126397025Y-87024988D01*
X126412920Y-87020287D01*
X126472564Y-87119533D01*
G37*
D12*
%TO.C,U5*%
X25035200Y-57369400D02*
X25035200Y-59604400D01*
X25035200Y-61604400D02*
X25035200Y-63839400D01*
X25035200Y-63839400D02*
X45475200Y-63839400D01*
X45475200Y-57369400D02*
X25035200Y-57369400D01*
X45475200Y-63839400D02*
X45475200Y-57369400D01*
X25035200Y-59604400D02*
G75*
G02*
X25035200Y-61604400I0J-1000000D01*
G01*
%TO.C,U8*%
X131186400Y-55160000D02*
X131186400Y-59780000D01*
X131186400Y-55160000D02*
X141406400Y-55160000D01*
X131186400Y-56540000D02*
X141406400Y-56540000D01*
X131186400Y-59780000D02*
X141406400Y-59780000D01*
X134446400Y-55160000D02*
X134446400Y-56540000D01*
X138146400Y-55160000D02*
X138146400Y-56540000D01*
X141406400Y-55160000D02*
X141406400Y-59780000D01*
%TO.C,J5*%
X67046800Y-114849600D02*
X68376800Y-114849600D01*
X67046800Y-116179600D02*
X67046800Y-114849600D01*
X69646800Y-114849600D02*
X107806800Y-114849600D01*
X69646800Y-117509600D02*
X69646800Y-114849600D01*
X69646800Y-117509600D02*
X107806800Y-117509600D01*
X107806800Y-117509600D02*
X107806800Y-114849600D01*
%TO.C,R1*%
X100086800Y-37618000D02*
X100086800Y-38568000D01*
X100086800Y-43358000D02*
X100086800Y-42408000D01*
X99166800Y-42408000D02*
X101006800Y-42408000D01*
X101006800Y-38568000D01*
X99166800Y-38568000D01*
X99166800Y-42408000D01*
%TO.C,Y1*%
X45113800Y-73797800D02*
X45113800Y-80047800D01*
X49983800Y-73797800D02*
X49983800Y-80047800D01*
X45113800Y-73797800D02*
G75*
G02*
X49983800Y-73797800I2435000J0D01*
G01*
X49983800Y-80047800D02*
G75*
G02*
X45113800Y-80047800I-2435000J0D01*
G01*
%TO.C,C1*%
X112472800Y-35367600D02*
X115212800Y-35367600D01*
X112472800Y-45607600D02*
X112472800Y-35367600D01*
X112472800Y-45607600D02*
X115212800Y-45607600D01*
X115212800Y-45607600D02*
X115212800Y-35367600D01*
%TO.C,U3*%
X128515600Y-70348800D02*
X128515600Y-106028800D01*
X128515600Y-106028800D02*
X133975600Y-106028800D01*
X135975600Y-106028800D02*
X141435600Y-106028800D01*
X141435600Y-70348800D02*
X128515600Y-70348800D01*
X141435600Y-106028800D02*
X141435600Y-70348800D01*
X133975600Y-106028800D02*
G75*
G02*
X135975600Y-106028800I1000000J0D01*
G01*
%TO.C,J2*%
X82541200Y-31557200D02*
X96641200Y-31557200D01*
X82541200Y-36357200D02*
X82541200Y-31557200D01*
X82541200Y-44657200D02*
X82541200Y-39857200D01*
X90341200Y-30857200D02*
X90841200Y-31357200D01*
X90841200Y-31357200D02*
X91341200Y-30857200D01*
X91341200Y-30857200D02*
X90341200Y-30857200D01*
X96641200Y-31557200D02*
X96641200Y-36357200D01*
X96641200Y-39857200D02*
X96641200Y-44657200D01*
X96641200Y-44657200D02*
X82541200Y-44657200D01*
%TO.C,C13*%
X126392000Y-53096800D02*
X126392000Y-63336800D01*
X129132000Y-53096800D02*
X126392000Y-53096800D01*
X129132000Y-53096800D02*
X129132000Y-63336800D01*
X129132000Y-63336800D02*
X126392000Y-63336800D01*
%TO.C,U6*%
X101997200Y-56887600D02*
X101997200Y-58537600D01*
X101997200Y-60537600D02*
X101997200Y-62187600D01*
X101997200Y-62187600D02*
X119897200Y-62187600D01*
X119897200Y-56887600D02*
X101997200Y-56887600D01*
X119897200Y-62187600D02*
X119897200Y-56887600D01*
X101997200Y-58537600D02*
G75*
G02*
X101997200Y-60537600I0J-1000000D01*
G01*
%TO.C,SW1*%
X102867200Y-38236800D02*
X102867200Y-42736800D01*
X105367200Y-43986800D02*
X106867200Y-43986800D01*
X106867200Y-36986800D02*
X105367200Y-36986800D01*
X109367200Y-42736800D02*
X109367200Y-38236800D01*
%TO.C,C10*%
X55941600Y-107342000D02*
X55941600Y-110082000D01*
X55941600Y-107342000D02*
X66181600Y-107342000D01*
X55941600Y-110082000D02*
X66181600Y-110082000D01*
X66181600Y-107342000D02*
X66181600Y-110082000D01*
%TO.C,C5*%
X23886800Y-67210000D02*
X23886800Y-69950000D01*
X23886800Y-67210000D02*
X34126800Y-67210000D01*
X23886800Y-69950000D02*
X34126800Y-69950000D01*
X34126800Y-67210000D02*
X34126800Y-69950000D01*
%TO.C,J4*%
X25644800Y-47590400D02*
X26974800Y-47590400D01*
X25644800Y-48920400D02*
X25644800Y-47590400D01*
X28244800Y-47590400D02*
X46084800Y-47590400D01*
X28244800Y-50250400D02*
X28244800Y-47590400D01*
X28244800Y-50250400D02*
X46084800Y-50250400D01*
X46084800Y-50250400D02*
X46084800Y-47590400D01*
%TO.C,C4*%
X21439200Y-55738400D02*
X24179200Y-55738400D01*
X21439200Y-65978400D02*
X21439200Y-55738400D01*
X21439200Y-65978400D02*
X24179200Y-65978400D01*
X24179200Y-65978400D02*
X24179200Y-55738400D01*
%TO.C,SW3*%
X142232300Y-35648400D02*
X142232300Y-37148400D01*
X143482300Y-39648400D02*
X147982300Y-39648400D01*
X147982300Y-33148400D02*
X143482300Y-33148400D01*
X149232300Y-37148400D02*
X149232300Y-35648400D01*
%TO.C,C11*%
X29017600Y-107443600D02*
X29017600Y-110183600D01*
X29017600Y-107443600D02*
X39257600Y-107443600D01*
X29017600Y-110183600D02*
X39257600Y-110183600D01*
X39257600Y-107443600D02*
X39257600Y-110183600D01*
%TO.C,J7*%
X52772000Y-47539600D02*
X54102000Y-47539600D01*
X52772000Y-48869600D02*
X52772000Y-47539600D01*
X55372000Y-47539600D02*
X68132000Y-47539600D01*
X55372000Y-50199600D02*
X55372000Y-47539600D01*
X55372000Y-50199600D02*
X68132000Y-50199600D01*
X68132000Y-50199600D02*
X68132000Y-47539600D01*
%TO.C,U4*%
X27626800Y-71314000D02*
X27626800Y-106994000D01*
X27626800Y-106994000D02*
X33086800Y-106994000D01*
X35086800Y-106994000D02*
X40546800Y-106994000D01*
X40546800Y-71314000D02*
X27626800Y-71314000D01*
X40546800Y-106994000D02*
X40546800Y-71314000D01*
X33086800Y-106994000D02*
G75*
G02*
X35086800Y-106994000I1000000J0D01*
G01*
%TD*%
M02*
