%TF.GenerationSoftware,KiCad,Pcbnew,9.0.2*%
%TF.CreationDate,2025-06-11T12:09:53+01:00*%
%TF.ProjectId,6502pc,36353032-7063-42e6-9b69-6361645f7063,rev?*%
%TF.SameCoordinates,Original*%
%TF.FileFunction,Plated,1,2,PTH,Drill*%
%TF.FilePolarity,Positive*%
%FSLAX46Y46*%
G04 Gerber Fmt 4.6, Leading zero omitted, Abs format (unit mm)*
G04 Created by KiCad (PCBNEW 9.0.2) date 2025-06-11 12:09:53*
%MOMM*%
%LPD*%
G01*
G04 APERTURE LIST*
%TA.AperFunction,ViaDrill*%
%ADD10C,0.300000*%
%TD*%
%TA.AperFunction,ComponentDrill*%
%ADD11C,0.700000*%
%TD*%
%TA.AperFunction,ComponentDrill*%
%ADD12C,0.800000*%
%TD*%
%TA.AperFunction,ComponentDrill*%
%ADD13C,0.900000*%
%TD*%
%TA.AperFunction,ComponentDrill*%
%ADD14C,0.920000*%
%TD*%
%TA.AperFunction,ComponentDrill*%
%ADD15C,1.000000*%
%TD*%
%TA.AperFunction,ComponentDrill*%
%ADD16C,1.016000*%
%TD*%
%TA.AperFunction,ComponentDrill*%
%ADD17C,1.100000*%
%TD*%
%TA.AperFunction,ComponentDrill*%
%ADD18C,2.300000*%
%TD*%
%TA.AperFunction,ComponentDrill*%
%ADD19C,3.200000*%
%TD*%
G04 APERTURE END LIST*
D10*
X25635300Y-62822500D03*
X28610700Y-37552100D03*
X31913400Y-75902600D03*
X34374400Y-112952500D03*
X37536900Y-84942300D03*
X37536900Y-119359700D03*
X37693600Y-105206800D03*
X40233600Y-103733600D03*
X41292200Y-60925700D03*
X43136000Y-81712200D03*
X43969500Y-110594600D03*
X44053700Y-60145300D03*
X44457500Y-79576100D03*
X44805600Y-96266000D03*
X45159600Y-53348700D03*
X45573200Y-81772300D03*
X46464200Y-52163300D03*
X46906100Y-69891300D03*
X47289500Y-52976000D03*
X48107600Y-95504000D03*
X49644300Y-51954800D03*
X50215800Y-52986900D03*
X50850800Y-54457600D03*
X51529000Y-114271600D03*
X52672100Y-113388100D03*
X53848000Y-54194000D03*
X54379100Y-94947500D03*
X55016400Y-53594000D03*
X55389300Y-118579300D03*
X55981600Y-57048400D03*
X58364700Y-81542100D03*
X61976000Y-121818400D03*
X62026800Y-116840000D03*
X66266900Y-75726700D03*
X70091600Y-89968000D03*
X70266300Y-58004000D03*
X70347200Y-71993800D03*
X70592500Y-107346800D03*
X75878600Y-109814200D03*
X77127800Y-114410100D03*
X78059400Y-90106900D03*
X79424300Y-85984700D03*
X79469500Y-96254400D03*
X82167900Y-58390500D03*
X82167900Y-63847400D03*
X82961800Y-69690800D03*
X85143300Y-112754300D03*
X85143300Y-118579300D03*
X90106900Y-93724700D03*
X90707400Y-98909400D03*
X91308500Y-90733400D03*
X93915400Y-74492300D03*
X94234000Y-50850800D03*
X94300800Y-96383200D03*
X94482800Y-101553000D03*
X97046500Y-103104800D03*
X97485200Y-91592400D03*
X99364300Y-99738900D03*
X100231800Y-104506100D03*
X100296000Y-102090800D03*
X100685600Y-91643200D03*
X101077800Y-85590500D03*
X101244400Y-50850800D03*
X102068400Y-79022800D03*
X104759000Y-73691100D03*
X106049500Y-87070500D03*
X108508800Y-89408000D03*
X109681100Y-38405300D03*
X115163600Y-65532000D03*
X117126900Y-72069700D03*
X117126900Y-95251500D03*
X119929600Y-69131100D03*
X120650000Y-65532000D03*
X121361200Y-63500000D03*
X124612400Y-61722000D03*
X124638100Y-92842100D03*
X125888000Y-101956500D03*
X125933400Y-104560200D03*
X129039000Y-92693400D03*
X129891300Y-86849600D03*
X135725100Y-66708000D03*
X140764800Y-76221400D03*
X143902800Y-97715800D03*
X144651300Y-66708000D03*
X145544300Y-77913500D03*
X145628300Y-74336500D03*
X150302550Y-43042250D03*
X150768100Y-70853900D03*
X153098800Y-104006900D03*
X153577500Y-40473800D03*
X155570600Y-48012600D03*
X156514300Y-84299300D03*
D11*
%TO.C,D2*%
X23164800Y-93167200D03*
X23164800Y-100787200D03*
%TO.C,R2*%
X45212000Y-85598000D03*
X45212000Y-93218000D03*
%TO.C,D1*%
X72999600Y-63550800D03*
X72999600Y-71170800D03*
%TO.C,R3*%
X76403200Y-35306000D03*
X76403200Y-42926000D03*
%TO.C,R1*%
X100086800Y-36678000D03*
X100086800Y-44298000D03*
D12*
%TO.C,C4*%
X22809200Y-58358400D03*
X22809200Y-63358400D03*
%TO.C,U5*%
X26365200Y-55524400D03*
X26365200Y-65684400D03*
%TO.C,U4*%
X26466800Y-72644000D03*
X26466800Y-75184000D03*
X26466800Y-77724000D03*
X26466800Y-80264000D03*
X26466800Y-82804000D03*
X26466800Y-85344000D03*
X26466800Y-87884000D03*
X26466800Y-90424000D03*
X26466800Y-92964000D03*
X26466800Y-95504000D03*
X26466800Y-98044000D03*
X26466800Y-100584000D03*
X26466800Y-103124000D03*
X26466800Y-105664000D03*
%TO.C,C5*%
X26506800Y-68580000D03*
%TO.C,U5*%
X28905200Y-55524400D03*
X28905200Y-65684400D03*
X31445200Y-55524400D03*
X31445200Y-65684400D03*
%TO.C,C5*%
X31506800Y-68580000D03*
%TO.C,C11*%
X31637600Y-108813600D03*
%TO.C,U5*%
X33985200Y-55524400D03*
X33985200Y-65684400D03*
X36525200Y-55524400D03*
X36525200Y-65684400D03*
%TO.C,C11*%
X36637600Y-108813600D03*
%TO.C,C6*%
X37632000Y-68681600D03*
%TO.C,U5*%
X39065200Y-55524400D03*
X39065200Y-65684400D03*
X41605200Y-55524400D03*
X41605200Y-65684400D03*
%TO.C,U4*%
X41706800Y-72644000D03*
X41706800Y-75184000D03*
X41706800Y-77724000D03*
X41706800Y-80264000D03*
X41706800Y-82804000D03*
X41706800Y-85344000D03*
X41706800Y-87884000D03*
X41706800Y-90424000D03*
X41706800Y-92964000D03*
X41706800Y-95504000D03*
X41706800Y-98044000D03*
X41706800Y-100584000D03*
X41706800Y-103124000D03*
X41706800Y-105664000D03*
%TO.C,C6*%
X42632000Y-68681600D03*
%TO.C,U5*%
X44145200Y-55524400D03*
X44145200Y-65684400D03*
%TO.C,Y1*%
X47548800Y-74472800D03*
X47548800Y-79372800D03*
%TO.C,C3*%
X48768000Y-58358400D03*
X48768000Y-63358400D03*
%TO.C,C2*%
X49072800Y-86868000D03*
X49072800Y-91868000D03*
%TO.C,RV1*%
X52070000Y-115468400D03*
%TO.C,U7*%
X52730400Y-55930800D03*
X52730400Y-58470800D03*
X52730400Y-61010800D03*
X52730400Y-63550800D03*
X52730400Y-66090800D03*
X52730400Y-68630800D03*
X52730400Y-71170800D03*
X52730400Y-73710800D03*
X52730400Y-76250800D03*
X52730400Y-78790800D03*
X52730400Y-81330800D03*
X52730400Y-83870800D03*
X52730400Y-86410800D03*
X52730400Y-88950800D03*
X52730400Y-91490800D03*
X52730400Y-94030800D03*
X52730400Y-96570800D03*
X52730400Y-99110800D03*
X52730400Y-101650800D03*
X52730400Y-104190800D03*
%TO.C,RV1*%
X54610000Y-115468400D03*
X57150000Y-115468400D03*
%TO.C,C10*%
X58561600Y-108712000D03*
X63561600Y-108712000D03*
%TO.C,SW2*%
X65062300Y-35450100D03*
X65062300Y-43070100D03*
%TO.C,U7*%
X67970400Y-55930800D03*
X67970400Y-58470800D03*
X67970400Y-61010800D03*
X67970400Y-63550800D03*
X67970400Y-66090800D03*
X67970400Y-68630800D03*
X67970400Y-71170800D03*
X67970400Y-73710800D03*
X67970400Y-76250800D03*
X67970400Y-78790800D03*
X67970400Y-81330800D03*
X67970400Y-83870800D03*
X67970400Y-86410800D03*
X67970400Y-88950800D03*
X67970400Y-91490800D03*
X67970400Y-94030800D03*
X67970400Y-96570800D03*
X67970400Y-99110800D03*
X67970400Y-101650800D03*
X67970400Y-104190800D03*
%TO.C,U1*%
X77368400Y-55829200D03*
X77368400Y-58369200D03*
X77368400Y-60909200D03*
X77368400Y-63449200D03*
X77368400Y-65989200D03*
X77368400Y-68529200D03*
X77368400Y-71069200D03*
X77368400Y-73609200D03*
X77368400Y-76149200D03*
X77368400Y-78689200D03*
X77368400Y-81229200D03*
X77368400Y-83769200D03*
X77368400Y-86309200D03*
X77368400Y-88849200D03*
X77368400Y-91389200D03*
X77368400Y-93929200D03*
X77368400Y-96469200D03*
X77368400Y-99009200D03*
X77368400Y-101549200D03*
X77368400Y-104089200D03*
%TO.C,C9*%
X82031200Y-108610400D03*
X87031200Y-108610400D03*
%TO.C,U1*%
X92608400Y-55829200D03*
X92608400Y-58369200D03*
X92608400Y-60909200D03*
X92608400Y-63449200D03*
X92608400Y-65989200D03*
X92608400Y-68529200D03*
X92608400Y-71069200D03*
X92608400Y-73609200D03*
X92608400Y-76149200D03*
X92608400Y-78689200D03*
X92608400Y-81229200D03*
X92608400Y-83769200D03*
X92608400Y-86309200D03*
X92608400Y-88849200D03*
X92608400Y-91389200D03*
X92608400Y-93929200D03*
X92608400Y-96469200D03*
X92608400Y-99009200D03*
X92608400Y-101549200D03*
X92608400Y-104089200D03*
%TO.C,C12*%
X98602800Y-57190000D03*
X98602800Y-62190000D03*
%TO.C,U6*%
X103327200Y-55727600D03*
X103327200Y-63347600D03*
%TO.C,U2*%
X103428800Y-71678800D03*
X103428800Y-74218800D03*
X103428800Y-76758800D03*
X103428800Y-79298800D03*
X103428800Y-81838800D03*
X103428800Y-84378800D03*
X103428800Y-86918800D03*
X103428800Y-89458800D03*
X103428800Y-91998800D03*
X103428800Y-94538800D03*
X103428800Y-97078800D03*
X103428800Y-99618800D03*
X103428800Y-102158800D03*
X103428800Y-104698800D03*
%TO.C,U6*%
X105867200Y-55727600D03*
X105867200Y-63347600D03*
X108407200Y-55727600D03*
X108407200Y-63347600D03*
%TO.C,C8*%
X108447200Y-109220000D03*
%TO.C,U6*%
X110947200Y-55727600D03*
X110947200Y-63347600D03*
%TO.C,C8*%
X113447200Y-109220000D03*
%TO.C,U6*%
X113487200Y-55727600D03*
X113487200Y-63347600D03*
%TO.C,C1*%
X113842800Y-37987600D03*
X113842800Y-42987600D03*
%TO.C,U6*%
X116027200Y-55727600D03*
X116027200Y-63347600D03*
X118567200Y-55727600D03*
X118567200Y-63347600D03*
%TO.C,U2*%
X118668800Y-71678800D03*
X118668800Y-74218800D03*
X118668800Y-76758800D03*
X118668800Y-79298800D03*
X118668800Y-81838800D03*
X118668800Y-84378800D03*
X118668800Y-86918800D03*
X118668800Y-89458800D03*
X118668800Y-91998800D03*
X118668800Y-94538800D03*
X118668800Y-97078800D03*
X118668800Y-99618800D03*
X118668800Y-102158800D03*
X118668800Y-104698800D03*
%TO.C,X1*%
X120700800Y-36779200D03*
X120700800Y-44399200D03*
%TO.C,U3*%
X127355600Y-71678800D03*
X127355600Y-74218800D03*
X127355600Y-76758800D03*
X127355600Y-79298800D03*
X127355600Y-81838800D03*
X127355600Y-84378800D03*
X127355600Y-86918800D03*
X127355600Y-89458800D03*
X127355600Y-91998800D03*
X127355600Y-94538800D03*
X127355600Y-97078800D03*
X127355600Y-99618800D03*
X127355600Y-102158800D03*
X127355600Y-104698800D03*
%TO.C,C13*%
X127762000Y-55716800D03*
X127762000Y-60716800D03*
%TO.C,C7*%
X132475600Y-109169200D03*
%TO.C,X1*%
X135940800Y-36779200D03*
X135940800Y-44399200D03*
%TO.C,C7*%
X137475600Y-109169200D03*
%TO.C,U3*%
X142595600Y-71678800D03*
X142595600Y-74218800D03*
X142595600Y-76758800D03*
X142595600Y-79298800D03*
X142595600Y-81838800D03*
X142595600Y-84378800D03*
X142595600Y-86918800D03*
X142595600Y-89458800D03*
X142595600Y-91998800D03*
X142595600Y-94538800D03*
X142595600Y-97078800D03*
X142595600Y-99618800D03*
X142595600Y-102158800D03*
X142595600Y-104698800D03*
%TO.C,C14*%
X144830800Y-55564400D03*
X144830800Y-60564400D03*
D13*
%TO.C,D3*%
X71780400Y-37490400D03*
X71780400Y-40030400D03*
D14*
%TO.C,J2*%
X88341200Y-35357200D03*
X88341200Y-38557200D03*
X90841200Y-35357200D03*
X90841200Y-38557200D03*
D15*
%TO.C,J3*%
X25552400Y-115062000D03*
%TO.C,J4*%
X26974800Y-48920400D03*
%TO.C,J3*%
X28092400Y-115062000D03*
%TO.C,J4*%
X29514800Y-48920400D03*
%TO.C,J3*%
X30632400Y-115062000D03*
%TO.C,J4*%
X32054800Y-48920400D03*
%TO.C,J3*%
X33172400Y-115062000D03*
%TO.C,J4*%
X34594800Y-48920400D03*
%TO.C,J3*%
X35712400Y-115062000D03*
%TO.C,J4*%
X37134800Y-48920400D03*
%TO.C,J1*%
X37985600Y-42888700D03*
%TO.C,J3*%
X38252400Y-115062000D03*
%TO.C,J1*%
X39370600Y-40048700D03*
%TO.C,J4*%
X39674800Y-48920400D03*
%TO.C,J1*%
X40755600Y-42888700D03*
%TO.C,J3*%
X40792400Y-115062000D03*
%TO.C,J1*%
X42140600Y-40048700D03*
%TO.C,J4*%
X42214800Y-48920400D03*
%TO.C,J3*%
X43332400Y-115062000D03*
%TO.C,J1*%
X43525600Y-42888700D03*
%TO.C,J4*%
X44754800Y-48920400D03*
%TO.C,J1*%
X44910600Y-40048700D03*
X46295600Y-42888700D03*
X47680600Y-40048700D03*
X49065600Y-42888700D03*
%TO.C,J7*%
X54102000Y-48869600D03*
X56642000Y-48869600D03*
X59182000Y-48869600D03*
X61722000Y-48869600D03*
X64262000Y-48869600D03*
X66802000Y-48869600D03*
%TO.C,J5*%
X68376800Y-116179600D03*
X70916800Y-116179600D03*
X73456800Y-116179600D03*
X75996800Y-116179600D03*
X78536800Y-116179600D03*
%TO.C,J6*%
X79298800Y-48971200D03*
%TO.C,J5*%
X81076800Y-116179600D03*
%TO.C,J6*%
X81838800Y-48971200D03*
%TO.C,J5*%
X83616800Y-116179600D03*
%TO.C,J6*%
X84378800Y-48971200D03*
%TO.C,J5*%
X86156800Y-116179600D03*
%TO.C,J6*%
X86918800Y-48971200D03*
%TO.C,J5*%
X88696800Y-116179600D03*
%TO.C,J6*%
X89458800Y-48971200D03*
%TO.C,J5*%
X91236800Y-116179600D03*
%TO.C,J6*%
X91998800Y-48971200D03*
%TO.C,J5*%
X93776800Y-116179600D03*
X96316800Y-116179600D03*
X98856800Y-116179600D03*
X101396800Y-116179600D03*
X103936800Y-116179600D03*
X106476800Y-116179600D03*
%TO.C,JP1*%
X145288000Y-48514000D03*
X147828000Y-48514000D03*
X150368000Y-48514000D03*
%TO.C,J9*%
X151993600Y-59436000D03*
X151993600Y-61976000D03*
X151993600Y-64516000D03*
X151993600Y-67056000D03*
X151993600Y-69596000D03*
X151993600Y-72136000D03*
X151993600Y-74676000D03*
X151993600Y-77216000D03*
X151993600Y-79756000D03*
X151993600Y-82296000D03*
X151993600Y-84836000D03*
X151993600Y-87376000D03*
X151993600Y-89916000D03*
X151993600Y-92456000D03*
X151993600Y-94996000D03*
X151993600Y-97536000D03*
X151993600Y-100076000D03*
X151993600Y-102616000D03*
X151993600Y-105156000D03*
X154533600Y-59436000D03*
X154533600Y-61976000D03*
X154533600Y-64516000D03*
X154533600Y-67056000D03*
X154533600Y-69596000D03*
X154533600Y-72136000D03*
X154533600Y-74676000D03*
X154533600Y-77216000D03*
X154533600Y-79756000D03*
X154533600Y-82296000D03*
X154533600Y-84836000D03*
X154533600Y-87376000D03*
X154533600Y-89916000D03*
X154533600Y-92456000D03*
X154533600Y-94996000D03*
X154533600Y-97536000D03*
X154533600Y-100076000D03*
X154533600Y-102616000D03*
X154533600Y-105156000D03*
D16*
%TO.C,U9*%
X143002000Y-44805600D03*
X145542000Y-44805600D03*
X148082000Y-44805600D03*
D17*
%TO.C,SW1*%
X103867200Y-37236800D03*
X103867200Y-43736800D03*
X108367200Y-37236800D03*
X108367200Y-43736800D03*
%TO.C,U8*%
X133756400Y-58420000D03*
X136296400Y-58420000D03*
X138836400Y-58420000D03*
%TO.C,SW3*%
X142482300Y-34148400D03*
X142482300Y-38648400D03*
X148982300Y-34148400D03*
X148982300Y-38648400D03*
D18*
%TO.C,J2*%
X83571200Y-38067200D03*
X95611200Y-38067200D03*
D19*
%TO.C,J1*%
X31025600Y-41468700D03*
X56025600Y-41468700D03*
M02*
