%TF.GenerationSoftware,KiCad,Pcbnew,9.0.2*%
%TF.CreationDate,2025-06-11T12:09:56+01:00*%
%TF.ProjectId,6502pc,36353032-7063-42e6-9b69-6361645f7063,rev?*%
%TF.SameCoordinates,Original*%
%TF.FileFunction,Soldermask,Bot*%
%TF.FilePolarity,Negative*%
%FSLAX46Y46*%
G04 Gerber Fmt 4.6, Leading zero omitted, Abs format (unit mm)*
G04 Created by KiCad (PCBNEW 9.0.2) date 2025-06-11 12:09:56*
%MOMM*%
%LPD*%
G01*
G04 APERTURE LIST*
G04 Aperture macros list*
%AMRoundRect*
0 Rectangle with rounded corners*
0 $1 Rounding radius*
0 $2 $3 $4 $5 $6 $7 $8 $9 X,Y pos of 4 corners*
0 Add a 4 corners polygon primitive as box body*
4,1,4,$2,$3,$4,$5,$6,$7,$8,$9,$2,$3,0*
0 Add four circle primitives for the rounded corners*
1,1,$1+$1,$2,$3*
1,1,$1+$1,$4,$5*
1,1,$1+$1,$6,$7*
1,1,$1+$1,$8,$9*
0 Add four rect primitives between the rounded corners*
20,1,$1+$1,$2,$3,$4,$5,0*
20,1,$1+$1,$4,$5,$6,$7,0*
20,1,$1+$1,$6,$7,$8,$9,0*
20,1,$1+$1,$8,$9,$2,$3,0*%
G04 Aperture macros list end*
%ADD10R,1.524000X1.524000*%
%ADD11C,2.000000*%
%ADD12C,4.000000*%
%ADD13R,1.600000X1.600000*%
%ADD14C,1.600000*%
%ADD15C,1.400000*%
%ADD16R,1.700000X1.700000*%
%ADD17C,1.700000*%
%ADD18RoundRect,0.250000X0.550000X0.550000X-0.550000X0.550000X-0.550000X-0.550000X0.550000X-0.550000X0*%
%ADD19RoundRect,0.250000X-0.550000X-0.550000X0.550000X-0.550000X0.550000X0.550000X-0.550000X0.550000X0*%
%ADD20RoundRect,0.250000X-0.550000X0.550000X-0.550000X-0.550000X0.550000X-0.550000X0.550000X0.550000X0*%
%ADD21C,1.440000*%
%ADD22R,1.800000X1.800000*%
%ADD23C,1.800000*%
%ADD24RoundRect,0.250000X0.550000X-0.550000X0.550000X0.550000X-0.550000X0.550000X-0.550000X-0.550000X0*%
%ADD25R,1.905000X2.000000*%
%ADD26O,1.905000X2.000000*%
%ADD27C,1.500000*%
%ADD28R,1.400000X1.400000*%
%ADD29C,3.000000*%
G04 APERTURE END LIST*
D10*
%TO.C,U9*%
X143002000Y-44805600D03*
X145542000Y-44805600D03*
X148082000Y-44805600D03*
%TD*%
D11*
%TO.C,SW3*%
X142482300Y-34148400D03*
X148982300Y-34148400D03*
X142482300Y-38648400D03*
X148982300Y-38648400D03*
%TD*%
D12*
%TO.C,J1*%
X56025600Y-41468700D03*
X31025600Y-41468700D03*
D13*
X37985600Y-42888700D03*
D14*
X40755600Y-42888700D03*
X43525600Y-42888700D03*
X46295600Y-42888700D03*
X49065600Y-42888700D03*
X39370600Y-40048700D03*
X42140600Y-40048700D03*
X44910600Y-40048700D03*
X47680600Y-40048700D03*
%TD*%
%TO.C,C2*%
X49072800Y-86868000D03*
X49072800Y-91868000D03*
%TD*%
D15*
%TO.C,R2*%
X45212000Y-93218000D03*
X45212000Y-85598000D03*
%TD*%
D16*
%TO.C,J6*%
X79298800Y-48971200D03*
D17*
X81838800Y-48971200D03*
X84378800Y-48971200D03*
X86918800Y-48971200D03*
X89458800Y-48971200D03*
X91998800Y-48971200D03*
%TD*%
D14*
%TO.C,C3*%
X48768000Y-63358400D03*
X48768000Y-58358400D03*
%TD*%
%TO.C,C14*%
X144830800Y-60564400D03*
X144830800Y-55564400D03*
%TD*%
D15*
%TO.C,D1*%
X72999600Y-71170800D03*
X72999600Y-63550800D03*
%TD*%
D18*
%TO.C,U2*%
X118668800Y-104698800D03*
D14*
X118668800Y-102158800D03*
X118668800Y-99618800D03*
X118668800Y-97078800D03*
X118668800Y-94538800D03*
X118668800Y-91998800D03*
X118668800Y-89458800D03*
X118668800Y-86918800D03*
X118668800Y-84378800D03*
X118668800Y-81838800D03*
X118668800Y-79298800D03*
X118668800Y-76758800D03*
X118668800Y-74218800D03*
X118668800Y-71678800D03*
X103428800Y-71678800D03*
X103428800Y-74218800D03*
X103428800Y-76758800D03*
X103428800Y-79298800D03*
X103428800Y-81838800D03*
X103428800Y-84378800D03*
X103428800Y-86918800D03*
X103428800Y-89458800D03*
X103428800Y-91998800D03*
X103428800Y-94538800D03*
X103428800Y-97078800D03*
X103428800Y-99618800D03*
X103428800Y-102158800D03*
X103428800Y-104698800D03*
%TD*%
D16*
%TO.C,JP1*%
X145288000Y-48514000D03*
D17*
X147828000Y-48514000D03*
X150368000Y-48514000D03*
%TD*%
D14*
%TO.C,C12*%
X98602800Y-62190000D03*
X98602800Y-57190000D03*
%TD*%
%TO.C,C7*%
X132475600Y-109169200D03*
X137475600Y-109169200D03*
%TD*%
D15*
%TO.C,D2*%
X23164800Y-100787200D03*
X23164800Y-93167200D03*
%TD*%
%TO.C,R3*%
X76403200Y-42926000D03*
X76403200Y-35306000D03*
%TD*%
D13*
%TO.C,X1*%
X120700800Y-44399200D03*
D14*
X135940800Y-44399200D03*
X135940800Y-36779200D03*
X120700800Y-36779200D03*
%TD*%
%TO.C,C8*%
X108447200Y-109220000D03*
X113447200Y-109220000D03*
%TD*%
D19*
%TO.C,U1*%
X77368400Y-55829200D03*
D14*
X77368400Y-58369200D03*
X77368400Y-60909200D03*
X77368400Y-63449200D03*
X77368400Y-65989200D03*
X77368400Y-68529200D03*
X77368400Y-71069200D03*
X77368400Y-73609200D03*
X77368400Y-76149200D03*
X77368400Y-78689200D03*
X77368400Y-81229200D03*
X77368400Y-83769200D03*
X77368400Y-86309200D03*
X77368400Y-88849200D03*
X77368400Y-91389200D03*
X77368400Y-93929200D03*
X77368400Y-96469200D03*
X77368400Y-99009200D03*
X77368400Y-101549200D03*
X77368400Y-104089200D03*
X92608400Y-104089200D03*
X92608400Y-101549200D03*
X92608400Y-99009200D03*
X92608400Y-96469200D03*
X92608400Y-93929200D03*
X92608400Y-91389200D03*
X92608400Y-88849200D03*
X92608400Y-86309200D03*
X92608400Y-83769200D03*
X92608400Y-81229200D03*
X92608400Y-78689200D03*
X92608400Y-76149200D03*
X92608400Y-73609200D03*
X92608400Y-71069200D03*
X92608400Y-68529200D03*
X92608400Y-65989200D03*
X92608400Y-63449200D03*
X92608400Y-60909200D03*
X92608400Y-58369200D03*
X92608400Y-55829200D03*
%TD*%
D16*
%TO.C,J3*%
X43332400Y-115062000D03*
D17*
X40792400Y-115062000D03*
X38252400Y-115062000D03*
X35712400Y-115062000D03*
X33172400Y-115062000D03*
X30632400Y-115062000D03*
X28092400Y-115062000D03*
X25552400Y-115062000D03*
%TD*%
D20*
%TO.C,SW2*%
X65062300Y-35450100D03*
D14*
X65062300Y-43070100D03*
%TD*%
%TO.C,C6*%
X37632000Y-68681600D03*
X42632000Y-68681600D03*
%TD*%
D21*
%TO.C,RV1*%
X57150000Y-115468400D03*
X54610000Y-115468400D03*
X52070000Y-115468400D03*
%TD*%
D22*
%TO.C,D3*%
X71780400Y-40030400D03*
D23*
X71780400Y-37490400D03*
%TD*%
D19*
%TO.C,U7*%
X52730400Y-55930800D03*
D14*
X52730400Y-58470800D03*
X52730400Y-61010800D03*
X52730400Y-63550800D03*
X52730400Y-66090800D03*
X52730400Y-68630800D03*
X52730400Y-71170800D03*
X52730400Y-73710800D03*
X52730400Y-76250800D03*
X52730400Y-78790800D03*
X52730400Y-81330800D03*
X52730400Y-83870800D03*
X52730400Y-86410800D03*
X52730400Y-88950800D03*
X52730400Y-91490800D03*
X52730400Y-94030800D03*
X52730400Y-96570800D03*
X52730400Y-99110800D03*
X52730400Y-101650800D03*
X52730400Y-104190800D03*
X67970400Y-104190800D03*
X67970400Y-101650800D03*
X67970400Y-99110800D03*
X67970400Y-96570800D03*
X67970400Y-94030800D03*
X67970400Y-91490800D03*
X67970400Y-88950800D03*
X67970400Y-86410800D03*
X67970400Y-83870800D03*
X67970400Y-81330800D03*
X67970400Y-78790800D03*
X67970400Y-76250800D03*
X67970400Y-73710800D03*
X67970400Y-71170800D03*
X67970400Y-68630800D03*
X67970400Y-66090800D03*
X67970400Y-63550800D03*
X67970400Y-61010800D03*
X67970400Y-58470800D03*
X67970400Y-55930800D03*
%TD*%
%TO.C,C9*%
X82031200Y-108610400D03*
X87031200Y-108610400D03*
%TD*%
D24*
%TO.C,U5*%
X26365200Y-65684400D03*
D14*
X28905200Y-65684400D03*
X31445200Y-65684400D03*
X33985200Y-65684400D03*
X36525200Y-65684400D03*
X39065200Y-65684400D03*
X41605200Y-65684400D03*
X44145200Y-65684400D03*
X44145200Y-55524400D03*
X41605200Y-55524400D03*
X39065200Y-55524400D03*
X36525200Y-55524400D03*
X33985200Y-55524400D03*
X31445200Y-55524400D03*
X28905200Y-55524400D03*
X26365200Y-55524400D03*
%TD*%
D25*
%TO.C,U8*%
X133756400Y-58420000D03*
D26*
X136296400Y-58420000D03*
X138836400Y-58420000D03*
%TD*%
D16*
%TO.C,J5*%
X68376800Y-116179600D03*
D17*
X70916800Y-116179600D03*
X73456800Y-116179600D03*
X75996800Y-116179600D03*
X78536800Y-116179600D03*
X81076800Y-116179600D03*
X83616800Y-116179600D03*
X86156800Y-116179600D03*
X88696800Y-116179600D03*
X91236800Y-116179600D03*
X93776800Y-116179600D03*
X96316800Y-116179600D03*
X98856800Y-116179600D03*
X101396800Y-116179600D03*
X103936800Y-116179600D03*
X106476800Y-116179600D03*
%TD*%
D15*
%TO.C,R1*%
X100086800Y-44298000D03*
X100086800Y-36678000D03*
%TD*%
D27*
%TO.C,Y1*%
X47548800Y-74472800D03*
X47548800Y-79372800D03*
%TD*%
D14*
%TO.C,C1*%
X113842800Y-42987600D03*
X113842800Y-37987600D03*
%TD*%
D18*
%TO.C,U3*%
X142595600Y-104698800D03*
D14*
X142595600Y-102158800D03*
X142595600Y-99618800D03*
X142595600Y-97078800D03*
X142595600Y-94538800D03*
X142595600Y-91998800D03*
X142595600Y-89458800D03*
X142595600Y-86918800D03*
X142595600Y-84378800D03*
X142595600Y-81838800D03*
X142595600Y-79298800D03*
X142595600Y-76758800D03*
X142595600Y-74218800D03*
X142595600Y-71678800D03*
X127355600Y-71678800D03*
X127355600Y-74218800D03*
X127355600Y-76758800D03*
X127355600Y-79298800D03*
X127355600Y-81838800D03*
X127355600Y-84378800D03*
X127355600Y-86918800D03*
X127355600Y-89458800D03*
X127355600Y-91998800D03*
X127355600Y-94538800D03*
X127355600Y-97078800D03*
X127355600Y-99618800D03*
X127355600Y-102158800D03*
X127355600Y-104698800D03*
%TD*%
D28*
%TO.C,J2*%
X90841200Y-35357200D03*
D15*
X88341200Y-35357200D03*
X88341200Y-38557200D03*
X90841200Y-38557200D03*
D29*
X83571200Y-38067200D03*
X95611200Y-38067200D03*
%TD*%
D14*
%TO.C,C13*%
X127762000Y-55716800D03*
X127762000Y-60716800D03*
%TD*%
D24*
%TO.C,U6*%
X103327200Y-63347600D03*
D14*
X105867200Y-63347600D03*
X108407200Y-63347600D03*
X110947200Y-63347600D03*
X113487200Y-63347600D03*
X116027200Y-63347600D03*
X118567200Y-63347600D03*
X118567200Y-55727600D03*
X116027200Y-55727600D03*
X113487200Y-55727600D03*
X110947200Y-55727600D03*
X108407200Y-55727600D03*
X105867200Y-55727600D03*
X103327200Y-55727600D03*
%TD*%
D11*
%TO.C,SW1*%
X103867200Y-43736800D03*
X103867200Y-37236800D03*
X108367200Y-43736800D03*
X108367200Y-37236800D03*
%TD*%
D14*
%TO.C,C10*%
X58561600Y-108712000D03*
X63561600Y-108712000D03*
%TD*%
%TO.C,C5*%
X26506800Y-68580000D03*
X31506800Y-68580000D03*
%TD*%
D16*
%TO.C,J4*%
X26974800Y-48920400D03*
D17*
X29514800Y-48920400D03*
X32054800Y-48920400D03*
X34594800Y-48920400D03*
X37134800Y-48920400D03*
X39674800Y-48920400D03*
X42214800Y-48920400D03*
X44754800Y-48920400D03*
%TD*%
D14*
%TO.C,C4*%
X22809200Y-63358400D03*
X22809200Y-58358400D03*
%TD*%
D16*
%TO.C,J9*%
X151993600Y-59436000D03*
D17*
X154533600Y-59436000D03*
X151993600Y-61976000D03*
X154533600Y-61976000D03*
X151993600Y-64516000D03*
X154533600Y-64516000D03*
X151993600Y-67056000D03*
X154533600Y-67056000D03*
X151993600Y-69596000D03*
X154533600Y-69596000D03*
X151993600Y-72136000D03*
X154533600Y-72136000D03*
X151993600Y-74676000D03*
X154533600Y-74676000D03*
X151993600Y-77216000D03*
X154533600Y-77216000D03*
X151993600Y-79756000D03*
X154533600Y-79756000D03*
X151993600Y-82296000D03*
X154533600Y-82296000D03*
X151993600Y-84836000D03*
X154533600Y-84836000D03*
X151993600Y-87376000D03*
X154533600Y-87376000D03*
X151993600Y-89916000D03*
X154533600Y-89916000D03*
X151993600Y-92456000D03*
X154533600Y-92456000D03*
X151993600Y-94996000D03*
X154533600Y-94996000D03*
X151993600Y-97536000D03*
X154533600Y-97536000D03*
X151993600Y-100076000D03*
X154533600Y-100076000D03*
X151993600Y-102616000D03*
X154533600Y-102616000D03*
X151993600Y-105156000D03*
X154533600Y-105156000D03*
%TD*%
D14*
%TO.C,C11*%
X31637600Y-108813600D03*
X36637600Y-108813600D03*
%TD*%
D16*
%TO.C,J7*%
X54102000Y-48869600D03*
D17*
X56642000Y-48869600D03*
X59182000Y-48869600D03*
X61722000Y-48869600D03*
X64262000Y-48869600D03*
X66802000Y-48869600D03*
%TD*%
D18*
%TO.C,U4*%
X41706800Y-105664000D03*
D14*
X41706800Y-103124000D03*
X41706800Y-100584000D03*
X41706800Y-98044000D03*
X41706800Y-95504000D03*
X41706800Y-92964000D03*
X41706800Y-90424000D03*
X41706800Y-87884000D03*
X41706800Y-85344000D03*
X41706800Y-82804000D03*
X41706800Y-80264000D03*
X41706800Y-77724000D03*
X41706800Y-75184000D03*
X41706800Y-72644000D03*
X26466800Y-72644000D03*
X26466800Y-75184000D03*
X26466800Y-77724000D03*
X26466800Y-80264000D03*
X26466800Y-82804000D03*
X26466800Y-85344000D03*
X26466800Y-87884000D03*
X26466800Y-90424000D03*
X26466800Y-92964000D03*
X26466800Y-95504000D03*
X26466800Y-98044000D03*
X26466800Y-100584000D03*
X26466800Y-103124000D03*
X26466800Y-105664000D03*
%TD*%
M02*
