%TF.GenerationSoftware,KiCad,Pcbnew,9.0.2*%
%TF.CreationDate,2025-06-04T16:37:23+01:00*%
%TF.ProjectId,6502ExpBoard,36353032-4578-4704-926f-6172642e6b69,rev?*%
%TF.SameCoordinates,Original*%
%TF.FileFunction,Copper,L2,Bot*%
%TF.FilePolarity,Positive*%
%FSLAX46Y46*%
G04 Gerber Fmt 4.6, Leading zero omitted, Abs format (unit mm)*
G04 Created by KiCad (PCBNEW 9.0.2) date 2025-06-04 16:37:23*
%MOMM*%
%LPD*%
G01*
G04 APERTURE LIST*
G04 Aperture macros list*
%AMRoundRect*
0 Rectangle with rounded corners*
0 $1 Rounding radius*
0 $2 $3 $4 $5 $6 $7 $8 $9 X,Y pos of 4 corners*
0 Add a 4 corners polygon primitive as box body*
4,1,4,$2,$3,$4,$5,$6,$7,$8,$9,$2,$3,0*
0 Add four circle primitives for the rounded corners*
1,1,$1+$1,$2,$3*
1,1,$1+$1,$4,$5*
1,1,$1+$1,$6,$7*
1,1,$1+$1,$8,$9*
0 Add four rect primitives between the rounded corners*
20,1,$1+$1,$2,$3,$4,$5,0*
20,1,$1+$1,$4,$5,$6,$7,0*
20,1,$1+$1,$6,$7,$8,$9,0*
20,1,$1+$1,$8,$9,$2,$3,0*%
G04 Aperture macros list end*
%TA.AperFunction,Conductor*%
%ADD10C,0.200000*%
%TD*%
%TA.AperFunction,ComponentPad*%
%ADD11RoundRect,0.250000X0.550000X-0.550000X0.550000X0.550000X-0.550000X0.550000X-0.550000X-0.550000X0*%
%TD*%
%TA.AperFunction,ComponentPad*%
%ADD12C,1.600000*%
%TD*%
%TA.AperFunction,ComponentPad*%
%ADD13R,1.800000X1.800000*%
%TD*%
%TA.AperFunction,ComponentPad*%
%ADD14C,1.800000*%
%TD*%
%TA.AperFunction,ComponentPad*%
%ADD15RoundRect,0.250000X-0.550000X0.550000X-0.550000X-0.550000X0.550000X-0.550000X0.550000X0.550000X0*%
%TD*%
%TA.AperFunction,ComponentPad*%
%ADD16R,1.600000X1.600000*%
%TD*%
%TA.AperFunction,ComponentPad*%
%ADD17R,1.700000X1.700000*%
%TD*%
%TA.AperFunction,ComponentPad*%
%ADD18C,1.700000*%
%TD*%
%TA.AperFunction,ViaPad*%
%ADD19C,0.600000*%
%TD*%
G04 APERTURE END LIST*
%TO.N,GND*%
D10*
X72500000Y-30000000D02*
X159617000Y-30000000D01*
X159617000Y-80127000D01*
X72500000Y-80127000D01*
X72500000Y-30000000D01*
%TD*%
D11*
%TO.P,U4,1,OE*%
%TO.N,GND*%
X89513000Y-76825000D03*
D12*
%TO.P,U4,2,O0*%
%TO.N,Net-(D1-K)*%
X92053000Y-76825000D03*
%TO.P,U4,3,D0*%
%TO.N,clock*%
X94593000Y-76825000D03*
%TO.P,U4,4,D1*%
%TO.N,PA4*%
X97133000Y-76825000D03*
%TO.P,U4,5,O1*%
%TO.N,Net-(D2-K)*%
X99673000Y-76825000D03*
%TO.P,U4,6,O2*%
%TO.N,Net-(D3-K)*%
X102213000Y-76825000D03*
%TO.P,U4,7,D2*%
%TO.N,PA5*%
X104753000Y-76825000D03*
%TO.P,U4,8,D3*%
%TO.N,PA6*%
X107293000Y-76825000D03*
%TO.P,U4,9,O3*%
%TO.N,Net-(D4-K)*%
X109833000Y-76825000D03*
%TO.P,U4,10,GND*%
%TO.N,GND*%
X112373000Y-76825000D03*
%TO.P,U4,11,LE*%
%TO.N,clock*%
X112373000Y-69205000D03*
%TO.P,U4,12,O4*%
%TO.N,Net-(D5-K)*%
X109833000Y-69205000D03*
%TO.P,U4,13,D4*%
%TO.N,Reset*%
X107293000Y-69205000D03*
%TO.P,U4,14,D5*%
%TO.N,IRQ*%
X104753000Y-69205000D03*
%TO.P,U4,15,O5*%
%TO.N,Net-(D6-K)*%
X102213000Y-69205000D03*
%TO.P,U4,16,O6*%
%TO.N,Net-(D7-K)*%
X99673000Y-69205000D03*
%TO.P,U4,17,D6*%
%TO.N,RW*%
X97133000Y-69205000D03*
%TO.P,U4,18,D7*%
%TO.N,unconnected-(U4-D7-Pad18)*%
X94593000Y-69205000D03*
%TO.P,U4,19,O7*%
%TO.N,unconnected-(U4-O7-Pad19)*%
X92053000Y-69205000D03*
%TO.P,U4,20,VCC*%
%TO.N,VCC*%
X89513000Y-69205000D03*
%TD*%
D13*
%TO.P,D12,1,K*%
%TO.N,Net-(D12-K)*%
X131775000Y-34000000D03*
D14*
%TO.P,D12,2,A*%
%TO.N,Net-(D12-A)*%
X134315000Y-34000000D03*
%TD*%
D13*
%TO.P,D22,1,K*%
%TO.N,Net-(D22-K)*%
X141700000Y-44875000D03*
D14*
%TO.P,D22,2,A*%
%TO.N,Net-(D22-A)*%
X144240000Y-44875000D03*
%TD*%
D13*
%TO.P,D10,1,K*%
%TO.N,Net-(D10-K)*%
X121750000Y-34000000D03*
D14*
%TO.P,D10,2,A*%
%TO.N,Net-(D10-A)*%
X124290000Y-34000000D03*
%TD*%
D13*
%TO.P,D11,1,K*%
%TO.N,Net-(D11-K)*%
X126750000Y-34000000D03*
D14*
%TO.P,D11,2,A*%
%TO.N,Net-(D11-A)*%
X129290000Y-34000000D03*
%TD*%
D13*
%TO.P,D14,1,K*%
%TO.N,Net-(D14-K)*%
X141800000Y-34050000D03*
D14*
%TO.P,D14,2,A*%
%TO.N,Net-(D14-A)*%
X144340000Y-34050000D03*
%TD*%
D13*
%TO.P,D29,1,K*%
%TO.N,Net-(D29-K)*%
X136685000Y-58700000D03*
D14*
%TO.P,D29,2,A*%
%TO.N,Net-(D29-A)*%
X139225000Y-58700000D03*
%TD*%
D13*
%TO.P,D31,1,K*%
%TO.N,Net-(D31-K)*%
X146685000Y-58700000D03*
D14*
%TO.P,D31,2,A*%
%TO.N,Net-(D31-A)*%
X149225000Y-58700000D03*
%TD*%
D13*
%TO.P,D2,1,K*%
%TO.N,Net-(D2-K)*%
X126120000Y-70575000D03*
D14*
%TO.P,D2,2,A*%
%TO.N,Net-(D2-A)*%
X128660000Y-70575000D03*
%TD*%
D15*
%TO.P,U1,1,OE*%
%TO.N,GND*%
X112430000Y-34190000D03*
D12*
%TO.P,U1,2,O0*%
%TO.N,Net-(D9-K)*%
X109890000Y-34190000D03*
%TO.P,U1,3,D0*%
%TO.N,A0*%
X107350000Y-34190000D03*
%TO.P,U1,4,D1*%
%TO.N,A1*%
X104810000Y-34190000D03*
%TO.P,U1,5,O1*%
%TO.N,Net-(D10-K)*%
X102270000Y-34190000D03*
%TO.P,U1,6,O2*%
%TO.N,Net-(D11-K)*%
X99730000Y-34190000D03*
%TO.P,U1,7,D2*%
%TO.N,A2*%
X97190000Y-34190000D03*
%TO.P,U1,8,D3*%
%TO.N,A3*%
X94650000Y-34190000D03*
%TO.P,U1,9,O3*%
%TO.N,Net-(D12-K)*%
X92110000Y-34190000D03*
%TO.P,U1,10,GND*%
%TO.N,GND*%
X89570000Y-34190000D03*
%TO.P,U1,11,LE*%
%TO.N,clock*%
X89570000Y-41810000D03*
%TO.P,U1,12,O4*%
%TO.N,Net-(D13-K)*%
X92110000Y-41810000D03*
%TO.P,U1,13,D4*%
%TO.N,A4*%
X94650000Y-41810000D03*
%TO.P,U1,14,D5*%
%TO.N,A5*%
X97190000Y-41810000D03*
%TO.P,U1,15,O5*%
%TO.N,Net-(D14-K)*%
X99730000Y-41810000D03*
%TO.P,U1,16,O6*%
%TO.N,Net-(D15-K)*%
X102270000Y-41810000D03*
%TO.P,U1,17,D6*%
%TO.N,A6*%
X104810000Y-41810000D03*
%TO.P,U1,18,D7*%
%TO.N,A7*%
X107350000Y-41810000D03*
%TO.P,U1,19,O7*%
%TO.N,Net-(D16-K)*%
X109890000Y-41810000D03*
%TO.P,U1,20,VCC*%
%TO.N,VCC*%
X112430000Y-41810000D03*
%TD*%
D13*
%TO.P,D6,1,K*%
%TO.N,Net-(D6-K)*%
X145950000Y-70575000D03*
D14*
%TO.P,D6,2,A*%
%TO.N,Net-(D6-A)*%
X148490000Y-70575000D03*
%TD*%
D13*
%TO.P,D1,1,K*%
%TO.N,Net-(D1-K)*%
X121120000Y-70575000D03*
D14*
%TO.P,D1,2,A*%
%TO.N,Net-(D1-A)*%
X123660000Y-70575000D03*
%TD*%
D16*
%TO.P,RN1,1,common*%
%TO.N,GND*%
X123910000Y-76625000D03*
D12*
%TO.P,RN1,2,R1*%
%TO.N,Net-(D1-A)*%
X126450000Y-76625000D03*
%TO.P,RN1,3,R2*%
%TO.N,Net-(D2-A)*%
X128990000Y-76625000D03*
%TO.P,RN1,4,R3*%
%TO.N,Net-(D3-A)*%
X131530000Y-76625000D03*
%TO.P,RN1,5,R4*%
%TO.N,Net-(D4-A)*%
X134070000Y-76625000D03*
%TO.P,RN1,6,R5*%
%TO.N,Net-(D5-A)*%
X136610000Y-76625000D03*
%TO.P,RN1,7,R6*%
%TO.N,Net-(D6-A)*%
X139150000Y-76625000D03*
%TO.P,RN1,8,R7*%
%TO.N,Net-(D7-A)*%
X141690000Y-76625000D03*
%TO.P,RN1,9,R8*%
%TO.N,unconnected-(RN1-R8-Pad9)*%
X144230000Y-76625000D03*
%TO.P,RN1,10,R9*%
%TO.N,unconnected-(RN1-R9-Pad10)*%
X146770000Y-76625000D03*
%TD*%
D13*
%TO.P,D9,1,K*%
%TO.N,Net-(D9-K)*%
X116730000Y-34000000D03*
D14*
%TO.P,D9,2,A*%
%TO.N,Net-(D9-A)*%
X119270000Y-34000000D03*
%TD*%
D13*
%TO.P,D19,1,K*%
%TO.N,Net-(D19-K)*%
X126625000Y-44875000D03*
D14*
%TO.P,D19,2,A*%
%TO.N,Net-(D19-A)*%
X129165000Y-44875000D03*
%TD*%
D13*
%TO.P,D30,1,K*%
%TO.N,Net-(D30-K)*%
X141685000Y-58700000D03*
D14*
%TO.P,D30,2,A*%
%TO.N,Net-(D30-A)*%
X144225000Y-58700000D03*
%TD*%
D13*
%TO.P,D25,1,K*%
%TO.N,Net-(D25-K)*%
X116455000Y-58700000D03*
D14*
%TO.P,D25,2,A*%
%TO.N,Net-(D25-A)*%
X118995000Y-58700000D03*
%TD*%
D13*
%TO.P,D20,1,K*%
%TO.N,Net-(D20-K)*%
X131675000Y-44900000D03*
D14*
%TO.P,D20,2,A*%
%TO.N,Net-(D20-A)*%
X134215000Y-44900000D03*
%TD*%
D13*
%TO.P,D3,1,K*%
%TO.N,Net-(D3-K)*%
X131120000Y-70575000D03*
D14*
%TO.P,D3,2,A*%
%TO.N,Net-(D3-A)*%
X133660000Y-70575000D03*
%TD*%
D16*
%TO.P,RN2,1,common*%
%TO.N,GND*%
X123935000Y-39500000D03*
D12*
%TO.P,RN2,2,R1*%
%TO.N,Net-(D9-A)*%
X126475000Y-39500000D03*
%TO.P,RN2,3,R2*%
%TO.N,Net-(D10-A)*%
X129015000Y-39500000D03*
%TO.P,RN2,4,R3*%
%TO.N,Net-(D11-A)*%
X131555000Y-39500000D03*
%TO.P,RN2,5,R4*%
%TO.N,Net-(D12-A)*%
X134095000Y-39500000D03*
%TO.P,RN2,6,R5*%
%TO.N,Net-(D13-A)*%
X136635000Y-39500000D03*
%TO.P,RN2,7,R6*%
%TO.N,Net-(D14-A)*%
X139175000Y-39500000D03*
%TO.P,RN2,8,R7*%
%TO.N,Net-(D15-A)*%
X141715000Y-39500000D03*
%TO.P,RN2,9,R8*%
%TO.N,Net-(D16-A)*%
X144255000Y-39500000D03*
%TO.P,RN2,10,R9*%
%TO.N,unconnected-(RN2-R9-Pad10)*%
X146795000Y-39500000D03*
%TD*%
D13*
%TO.P,D27,1,K*%
%TO.N,Net-(D27-K)*%
X126685000Y-58700000D03*
D14*
%TO.P,D27,2,A*%
%TO.N,Net-(D27-A)*%
X129225000Y-58700000D03*
%TD*%
D11*
%TO.P,UPackage_DIP:DIP-20_W7.62mm_Socket1,1,OE*%
%TO.N,GND*%
X89513000Y-65395000D03*
D12*
%TO.P,UPackage_DIP:DIP-20_W7.62mm_Socket1,2,O0*%
%TO.N,Net-(D25-K)*%
X92053000Y-65395000D03*
%TO.P,UPackage_DIP:DIP-20_W7.62mm_Socket1,3,D0*%
%TO.N,D0*%
X94593000Y-65395000D03*
%TO.P,UPackage_DIP:DIP-20_W7.62mm_Socket1,4,D1*%
%TO.N,D1*%
X97133000Y-65395000D03*
%TO.P,UPackage_DIP:DIP-20_W7.62mm_Socket1,5,O1*%
%TO.N,Net-(D26-K)*%
X99673000Y-65395000D03*
%TO.P,UPackage_DIP:DIP-20_W7.62mm_Socket1,6,O2*%
%TO.N,Net-(D27-K)*%
X102213000Y-65395000D03*
%TO.P,UPackage_DIP:DIP-20_W7.62mm_Socket1,7,D2*%
%TO.N,D2*%
X104753000Y-65395000D03*
%TO.P,UPackage_DIP:DIP-20_W7.62mm_Socket1,8,D3*%
%TO.N,D3*%
X107293000Y-65395000D03*
%TO.P,UPackage_DIP:DIP-20_W7.62mm_Socket1,9,O3*%
%TO.N,Net-(D28-K)*%
X109833000Y-65395000D03*
%TO.P,UPackage_DIP:DIP-20_W7.62mm_Socket1,10,GND*%
%TO.N,GND*%
X112373000Y-65395000D03*
%TO.P,UPackage_DIP:DIP-20_W7.62mm_Socket1,11,LE*%
%TO.N,clock*%
X112373000Y-57775000D03*
%TO.P,UPackage_DIP:DIP-20_W7.62mm_Socket1,12,O4*%
%TO.N,Net-(D29-K)*%
X109833000Y-57775000D03*
%TO.P,UPackage_DIP:DIP-20_W7.62mm_Socket1,13,D4*%
%TO.N,D4*%
X107293000Y-57775000D03*
%TO.P,UPackage_DIP:DIP-20_W7.62mm_Socket1,14,D5*%
%TO.N,D5*%
X104753000Y-57775000D03*
%TO.P,UPackage_DIP:DIP-20_W7.62mm_Socket1,15,O5*%
%TO.N,Net-(D30-K)*%
X102213000Y-57775000D03*
%TO.P,UPackage_DIP:DIP-20_W7.62mm_Socket1,16,O6*%
%TO.N,Net-(D31-K)*%
X99673000Y-57775000D03*
%TO.P,UPackage_DIP:DIP-20_W7.62mm_Socket1,17,D6*%
%TO.N,D6*%
X97133000Y-57775000D03*
%TO.P,UPackage_DIP:DIP-20_W7.62mm_Socket1,18,D7*%
%TO.N,D7*%
X94593000Y-57775000D03*
%TO.P,UPackage_DIP:DIP-20_W7.62mm_Socket1,19,O7*%
%TO.N,Net-(D32-K)*%
X92053000Y-57775000D03*
%TO.P,UPackage_DIP:DIP-20_W7.62mm_Socket1,20,VCC*%
%TO.N,VCC*%
X89513000Y-57775000D03*
%TD*%
D13*
%TO.P,D26,1,K*%
%TO.N,Net-(D26-K)*%
X121685000Y-58700000D03*
D14*
%TO.P,D26,2,A*%
%TO.N,Net-(D26-A)*%
X124225000Y-58700000D03*
%TD*%
D13*
%TO.P,D7,1,K*%
%TO.N,Net-(D7-K)*%
X150850000Y-70575000D03*
D14*
%TO.P,D7,2,A*%
%TO.N,Net-(D7-A)*%
X153390000Y-70575000D03*
%TD*%
D13*
%TO.P,D32,1,K*%
%TO.N,Net-(D32-K)*%
X151685000Y-58700000D03*
D14*
%TO.P,D32,2,A*%
%TO.N,Net-(D32-A)*%
X154225000Y-58700000D03*
%TD*%
D13*
%TO.P,D13,1,K*%
%TO.N,Net-(D13-K)*%
X136800000Y-34050000D03*
D14*
%TO.P,D13,2,A*%
%TO.N,Net-(D13-A)*%
X139340000Y-34050000D03*
%TD*%
D13*
%TO.P,D4,1,K*%
%TO.N,Net-(D4-K)*%
X136120000Y-70575000D03*
D14*
%TO.P,D4,2,A*%
%TO.N,Net-(D4-A)*%
X138660000Y-70575000D03*
%TD*%
D16*
%TO.P,RN3,1,common*%
%TO.N,GND*%
X123795000Y-50675000D03*
D12*
%TO.P,RN3,2,R1*%
%TO.N,Net-(D17-A)*%
X126335000Y-50675000D03*
%TO.P,RN3,3,R2*%
%TO.N,Net-(D18-A)*%
X128875000Y-50675000D03*
%TO.P,RN3,4,R3*%
%TO.N,Net-(D19-A)*%
X131415000Y-50675000D03*
%TO.P,RN3,5,R4*%
%TO.N,Net-(D20-A)*%
X133955000Y-50675000D03*
%TO.P,RN3,6,R5*%
%TO.N,Net-(D21-A)*%
X136495000Y-50675000D03*
%TO.P,RN3,7,R6*%
%TO.N,Net-(D22-A)*%
X139035000Y-50675000D03*
%TO.P,RN3,8,R7*%
%TO.N,Net-(D23-A)*%
X141575000Y-50675000D03*
%TO.P,RN3,9,R8*%
%TO.N,Net-(D24-A)*%
X144115000Y-50675000D03*
%TO.P,RN3,10,R9*%
%TO.N,unconnected-(RN3-R9-Pad10)*%
X146655000Y-50675000D03*
%TD*%
D13*
%TO.P,D16,1,K*%
%TO.N,Net-(D16-K)*%
X151825000Y-34025000D03*
D14*
%TO.P,D16,2,A*%
%TO.N,Net-(D16-A)*%
X154365000Y-34025000D03*
%TD*%
D17*
%TO.P,J2,1,Pin_1*%
%TO.N,VCC*%
X75035000Y-32121000D03*
D18*
%TO.P,J2,2,Pin_2*%
%TO.N,3.3v*%
X77575000Y-32121000D03*
%TO.P,J2,3,Pin_3*%
%TO.N,GND*%
X75035000Y-34661000D03*
%TO.P,J2,4,Pin_4*%
X77575000Y-34661000D03*
%TO.P,J2,5,Pin_5*%
%TO.N,A0*%
X75035000Y-37201000D03*
%TO.P,J2,6,Pin_6*%
%TO.N,D0*%
X77575000Y-37201000D03*
%TO.P,J2,7,Pin_7*%
%TO.N,A1*%
X75035000Y-39741000D03*
%TO.P,J2,8,Pin_8*%
%TO.N,D1*%
X77575000Y-39741000D03*
%TO.P,J2,9,Pin_9*%
%TO.N,A2*%
X75035000Y-42281000D03*
%TO.P,J2,10,Pin_10*%
%TO.N,D2*%
X77575000Y-42281000D03*
%TO.P,J2,11,Pin_11*%
%TO.N,A3*%
X75035000Y-44821000D03*
%TO.P,J2,12,Pin_12*%
%TO.N,D3*%
X77575000Y-44821000D03*
%TO.P,J2,13,Pin_13*%
%TO.N,A4*%
X75035000Y-47361000D03*
%TO.P,J2,14,Pin_14*%
%TO.N,D4*%
X77575000Y-47361000D03*
%TO.P,J2,15,Pin_15*%
%TO.N,A5*%
X75035000Y-49901000D03*
%TO.P,J2,16,Pin_16*%
%TO.N,D5*%
X77575000Y-49901000D03*
%TO.P,J2,17,Pin_17*%
%TO.N,A6*%
X75035000Y-52441000D03*
%TO.P,J2,18,Pin_18*%
%TO.N,D6*%
X77575000Y-52441000D03*
%TO.P,J2,19,Pin_19*%
%TO.N,A7*%
X75035000Y-54981000D03*
%TO.P,J2,20,Pin_20*%
%TO.N,D7*%
X77575000Y-54981000D03*
%TO.P,J2,21,Pin_21*%
%TO.N,A8*%
X75035000Y-57521000D03*
%TO.P,J2,22,Pin_22*%
%TO.N,PA4*%
X77575000Y-57521000D03*
%TO.P,J2,23,Pin_23*%
%TO.N,A9*%
X75035000Y-60061000D03*
%TO.P,J2,24,Pin_24*%
%TO.N,PA5*%
X77575000Y-60061000D03*
%TO.P,J2,25,Pin_25*%
%TO.N,A10*%
X75035000Y-62601000D03*
%TO.P,J2,26,Pin_26*%
%TO.N,PA6*%
X77575000Y-62601000D03*
%TO.P,J2,27,Pin_27*%
%TO.N,A11*%
X75035000Y-65141000D03*
%TO.P,J2,28,Pin_28*%
%TO.N,Reset*%
X77575000Y-65141000D03*
%TO.P,J2,29,Pin_29*%
%TO.N,A12*%
X75035000Y-67681000D03*
%TO.P,J2,30,Pin_30*%
%TO.N,IRQ*%
X77575000Y-67681000D03*
%TO.P,J2,31,Pin_31*%
%TO.N,A13*%
X75035000Y-70221000D03*
%TO.P,J2,32,Pin_32*%
%TO.N,RW*%
X77575000Y-70221000D03*
%TO.P,J2,33,Pin_33*%
%TO.N,A14*%
X75035000Y-72761000D03*
%TO.P,J2,34,Pin_34*%
%TO.N,unconnected-(J2-Pin_34-Pad34)*%
X77575000Y-72761000D03*
%TO.P,J2,35,Pin_35*%
%TO.N,A15*%
X75035000Y-75301000D03*
%TO.P,J2,36,Pin_36*%
%TO.N,clock*%
X77575000Y-75301000D03*
%TO.P,J2,37,Pin_37*%
%TO.N,GND*%
X75035000Y-77841000D03*
%TO.P,J2,38,Pin_38*%
%TO.N,unconnected-(J2-Pin_38-Pad38)*%
X77575000Y-77841000D03*
%TD*%
D13*
%TO.P,D28,1,K*%
%TO.N,Net-(D28-K)*%
X131685000Y-58700000D03*
D14*
%TO.P,D28,2,A*%
%TO.N,Net-(D28-A)*%
X134225000Y-58700000D03*
%TD*%
D13*
%TO.P,D23,1,K*%
%TO.N,Net-(D23-K)*%
X146705000Y-44900000D03*
D14*
%TO.P,D23,2,A*%
%TO.N,Net-(D23-A)*%
X149245000Y-44900000D03*
%TD*%
D13*
%TO.P,D17,1,K*%
%TO.N,Net-(D17-K)*%
X116450000Y-44875000D03*
D14*
%TO.P,D17,2,A*%
%TO.N,Net-(D17-A)*%
X118990000Y-44875000D03*
%TD*%
D13*
%TO.P,D5,1,K*%
%TO.N,Net-(D5-K)*%
X141100000Y-70575000D03*
D14*
%TO.P,D5,2,A*%
%TO.N,Net-(D5-A)*%
X143640000Y-70575000D03*
%TD*%
D13*
%TO.P,D21,1,K*%
%TO.N,Net-(D21-K)*%
X136680000Y-44900000D03*
D14*
%TO.P,D21,2,A*%
%TO.N,Net-(D21-A)*%
X139220000Y-44900000D03*
%TD*%
D13*
%TO.P,D15,1,K*%
%TO.N,Net-(D15-K)*%
X146825000Y-34050000D03*
D14*
%TO.P,D15,2,A*%
%TO.N,Net-(D15-A)*%
X149365000Y-34050000D03*
%TD*%
D13*
%TO.P,D18,1,K*%
%TO.N,Net-(D18-K)*%
X121525000Y-44875000D03*
D14*
%TO.P,D18,2,A*%
%TO.N,Net-(D18-A)*%
X124065000Y-44875000D03*
%TD*%
D15*
%TO.P,U2,1,OE*%
%TO.N,GND*%
X112080000Y-46000000D03*
D12*
%TO.P,U2,2,O0*%
%TO.N,Net-(D17-K)*%
X109540000Y-46000000D03*
%TO.P,U2,3,D0*%
%TO.N,A8*%
X107000000Y-46000000D03*
%TO.P,U2,4,D1*%
%TO.N,A9*%
X104460000Y-46000000D03*
%TO.P,U2,5,O1*%
%TO.N,Net-(D18-K)*%
X101920000Y-46000000D03*
%TO.P,U2,6,O2*%
%TO.N,Net-(D19-K)*%
X99380000Y-46000000D03*
%TO.P,U2,7,D2*%
%TO.N,A10*%
X96840000Y-46000000D03*
%TO.P,U2,8,D3*%
%TO.N,A11*%
X94300000Y-46000000D03*
%TO.P,U2,9,O3*%
%TO.N,Net-(D20-K)*%
X91760000Y-46000000D03*
%TO.P,U2,10,GND*%
%TO.N,GND*%
X89220000Y-46000000D03*
%TO.P,U2,11,LE*%
%TO.N,clock*%
X89220000Y-53620000D03*
%TO.P,U2,12,O4*%
%TO.N,Net-(D21-K)*%
X91760000Y-53620000D03*
%TO.P,U2,13,D4*%
%TO.N,A12*%
X94300000Y-53620000D03*
%TO.P,U2,14,D5*%
%TO.N,A13*%
X96840000Y-53620000D03*
%TO.P,U2,15,O5*%
%TO.N,Net-(D22-K)*%
X99380000Y-53620000D03*
%TO.P,U2,16,O6*%
%TO.N,Net-(D23-K)*%
X101920000Y-53620000D03*
%TO.P,U2,17,D6*%
%TO.N,A14*%
X104460000Y-53620000D03*
%TO.P,U2,18,D7*%
%TO.N,A15*%
X107000000Y-53620000D03*
%TO.P,U2,19,O7*%
%TO.N,Net-(D24-K)*%
X109540000Y-53620000D03*
%TO.P,U2,20,VCC*%
%TO.N,VCC*%
X112080000Y-53620000D03*
%TD*%
D16*
%TO.P,RN4,1,common*%
%TO.N,GND*%
X124020000Y-64725000D03*
D12*
%TO.P,RN4,2,R1*%
%TO.N,Net-(D25-A)*%
X126560000Y-64725000D03*
%TO.P,RN4,3,R2*%
%TO.N,Net-(D26-A)*%
X129100000Y-64725000D03*
%TO.P,RN4,4,R3*%
%TO.N,Net-(D27-A)*%
X131640000Y-64725000D03*
%TO.P,RN4,5,R4*%
%TO.N,Net-(D28-A)*%
X134180000Y-64725000D03*
%TO.P,RN4,6,R5*%
%TO.N,Net-(D29-A)*%
X136720000Y-64725000D03*
%TO.P,RN4,7,R6*%
%TO.N,Net-(D30-A)*%
X139260000Y-64725000D03*
%TO.P,RN4,8,R7*%
%TO.N,Net-(D31-A)*%
X141800000Y-64725000D03*
%TO.P,RN4,9,R8*%
%TO.N,Net-(D32-A)*%
X144340000Y-64725000D03*
%TO.P,RN4,10,R9*%
%TO.N,unconnected-(RN4-R9-Pad10)*%
X146880000Y-64725000D03*
%TD*%
D13*
%TO.P,D24,1,K*%
%TO.N,Net-(D24-K)*%
X151725000Y-44900000D03*
D14*
%TO.P,D24,2,A*%
%TO.N,Net-(D24-A)*%
X154265000Y-44900000D03*
%TD*%
D19*
%TO.N,D5*%
X85078000Y-59548847D03*
X89767000Y-59553000D03*
%TO.N,D3*%
X86079000Y-62093000D03*
%TO.N,GND*%
X85703000Y-76825000D03*
X85957000Y-40376000D03*
X82147000Y-75301000D03*
X114405000Y-34661000D03*
X80242000Y-32629000D03*
X114405000Y-45837000D03*
X83163000Y-37328000D03*
%TO.N,D7*%
X84478000Y-58791000D03*
%TO.N,PA4*%
X86465000Y-66665000D03*
X94847000Y-75047000D03*
%TO.N,D4*%
X89767000Y-60569000D03*
X85678000Y-60315000D03*
%TO.N,VCC*%
X80115000Y-78857000D03*
X91066552Y-56925000D03*
X83290000Y-78984000D03*
%TO.N,clock*%
X89259000Y-50663000D03*
%TD*%
D10*
%TO.N,Net-(D1-K)*%
X117861000Y-70575000D02*
X115675000Y-72761000D01*
X96117000Y-72761000D02*
X92053000Y-76825000D01*
X121120000Y-70575000D02*
X117861000Y-70575000D01*
X115675000Y-72761000D02*
X96117000Y-72761000D01*
%TO.N,Net-(D2-K)*%
X126120000Y-70575000D02*
X123426000Y-73269000D01*
X123426000Y-73269000D02*
X102467000Y-73269000D01*
X102467000Y-74031000D02*
X99673000Y-76825000D01*
X102467000Y-73269000D02*
X102467000Y-74031000D01*
%TO.N,Net-(D3-K)*%
X105261000Y-73777000D02*
X102213000Y-76825000D01*
X131120000Y-70575000D02*
X127918000Y-73777000D01*
X127918000Y-73777000D02*
X105261000Y-73777000D01*
%TO.N,Net-(D4-K)*%
X112373000Y-74285000D02*
X109833000Y-76825000D01*
X136120000Y-70575000D02*
X132410000Y-74285000D01*
X132410000Y-74285000D02*
X112373000Y-74285000D01*
%TO.N,Net-(D5-K)*%
X138629000Y-68104000D02*
X110934000Y-68104000D01*
X110934000Y-68104000D02*
X109833000Y-69205000D01*
X141100000Y-70575000D02*
X138629000Y-68104000D01*
%TO.N,Net-(D6-K)*%
X145950000Y-70575000D02*
X143056000Y-67681000D01*
X103737000Y-67681000D02*
X102213000Y-69205000D01*
X143056000Y-67681000D02*
X103737000Y-67681000D01*
%TO.N,Net-(D7-K)*%
X150850000Y-70575000D02*
X147448000Y-67173000D01*
X101705000Y-67173000D02*
X99673000Y-69205000D01*
X147448000Y-67173000D02*
X101705000Y-67173000D01*
%TO.N,Net-(D10-K)*%
X121750000Y-34000000D02*
X120549000Y-32799000D01*
X103661000Y-32799000D02*
X102270000Y-34190000D01*
X120549000Y-32799000D02*
X103661000Y-32799000D01*
%TO.N,Net-(D11-K)*%
X126750000Y-34000000D02*
X125148000Y-32398000D01*
X125148000Y-32398000D02*
X101522000Y-32398000D01*
X101522000Y-32398000D02*
X99730000Y-34190000D01*
%TO.N,Net-(D12-K)*%
X129772000Y-31997000D02*
X93701000Y-31997000D01*
X93701000Y-31997000D02*
X93069000Y-32629000D01*
X93069000Y-32629000D02*
X93069000Y-33231000D01*
X131775000Y-34000000D02*
X129772000Y-31997000D01*
X93069000Y-33231000D02*
X92110000Y-34190000D01*
%TO.N,Net-(D13-K)*%
X89259000Y-39653057D02*
X89259000Y-40503000D01*
X89465000Y-40709000D02*
X91009000Y-40709000D01*
X89259000Y-40503000D02*
X89465000Y-40709000D01*
X136800000Y-34050000D02*
X134919000Y-35931000D01*
X91009000Y-40709000D02*
X92110000Y-41810000D01*
X134919000Y-35931000D02*
X92981057Y-35931000D01*
X92981057Y-35931000D02*
X89259000Y-39653057D01*
%TO.N,Net-(D14-K)*%
X139157000Y-36693000D02*
X104847000Y-36693000D01*
X141800000Y-34050000D02*
X139157000Y-36693000D01*
X104847000Y-36693000D02*
X99730000Y-41810000D01*
%TO.N,Net-(D15-K)*%
X106785000Y-37201000D02*
X106277000Y-37709000D01*
X143674000Y-37201000D02*
X106785000Y-37201000D01*
X106277000Y-37709000D02*
X106277000Y-37803000D01*
X106277000Y-37803000D02*
X102270000Y-41810000D01*
X146825000Y-34050000D02*
X143674000Y-37201000D01*
%TO.N,Net-(D16-K)*%
X148248000Y-37602000D02*
X115782000Y-37602000D01*
X115421000Y-37963000D02*
X113737000Y-37963000D01*
X113737000Y-37963000D02*
X109890000Y-41810000D01*
X151825000Y-34025000D02*
X148248000Y-37602000D01*
X115782000Y-37602000D02*
X115421000Y-37963000D01*
%TO.N,Net-(D17-K)*%
X111735000Y-43805000D02*
X109540000Y-46000000D01*
X113389000Y-43805000D02*
X111735000Y-43805000D01*
X114459000Y-44875000D02*
X113389000Y-43805000D01*
X116450000Y-44875000D02*
X114459000Y-44875000D01*
%TO.N,Net-(D18-K)*%
X104623000Y-43297000D02*
X101920000Y-46000000D01*
X119947000Y-43297000D02*
X104623000Y-43297000D01*
X121525000Y-44875000D02*
X119947000Y-43297000D01*
%TO.N,Net-(D19-K)*%
X100481000Y-47101000D02*
X99380000Y-46000000D01*
X126625000Y-44875000D02*
X124399000Y-47101000D01*
X124399000Y-47101000D02*
X100481000Y-47101000D01*
%TO.N,Net-(D20-K)*%
X129073000Y-47502000D02*
X93262000Y-47502000D01*
X93262000Y-47502000D02*
X91760000Y-46000000D01*
X131675000Y-44900000D02*
X129073000Y-47502000D01*
%TO.N,Net-(D21-K)*%
X136680000Y-44900000D02*
X133457000Y-48123000D01*
X95609000Y-48123000D02*
X91760000Y-51972000D01*
X91760000Y-51972000D02*
X91760000Y-53620000D01*
X133457000Y-48123000D02*
X95609000Y-48123000D01*
%TO.N,Net-(D22-K)*%
X141700000Y-44875000D02*
X137944000Y-48631000D01*
X137944000Y-48631000D02*
X102213000Y-48631000D01*
X99380000Y-51718000D02*
X99380000Y-53620000D01*
X102213000Y-48631000D02*
X102213000Y-48885000D01*
X102213000Y-48885000D02*
X99380000Y-51718000D01*
%TO.N,Net-(D23-K)*%
X142031000Y-49574000D02*
X106096000Y-49574000D01*
X106096000Y-49574000D02*
X103483000Y-52187000D01*
X103353000Y-52187000D02*
X101920000Y-53620000D01*
X146705000Y-44900000D02*
X142031000Y-49574000D01*
X103483000Y-52187000D02*
X103353000Y-52187000D01*
%TO.N,Net-(D24-K)*%
X141288050Y-52519000D02*
X110641000Y-52519000D01*
X147051000Y-49574000D02*
X143658950Y-49574000D01*
X151725000Y-44900000D02*
X147051000Y-49574000D01*
X142853000Y-50379950D02*
X142853000Y-50954050D01*
X143658950Y-49574000D02*
X142853000Y-50379950D01*
X110641000Y-52519000D02*
X109540000Y-53620000D01*
X142853000Y-50954050D02*
X141288050Y-52519000D01*
%TO.N,Net-(D25-K)*%
X116455000Y-58700000D02*
X114078000Y-61077000D01*
X114078000Y-61077000D02*
X96117000Y-61077000D01*
X96117000Y-61077000D02*
X96117000Y-61331000D01*
X96117000Y-61331000D02*
X92053000Y-65395000D01*
%TO.N,Net-(D26-K)*%
X103229000Y-61839000D02*
X99673000Y-65395000D01*
X103229000Y-61478000D02*
X103229000Y-61839000D01*
X118907000Y-61478000D02*
X103229000Y-61478000D01*
X121685000Y-58700000D02*
X118907000Y-61478000D01*
%TO.N,Net-(D27-K)*%
X105515000Y-62093000D02*
X102213000Y-65395000D01*
X126685000Y-58700000D02*
X123292000Y-62093000D01*
X123292000Y-62093000D02*
X105515000Y-62093000D01*
%TO.N,Net-(D28-K)*%
X112119000Y-62855000D02*
X112119000Y-63109000D01*
X112119000Y-63109000D02*
X109833000Y-65395000D01*
X131685000Y-58700000D02*
X127530000Y-62855000D01*
X127530000Y-62855000D02*
X112119000Y-62855000D01*
%TO.N,Net-(D29-K)*%
X110934000Y-56674000D02*
X109833000Y-57775000D01*
X134659000Y-56674000D02*
X110934000Y-56674000D01*
X136685000Y-58700000D02*
X134659000Y-56674000D01*
%TO.N,Net-(D30-K)*%
X141685000Y-58700000D02*
X139258000Y-56273000D01*
X139258000Y-56273000D02*
X103715000Y-56273000D01*
X103715000Y-56273000D02*
X102213000Y-57775000D01*
%TO.N,Net-(D31-K)*%
X101705000Y-55743000D02*
X99673000Y-57775000D01*
X143728000Y-55743000D02*
X101705000Y-55743000D01*
X146685000Y-58700000D02*
X143728000Y-55743000D01*
%TO.N,Net-(D32-K)*%
X94232000Y-55342000D02*
X94085000Y-55489000D01*
X94085000Y-55743000D02*
X92053000Y-57775000D01*
X94085000Y-55489000D02*
X94085000Y-55743000D01*
X151685000Y-58700000D02*
X148327000Y-55342000D01*
X148327000Y-55342000D02*
X94232000Y-55342000D01*
%TO.N,RW*%
X97133000Y-69967000D02*
X97133000Y-69205000D01*
X77575000Y-70221000D02*
X80623000Y-73269000D01*
X93831000Y-73269000D02*
X97133000Y-69967000D01*
X80623000Y-73269000D02*
X93831000Y-73269000D01*
%TO.N,D5*%
X102975000Y-59553000D02*
X104753000Y-57775000D01*
X77575000Y-49901000D02*
X82254000Y-45222000D01*
X92307000Y-59553000D02*
X97641000Y-59553000D01*
X89767000Y-59553000D02*
X92307000Y-59553000D01*
X97641000Y-59553000D02*
X102975000Y-59553000D01*
X82488900Y-45222000D02*
X85078000Y-47811100D01*
X85078000Y-47811100D02*
X85078000Y-59548847D01*
X82254000Y-45222000D02*
X82488900Y-45222000D01*
%TO.N,D6*%
X87882000Y-56144000D02*
X88412000Y-56674000D01*
X76424000Y-51290000D02*
X76424000Y-36486240D01*
X90614000Y-57893050D02*
X91596950Y-58876000D01*
X87882000Y-51938950D02*
X87882000Y-56144000D01*
X88658000Y-46995050D02*
X88658000Y-51162950D01*
X77575000Y-52441000D02*
X76424000Y-51290000D01*
X90614000Y-57318950D02*
X90614000Y-57893050D01*
X89969050Y-56674000D02*
X90614000Y-57318950D01*
X77098240Y-35812000D02*
X79488000Y-35812000D01*
X88658000Y-51162950D02*
X87882000Y-51938950D01*
X96032000Y-58876000D02*
X97133000Y-57775000D01*
X88412000Y-56674000D02*
X89969050Y-56674000D01*
X91596950Y-58876000D02*
X96032000Y-58876000D01*
X79488000Y-35812000D02*
X79488000Y-37825050D01*
X79488000Y-37825050D02*
X88658000Y-46995050D01*
X76424000Y-36486240D02*
X77098240Y-35812000D01*
%TO.N,D3*%
X86278000Y-47741100D02*
X86278000Y-54219000D01*
X86278000Y-61894000D02*
X86079000Y-62093000D01*
X86278000Y-54219000D02*
X86278000Y-61894000D01*
X77575000Y-44821000D02*
X79069450Y-43326550D01*
X79069450Y-43326550D02*
X81863450Y-43326550D01*
X81863450Y-43326550D02*
X86278000Y-47741100D01*
%TO.N,GND*%
X113934000Y-34190000D02*
X114405000Y-34661000D01*
X113897000Y-45837000D02*
X113734000Y-46000000D01*
X113734000Y-46000000D02*
X112080000Y-46000000D01*
X112430000Y-34190000D02*
X113934000Y-34190000D01*
X114405000Y-45837000D02*
X113897000Y-45837000D01*
%TO.N,IRQ*%
X103652000Y-70306000D02*
X104753000Y-69205000D01*
X97927050Y-68104000D02*
X98572000Y-68748950D01*
X77575000Y-67681000D02*
X77998000Y-68104000D01*
X77998000Y-68104000D02*
X97927050Y-68104000D01*
X98572000Y-68748950D02*
X98572000Y-69661050D01*
X99216950Y-70306000D02*
X103652000Y-70306000D01*
X98572000Y-69661050D02*
X99216950Y-70306000D01*
%TO.N,D7*%
X77575000Y-54981000D02*
X81385000Y-58791000D01*
X81385000Y-58791000D02*
X84478000Y-58791000D01*
%TO.N,PA4*%
X86465000Y-66411000D02*
X86465000Y-66665000D01*
X94847000Y-75047000D02*
X95355000Y-75047000D01*
X77575000Y-57521000D02*
X86465000Y-66411000D01*
X95355000Y-75047000D02*
X97133000Y-76825000D01*
%TO.N,D4*%
X77575000Y-47361000D02*
X80115000Y-44821000D01*
X85678000Y-47844000D02*
X85678000Y-60315000D01*
X104499000Y-60569000D02*
X107293000Y-57775000D01*
X82655000Y-44821000D02*
X85678000Y-47844000D01*
X80115000Y-44821000D02*
X82655000Y-44821000D01*
X89767000Y-60569000D02*
X104499000Y-60569000D01*
%TO.N,PA5*%
X74796240Y-76690000D02*
X80262660Y-76690000D01*
X107326050Y-78349000D02*
X108394000Y-77281050D01*
X80262660Y-76690000D02*
X81921660Y-78349000D01*
X73483000Y-75376760D02*
X74796240Y-76690000D01*
X108394000Y-76368950D02*
X107749050Y-75724000D01*
X73483000Y-65065240D02*
X73483000Y-75376760D01*
X77575000Y-60061000D02*
X76424000Y-61212000D01*
X75618900Y-63990000D02*
X74558240Y-63990000D01*
X107749050Y-75724000D02*
X105854000Y-75724000D01*
X108394000Y-77281050D02*
X108394000Y-76368950D01*
X74558240Y-63990000D02*
X73483000Y-65065240D01*
X76424000Y-61212000D02*
X76424000Y-63184900D01*
X81921660Y-78349000D02*
X107326050Y-78349000D01*
X105854000Y-75724000D02*
X104753000Y-76825000D01*
X76424000Y-63184900D02*
X75618900Y-63990000D01*
%TO.N,D0*%
X93492000Y-66496000D02*
X94593000Y-65395000D01*
X87481000Y-65249160D02*
X88727840Y-66496000D01*
X88727840Y-66496000D02*
X93492000Y-66496000D01*
X87481000Y-47107000D02*
X87481000Y-65249160D01*
X77575000Y-37201000D02*
X87481000Y-47107000D01*
%TO.N,D2*%
X103652000Y-66496000D02*
X104753000Y-65395000D01*
X101012900Y-67298000D02*
X101814900Y-66496000D01*
X86679000Y-47575000D02*
X86679000Y-65581360D01*
X101814900Y-66496000D02*
X103652000Y-66496000D01*
X78414450Y-41441550D02*
X80545550Y-41441550D01*
X86679000Y-65581360D02*
X88395640Y-67298000D01*
X80545550Y-41441550D02*
X86679000Y-47575000D01*
X88395640Y-67298000D02*
X101012900Y-67298000D01*
X77575000Y-42281000D02*
X78414450Y-41441550D01*
%TO.N,VCC*%
X80877000Y-79619000D02*
X80115000Y-78857000D01*
X91066552Y-56925000D02*
X93270552Y-54721000D01*
X82655000Y-79619000D02*
X80877000Y-79619000D01*
X110979000Y-54721000D02*
X112080000Y-53620000D01*
X93270552Y-54721000D02*
X110979000Y-54721000D01*
X83290000Y-78984000D02*
X82655000Y-79619000D01*
%TO.N,D1*%
X88561740Y-66897000D02*
X95631000Y-66897000D01*
X78874550Y-41040550D02*
X80847450Y-41040550D01*
X95631000Y-66897000D02*
X97133000Y-65395000D01*
X77575000Y-39741000D02*
X78874550Y-41040550D01*
X87080000Y-65415260D02*
X88561740Y-66897000D01*
X87080000Y-47273100D02*
X87080000Y-65415260D01*
X80847450Y-41040550D02*
X87080000Y-47273100D01*
%TO.N,clock*%
X90321000Y-47569000D02*
X90321000Y-42561000D01*
X89259000Y-48631000D02*
X90321000Y-47569000D01*
X89259000Y-50663000D02*
X89259000Y-48631000D01*
X90321000Y-42561000D02*
X89570000Y-41810000D01*
%TO.N,Reset*%
X77098240Y-71372000D02*
X78158900Y-71372000D01*
X93997100Y-73670000D02*
X96960100Y-70707000D01*
X105791000Y-70707000D02*
X107293000Y-69205000D01*
X76424000Y-66292000D02*
X76424000Y-70697760D01*
X80456900Y-73670000D02*
X93997100Y-73670000D01*
X77575000Y-65141000D02*
X76424000Y-66292000D01*
X96960100Y-70707000D02*
X105791000Y-70707000D01*
X78158900Y-71372000D02*
X80456900Y-73670000D01*
X76424000Y-70697760D02*
X77098240Y-71372000D01*
%TO.N,PA6*%
X106192000Y-77926000D02*
X107293000Y-76825000D01*
X76424000Y-63752000D02*
X76424000Y-65617760D01*
X82065760Y-77926000D02*
X106192000Y-77926000D01*
X73884000Y-70697760D02*
X74558240Y-71372000D01*
X74558240Y-66530000D02*
X73884000Y-67204240D01*
X77575000Y-62601000D02*
X76424000Y-63752000D01*
X76424000Y-73237760D02*
X77098240Y-73912000D01*
X75511760Y-66530000D02*
X74558240Y-66530000D01*
X75511760Y-71372000D02*
X76424000Y-72284240D01*
X74558240Y-71372000D02*
X75511760Y-71372000D01*
X77098240Y-73912000D02*
X78051760Y-73912000D01*
X73884000Y-67204240D02*
X73884000Y-70697760D01*
X76424000Y-72284240D02*
X76424000Y-73237760D01*
X76424000Y-65617760D02*
X75511760Y-66530000D01*
X78051760Y-73912000D02*
X82065760Y-77926000D01*
%TD*%
%TA.AperFunction,Conductor*%
%TO.N,GND*%
G36*
X159560039Y-30019685D02*
G01*
X159605794Y-30072489D01*
X159617000Y-30124000D01*
X159617000Y-80003361D01*
X159597315Y-80070400D01*
X159544511Y-80116155D01*
X159493362Y-80127360D01*
X83052601Y-80350232D01*
X82985504Y-80330743D01*
X82939595Y-80278073D01*
X82929450Y-80208944D01*
X82958290Y-80145304D01*
X82969856Y-80133556D01*
X82979294Y-80125165D01*
X83023716Y-80099520D01*
X83135520Y-79987716D01*
X83135521Y-79987713D01*
X83304664Y-79818570D01*
X83365983Y-79785089D01*
X83368150Y-79784638D01*
X83426085Y-79773113D01*
X83523497Y-79753737D01*
X83669179Y-79693394D01*
X83800289Y-79605789D01*
X83911789Y-79494289D01*
X83999394Y-79363179D01*
X84059737Y-79217497D01*
X84090500Y-79062842D01*
X84090500Y-79062832D01*
X84090646Y-79061354D01*
X84090942Y-79060618D01*
X84091689Y-79056868D01*
X84092400Y-79057009D01*
X84116803Y-78996565D01*
X84173835Y-78956202D01*
X84214050Y-78949500D01*
X107239381Y-78949500D01*
X107239397Y-78949501D01*
X107246993Y-78949501D01*
X107405104Y-78949501D01*
X107405107Y-78949501D01*
X107557835Y-78908577D01*
X107607954Y-78879639D01*
X107694766Y-78829520D01*
X107806570Y-78717716D01*
X107806570Y-78717714D01*
X107816778Y-78707507D01*
X107816780Y-78707504D01*
X108755698Y-77768585D01*
X108758883Y-77765402D01*
X108785803Y-77750707D01*
X108784727Y-77748555D01*
X108784735Y-77748551D01*
X108785811Y-77750703D01*
X108789483Y-77748699D01*
X108820173Y-77731935D01*
X108820193Y-77731936D01*
X108820211Y-77731927D01*
X108854033Y-77734351D01*
X108889865Y-77736908D01*
X108889884Y-77736920D01*
X108889902Y-77736922D01*
X108889993Y-77736990D01*
X108934231Y-77765416D01*
X108985786Y-77816971D01*
X109134477Y-77924999D01*
X109151390Y-77937287D01*
X109267607Y-77996503D01*
X109333776Y-78030218D01*
X109333778Y-78030218D01*
X109333781Y-78030220D01*
X109414663Y-78056500D01*
X109528465Y-78093477D01*
X109629557Y-78109488D01*
X109730648Y-78125500D01*
X109730649Y-78125500D01*
X109935351Y-78125500D01*
X109935352Y-78125500D01*
X110137534Y-78093477D01*
X110332219Y-78030220D01*
X110514610Y-77937287D01*
X110647139Y-77841000D01*
X110680213Y-77816971D01*
X110680215Y-77816968D01*
X110680219Y-77816966D01*
X110824966Y-77672219D01*
X110824968Y-77672215D01*
X110824971Y-77672213D01*
X110932100Y-77524760D01*
X110945287Y-77506610D01*
X110992795Y-77413369D01*
X111040769Y-77362573D01*
X111108590Y-77345778D01*
X111174725Y-77368315D01*
X111213765Y-77413369D01*
X111261141Y-77506350D01*
X111261147Y-77506359D01*
X111293523Y-77550921D01*
X111293524Y-77550922D01*
X111973000Y-76871446D01*
X111973000Y-76877661D01*
X112000259Y-76979394D01*
X112052920Y-77070606D01*
X112127394Y-77145080D01*
X112218606Y-77197741D01*
X112320339Y-77225000D01*
X112326553Y-77225000D01*
X111647076Y-77904474D01*
X111691650Y-77936859D01*
X111873968Y-78029755D01*
X112068582Y-78092990D01*
X112270683Y-78125000D01*
X112475317Y-78125000D01*
X112677417Y-78092990D01*
X112872031Y-78029755D01*
X113054349Y-77936859D01*
X113098921Y-77904474D01*
X112419447Y-77225000D01*
X112425661Y-77225000D01*
X112527394Y-77197741D01*
X112618606Y-77145080D01*
X112693080Y-77070606D01*
X112745741Y-76979394D01*
X112773000Y-76877661D01*
X112773000Y-76871448D01*
X113452474Y-77550922D01*
X113452474Y-77550921D01*
X113484859Y-77506349D01*
X113577755Y-77324031D01*
X113640990Y-77129417D01*
X113673000Y-76927317D01*
X113673000Y-76722682D01*
X113640990Y-76520582D01*
X113577755Y-76325968D01*
X113484859Y-76143650D01*
X113452474Y-76099077D01*
X113452474Y-76099076D01*
X112773000Y-76778551D01*
X112773000Y-76772339D01*
X112745741Y-76670606D01*
X112693080Y-76579394D01*
X112618606Y-76504920D01*
X112527394Y-76452259D01*
X112425661Y-76425000D01*
X112419446Y-76425000D01*
X113067291Y-75777155D01*
X122610000Y-75777155D01*
X122610000Y-76375000D01*
X123594314Y-76375000D01*
X123589920Y-76379394D01*
X123537259Y-76470606D01*
X123510000Y-76572339D01*
X123510000Y-76677661D01*
X123537259Y-76779394D01*
X123589920Y-76870606D01*
X123594314Y-76875000D01*
X122610000Y-76875000D01*
X122610000Y-77472844D01*
X122616401Y-77532372D01*
X122616403Y-77532379D01*
X122666645Y-77667086D01*
X122666649Y-77667093D01*
X122752809Y-77782187D01*
X122752812Y-77782190D01*
X122867906Y-77868350D01*
X122867913Y-77868354D01*
X123002620Y-77918596D01*
X123002627Y-77918598D01*
X123062155Y-77924999D01*
X123062172Y-77925000D01*
X123660000Y-77925000D01*
X123660000Y-76940686D01*
X123664394Y-76945080D01*
X123755606Y-76997741D01*
X123857339Y-77025000D01*
X123962661Y-77025000D01*
X124064394Y-76997741D01*
X124155606Y-76945080D01*
X124160000Y-76940686D01*
X124160000Y-77925000D01*
X124757828Y-77925000D01*
X124757844Y-77924999D01*
X124817372Y-77918598D01*
X124817379Y-77918596D01*
X124952086Y-77868354D01*
X124952093Y-77868350D01*
X125067187Y-77782190D01*
X125067190Y-77782187D01*
X125153350Y-77667093D01*
X125153354Y-77667086D01*
X125203596Y-77532379D01*
X125207620Y-77494956D01*
X125234358Y-77430404D01*
X125291750Y-77390556D01*
X125361575Y-77388062D01*
X125421664Y-77423714D01*
X125431228Y-77435325D01*
X125458028Y-77472212D01*
X125458032Y-77472217D01*
X125602786Y-77616971D01*
X125757749Y-77729556D01*
X125768390Y-77737287D01*
X125856517Y-77782190D01*
X125950776Y-77830218D01*
X125950778Y-77830218D01*
X125950781Y-77830220D01*
X126055137Y-77864127D01*
X126145465Y-77893477D01*
X126214897Y-77904474D01*
X126347648Y-77925500D01*
X126347649Y-77925500D01*
X126552351Y-77925500D01*
X126552352Y-77925500D01*
X126754534Y-77893477D01*
X126949219Y-77830220D01*
X127131610Y-77737287D01*
X127232175Y-77664223D01*
X127297213Y-77616971D01*
X127297215Y-77616968D01*
X127297219Y-77616966D01*
X127441966Y-77472219D01*
X127441968Y-77472215D01*
X127441971Y-77472213D01*
X127562284Y-77306614D01*
X127562285Y-77306613D01*
X127562287Y-77306610D01*
X127609516Y-77213917D01*
X127657489Y-77163123D01*
X127725310Y-77146328D01*
X127791445Y-77168865D01*
X127830483Y-77213917D01*
X127869505Y-77290500D01*
X127877715Y-77306614D01*
X127998028Y-77472213D01*
X128142786Y-77616971D01*
X128297749Y-77729556D01*
X128308390Y-77737287D01*
X128396517Y-77782190D01*
X128490776Y-77830218D01*
X128490778Y-77830218D01*
X128490781Y-77830220D01*
X128595137Y-77864127D01*
X128685465Y-77893477D01*
X128754897Y-77904474D01*
X128887648Y-77925500D01*
X128887649Y-77925500D01*
X129092351Y-77925500D01*
X129092352Y-77925500D01*
X129294534Y-77893477D01*
X129489219Y-77830220D01*
X129671610Y-77737287D01*
X129772175Y-77664223D01*
X129837213Y-77616971D01*
X129837215Y-77616968D01*
X129837219Y-77616966D01*
X129981966Y-77472219D01*
X129981968Y-77472215D01*
X129981971Y-77472213D01*
X130102284Y-77306614D01*
X130102285Y-77306613D01*
X130102287Y-77306610D01*
X130149516Y-77213917D01*
X130197489Y-77163123D01*
X130265310Y-77146328D01*
X130331445Y-77168865D01*
X130370483Y-77213917D01*
X130409505Y-77290500D01*
X130417715Y-77306614D01*
X130538028Y-77472213D01*
X130682786Y-77616971D01*
X130837749Y-77729556D01*
X130848390Y-77737287D01*
X130936517Y-77782190D01*
X131030776Y-77830218D01*
X131030778Y-77830218D01*
X131030781Y-77830220D01*
X131135137Y-77864127D01*
X131225465Y-77893477D01*
X131294897Y-77904474D01*
X131427648Y-77925500D01*
X131427649Y-77925500D01*
X131632351Y-77925500D01*
X131632352Y-77925500D01*
X131834534Y-77893477D01*
X132029219Y-77830220D01*
X132211610Y-77737287D01*
X132312175Y-77664223D01*
X132377213Y-77616971D01*
X132377215Y-77616968D01*
X132377219Y-77616966D01*
X132521966Y-77472219D01*
X132521968Y-77472215D01*
X132521971Y-77472213D01*
X132642284Y-77306614D01*
X132642285Y-77306613D01*
X132642287Y-77306610D01*
X132689516Y-77213917D01*
X132737489Y-77163123D01*
X132805310Y-77146328D01*
X132871445Y-77168865D01*
X132910483Y-77213917D01*
X132949505Y-77290500D01*
X132957715Y-77306614D01*
X133078028Y-77472213D01*
X133222786Y-77616971D01*
X133377749Y-77729556D01*
X133388390Y-77737287D01*
X133476517Y-77782190D01*
X133570776Y-77830218D01*
X133570778Y-77830218D01*
X133570781Y-77830220D01*
X133675137Y-77864127D01*
X133765465Y-77893477D01*
X133834897Y-77904474D01*
X133967648Y-77925500D01*
X133967649Y-77925500D01*
X134172351Y-77925500D01*
X134172352Y-77925500D01*
X134374534Y-77893477D01*
X134569219Y-77830220D01*
X134751610Y-77737287D01*
X134852175Y-77664223D01*
X134917213Y-77616971D01*
X134917215Y-77616968D01*
X134917219Y-77616966D01*
X135061966Y-77472219D01*
X135061968Y-77472215D01*
X135061971Y-77472213D01*
X135182284Y-77306614D01*
X135182285Y-77306613D01*
X135182287Y-77306610D01*
X135229516Y-77213917D01*
X135277489Y-77163123D01*
X135345310Y-77146328D01*
X135411445Y-77168865D01*
X135450483Y-77213917D01*
X135489505Y-77290500D01*
X135497715Y-77306614D01*
X135618028Y-77472213D01*
X135762786Y-77616971D01*
X135917749Y-77729556D01*
X135928390Y-77737287D01*
X136016517Y-77782190D01*
X136110776Y-77830218D01*
X136110778Y-77830218D01*
X136110781Y-77830220D01*
X136215137Y-77864127D01*
X136305465Y-77893477D01*
X136374897Y-77904474D01*
X136507648Y-77925500D01*
X136507649Y-77925500D01*
X136712351Y-77925500D01*
X136712352Y-77925500D01*
X136914534Y-77893477D01*
X137109219Y-77830220D01*
X137291610Y-77737287D01*
X137392175Y-77664223D01*
X137457213Y-77616971D01*
X137457215Y-77616968D01*
X137457219Y-77616966D01*
X137601966Y-77472219D01*
X137601968Y-77472215D01*
X137601971Y-77472213D01*
X137722284Y-77306614D01*
X137722285Y-77306613D01*
X137722287Y-77306610D01*
X137769516Y-77213917D01*
X137817489Y-77163123D01*
X137885310Y-77146328D01*
X137951445Y-77168865D01*
X137990483Y-77213917D01*
X138029505Y-77290500D01*
X138037715Y-77306614D01*
X138158028Y-77472213D01*
X138302786Y-77616971D01*
X138457749Y-77729556D01*
X138468390Y-77737287D01*
X138556517Y-77782190D01*
X138650776Y-77830218D01*
X138650778Y-77830218D01*
X138650781Y-77830220D01*
X138755137Y-77864127D01*
X138845465Y-77893477D01*
X138914897Y-77904474D01*
X139047648Y-77925500D01*
X139047649Y-77925500D01*
X139252351Y-77925500D01*
X139252352Y-77925500D01*
X139454534Y-77893477D01*
X139649219Y-77830220D01*
X139831610Y-77737287D01*
X139932175Y-77664223D01*
X139997213Y-77616971D01*
X139997215Y-77616968D01*
X139997219Y-77616966D01*
X140141966Y-77472219D01*
X140141968Y-77472215D01*
X140141971Y-77472213D01*
X140262284Y-77306614D01*
X140262285Y-77306613D01*
X140262287Y-77306610D01*
X140309516Y-77213917D01*
X140357489Y-77163123D01*
X140425310Y-77146328D01*
X140491445Y-77168865D01*
X140530483Y-77213917D01*
X140569505Y-77290500D01*
X140577715Y-77306614D01*
X140698028Y-77472213D01*
X140842786Y-77616971D01*
X140997749Y-77729556D01*
X141008390Y-77737287D01*
X141096517Y-77782190D01*
X141190776Y-77830218D01*
X141190778Y-77830218D01*
X141190781Y-77830220D01*
X141295137Y-77864127D01*
X141385465Y-77893477D01*
X141454897Y-77904474D01*
X141587648Y-77925500D01*
X141587649Y-77925500D01*
X141792351Y-77925500D01*
X141792352Y-77925500D01*
X141994534Y-77893477D01*
X142189219Y-77830220D01*
X142371610Y-77737287D01*
X142472175Y-77664223D01*
X142537213Y-77616971D01*
X142537215Y-77616968D01*
X142537219Y-77616966D01*
X142681966Y-77472219D01*
X142681968Y-77472215D01*
X142681971Y-77472213D01*
X142802284Y-77306614D01*
X142802285Y-77306613D01*
X142802287Y-77306610D01*
X142849516Y-77213917D01*
X142897489Y-77163123D01*
X142965310Y-77146328D01*
X143031445Y-77168865D01*
X143070483Y-77213917D01*
X143109505Y-77290500D01*
X143117715Y-77306614D01*
X143238028Y-77472213D01*
X143382786Y-77616971D01*
X143537749Y-77729556D01*
X143548390Y-77737287D01*
X143636517Y-77782190D01*
X143730776Y-77830218D01*
X143730778Y-77830218D01*
X143730781Y-77830220D01*
X143835137Y-77864127D01*
X143925465Y-77893477D01*
X143994897Y-77904474D01*
X144127648Y-77925500D01*
X144127649Y-77925500D01*
X144332351Y-77925500D01*
X144332352Y-77925500D01*
X144534534Y-77893477D01*
X144729219Y-77830220D01*
X144911610Y-77737287D01*
X145012175Y-77664223D01*
X145077213Y-77616971D01*
X145077215Y-77616968D01*
X145077219Y-77616966D01*
X145221966Y-77472219D01*
X145221968Y-77472215D01*
X145221971Y-77472213D01*
X145342284Y-77306614D01*
X145342285Y-77306613D01*
X145342287Y-77306610D01*
X145389516Y-77213917D01*
X145437489Y-77163123D01*
X145505310Y-77146328D01*
X145571445Y-77168865D01*
X145610483Y-77213917D01*
X145649505Y-77290500D01*
X145657715Y-77306614D01*
X145778028Y-77472213D01*
X145922786Y-77616971D01*
X146077749Y-77729556D01*
X146088390Y-77737287D01*
X146176517Y-77782190D01*
X146270776Y-77830218D01*
X146270778Y-77830218D01*
X146270781Y-77830220D01*
X146375137Y-77864127D01*
X146465465Y-77893477D01*
X146534897Y-77904474D01*
X146667648Y-77925500D01*
X146667649Y-77925500D01*
X146872351Y-77925500D01*
X146872352Y-77925500D01*
X147074534Y-77893477D01*
X147269219Y-77830220D01*
X147451610Y-77737287D01*
X147552175Y-77664223D01*
X147617213Y-77616971D01*
X147617215Y-77616968D01*
X147617219Y-77616966D01*
X147761966Y-77472219D01*
X147761968Y-77472215D01*
X147761971Y-77472213D01*
X147823109Y-77388062D01*
X147882287Y-77306610D01*
X147975220Y-77124219D01*
X148038477Y-76929534D01*
X148070500Y-76727352D01*
X148070500Y-76522648D01*
X148055034Y-76425000D01*
X148038477Y-76320465D01*
X147981026Y-76143650D01*
X147975220Y-76125781D01*
X147975218Y-76125778D01*
X147975218Y-76125776D01*
X147915623Y-76008816D01*
X147882287Y-75943390D01*
X147863426Y-75917430D01*
X147761971Y-75777786D01*
X147617213Y-75633028D01*
X147451613Y-75512715D01*
X147451612Y-75512714D01*
X147451610Y-75512713D01*
X147363487Y-75467812D01*
X147269223Y-75419781D01*
X147074534Y-75356522D01*
X146899995Y-75328878D01*
X146872352Y-75324500D01*
X146667648Y-75324500D01*
X146643329Y-75328351D01*
X146465465Y-75356522D01*
X146270776Y-75419781D01*
X146088386Y-75512715D01*
X145922786Y-75633028D01*
X145778028Y-75777786D01*
X145657715Y-75943386D01*
X145610485Y-76036080D01*
X145562510Y-76086876D01*
X145494689Y-76103671D01*
X145428554Y-76081134D01*
X145389515Y-76036080D01*
X145375623Y-76008816D01*
X145342287Y-75943390D01*
X145323426Y-75917430D01*
X145221971Y-75777786D01*
X145077213Y-75633028D01*
X144911613Y-75512715D01*
X144911612Y-75512714D01*
X144911610Y-75512713D01*
X144823487Y-75467812D01*
X144729223Y-75419781D01*
X144534534Y-75356522D01*
X144359995Y-75328878D01*
X144332352Y-75324500D01*
X144127648Y-75324500D01*
X144103329Y-75328351D01*
X143925465Y-75356522D01*
X143730776Y-75419781D01*
X143548386Y-75512715D01*
X143382786Y-75633028D01*
X143238028Y-75777786D01*
X143117715Y-75943386D01*
X143070485Y-76036080D01*
X143022510Y-76086876D01*
X142954689Y-76103671D01*
X142888554Y-76081134D01*
X142849515Y-76036080D01*
X142835623Y-76008816D01*
X142802287Y-75943390D01*
X142783426Y-75917430D01*
X142681971Y-75777786D01*
X142537213Y-75633028D01*
X142371613Y-75512715D01*
X142371612Y-75512714D01*
X142371610Y-75512713D01*
X142283487Y-75467812D01*
X142189223Y-75419781D01*
X141994534Y-75356522D01*
X141819995Y-75328878D01*
X141792352Y-75324500D01*
X141587648Y-75324500D01*
X141563329Y-75328351D01*
X141385465Y-75356522D01*
X141190776Y-75419781D01*
X141008386Y-75512715D01*
X140842786Y-75633028D01*
X140698028Y-75777786D01*
X140577715Y-75943386D01*
X140530485Y-76036080D01*
X140482510Y-76086876D01*
X140414689Y-76103671D01*
X140348554Y-76081134D01*
X140309515Y-76036080D01*
X140295623Y-76008816D01*
X140262287Y-75943390D01*
X140243426Y-75917430D01*
X140141971Y-75777786D01*
X139997213Y-75633028D01*
X139831613Y-75512715D01*
X139831612Y-75512714D01*
X139831610Y-75512713D01*
X139743487Y-75467812D01*
X139649223Y-75419781D01*
X139454534Y-75356522D01*
X139279995Y-75328878D01*
X139252352Y-75324500D01*
X139047648Y-75324500D01*
X139023329Y-75328351D01*
X138845465Y-75356522D01*
X138650776Y-75419781D01*
X138468386Y-75512715D01*
X138302786Y-75633028D01*
X138158028Y-75777786D01*
X138037715Y-75943386D01*
X137990485Y-76036080D01*
X137942510Y-76086876D01*
X137874689Y-76103671D01*
X137808554Y-76081134D01*
X137769515Y-76036080D01*
X137755623Y-76008816D01*
X137722287Y-75943390D01*
X137703426Y-75917430D01*
X137601971Y-75777786D01*
X137457213Y-75633028D01*
X137291613Y-75512715D01*
X137291612Y-75512714D01*
X137291610Y-75512713D01*
X137203487Y-75467812D01*
X137109223Y-75419781D01*
X136914534Y-75356522D01*
X136739995Y-75328878D01*
X136712352Y-75324500D01*
X136507648Y-75324500D01*
X136483329Y-75328351D01*
X136305465Y-75356522D01*
X136110776Y-75419781D01*
X135928386Y-75512715D01*
X135762786Y-75633028D01*
X135618028Y-75777786D01*
X135497715Y-75943386D01*
X135450485Y-76036080D01*
X135402510Y-76086876D01*
X135334689Y-76103671D01*
X135268554Y-76081134D01*
X135229515Y-76036080D01*
X135215623Y-76008816D01*
X135182287Y-75943390D01*
X135163426Y-75917430D01*
X135061971Y-75777786D01*
X134917213Y-75633028D01*
X134751613Y-75512715D01*
X134751612Y-75512714D01*
X134751610Y-75512713D01*
X134663487Y-75467812D01*
X134569223Y-75419781D01*
X134374534Y-75356522D01*
X134199995Y-75328878D01*
X134172352Y-75324500D01*
X133967648Y-75324500D01*
X133943329Y-75328351D01*
X133765465Y-75356522D01*
X133570776Y-75419781D01*
X133388386Y-75512715D01*
X133222786Y-75633028D01*
X133078028Y-75777786D01*
X132957715Y-75943386D01*
X132910485Y-76036080D01*
X132862510Y-76086876D01*
X132794689Y-76103671D01*
X132728554Y-76081134D01*
X132689515Y-76036080D01*
X132675623Y-76008816D01*
X132642287Y-75943390D01*
X132623426Y-75917430D01*
X132521971Y-75777786D01*
X132377213Y-75633028D01*
X132211613Y-75512715D01*
X132211612Y-75512714D01*
X132211610Y-75512713D01*
X132123487Y-75467812D01*
X132029223Y-75419781D01*
X131834534Y-75356522D01*
X131659995Y-75328878D01*
X131632352Y-75324500D01*
X131427648Y-75324500D01*
X131403329Y-75328351D01*
X131225465Y-75356522D01*
X131030776Y-75419781D01*
X130848386Y-75512715D01*
X130682786Y-75633028D01*
X130538028Y-75777786D01*
X130417715Y-75943386D01*
X130370485Y-76036080D01*
X130322510Y-76086876D01*
X130254689Y-76103671D01*
X130188554Y-76081134D01*
X130149515Y-76036080D01*
X130135623Y-76008816D01*
X130102287Y-75943390D01*
X130083426Y-75917430D01*
X129981971Y-75777786D01*
X129837213Y-75633028D01*
X129671613Y-75512715D01*
X129671612Y-75512714D01*
X129671610Y-75512713D01*
X129583487Y-75467812D01*
X129489223Y-75419781D01*
X129294534Y-75356522D01*
X129119995Y-75328878D01*
X129092352Y-75324500D01*
X128887648Y-75324500D01*
X128863329Y-75328351D01*
X128685465Y-75356522D01*
X128490776Y-75419781D01*
X128308386Y-75512715D01*
X128142786Y-75633028D01*
X127998028Y-75777786D01*
X127877715Y-75943386D01*
X127830485Y-76036080D01*
X127782510Y-76086876D01*
X127714689Y-76103671D01*
X127648554Y-76081134D01*
X127609515Y-76036080D01*
X127595623Y-76008816D01*
X127562287Y-75943390D01*
X127543426Y-75917430D01*
X127441971Y-75777786D01*
X127297213Y-75633028D01*
X127131613Y-75512715D01*
X127131612Y-75512714D01*
X127131610Y-75512713D01*
X127043487Y-75467812D01*
X126949223Y-75419781D01*
X126754534Y-75356522D01*
X126579995Y-75328878D01*
X126552352Y-75324500D01*
X126347648Y-75324500D01*
X126323329Y-75328351D01*
X126145465Y-75356522D01*
X125950776Y-75419781D01*
X125768386Y-75512715D01*
X125602786Y-75633028D01*
X125458032Y-75777782D01*
X125458026Y-75777789D01*
X125431227Y-75814675D01*
X125375897Y-75857341D01*
X125306284Y-75863319D01*
X125244489Y-75830712D01*
X125210132Y-75769873D01*
X125207620Y-75755043D01*
X125203596Y-75717620D01*
X125153354Y-75582913D01*
X125153350Y-75582906D01*
X125067190Y-75467812D01*
X125067187Y-75467809D01*
X124952093Y-75381649D01*
X124952086Y-75381645D01*
X124817379Y-75331403D01*
X124817372Y-75331401D01*
X124757844Y-75325000D01*
X124160000Y-75325000D01*
X124160000Y-76309314D01*
X124155606Y-76304920D01*
X124064394Y-76252259D01*
X123962661Y-76225000D01*
X123857339Y-76225000D01*
X123755606Y-76252259D01*
X123664394Y-76304920D01*
X123660000Y-76309314D01*
X123660000Y-75325000D01*
X123062155Y-75325000D01*
X123002627Y-75331401D01*
X123002620Y-75331403D01*
X122867913Y-75381645D01*
X122867906Y-75381649D01*
X122752812Y-75467809D01*
X122752809Y-75467812D01*
X122666649Y-75582906D01*
X122666645Y-75582913D01*
X122616403Y-75717620D01*
X122616401Y-75717627D01*
X122610000Y-75777155D01*
X113067291Y-75777155D01*
X113098922Y-75745524D01*
X113098921Y-75745523D01*
X113054359Y-75713147D01*
X113054350Y-75713141D01*
X112872031Y-75620244D01*
X112677417Y-75557009D01*
X112475317Y-75525000D01*
X112281596Y-75525000D01*
X112214557Y-75505315D01*
X112168802Y-75452511D01*
X112158858Y-75383353D01*
X112187883Y-75319797D01*
X112193905Y-75313329D01*
X112585416Y-74921819D01*
X112646739Y-74888334D01*
X112673097Y-74885500D01*
X132323331Y-74885500D01*
X132323347Y-74885501D01*
X132330943Y-74885501D01*
X132489054Y-74885501D01*
X132489057Y-74885501D01*
X132641785Y-74844577D01*
X132695606Y-74813503D01*
X132778716Y-74765520D01*
X132890520Y-74653716D01*
X132890520Y-74653714D01*
X132900724Y-74643511D01*
X132900728Y-74643506D01*
X135532416Y-72011818D01*
X135593739Y-71978333D01*
X135620097Y-71975499D01*
X137067871Y-71975499D01*
X137067872Y-71975499D01*
X137127483Y-71969091D01*
X137262331Y-71918796D01*
X137377546Y-71832546D01*
X137463796Y-71717331D01*
X137491429Y-71643243D01*
X137493601Y-71637420D01*
X137535471Y-71581486D01*
X137600936Y-71557068D01*
X137669209Y-71571919D01*
X137697464Y-71593071D01*
X137747636Y-71643243D01*
X137747641Y-71643247D01*
X137849599Y-71717323D01*
X137925978Y-71772815D01*
X138054375Y-71838237D01*
X138122393Y-71872895D01*
X138122396Y-71872896D01*
X138227221Y-71906955D01*
X138332049Y-71941015D01*
X138549778Y-71975500D01*
X138549779Y-71975500D01*
X138770221Y-71975500D01*
X138770222Y-71975500D01*
X138987951Y-71941015D01*
X139197606Y-71872895D01*
X139394022Y-71772815D01*
X139515340Y-71684673D01*
X139563232Y-71649878D01*
X139629038Y-71626398D01*
X139697092Y-71642224D01*
X139745787Y-71692329D01*
X139752298Y-71706862D01*
X139756200Y-71717323D01*
X139756206Y-71717335D01*
X139842452Y-71832544D01*
X139842455Y-71832547D01*
X139957664Y-71918793D01*
X139957671Y-71918797D01*
X140092517Y-71969091D01*
X140092516Y-71969091D01*
X140099444Y-71969835D01*
X140152127Y-71975500D01*
X142047872Y-71975499D01*
X142107483Y-71969091D01*
X142242331Y-71918796D01*
X142357546Y-71832546D01*
X142443796Y-71717331D01*
X142471429Y-71643243D01*
X142473601Y-71637420D01*
X142515471Y-71581486D01*
X142580936Y-71557068D01*
X142649209Y-71571919D01*
X142677464Y-71593071D01*
X142727636Y-71643243D01*
X142727641Y-71643247D01*
X142829599Y-71717323D01*
X142905978Y-71772815D01*
X143034375Y-71838237D01*
X143102393Y-71872895D01*
X143102396Y-71872896D01*
X143207221Y-71906955D01*
X143312049Y-71941015D01*
X143529778Y-71975500D01*
X143529779Y-71975500D01*
X143750221Y-71975500D01*
X143750222Y-71975500D01*
X143967951Y-71941015D01*
X144177606Y-71872895D01*
X144374022Y-71772815D01*
X144452419Y-71715855D01*
X144518223Y-71692377D01*
X144586277Y-71708202D01*
X144624568Y-71741862D01*
X144692454Y-71832546D01*
X144738643Y-71867123D01*
X144807664Y-71918793D01*
X144807671Y-71918797D01*
X144942517Y-71969091D01*
X144942516Y-71969091D01*
X144949444Y-71969835D01*
X145002127Y-71975500D01*
X146897872Y-71975499D01*
X146957483Y-71969091D01*
X147092331Y-71918796D01*
X147207546Y-71832546D01*
X147293796Y-71717331D01*
X147321429Y-71643243D01*
X147323601Y-71637420D01*
X147365471Y-71581486D01*
X147430936Y-71557068D01*
X147499209Y-71571919D01*
X147527464Y-71593071D01*
X147577636Y-71643243D01*
X147577641Y-71643247D01*
X147679599Y-71717323D01*
X147755978Y-71772815D01*
X147884375Y-71838237D01*
X147952393Y-71872895D01*
X147952396Y-71872896D01*
X148057221Y-71906955D01*
X148162049Y-71941015D01*
X148379778Y-71975500D01*
X148379779Y-71975500D01*
X148600221Y-71975500D01*
X148600222Y-71975500D01*
X148817951Y-71941015D01*
X149027606Y-71872895D01*
X149224022Y-71772815D01*
X149334804Y-71692326D01*
X149400609Y-71668848D01*
X149468663Y-71684673D01*
X149506954Y-71718334D01*
X149592455Y-71832547D01*
X149707664Y-71918793D01*
X149707671Y-71918797D01*
X149842517Y-71969091D01*
X149842516Y-71969091D01*
X149849444Y-71969835D01*
X149902127Y-71975500D01*
X151797872Y-71975499D01*
X151857483Y-71969091D01*
X151992331Y-71918796D01*
X152107546Y-71832546D01*
X152193796Y-71717331D01*
X152221429Y-71643243D01*
X152223601Y-71637420D01*
X152265471Y-71581486D01*
X152330936Y-71557068D01*
X152399209Y-71571919D01*
X152427464Y-71593071D01*
X152477636Y-71643243D01*
X152477641Y-71643247D01*
X152579599Y-71717323D01*
X152655978Y-71772815D01*
X152784375Y-71838237D01*
X152852393Y-71872895D01*
X152852396Y-71872896D01*
X152957221Y-71906955D01*
X153062049Y-71941015D01*
X153279778Y-71975500D01*
X153279779Y-71975500D01*
X153500221Y-71975500D01*
X153500222Y-71975500D01*
X153717951Y-71941015D01*
X153927606Y-71872895D01*
X154124022Y-71772815D01*
X154302365Y-71643242D01*
X154458242Y-71487365D01*
X154587815Y-71309022D01*
X154687895Y-71112606D01*
X154756015Y-70902951D01*
X154790500Y-70685222D01*
X154790500Y-70464778D01*
X154756015Y-70247049D01*
X154687895Y-70037394D01*
X154687895Y-70037393D01*
X154626825Y-69917539D01*
X154587815Y-69840978D01*
X154529501Y-69760715D01*
X154458247Y-69662641D01*
X154458243Y-69662636D01*
X154302363Y-69506756D01*
X154302358Y-69506752D01*
X154124025Y-69377187D01*
X154124024Y-69377186D01*
X154124022Y-69377185D01*
X154006791Y-69317452D01*
X153927606Y-69277104D01*
X153927603Y-69277103D01*
X153717952Y-69208985D01*
X153593406Y-69189259D01*
X153500222Y-69174500D01*
X153279778Y-69174500D01*
X153207201Y-69185995D01*
X153062047Y-69208985D01*
X152852396Y-69277103D01*
X152852393Y-69277104D01*
X152655974Y-69377187D01*
X152477641Y-69506752D01*
X152477636Y-69506756D01*
X152427463Y-69556929D01*
X152366140Y-69590413D01*
X152296448Y-69585428D01*
X152240515Y-69543557D01*
X152223601Y-69512580D01*
X152193797Y-69432671D01*
X152193793Y-69432664D01*
X152107547Y-69317455D01*
X152107544Y-69317452D01*
X151992335Y-69231206D01*
X151992328Y-69231202D01*
X151857482Y-69180908D01*
X151857483Y-69180908D01*
X151797883Y-69174501D01*
X151797881Y-69174500D01*
X151797873Y-69174500D01*
X151797865Y-69174500D01*
X150350098Y-69174500D01*
X150283059Y-69154815D01*
X150262417Y-69138181D01*
X147935590Y-66811355D01*
X147935588Y-66811352D01*
X147816717Y-66692481D01*
X147816716Y-66692480D01*
X147729904Y-66642360D01*
X147729904Y-66642359D01*
X147729900Y-66642358D01*
X147679785Y-66613423D01*
X147527057Y-66572499D01*
X147368943Y-66572499D01*
X147361347Y-66572499D01*
X147361331Y-66572500D01*
X113225350Y-66572500D01*
X113158311Y-66552815D01*
X113112556Y-66500011D01*
X113110000Y-66485552D01*
X112419447Y-65795000D01*
X112425661Y-65795000D01*
X112527394Y-65767741D01*
X112618606Y-65715080D01*
X112693080Y-65640606D01*
X112745741Y-65549394D01*
X112773000Y-65447661D01*
X112773000Y-65441447D01*
X113452474Y-66120921D01*
X113484859Y-66076349D01*
X113577755Y-65894031D01*
X113640990Y-65699417D01*
X113673000Y-65497317D01*
X113673000Y-65292682D01*
X113640990Y-65090582D01*
X113599196Y-64961957D01*
X113599195Y-64961955D01*
X113577755Y-64895970D01*
X113484859Y-64713650D01*
X113452474Y-64669077D01*
X113452474Y-64669076D01*
X112773000Y-65348551D01*
X112773000Y-65342339D01*
X112745741Y-65240606D01*
X112693080Y-65149394D01*
X112618606Y-65074920D01*
X112527394Y-65022259D01*
X112425661Y-64995000D01*
X112419446Y-64995000D01*
X113098922Y-64315524D01*
X113098921Y-64315523D01*
X113054359Y-64283147D01*
X113054350Y-64283141D01*
X112872031Y-64190244D01*
X112677417Y-64127009D01*
X112475317Y-64095000D01*
X112281596Y-64095000D01*
X112214557Y-64075315D01*
X112168802Y-64022511D01*
X112158858Y-63953353D01*
X112187883Y-63889797D01*
X112193915Y-63883319D01*
X112321186Y-63756048D01*
X112487713Y-63589521D01*
X112487716Y-63589520D01*
X112585418Y-63491818D01*
X112646742Y-63458333D01*
X112646746Y-63458333D01*
X112673098Y-63455500D01*
X122699165Y-63455500D01*
X122766204Y-63475185D01*
X122811959Y-63527989D01*
X122821903Y-63597147D01*
X122798431Y-63653812D01*
X122776647Y-63682910D01*
X122776645Y-63682913D01*
X122726403Y-63817620D01*
X122726401Y-63817627D01*
X122720000Y-63877155D01*
X122720000Y-64475000D01*
X123704314Y-64475000D01*
X123699920Y-64479394D01*
X123647259Y-64570606D01*
X123620000Y-64672339D01*
X123620000Y-64777661D01*
X123647259Y-64879394D01*
X123699920Y-64970606D01*
X123704314Y-64975000D01*
X122720000Y-64975000D01*
X122720000Y-65572844D01*
X122726401Y-65632372D01*
X122726403Y-65632379D01*
X122776645Y-65767086D01*
X122776649Y-65767093D01*
X122862809Y-65882187D01*
X122862812Y-65882190D01*
X122977906Y-65968350D01*
X122977913Y-65968354D01*
X123112620Y-66018596D01*
X123112627Y-66018598D01*
X123172155Y-66024999D01*
X123172172Y-66025000D01*
X123770000Y-66025000D01*
X123770000Y-65040686D01*
X123774394Y-65045080D01*
X123865606Y-65097741D01*
X123967339Y-65125000D01*
X124072661Y-65125000D01*
X124174394Y-65097741D01*
X124265606Y-65045080D01*
X124270000Y-65040686D01*
X124270000Y-66025000D01*
X124867828Y-66025000D01*
X124867844Y-66024999D01*
X124927372Y-66018598D01*
X124927379Y-66018596D01*
X125062086Y-65968354D01*
X125062093Y-65968350D01*
X125177187Y-65882190D01*
X125177190Y-65882187D01*
X125263350Y-65767093D01*
X125263354Y-65767086D01*
X125313596Y-65632379D01*
X125317620Y-65594956D01*
X125344358Y-65530404D01*
X125401750Y-65490556D01*
X125471575Y-65488062D01*
X125531664Y-65523714D01*
X125541228Y-65535325D01*
X125568028Y-65572212D01*
X125568032Y-65572217D01*
X125712786Y-65716971D01*
X125820186Y-65795000D01*
X125878390Y-65837287D01*
X125966517Y-65882190D01*
X126060776Y-65930218D01*
X126060778Y-65930218D01*
X126060781Y-65930220D01*
X126121187Y-65949847D01*
X126255465Y-65993477D01*
X126356557Y-66009488D01*
X126457648Y-66025500D01*
X126457649Y-66025500D01*
X126662351Y-66025500D01*
X126662352Y-66025500D01*
X126864534Y-65993477D01*
X127059219Y-65930220D01*
X127241610Y-65837287D01*
X127363743Y-65748553D01*
X127407213Y-65716971D01*
X127407215Y-65716968D01*
X127407219Y-65716966D01*
X127551966Y-65572219D01*
X127551968Y-65572215D01*
X127551971Y-65572213D01*
X127672284Y-65406614D01*
X127672285Y-65406613D01*
X127672287Y-65406610D01*
X127719516Y-65313917D01*
X127767489Y-65263123D01*
X127835310Y-65246328D01*
X127901445Y-65268865D01*
X127940483Y-65313917D01*
X127981797Y-65394999D01*
X127987715Y-65406614D01*
X128108028Y-65572213D01*
X128252786Y-65716971D01*
X128360186Y-65795000D01*
X128418390Y-65837287D01*
X128506517Y-65882190D01*
X128600776Y-65930218D01*
X128600778Y-65930218D01*
X128600781Y-65930220D01*
X128661187Y-65949847D01*
X128795465Y-65993477D01*
X128896557Y-66009488D01*
X128997648Y-66025500D01*
X128997649Y-66025500D01*
X129202351Y-66025500D01*
X129202352Y-66025500D01*
X129404534Y-65993477D01*
X129599219Y-65930220D01*
X129781610Y-65837287D01*
X129903743Y-65748553D01*
X129947213Y-65716971D01*
X129947215Y-65716968D01*
X129947219Y-65716966D01*
X130091966Y-65572219D01*
X130091968Y-65572215D01*
X130091971Y-65572213D01*
X130212284Y-65406614D01*
X130212285Y-65406613D01*
X130212287Y-65406610D01*
X130259516Y-65313917D01*
X130307489Y-65263123D01*
X130375310Y-65246328D01*
X130441445Y-65268865D01*
X130480483Y-65313917D01*
X130521797Y-65394999D01*
X130527715Y-65406614D01*
X130648028Y-65572213D01*
X130792786Y-65716971D01*
X130900186Y-65795000D01*
X130958390Y-65837287D01*
X131046517Y-65882190D01*
X131140776Y-65930218D01*
X131140778Y-65930218D01*
X131140781Y-65930220D01*
X131201187Y-65949847D01*
X131335465Y-65993477D01*
X131436557Y-66009488D01*
X131537648Y-66025500D01*
X131537649Y-66025500D01*
X131742351Y-66025500D01*
X131742352Y-66025500D01*
X131944534Y-65993477D01*
X132139219Y-65930220D01*
X132321610Y-65837287D01*
X132443743Y-65748553D01*
X132487213Y-65716971D01*
X132487215Y-65716968D01*
X132487219Y-65716966D01*
X132631966Y-65572219D01*
X132631968Y-65572215D01*
X132631971Y-65572213D01*
X132752284Y-65406614D01*
X132752285Y-65406613D01*
X132752287Y-65406610D01*
X132799516Y-65313917D01*
X132847489Y-65263123D01*
X132915310Y-65246328D01*
X132981445Y-65268865D01*
X133020483Y-65313917D01*
X133061797Y-65394999D01*
X133067715Y-65406614D01*
X133188028Y-65572213D01*
X133332786Y-65716971D01*
X133440186Y-65795000D01*
X133498390Y-65837287D01*
X133586517Y-65882190D01*
X133680776Y-65930218D01*
X133680778Y-65930218D01*
X133680781Y-65930220D01*
X133741187Y-65949847D01*
X133875465Y-65993477D01*
X133976557Y-66009488D01*
X134077648Y-66025500D01*
X134077649Y-66025500D01*
X134282351Y-66025500D01*
X134282352Y-66025500D01*
X134484534Y-65993477D01*
X134679219Y-65930220D01*
X134861610Y-65837287D01*
X134983743Y-65748553D01*
X135027213Y-65716971D01*
X135027215Y-65716968D01*
X135027219Y-65716966D01*
X135171966Y-65572219D01*
X135171968Y-65572215D01*
X135171971Y-65572213D01*
X135292284Y-65406614D01*
X135292285Y-65406613D01*
X135292287Y-65406610D01*
X135339516Y-65313917D01*
X135387489Y-65263123D01*
X135455310Y-65246328D01*
X135521445Y-65268865D01*
X135560483Y-65313917D01*
X135601797Y-65394999D01*
X135607715Y-65406614D01*
X135728028Y-65572213D01*
X135872786Y-65716971D01*
X135980186Y-65795000D01*
X136038390Y-65837287D01*
X136126517Y-65882190D01*
X136220776Y-65930218D01*
X136220778Y-65930218D01*
X136220781Y-65930220D01*
X136281187Y-65949847D01*
X136415465Y-65993477D01*
X136516557Y-66009488D01*
X136617648Y-66025500D01*
X136617649Y-66025500D01*
X136822351Y-66025500D01*
X136822352Y-66025500D01*
X137024534Y-65993477D01*
X137219219Y-65930220D01*
X137401610Y-65837287D01*
X137523743Y-65748553D01*
X137567213Y-65716971D01*
X137567215Y-65716968D01*
X137567219Y-65716966D01*
X137711966Y-65572219D01*
X137711968Y-65572215D01*
X137711971Y-65572213D01*
X137832284Y-65406614D01*
X137832285Y-65406613D01*
X137832287Y-65406610D01*
X137879516Y-65313917D01*
X137927489Y-65263123D01*
X137995310Y-65246328D01*
X138061445Y-65268865D01*
X138100483Y-65313917D01*
X138141797Y-65394999D01*
X138147715Y-65406614D01*
X138268028Y-65572213D01*
X138412786Y-65716971D01*
X138520186Y-65795000D01*
X138578390Y-65837287D01*
X138666517Y-65882190D01*
X138760776Y-65930218D01*
X138760778Y-65930218D01*
X138760781Y-65930220D01*
X138821187Y-65949847D01*
X138955465Y-65993477D01*
X139056557Y-66009488D01*
X139157648Y-66025500D01*
X139157649Y-66025500D01*
X139362351Y-66025500D01*
X139362352Y-66025500D01*
X139564534Y-65993477D01*
X139759219Y-65930220D01*
X139941610Y-65837287D01*
X140063743Y-65748553D01*
X140107213Y-65716971D01*
X140107215Y-65716968D01*
X140107219Y-65716966D01*
X140251966Y-65572219D01*
X140251968Y-65572215D01*
X140251971Y-65572213D01*
X140372284Y-65406614D01*
X140372285Y-65406613D01*
X140372287Y-65406610D01*
X140419516Y-65313917D01*
X140467489Y-65263123D01*
X140535310Y-65246328D01*
X140601445Y-65268865D01*
X140640483Y-65313917D01*
X140681797Y-65394999D01*
X140687715Y-65406614D01*
X140808028Y-65572213D01*
X140952786Y-65716971D01*
X141060186Y-65795000D01*
X141118390Y-65837287D01*
X141206517Y-65882190D01*
X141300776Y-65930218D01*
X141300778Y-65930218D01*
X141300781Y-65930220D01*
X141361187Y-65949847D01*
X141495465Y-65993477D01*
X141596557Y-66009488D01*
X141697648Y-66025500D01*
X141697649Y-66025500D01*
X141902351Y-66025500D01*
X141902352Y-66025500D01*
X142104534Y-65993477D01*
X142299219Y-65930220D01*
X142481610Y-65837287D01*
X142603743Y-65748553D01*
X142647213Y-65716971D01*
X142647215Y-65716968D01*
X142647219Y-65716966D01*
X142791966Y-65572219D01*
X142791968Y-65572215D01*
X142791971Y-65572213D01*
X142912284Y-65406614D01*
X142912285Y-65406613D01*
X142912287Y-65406610D01*
X142959516Y-65313917D01*
X143007489Y-65263123D01*
X143075310Y-65246328D01*
X143141445Y-65268865D01*
X143180483Y-65313917D01*
X143221797Y-65394999D01*
X143227715Y-65406614D01*
X143348028Y-65572213D01*
X143492786Y-65716971D01*
X143600186Y-65795000D01*
X143658390Y-65837287D01*
X143746517Y-65882190D01*
X143840776Y-65930218D01*
X143840778Y-65930218D01*
X143840781Y-65930220D01*
X143901187Y-65949847D01*
X144035465Y-65993477D01*
X144136557Y-66009488D01*
X144237648Y-66025500D01*
X144237649Y-66025500D01*
X144442351Y-66025500D01*
X144442352Y-66025500D01*
X144644534Y-65993477D01*
X144839219Y-65930220D01*
X145021610Y-65837287D01*
X145143743Y-65748553D01*
X145187213Y-65716971D01*
X145187215Y-65716968D01*
X145187219Y-65716966D01*
X145331966Y-65572219D01*
X145331968Y-65572215D01*
X145331971Y-65572213D01*
X145452284Y-65406614D01*
X145452285Y-65406613D01*
X145452287Y-65406610D01*
X145499516Y-65313917D01*
X145547489Y-65263123D01*
X145615310Y-65246328D01*
X145681445Y-65268865D01*
X145720483Y-65313917D01*
X145761797Y-65394999D01*
X145767715Y-65406614D01*
X145888028Y-65572213D01*
X146032786Y-65716971D01*
X146140186Y-65795000D01*
X146198390Y-65837287D01*
X146286517Y-65882190D01*
X146380776Y-65930218D01*
X146380778Y-65930218D01*
X146380781Y-65930220D01*
X146441187Y-65949847D01*
X146575465Y-65993477D01*
X146676557Y-66009488D01*
X146777648Y-66025500D01*
X146777649Y-66025500D01*
X146982351Y-66025500D01*
X146982352Y-66025500D01*
X147184534Y-65993477D01*
X147379219Y-65930220D01*
X147561610Y-65837287D01*
X147683743Y-65748553D01*
X147727213Y-65716971D01*
X147727215Y-65716968D01*
X147727219Y-65716966D01*
X147871966Y-65572219D01*
X147871968Y-65572215D01*
X147871971Y-65572213D01*
X147955503Y-65457239D01*
X147992287Y-65406610D01*
X148085220Y-65224219D01*
X148148477Y-65029534D01*
X148180500Y-64827352D01*
X148180500Y-64622648D01*
X148160232Y-64494685D01*
X148148477Y-64420465D01*
X148103718Y-64282713D01*
X148085220Y-64225781D01*
X148085218Y-64225778D01*
X148085218Y-64225776D01*
X148026680Y-64110890D01*
X147992287Y-64043390D01*
X147976754Y-64022011D01*
X147871971Y-63877786D01*
X147727213Y-63733028D01*
X147561613Y-63612715D01*
X147561612Y-63612714D01*
X147561610Y-63612713D01*
X147461792Y-63561853D01*
X147379223Y-63519781D01*
X147184534Y-63456522D01*
X147009995Y-63428878D01*
X146982352Y-63424500D01*
X146777648Y-63424500D01*
X146753329Y-63428351D01*
X146575465Y-63456522D01*
X146380776Y-63519781D01*
X146198386Y-63612715D01*
X146032786Y-63733028D01*
X145888028Y-63877786D01*
X145767715Y-64043386D01*
X145720485Y-64136080D01*
X145672510Y-64186876D01*
X145604689Y-64203671D01*
X145538554Y-64181134D01*
X145499515Y-64136080D01*
X145486680Y-64110890D01*
X145452287Y-64043390D01*
X145436754Y-64022011D01*
X145331971Y-63877786D01*
X145187213Y-63733028D01*
X145021613Y-63612715D01*
X145021612Y-63612714D01*
X145021610Y-63612713D01*
X144921792Y-63561853D01*
X144839223Y-63519781D01*
X144644534Y-63456522D01*
X144469995Y-63428878D01*
X144442352Y-63424500D01*
X144237648Y-63424500D01*
X144213329Y-63428351D01*
X144035465Y-63456522D01*
X143840776Y-63519781D01*
X143658386Y-63612715D01*
X143492786Y-63733028D01*
X143348028Y-63877786D01*
X143227715Y-64043386D01*
X143180485Y-64136080D01*
X143132510Y-64186876D01*
X143064689Y-64203671D01*
X142998554Y-64181134D01*
X142959515Y-64136080D01*
X142946680Y-64110890D01*
X142912287Y-64043390D01*
X142896754Y-64022011D01*
X142791971Y-63877786D01*
X142647213Y-63733028D01*
X142481613Y-63612715D01*
X142481612Y-63612714D01*
X142481610Y-63612713D01*
X142381792Y-63561853D01*
X142299223Y-63519781D01*
X142104534Y-63456522D01*
X141929995Y-63428878D01*
X141902352Y-63424500D01*
X141697648Y-63424500D01*
X141673329Y-63428351D01*
X141495465Y-63456522D01*
X141300776Y-63519781D01*
X141118386Y-63612715D01*
X140952786Y-63733028D01*
X140808028Y-63877786D01*
X140687715Y-64043386D01*
X140640485Y-64136080D01*
X140592510Y-64186876D01*
X140524689Y-64203671D01*
X140458554Y-64181134D01*
X140419515Y-64136080D01*
X140406680Y-64110890D01*
X140372287Y-64043390D01*
X140356754Y-64022011D01*
X140251971Y-63877786D01*
X140107213Y-63733028D01*
X139941613Y-63612715D01*
X139941612Y-63612714D01*
X139941610Y-63612713D01*
X139841792Y-63561853D01*
X139759223Y-63519781D01*
X139564534Y-63456522D01*
X139389995Y-63428878D01*
X139362352Y-63424500D01*
X139157648Y-63424500D01*
X139133329Y-63428351D01*
X138955465Y-63456522D01*
X138760776Y-63519781D01*
X138578386Y-63612715D01*
X138412786Y-63733028D01*
X138268028Y-63877786D01*
X138147715Y-64043386D01*
X138100485Y-64136080D01*
X138052510Y-64186876D01*
X137984689Y-64203671D01*
X137918554Y-64181134D01*
X137879515Y-64136080D01*
X137866680Y-64110890D01*
X137832287Y-64043390D01*
X137816754Y-64022011D01*
X137711971Y-63877786D01*
X137567213Y-63733028D01*
X137401613Y-63612715D01*
X137401612Y-63612714D01*
X137401610Y-63612713D01*
X137301792Y-63561853D01*
X137219223Y-63519781D01*
X137024534Y-63456522D01*
X136849995Y-63428878D01*
X136822352Y-63424500D01*
X136617648Y-63424500D01*
X136593329Y-63428351D01*
X136415465Y-63456522D01*
X136220776Y-63519781D01*
X136038386Y-63612715D01*
X135872786Y-63733028D01*
X135728028Y-63877786D01*
X135607715Y-64043386D01*
X135560485Y-64136080D01*
X135512510Y-64186876D01*
X135444689Y-64203671D01*
X135378554Y-64181134D01*
X135339515Y-64136080D01*
X135326680Y-64110890D01*
X135292287Y-64043390D01*
X135276754Y-64022011D01*
X135171971Y-63877786D01*
X135027213Y-63733028D01*
X134861613Y-63612715D01*
X134861612Y-63612714D01*
X134861610Y-63612713D01*
X134761792Y-63561853D01*
X134679223Y-63519781D01*
X134484534Y-63456522D01*
X134309995Y-63428878D01*
X134282352Y-63424500D01*
X134077648Y-63424500D01*
X134053329Y-63428351D01*
X133875465Y-63456522D01*
X133680776Y-63519781D01*
X133498386Y-63612715D01*
X133332786Y-63733028D01*
X133188028Y-63877786D01*
X133067715Y-64043386D01*
X133020485Y-64136080D01*
X132972510Y-64186876D01*
X132904689Y-64203671D01*
X132838554Y-64181134D01*
X132799515Y-64136080D01*
X132786680Y-64110890D01*
X132752287Y-64043390D01*
X132736754Y-64022011D01*
X132631971Y-63877786D01*
X132487213Y-63733028D01*
X132321613Y-63612715D01*
X132321612Y-63612714D01*
X132321610Y-63612713D01*
X132221792Y-63561853D01*
X132139223Y-63519781D01*
X131944534Y-63456522D01*
X131769995Y-63428878D01*
X131742352Y-63424500D01*
X131537648Y-63424500D01*
X131513329Y-63428351D01*
X131335465Y-63456522D01*
X131140776Y-63519781D01*
X130958386Y-63612715D01*
X130792786Y-63733028D01*
X130648028Y-63877786D01*
X130527715Y-64043386D01*
X130480485Y-64136080D01*
X130432510Y-64186876D01*
X130364689Y-64203671D01*
X130298554Y-64181134D01*
X130259515Y-64136080D01*
X130246680Y-64110890D01*
X130212287Y-64043390D01*
X130196754Y-64022011D01*
X130091971Y-63877786D01*
X129947213Y-63733028D01*
X129781613Y-63612715D01*
X129781612Y-63612714D01*
X129781610Y-63612713D01*
X129681792Y-63561853D01*
X129599223Y-63519781D01*
X129404534Y-63456522D01*
X129229995Y-63428878D01*
X129202352Y-63424500D01*
X128997648Y-63424500D01*
X128973329Y-63428351D01*
X128795465Y-63456522D01*
X128600776Y-63519781D01*
X128418386Y-63612715D01*
X128252786Y-63733028D01*
X128108028Y-63877786D01*
X127987715Y-64043386D01*
X127940485Y-64136080D01*
X127892510Y-64186876D01*
X127824689Y-64203671D01*
X127758554Y-64181134D01*
X127719515Y-64136080D01*
X127706680Y-64110890D01*
X127672287Y-64043390D01*
X127656754Y-64022011D01*
X127551971Y-63877786D01*
X127407219Y-63733034D01*
X127338233Y-63682913D01*
X127333973Y-63679818D01*
X127314706Y-63654832D01*
X127294065Y-63631011D01*
X127293544Y-63627388D01*
X127291308Y-63624489D01*
X127288609Y-63593068D01*
X127284121Y-63561853D01*
X127285642Y-63558521D01*
X127285329Y-63554875D01*
X127300044Y-63526984D01*
X127313146Y-63498297D01*
X127316225Y-63496317D01*
X127317934Y-63493080D01*
X127345392Y-63477573D01*
X127371924Y-63460523D01*
X127376836Y-63459816D01*
X127378773Y-63458723D01*
X127406859Y-63455500D01*
X127443331Y-63455500D01*
X127443347Y-63455501D01*
X127450943Y-63455501D01*
X127609054Y-63455501D01*
X127609057Y-63455501D01*
X127761785Y-63414577D01*
X127811904Y-63385639D01*
X127898716Y-63335520D01*
X128010520Y-63223716D01*
X128010520Y-63223714D01*
X128020728Y-63213507D01*
X128020730Y-63213504D01*
X131097416Y-60136818D01*
X131158739Y-60103333D01*
X131185097Y-60100499D01*
X132632871Y-60100499D01*
X132632872Y-60100499D01*
X132692483Y-60094091D01*
X132827331Y-60043796D01*
X132942546Y-59957546D01*
X133028796Y-59842331D01*
X133034569Y-59826853D01*
X133058601Y-59762420D01*
X133100471Y-59706486D01*
X133165936Y-59682068D01*
X133234209Y-59696919D01*
X133262464Y-59718071D01*
X133312636Y-59768243D01*
X133312641Y-59768247D01*
X133414603Y-59842326D01*
X133490978Y-59897815D01*
X133619375Y-59963237D01*
X133687393Y-59997895D01*
X133687396Y-59997896D01*
X133792221Y-60031955D01*
X133897049Y-60066015D01*
X134114778Y-60100500D01*
X134114779Y-60100500D01*
X134335221Y-60100500D01*
X134335222Y-60100500D01*
X134552951Y-60066015D01*
X134762606Y-59997895D01*
X134959022Y-59897815D01*
X135040566Y-59838569D01*
X135141307Y-59765379D01*
X135142166Y-59766561D01*
X135199951Y-59740649D01*
X135269040Y-59751066D01*
X135321529Y-59797182D01*
X135332939Y-59820173D01*
X135341201Y-59842326D01*
X135341206Y-59842335D01*
X135427452Y-59957544D01*
X135427455Y-59957547D01*
X135542664Y-60043793D01*
X135542671Y-60043797D01*
X135677517Y-60094091D01*
X135677516Y-60094091D01*
X135684444Y-60094835D01*
X135737127Y-60100500D01*
X137632872Y-60100499D01*
X137692483Y-60094091D01*
X137827331Y-60043796D01*
X137942546Y-59957546D01*
X138028796Y-59842331D01*
X138034569Y-59826853D01*
X138058601Y-59762420D01*
X138100471Y-59706486D01*
X138165936Y-59682068D01*
X138234209Y-59696919D01*
X138262464Y-59718071D01*
X138312636Y-59768243D01*
X138312641Y-59768247D01*
X138414603Y-59842326D01*
X138490978Y-59897815D01*
X138619375Y-59963237D01*
X138687393Y-59997895D01*
X138687396Y-59997896D01*
X138792221Y-60031955D01*
X138897049Y-60066015D01*
X139114778Y-60100500D01*
X139114779Y-60100500D01*
X139335221Y-60100500D01*
X139335222Y-60100500D01*
X139552951Y-60066015D01*
X139762606Y-59997895D01*
X139959022Y-59897815D01*
X140040566Y-59838569D01*
X140141307Y-59765379D01*
X140142166Y-59766561D01*
X140199951Y-59740649D01*
X140269040Y-59751066D01*
X140321529Y-59797182D01*
X140332939Y-59820173D01*
X140341201Y-59842326D01*
X140341206Y-59842335D01*
X140427452Y-59957544D01*
X140427455Y-59957547D01*
X140542664Y-60043793D01*
X140542671Y-60043797D01*
X140677517Y-60094091D01*
X140677516Y-60094091D01*
X140684444Y-60094835D01*
X140737127Y-60100500D01*
X142632872Y-60100499D01*
X142692483Y-60094091D01*
X142827331Y-60043796D01*
X142942546Y-59957546D01*
X143028796Y-59842331D01*
X143034569Y-59826853D01*
X143058601Y-59762420D01*
X143100471Y-59706486D01*
X143165936Y-59682068D01*
X143234209Y-59696919D01*
X143262464Y-59718071D01*
X143312636Y-59768243D01*
X143312641Y-59768247D01*
X143414603Y-59842326D01*
X143490978Y-59897815D01*
X143619375Y-59963237D01*
X143687393Y-59997895D01*
X143687396Y-59997896D01*
X143792221Y-60031955D01*
X143897049Y-60066015D01*
X144114778Y-60100500D01*
X144114779Y-60100500D01*
X144335221Y-60100500D01*
X144335222Y-60100500D01*
X144552951Y-60066015D01*
X144762606Y-59997895D01*
X144959022Y-59897815D01*
X145040566Y-59838569D01*
X145141307Y-59765379D01*
X145142166Y-59766561D01*
X145199951Y-59740649D01*
X145269040Y-59751066D01*
X145321529Y-59797182D01*
X145332939Y-59820173D01*
X145341201Y-59842326D01*
X145341206Y-59842335D01*
X145427452Y-59957544D01*
X145427455Y-59957547D01*
X145542664Y-60043793D01*
X145542671Y-60043797D01*
X145677517Y-60094091D01*
X145677516Y-60094091D01*
X145684444Y-60094835D01*
X145737127Y-60100500D01*
X147632872Y-60100499D01*
X147692483Y-60094091D01*
X147827331Y-60043796D01*
X147942546Y-59957546D01*
X148028796Y-59842331D01*
X148034569Y-59826853D01*
X148058601Y-59762420D01*
X148100471Y-59706486D01*
X148165936Y-59682068D01*
X148234209Y-59696919D01*
X148262464Y-59718071D01*
X148312636Y-59768243D01*
X148312641Y-59768247D01*
X148414603Y-59842326D01*
X148490978Y-59897815D01*
X148619375Y-59963237D01*
X148687393Y-59997895D01*
X148687396Y-59997896D01*
X148792221Y-60031955D01*
X148897049Y-60066015D01*
X149114778Y-60100500D01*
X149114779Y-60100500D01*
X149335221Y-60100500D01*
X149335222Y-60100500D01*
X149552951Y-60066015D01*
X149762606Y-59997895D01*
X149959022Y-59897815D01*
X150040566Y-59838569D01*
X150141307Y-59765379D01*
X150142166Y-59766561D01*
X150199951Y-59740649D01*
X150269040Y-59751066D01*
X150321529Y-59797182D01*
X150332939Y-59820173D01*
X150341201Y-59842326D01*
X150341206Y-59842335D01*
X150427452Y-59957544D01*
X150427455Y-59957547D01*
X150542664Y-60043793D01*
X150542671Y-60043797D01*
X150677517Y-60094091D01*
X150677516Y-60094091D01*
X150684444Y-60094835D01*
X150737127Y-60100500D01*
X152632872Y-60100499D01*
X152692483Y-60094091D01*
X152827331Y-60043796D01*
X152942546Y-59957546D01*
X153028796Y-59842331D01*
X153034569Y-59826853D01*
X153058601Y-59762420D01*
X153100471Y-59706486D01*
X153165936Y-59682068D01*
X153234209Y-59696919D01*
X153262464Y-59718071D01*
X153312636Y-59768243D01*
X153312641Y-59768247D01*
X153414603Y-59842326D01*
X153490978Y-59897815D01*
X153619375Y-59963237D01*
X153687393Y-59997895D01*
X153687396Y-59997896D01*
X153792221Y-60031955D01*
X153897049Y-60066015D01*
X154114778Y-60100500D01*
X154114779Y-60100500D01*
X154335221Y-60100500D01*
X154335222Y-60100500D01*
X154552951Y-60066015D01*
X154762606Y-59997895D01*
X154959022Y-59897815D01*
X155137365Y-59768242D01*
X155293242Y-59612365D01*
X155422815Y-59434022D01*
X155522895Y-59237606D01*
X155591015Y-59027951D01*
X155625500Y-58810222D01*
X155625500Y-58589778D01*
X155591015Y-58372049D01*
X155544478Y-58228820D01*
X155522896Y-58162396D01*
X155522895Y-58162393D01*
X155488237Y-58094375D01*
X155422815Y-57965978D01*
X155358424Y-57877351D01*
X155293247Y-57787641D01*
X155293243Y-57787636D01*
X155137363Y-57631756D01*
X155137358Y-57631752D01*
X154959025Y-57502187D01*
X154959024Y-57502186D01*
X154959022Y-57502185D01*
X154896096Y-57470122D01*
X154762606Y-57402104D01*
X154762603Y-57402103D01*
X154552952Y-57333985D01*
X154383484Y-57307144D01*
X154335222Y-57299500D01*
X154114778Y-57299500D01*
X154066516Y-57307144D01*
X153897047Y-57333985D01*
X153687396Y-57402103D01*
X153687393Y-57402104D01*
X153490974Y-57502187D01*
X153312641Y-57631752D01*
X153312636Y-57631756D01*
X153262463Y-57681929D01*
X153201140Y-57715413D01*
X153131448Y-57710428D01*
X153075515Y-57668557D01*
X153058601Y-57637580D01*
X153028797Y-57557671D01*
X153028793Y-57557664D01*
X152942547Y-57442455D01*
X152942544Y-57442452D01*
X152827335Y-57356206D01*
X152827328Y-57356202D01*
X152692482Y-57305908D01*
X152692483Y-57305908D01*
X152632883Y-57299501D01*
X152632881Y-57299500D01*
X152632873Y-57299500D01*
X152632865Y-57299500D01*
X151185097Y-57299500D01*
X151118058Y-57279815D01*
X151097416Y-57263181D01*
X148814590Y-54980355D01*
X148814588Y-54980352D01*
X148695717Y-54861481D01*
X148695716Y-54861480D01*
X148608904Y-54811360D01*
X148608904Y-54811359D01*
X148608900Y-54811358D01*
X148558785Y-54782423D01*
X148406057Y-54741499D01*
X148247943Y-54741499D01*
X148240347Y-54741499D01*
X148240331Y-54741500D01*
X113097047Y-54741500D01*
X113030008Y-54721815D01*
X112984253Y-54669011D01*
X112974309Y-54599853D01*
X113003334Y-54536297D01*
X113009366Y-54529819D01*
X113019836Y-54519349D01*
X113071966Y-54467219D01*
X113071968Y-54467215D01*
X113071971Y-54467213D01*
X113169668Y-54332742D01*
X113192287Y-54301610D01*
X113285220Y-54119219D01*
X113348477Y-53924534D01*
X113380500Y-53722352D01*
X113380500Y-53517648D01*
X113348477Y-53315466D01*
X113348475Y-53315462D01*
X113348475Y-53315457D01*
X113337545Y-53281817D01*
X113335550Y-53211976D01*
X113371631Y-53152144D01*
X113434332Y-53121316D01*
X113455476Y-53119500D01*
X141201381Y-53119500D01*
X141201397Y-53119501D01*
X141208993Y-53119501D01*
X141367104Y-53119501D01*
X141367107Y-53119501D01*
X141519835Y-53078577D01*
X141584052Y-53041501D01*
X141656766Y-52999520D01*
X141768570Y-52887716D01*
X141768570Y-52887714D01*
X141778774Y-52877511D01*
X141778777Y-52877506D01*
X143040872Y-51615412D01*
X143102191Y-51581930D01*
X143171883Y-51586914D01*
X143216230Y-51615415D01*
X143267786Y-51666971D01*
X143368600Y-51740215D01*
X143433390Y-51787287D01*
X143495874Y-51819124D01*
X143615776Y-51880218D01*
X143615778Y-51880218D01*
X143615781Y-51880220D01*
X143720137Y-51914127D01*
X143810465Y-51943477D01*
X143858323Y-51951057D01*
X144012648Y-51975500D01*
X144012649Y-51975500D01*
X144217351Y-51975500D01*
X144217352Y-51975500D01*
X144419534Y-51943477D01*
X144614219Y-51880220D01*
X144796610Y-51787287D01*
X144907834Y-51706479D01*
X144962213Y-51666971D01*
X144962215Y-51666968D01*
X144962219Y-51666966D01*
X145106966Y-51522219D01*
X145106968Y-51522215D01*
X145106971Y-51522213D01*
X145227284Y-51356614D01*
X145227285Y-51356613D01*
X145227287Y-51356610D01*
X145274516Y-51263917D01*
X145322489Y-51213123D01*
X145390310Y-51196328D01*
X145456445Y-51218865D01*
X145495483Y-51263917D01*
X145536577Y-51344568D01*
X145542715Y-51356614D01*
X145663028Y-51522213D01*
X145807786Y-51666971D01*
X145908600Y-51740215D01*
X145973390Y-51787287D01*
X146035874Y-51819124D01*
X146155776Y-51880218D01*
X146155778Y-51880218D01*
X146155781Y-51880220D01*
X146260137Y-51914127D01*
X146350465Y-51943477D01*
X146398323Y-51951057D01*
X146552648Y-51975500D01*
X146552649Y-51975500D01*
X146757351Y-51975500D01*
X146757352Y-51975500D01*
X146959534Y-51943477D01*
X147154219Y-51880220D01*
X147336610Y-51787287D01*
X147447834Y-51706479D01*
X147502213Y-51666971D01*
X147502215Y-51666968D01*
X147502219Y-51666966D01*
X147646966Y-51522219D01*
X147646968Y-51522215D01*
X147646971Y-51522213D01*
X147727846Y-51410896D01*
X147767287Y-51356610D01*
X147860220Y-51174219D01*
X147923477Y-50979534D01*
X147955500Y-50777352D01*
X147955500Y-50572648D01*
X147932827Y-50429498D01*
X147923477Y-50370465D01*
X147873692Y-50217243D01*
X147860220Y-50175781D01*
X147860218Y-50175778D01*
X147860218Y-50175776D01*
X147813065Y-50083234D01*
X147767287Y-49993390D01*
X147761500Y-49985425D01*
X147709000Y-49913163D01*
X147685520Y-49847356D01*
X147701346Y-49779303D01*
X147721633Y-49752601D01*
X151137416Y-46336817D01*
X151198739Y-46303333D01*
X151225097Y-46300499D01*
X152672871Y-46300499D01*
X152672872Y-46300499D01*
X152732483Y-46294091D01*
X152867331Y-46243796D01*
X152982546Y-46157546D01*
X153068796Y-46042331D01*
X153078119Y-46017335D01*
X153098601Y-45962420D01*
X153140471Y-45906486D01*
X153205936Y-45882068D01*
X153274209Y-45896919D01*
X153302464Y-45918071D01*
X153352636Y-45968243D01*
X153352641Y-45968247D01*
X153420206Y-46017335D01*
X153530978Y-46097815D01*
X153657824Y-46162447D01*
X153727393Y-46197895D01*
X153727396Y-46197896D01*
X153827174Y-46230315D01*
X153937049Y-46266015D01*
X154154778Y-46300500D01*
X154154779Y-46300500D01*
X154375221Y-46300500D01*
X154375222Y-46300500D01*
X154592951Y-46266015D01*
X154802606Y-46197895D01*
X154999022Y-46097815D01*
X155177365Y-45968242D01*
X155333242Y-45812365D01*
X155462815Y-45634022D01*
X155562895Y-45437606D01*
X155563880Y-45434576D01*
X155571514Y-45411080D01*
X155631015Y-45227951D01*
X155665500Y-45010222D01*
X155665500Y-44789778D01*
X155631015Y-44572049D01*
X155562895Y-44362394D01*
X155562895Y-44362393D01*
X155512400Y-44263294D01*
X155462815Y-44165978D01*
X155404501Y-44085715D01*
X155333247Y-43987641D01*
X155333243Y-43987636D01*
X155177363Y-43831756D01*
X155177358Y-43831752D01*
X154999025Y-43702187D01*
X154999024Y-43702186D01*
X154999022Y-43702185D01*
X154881791Y-43642452D01*
X154802606Y-43602104D01*
X154802603Y-43602103D01*
X154592952Y-43533985D01*
X154480705Y-43516207D01*
X154375222Y-43499500D01*
X154154778Y-43499500D01*
X154094892Y-43508985D01*
X153937047Y-43533985D01*
X153727396Y-43602103D01*
X153727393Y-43602104D01*
X153530974Y-43702187D01*
X153352641Y-43831752D01*
X153352636Y-43831756D01*
X153302463Y-43881929D01*
X153241140Y-43915413D01*
X153171448Y-43910428D01*
X153115515Y-43868557D01*
X153098601Y-43837580D01*
X153068797Y-43757671D01*
X153068793Y-43757664D01*
X152982547Y-43642455D01*
X152982544Y-43642452D01*
X152867335Y-43556206D01*
X152867328Y-43556202D01*
X152732482Y-43505908D01*
X152732483Y-43505908D01*
X152672883Y-43499501D01*
X152672881Y-43499500D01*
X152672873Y-43499500D01*
X152672864Y-43499500D01*
X150777129Y-43499500D01*
X150777123Y-43499501D01*
X150717516Y-43505908D01*
X150582671Y-43556202D01*
X150582664Y-43556206D01*
X150467455Y-43642452D01*
X150467452Y-43642455D01*
X150381206Y-43757664D01*
X150381202Y-43757672D01*
X150367696Y-43793882D01*
X150325824Y-43849814D01*
X150260359Y-43874230D01*
X150192086Y-43859377D01*
X150163834Y-43838227D01*
X150157363Y-43831756D01*
X150157358Y-43831752D01*
X149979025Y-43702187D01*
X149979024Y-43702186D01*
X149979022Y-43702185D01*
X149861791Y-43642452D01*
X149782606Y-43602104D01*
X149782603Y-43602103D01*
X149572952Y-43533985D01*
X149460705Y-43516207D01*
X149355222Y-43499500D01*
X149134778Y-43499500D01*
X149074892Y-43508985D01*
X148917047Y-43533985D01*
X148707396Y-43602103D01*
X148707393Y-43602104D01*
X148510974Y-43702187D01*
X148332641Y-43831752D01*
X148332636Y-43831756D01*
X148282463Y-43881929D01*
X148221140Y-43915413D01*
X148151448Y-43910428D01*
X148095515Y-43868557D01*
X148078601Y-43837580D01*
X148048797Y-43757671D01*
X148048793Y-43757664D01*
X147962547Y-43642455D01*
X147962544Y-43642452D01*
X147847335Y-43556206D01*
X147847328Y-43556202D01*
X147712482Y-43505908D01*
X147712483Y-43505908D01*
X147652883Y-43499501D01*
X147652881Y-43499500D01*
X147652873Y-43499500D01*
X147652864Y-43499500D01*
X145757129Y-43499500D01*
X145757123Y-43499501D01*
X145697516Y-43505908D01*
X145562671Y-43556202D01*
X145562664Y-43556206D01*
X145447455Y-43642452D01*
X145447452Y-43642455D01*
X145361206Y-43757664D01*
X145361202Y-43757671D01*
X145358564Y-43764746D01*
X145316693Y-43820680D01*
X145251228Y-43845097D01*
X145182955Y-43830245D01*
X145154701Y-43809094D01*
X145152363Y-43806756D01*
X145152358Y-43806752D01*
X144974025Y-43677187D01*
X144974024Y-43677186D01*
X144974022Y-43677185D01*
X144856791Y-43617452D01*
X144777606Y-43577104D01*
X144777603Y-43577103D01*
X144567952Y-43508985D01*
X144438557Y-43488491D01*
X144350222Y-43474500D01*
X144129778Y-43474500D01*
X144057201Y-43485995D01*
X143912047Y-43508985D01*
X143702396Y-43577103D01*
X143702393Y-43577104D01*
X143505974Y-43677187D01*
X143327641Y-43806752D01*
X143327636Y-43806756D01*
X143277463Y-43856929D01*
X143216140Y-43890413D01*
X143146448Y-43885428D01*
X143090515Y-43843557D01*
X143073601Y-43812580D01*
X143043797Y-43732671D01*
X143043793Y-43732664D01*
X142957547Y-43617455D01*
X142957544Y-43617452D01*
X142842335Y-43531206D01*
X142842328Y-43531202D01*
X142707482Y-43480908D01*
X142707483Y-43480908D01*
X142647883Y-43474501D01*
X142647881Y-43474500D01*
X142647873Y-43474500D01*
X142647864Y-43474500D01*
X140752129Y-43474500D01*
X140752123Y-43474501D01*
X140692516Y-43480908D01*
X140557671Y-43531202D01*
X140557664Y-43531206D01*
X140442455Y-43617452D01*
X140442452Y-43617455D01*
X140356206Y-43732664D01*
X140356203Y-43732670D01*
X140335906Y-43787089D01*
X140294034Y-43843022D01*
X140228570Y-43867439D01*
X140160297Y-43852587D01*
X140136306Y-43834627D01*
X140136061Y-43834915D01*
X140132358Y-43831752D01*
X139954025Y-43702187D01*
X139954024Y-43702186D01*
X139954022Y-43702185D01*
X139836791Y-43642452D01*
X139757606Y-43602104D01*
X139757603Y-43602103D01*
X139547952Y-43533985D01*
X139435705Y-43516207D01*
X139330222Y-43499500D01*
X139109778Y-43499500D01*
X139049892Y-43508985D01*
X138892047Y-43533985D01*
X138682396Y-43602103D01*
X138682393Y-43602104D01*
X138485974Y-43702187D01*
X138307641Y-43831752D01*
X138307636Y-43831756D01*
X138257463Y-43881929D01*
X138196140Y-43915413D01*
X138126448Y-43910428D01*
X138070515Y-43868557D01*
X138053601Y-43837580D01*
X138023797Y-43757671D01*
X138023793Y-43757664D01*
X137937547Y-43642455D01*
X137937544Y-43642452D01*
X137822335Y-43556206D01*
X137822328Y-43556202D01*
X137687482Y-43505908D01*
X137687483Y-43505908D01*
X137627883Y-43499501D01*
X137627881Y-43499500D01*
X137627873Y-43499500D01*
X137627864Y-43499500D01*
X135732129Y-43499500D01*
X135732123Y-43499501D01*
X135672516Y-43505908D01*
X135537671Y-43556202D01*
X135537664Y-43556206D01*
X135422455Y-43642452D01*
X135422452Y-43642455D01*
X135336206Y-43757664D01*
X135336202Y-43757671D01*
X135326731Y-43783066D01*
X135284860Y-43839000D01*
X135219395Y-43863417D01*
X135151122Y-43848565D01*
X135130012Y-43834019D01*
X135127357Y-43831751D01*
X134949025Y-43702187D01*
X134949024Y-43702186D01*
X134949022Y-43702185D01*
X134831791Y-43642452D01*
X134752606Y-43602104D01*
X134752603Y-43602103D01*
X134542952Y-43533985D01*
X134430705Y-43516207D01*
X134325222Y-43499500D01*
X134104778Y-43499500D01*
X134044892Y-43508985D01*
X133887047Y-43533985D01*
X133677396Y-43602103D01*
X133677393Y-43602104D01*
X133480974Y-43702187D01*
X133302641Y-43831752D01*
X133302636Y-43831756D01*
X133252463Y-43881929D01*
X133191140Y-43915413D01*
X133121448Y-43910428D01*
X133065515Y-43868557D01*
X133048601Y-43837580D01*
X133018797Y-43757671D01*
X133018793Y-43757664D01*
X132932547Y-43642455D01*
X132932544Y-43642452D01*
X132817335Y-43556206D01*
X132817328Y-43556202D01*
X132682482Y-43505908D01*
X132682483Y-43505908D01*
X132622883Y-43499501D01*
X132622881Y-43499500D01*
X132622873Y-43499500D01*
X132622864Y-43499500D01*
X130727129Y-43499500D01*
X130727123Y-43499501D01*
X130667516Y-43505908D01*
X130532671Y-43556202D01*
X130532664Y-43556206D01*
X130417455Y-43642452D01*
X130417452Y-43642455D01*
X130331206Y-43757664D01*
X130331201Y-43757673D01*
X130316338Y-43797523D01*
X130274467Y-43853456D01*
X130209002Y-43877872D01*
X130140729Y-43863020D01*
X130112476Y-43841869D01*
X130077363Y-43806756D01*
X130077358Y-43806752D01*
X129899025Y-43677187D01*
X129899024Y-43677186D01*
X129899022Y-43677185D01*
X129781791Y-43617452D01*
X129702606Y-43577104D01*
X129702603Y-43577103D01*
X129492952Y-43508985D01*
X129363557Y-43488491D01*
X129275222Y-43474500D01*
X129054778Y-43474500D01*
X128982201Y-43485995D01*
X128837047Y-43508985D01*
X128627396Y-43577103D01*
X128627393Y-43577104D01*
X128430974Y-43677187D01*
X128252641Y-43806752D01*
X128252636Y-43806756D01*
X128202463Y-43856929D01*
X128141140Y-43890413D01*
X128071448Y-43885428D01*
X128015515Y-43843557D01*
X127998601Y-43812580D01*
X127968797Y-43732671D01*
X127968793Y-43732664D01*
X127882547Y-43617455D01*
X127882544Y-43617452D01*
X127767335Y-43531206D01*
X127767328Y-43531202D01*
X127632482Y-43480908D01*
X127632483Y-43480908D01*
X127572883Y-43474501D01*
X127572881Y-43474500D01*
X127572873Y-43474500D01*
X127572864Y-43474500D01*
X125677129Y-43474500D01*
X125677123Y-43474501D01*
X125617516Y-43480908D01*
X125482671Y-43531202D01*
X125482664Y-43531206D01*
X125367455Y-43617452D01*
X125367452Y-43617455D01*
X125281206Y-43732664D01*
X125281203Y-43732669D01*
X125245965Y-43827148D01*
X125204093Y-43883081D01*
X125138629Y-43907498D01*
X125070356Y-43892646D01*
X125042102Y-43871495D01*
X124977363Y-43806756D01*
X124977358Y-43806752D01*
X124799025Y-43677187D01*
X124799024Y-43677186D01*
X124799022Y-43677185D01*
X124681791Y-43617452D01*
X124602606Y-43577104D01*
X124602603Y-43577103D01*
X124392952Y-43508985D01*
X124263557Y-43488491D01*
X124175222Y-43474500D01*
X123954778Y-43474500D01*
X123882201Y-43485995D01*
X123737047Y-43508985D01*
X123527396Y-43577103D01*
X123527393Y-43577104D01*
X123330974Y-43677187D01*
X123152641Y-43806752D01*
X123152636Y-43806756D01*
X123102463Y-43856929D01*
X123041140Y-43890413D01*
X122971448Y-43885428D01*
X122915515Y-43843557D01*
X122898601Y-43812580D01*
X122868797Y-43732671D01*
X122868793Y-43732664D01*
X122782547Y-43617455D01*
X122782544Y-43617452D01*
X122667335Y-43531206D01*
X122667328Y-43531202D01*
X122532482Y-43480908D01*
X122532483Y-43480908D01*
X122472883Y-43474501D01*
X122472881Y-43474500D01*
X122472873Y-43474500D01*
X122472865Y-43474500D01*
X121025097Y-43474500D01*
X120958058Y-43454815D01*
X120937416Y-43438181D01*
X120434590Y-42935355D01*
X120434588Y-42935352D01*
X120315717Y-42816481D01*
X120315709Y-42816475D01*
X120209081Y-42754914D01*
X120209078Y-42754913D01*
X120178787Y-42737424D01*
X120178786Y-42737423D01*
X120178785Y-42737423D01*
X120026057Y-42696499D01*
X119867943Y-42696499D01*
X119860347Y-42696499D01*
X119860331Y-42696500D01*
X113636790Y-42696500D01*
X113569751Y-42676815D01*
X113523996Y-42624011D01*
X113514052Y-42554853D01*
X113536471Y-42499616D01*
X113542285Y-42491613D01*
X113547213Y-42481943D01*
X113635220Y-42309219D01*
X113698477Y-42114534D01*
X113730500Y-41912352D01*
X113730500Y-41707648D01*
X113698477Y-41505466D01*
X113635220Y-41310781D01*
X113635218Y-41310778D01*
X113635218Y-41310776D01*
X113570911Y-41184568D01*
X113542287Y-41128390D01*
X113482277Y-41045792D01*
X113421971Y-40962786D01*
X113277213Y-40818028D01*
X113111613Y-40697715D01*
X113111612Y-40697714D01*
X113111610Y-40697713D01*
X113054653Y-40668691D01*
X112929223Y-40604781D01*
X112734534Y-40541522D01*
X112559995Y-40513878D01*
X112532352Y-40509500D01*
X112339097Y-40509500D01*
X112272058Y-40489815D01*
X112226303Y-40437011D01*
X112216359Y-40367853D01*
X112245384Y-40304297D01*
X112251416Y-40297819D01*
X112938278Y-39610957D01*
X112971877Y-39577359D01*
X113949417Y-38599819D01*
X114010740Y-38566334D01*
X114037098Y-38563500D01*
X115334331Y-38563500D01*
X115334347Y-38563501D01*
X115341943Y-38563501D01*
X115500054Y-38563501D01*
X115500057Y-38563501D01*
X115652785Y-38522577D01*
X115710174Y-38489443D01*
X115789716Y-38443520D01*
X115901520Y-38331716D01*
X115901520Y-38331714D01*
X115911725Y-38321510D01*
X115911731Y-38321503D01*
X115994418Y-38238818D01*
X116055741Y-38205333D01*
X116082098Y-38202500D01*
X122635126Y-38202500D01*
X122702165Y-38222185D01*
X122747920Y-38274989D01*
X122757864Y-38344147D01*
X122734392Y-38400812D01*
X122691647Y-38457910D01*
X122691645Y-38457913D01*
X122641403Y-38592620D01*
X122641401Y-38592627D01*
X122635000Y-38652155D01*
X122635000Y-39250000D01*
X123619314Y-39250000D01*
X123614920Y-39254394D01*
X123562259Y-39345606D01*
X123535000Y-39447339D01*
X123535000Y-39552661D01*
X123562259Y-39654394D01*
X123614920Y-39745606D01*
X123619314Y-39750000D01*
X122635000Y-39750000D01*
X122635000Y-40347844D01*
X122641401Y-40407372D01*
X122641403Y-40407379D01*
X122691645Y-40542086D01*
X122691649Y-40542093D01*
X122777809Y-40657187D01*
X122777812Y-40657190D01*
X122892906Y-40743350D01*
X122892913Y-40743354D01*
X123027620Y-40793596D01*
X123027627Y-40793598D01*
X123087155Y-40799999D01*
X123087172Y-40800000D01*
X123685000Y-40800000D01*
X123685000Y-39815686D01*
X123689394Y-39820080D01*
X123780606Y-39872741D01*
X123882339Y-39900000D01*
X123987661Y-39900000D01*
X124089394Y-39872741D01*
X124180606Y-39820080D01*
X124185000Y-39815686D01*
X124185000Y-40800000D01*
X124782828Y-40800000D01*
X124782844Y-40799999D01*
X124842372Y-40793598D01*
X124842379Y-40793596D01*
X124977086Y-40743354D01*
X124977093Y-40743350D01*
X125092187Y-40657190D01*
X125092190Y-40657187D01*
X125178350Y-40542093D01*
X125178354Y-40542086D01*
X125228596Y-40407379D01*
X125232620Y-40369956D01*
X125259358Y-40305404D01*
X125316750Y-40265556D01*
X125386575Y-40263062D01*
X125446664Y-40298714D01*
X125456228Y-40310325D01*
X125483028Y-40347212D01*
X125483032Y-40347217D01*
X125627786Y-40491971D01*
X125773998Y-40598198D01*
X125793390Y-40612287D01*
X125881517Y-40657190D01*
X125975776Y-40705218D01*
X125975778Y-40705218D01*
X125975781Y-40705220D01*
X126066773Y-40734785D01*
X126170465Y-40768477D01*
X126271557Y-40784488D01*
X126372648Y-40800500D01*
X126372649Y-40800500D01*
X126577351Y-40800500D01*
X126577352Y-40800500D01*
X126779534Y-40768477D01*
X126974219Y-40705220D01*
X127156610Y-40612287D01*
X127254009Y-40541523D01*
X127322213Y-40491971D01*
X127322215Y-40491968D01*
X127322219Y-40491966D01*
X127466966Y-40347219D01*
X127466968Y-40347215D01*
X127466971Y-40347213D01*
X127587284Y-40181614D01*
X127587285Y-40181613D01*
X127587287Y-40181610D01*
X127634516Y-40088917D01*
X127682489Y-40038123D01*
X127750310Y-40021328D01*
X127816445Y-40043865D01*
X127855483Y-40088917D01*
X127860887Y-40099521D01*
X127902715Y-40181614D01*
X128023028Y-40347213D01*
X128167786Y-40491971D01*
X128313998Y-40598198D01*
X128333390Y-40612287D01*
X128421517Y-40657190D01*
X128515776Y-40705218D01*
X128515778Y-40705218D01*
X128515781Y-40705220D01*
X128606773Y-40734785D01*
X128710465Y-40768477D01*
X128811557Y-40784488D01*
X128912648Y-40800500D01*
X128912649Y-40800500D01*
X129117351Y-40800500D01*
X129117352Y-40800500D01*
X129319534Y-40768477D01*
X129514219Y-40705220D01*
X129696610Y-40612287D01*
X129794009Y-40541523D01*
X129862213Y-40491971D01*
X129862215Y-40491968D01*
X129862219Y-40491966D01*
X130006966Y-40347219D01*
X130006968Y-40347215D01*
X130006971Y-40347213D01*
X130127284Y-40181614D01*
X130127285Y-40181613D01*
X130127287Y-40181610D01*
X130174516Y-40088917D01*
X130222489Y-40038123D01*
X130290310Y-40021328D01*
X130356445Y-40043865D01*
X130395483Y-40088917D01*
X130400887Y-40099521D01*
X130442715Y-40181614D01*
X130563028Y-40347213D01*
X130707786Y-40491971D01*
X130853998Y-40598198D01*
X130873390Y-40612287D01*
X130961517Y-40657190D01*
X131055776Y-40705218D01*
X131055778Y-40705218D01*
X131055781Y-40705220D01*
X131146773Y-40734785D01*
X131250465Y-40768477D01*
X131351557Y-40784488D01*
X131452648Y-40800500D01*
X131452649Y-40800500D01*
X131657351Y-40800500D01*
X131657352Y-40800500D01*
X131859534Y-40768477D01*
X132054219Y-40705220D01*
X132236610Y-40612287D01*
X132334009Y-40541523D01*
X132402213Y-40491971D01*
X132402215Y-40491968D01*
X132402219Y-40491966D01*
X132546966Y-40347219D01*
X132546968Y-40347215D01*
X132546971Y-40347213D01*
X132667284Y-40181614D01*
X132667285Y-40181613D01*
X132667287Y-40181610D01*
X132714516Y-40088917D01*
X132762489Y-40038123D01*
X132830310Y-40021328D01*
X132896445Y-40043865D01*
X132935483Y-40088917D01*
X132940887Y-40099521D01*
X132982715Y-40181614D01*
X133103028Y-40347213D01*
X133247786Y-40491971D01*
X133393998Y-40598198D01*
X133413390Y-40612287D01*
X133501517Y-40657190D01*
X133595776Y-40705218D01*
X133595778Y-40705218D01*
X133595781Y-40705220D01*
X133686773Y-40734785D01*
X133790465Y-40768477D01*
X133891557Y-40784488D01*
X133992648Y-40800500D01*
X133992649Y-40800500D01*
X134197351Y-40800500D01*
X134197352Y-40800500D01*
X134399534Y-40768477D01*
X134594219Y-40705220D01*
X134776610Y-40612287D01*
X134874009Y-40541523D01*
X134942213Y-40491971D01*
X134942215Y-40491968D01*
X134942219Y-40491966D01*
X135086966Y-40347219D01*
X135086968Y-40347215D01*
X135086971Y-40347213D01*
X135207284Y-40181614D01*
X135207285Y-40181613D01*
X135207287Y-40181610D01*
X135254516Y-40088917D01*
X135302489Y-40038123D01*
X135370310Y-40021328D01*
X135436445Y-40043865D01*
X135475483Y-40088917D01*
X135480887Y-40099521D01*
X135522715Y-40181614D01*
X135643028Y-40347213D01*
X135787786Y-40491971D01*
X135933998Y-40598198D01*
X135953390Y-40612287D01*
X136041517Y-40657190D01*
X136135776Y-40705218D01*
X136135778Y-40705218D01*
X136135781Y-40705220D01*
X136226773Y-40734785D01*
X136330465Y-40768477D01*
X136431557Y-40784488D01*
X136532648Y-40800500D01*
X136532649Y-40800500D01*
X136737351Y-40800500D01*
X136737352Y-40800500D01*
X136939534Y-40768477D01*
X137134219Y-40705220D01*
X137316610Y-40612287D01*
X137414009Y-40541523D01*
X137482213Y-40491971D01*
X137482215Y-40491968D01*
X137482219Y-40491966D01*
X137626966Y-40347219D01*
X137626968Y-40347215D01*
X137626971Y-40347213D01*
X137747284Y-40181614D01*
X137747285Y-40181613D01*
X137747287Y-40181610D01*
X137794516Y-40088917D01*
X137842489Y-40038123D01*
X137910310Y-40021328D01*
X137976445Y-40043865D01*
X138015483Y-40088917D01*
X138020887Y-40099521D01*
X138062715Y-40181614D01*
X138183028Y-40347213D01*
X138327786Y-40491971D01*
X138473998Y-40598198D01*
X138493390Y-40612287D01*
X138581517Y-40657190D01*
X138675776Y-40705218D01*
X138675778Y-40705218D01*
X138675781Y-40705220D01*
X138766773Y-40734785D01*
X138870465Y-40768477D01*
X138971557Y-40784488D01*
X139072648Y-40800500D01*
X139072649Y-40800500D01*
X139277351Y-40800500D01*
X139277352Y-40800500D01*
X139479534Y-40768477D01*
X139674219Y-40705220D01*
X139856610Y-40612287D01*
X139954009Y-40541523D01*
X140022213Y-40491971D01*
X140022215Y-40491968D01*
X140022219Y-40491966D01*
X140166966Y-40347219D01*
X140166968Y-40347215D01*
X140166971Y-40347213D01*
X140287284Y-40181614D01*
X140287285Y-40181613D01*
X140287287Y-40181610D01*
X140334516Y-40088917D01*
X140382489Y-40038123D01*
X140450310Y-40021328D01*
X140516445Y-40043865D01*
X140555483Y-40088917D01*
X140560887Y-40099521D01*
X140602715Y-40181614D01*
X140723028Y-40347213D01*
X140867786Y-40491971D01*
X141013998Y-40598198D01*
X141033390Y-40612287D01*
X141121517Y-40657190D01*
X141215776Y-40705218D01*
X141215778Y-40705218D01*
X141215781Y-40705220D01*
X141306773Y-40734785D01*
X141410465Y-40768477D01*
X141511557Y-40784488D01*
X141612648Y-40800500D01*
X141612649Y-40800500D01*
X141817351Y-40800500D01*
X141817352Y-40800500D01*
X142019534Y-40768477D01*
X142214219Y-40705220D01*
X142396610Y-40612287D01*
X142494009Y-40541523D01*
X142562213Y-40491971D01*
X142562215Y-40491968D01*
X142562219Y-40491966D01*
X142706966Y-40347219D01*
X142706968Y-40347215D01*
X142706971Y-40347213D01*
X142827284Y-40181614D01*
X142827285Y-40181613D01*
X142827287Y-40181610D01*
X142874516Y-40088917D01*
X142922489Y-40038123D01*
X142990310Y-40021328D01*
X143056445Y-40043865D01*
X143095483Y-40088917D01*
X143100887Y-40099521D01*
X143142715Y-40181614D01*
X143263028Y-40347213D01*
X143407786Y-40491971D01*
X143553998Y-40598198D01*
X143573390Y-40612287D01*
X143661517Y-40657190D01*
X143755776Y-40705218D01*
X143755778Y-40705218D01*
X143755781Y-40705220D01*
X143846773Y-40734785D01*
X143950465Y-40768477D01*
X144051557Y-40784488D01*
X144152648Y-40800500D01*
X144152649Y-40800500D01*
X144357351Y-40800500D01*
X144357352Y-40800500D01*
X144559534Y-40768477D01*
X144754219Y-40705220D01*
X144936610Y-40612287D01*
X145034009Y-40541523D01*
X145102213Y-40491971D01*
X145102215Y-40491968D01*
X145102219Y-40491966D01*
X145246966Y-40347219D01*
X145246968Y-40347215D01*
X145246971Y-40347213D01*
X145367284Y-40181614D01*
X145367285Y-40181613D01*
X145367287Y-40181610D01*
X145414516Y-40088917D01*
X145462489Y-40038123D01*
X145530310Y-40021328D01*
X145596445Y-40043865D01*
X145635483Y-40088917D01*
X145640887Y-40099521D01*
X145682715Y-40181614D01*
X145803028Y-40347213D01*
X145947786Y-40491971D01*
X146093998Y-40598198D01*
X146113390Y-40612287D01*
X146201517Y-40657190D01*
X146295776Y-40705218D01*
X146295778Y-40705218D01*
X146295781Y-40705220D01*
X146386773Y-40734785D01*
X146490465Y-40768477D01*
X146591557Y-40784488D01*
X146692648Y-40800500D01*
X146692649Y-40800500D01*
X146897351Y-40800500D01*
X146897352Y-40800500D01*
X147099534Y-40768477D01*
X147294219Y-40705220D01*
X147476610Y-40612287D01*
X147574009Y-40541523D01*
X147642213Y-40491971D01*
X147642215Y-40491968D01*
X147642219Y-40491966D01*
X147786966Y-40347219D01*
X147786968Y-40347215D01*
X147786971Y-40347213D01*
X147848109Y-40263062D01*
X147907287Y-40181610D01*
X148000220Y-39999219D01*
X148063477Y-39804534D01*
X148095500Y-39602352D01*
X148095500Y-39397648D01*
X148075232Y-39269685D01*
X148063477Y-39195465D01*
X148010748Y-39033184D01*
X148000220Y-39000781D01*
X148000218Y-39000778D01*
X148000218Y-39000776D01*
X147929106Y-38861213D01*
X147907287Y-38818390D01*
X147899556Y-38807749D01*
X147786971Y-38652786D01*
X147642213Y-38508028D01*
X147530435Y-38426818D01*
X147487769Y-38371489D01*
X147481790Y-38301875D01*
X147514395Y-38240080D01*
X147575234Y-38205723D01*
X147603320Y-38202500D01*
X148161331Y-38202500D01*
X148161347Y-38202501D01*
X148168943Y-38202501D01*
X148327054Y-38202501D01*
X148327057Y-38202501D01*
X148479785Y-38161577D01*
X148529904Y-38132639D01*
X148616716Y-38082520D01*
X148728520Y-37970716D01*
X148728520Y-37970714D01*
X148738728Y-37960507D01*
X148738730Y-37960504D01*
X151237416Y-35461818D01*
X151298739Y-35428333D01*
X151325097Y-35425499D01*
X152772871Y-35425499D01*
X152772872Y-35425499D01*
X152832483Y-35419091D01*
X152967331Y-35368796D01*
X153082546Y-35282546D01*
X153168796Y-35167331D01*
X153171157Y-35161000D01*
X153198601Y-35087420D01*
X153240471Y-35031486D01*
X153305936Y-35007068D01*
X153374209Y-35021919D01*
X153402464Y-35043071D01*
X153452636Y-35093243D01*
X153452641Y-35093247D01*
X153545896Y-35161000D01*
X153630978Y-35222815D01*
X153759375Y-35288237D01*
X153827393Y-35322895D01*
X153827396Y-35322896D01*
X153904337Y-35347895D01*
X154037049Y-35391015D01*
X154254778Y-35425500D01*
X154254779Y-35425500D01*
X154475221Y-35425500D01*
X154475222Y-35425500D01*
X154692951Y-35391015D01*
X154902606Y-35322895D01*
X155099022Y-35222815D01*
X155277365Y-35093242D01*
X155433242Y-34937365D01*
X155562815Y-34759022D01*
X155662895Y-34562606D01*
X155731015Y-34352951D01*
X155765500Y-34135222D01*
X155765500Y-33914778D01*
X155731015Y-33697049D01*
X155678721Y-33536101D01*
X155662896Y-33487396D01*
X155662895Y-33487393D01*
X155604382Y-33372557D01*
X155562815Y-33290978D01*
X155522664Y-33235715D01*
X155433247Y-33112641D01*
X155433243Y-33112636D01*
X155277363Y-32956756D01*
X155277358Y-32956752D01*
X155099025Y-32827187D01*
X155099024Y-32827186D01*
X155099022Y-32827185D01*
X155030855Y-32792452D01*
X154902606Y-32727104D01*
X154902603Y-32727103D01*
X154692952Y-32658985D01*
X154569372Y-32639412D01*
X154475222Y-32624500D01*
X154254778Y-32624500D01*
X154194892Y-32633985D01*
X154037047Y-32658985D01*
X153827396Y-32727103D01*
X153827393Y-32727104D01*
X153630974Y-32827187D01*
X153452641Y-32956752D01*
X153452636Y-32956756D01*
X153402463Y-33006929D01*
X153341140Y-33040413D01*
X153271448Y-33035428D01*
X153215515Y-32993557D01*
X153198601Y-32962580D01*
X153168797Y-32882671D01*
X153168793Y-32882664D01*
X153082547Y-32767455D01*
X153082544Y-32767452D01*
X152967335Y-32681206D01*
X152967328Y-32681202D01*
X152832482Y-32630908D01*
X152832483Y-32630908D01*
X152772883Y-32624501D01*
X152772881Y-32624500D01*
X152772873Y-32624500D01*
X152772864Y-32624500D01*
X150877129Y-32624500D01*
X150877123Y-32624501D01*
X150817516Y-32630908D01*
X150682671Y-32681202D01*
X150682664Y-32681206D01*
X150567455Y-32767452D01*
X150567452Y-32767455D01*
X150481206Y-32882664D01*
X150481201Y-32882674D01*
X150465697Y-32924241D01*
X150423825Y-32980174D01*
X150358360Y-33004590D01*
X150290088Y-32989737D01*
X150276631Y-32981224D01*
X150099025Y-32852187D01*
X150099024Y-32852186D01*
X150099022Y-32852185D01*
X150014625Y-32809182D01*
X149902606Y-32752104D01*
X149902603Y-32752103D01*
X149692952Y-32683985D01*
X149554611Y-32662074D01*
X149475222Y-32649500D01*
X149254778Y-32649500D01*
X149194892Y-32658985D01*
X149037047Y-32683985D01*
X148827396Y-32752103D01*
X148827393Y-32752104D01*
X148630974Y-32852187D01*
X148452641Y-32981752D01*
X148452636Y-32981756D01*
X148402463Y-33031929D01*
X148341140Y-33065413D01*
X148271448Y-33060428D01*
X148215515Y-33018557D01*
X148198601Y-32987580D01*
X148168797Y-32907671D01*
X148168793Y-32907664D01*
X148082547Y-32792455D01*
X148082544Y-32792452D01*
X147967335Y-32706206D01*
X147967328Y-32706202D01*
X147832482Y-32655908D01*
X147832483Y-32655908D01*
X147772883Y-32649501D01*
X147772881Y-32649500D01*
X147772873Y-32649500D01*
X147772864Y-32649500D01*
X145877129Y-32649500D01*
X145877123Y-32649501D01*
X145817516Y-32655908D01*
X145682671Y-32706202D01*
X145682664Y-32706206D01*
X145567455Y-32792452D01*
X145567452Y-32792455D01*
X145481206Y-32907664D01*
X145481201Y-32907673D01*
X145466338Y-32947523D01*
X145424467Y-33003456D01*
X145359002Y-33027872D01*
X145290729Y-33013020D01*
X145262476Y-32991869D01*
X145252363Y-32981756D01*
X145252358Y-32981752D01*
X145074025Y-32852187D01*
X145074024Y-32852186D01*
X145074022Y-32852185D01*
X144989625Y-32809182D01*
X144877606Y-32752104D01*
X144877603Y-32752103D01*
X144667952Y-32683985D01*
X144529611Y-32662074D01*
X144450222Y-32649500D01*
X144229778Y-32649500D01*
X144169892Y-32658985D01*
X144012047Y-32683985D01*
X143802396Y-32752103D01*
X143802393Y-32752104D01*
X143605974Y-32852187D01*
X143427641Y-32981752D01*
X143427636Y-32981756D01*
X143377463Y-33031929D01*
X143316140Y-33065413D01*
X143246448Y-33060428D01*
X143190515Y-33018557D01*
X143173601Y-32987580D01*
X143143797Y-32907671D01*
X143143793Y-32907664D01*
X143057547Y-32792455D01*
X143057544Y-32792452D01*
X142942335Y-32706206D01*
X142942328Y-32706202D01*
X142807482Y-32655908D01*
X142807483Y-32655908D01*
X142747883Y-32649501D01*
X142747881Y-32649500D01*
X142747873Y-32649500D01*
X142747864Y-32649500D01*
X140852129Y-32649500D01*
X140852123Y-32649501D01*
X140792516Y-32655908D01*
X140657671Y-32706202D01*
X140657664Y-32706206D01*
X140542455Y-32792452D01*
X140542452Y-32792455D01*
X140456206Y-32907664D01*
X140456203Y-32907669D01*
X140447939Y-32929828D01*
X140406067Y-32985761D01*
X140340603Y-33010178D01*
X140272330Y-32995326D01*
X140256469Y-32984397D01*
X140256307Y-32984621D01*
X140074025Y-32852187D01*
X140074024Y-32852186D01*
X140074022Y-32852185D01*
X139989625Y-32809182D01*
X139877606Y-32752104D01*
X139877603Y-32752103D01*
X139667952Y-32683985D01*
X139529611Y-32662074D01*
X139450222Y-32649500D01*
X139229778Y-32649500D01*
X139169892Y-32658985D01*
X139012047Y-32683985D01*
X138802396Y-32752103D01*
X138802393Y-32752104D01*
X138605974Y-32852187D01*
X138427641Y-32981752D01*
X138427636Y-32981756D01*
X138377463Y-33031929D01*
X138316140Y-33065413D01*
X138246448Y-33060428D01*
X138190515Y-33018557D01*
X138173601Y-32987580D01*
X138143797Y-32907671D01*
X138143793Y-32907664D01*
X138057547Y-32792455D01*
X138057544Y-32792452D01*
X137942335Y-32706206D01*
X137942328Y-32706202D01*
X137807482Y-32655908D01*
X137807483Y-32655908D01*
X137747883Y-32649501D01*
X137747881Y-32649500D01*
X137747873Y-32649500D01*
X137747864Y-32649500D01*
X135852129Y-32649500D01*
X135852123Y-32649501D01*
X135792516Y-32655908D01*
X135657671Y-32706202D01*
X135657664Y-32706206D01*
X135542455Y-32792452D01*
X135542452Y-32792455D01*
X135456206Y-32907664D01*
X135456203Y-32907670D01*
X135454921Y-32911108D01*
X135452722Y-32914044D01*
X135451953Y-32915454D01*
X135451750Y-32915343D01*
X135413048Y-32967040D01*
X135347583Y-32991455D01*
X135279310Y-32976602D01*
X135251059Y-32955452D01*
X135227363Y-32931756D01*
X135227358Y-32931752D01*
X135049025Y-32802187D01*
X135049024Y-32802186D01*
X135049022Y-32802185D01*
X134968595Y-32761205D01*
X134852606Y-32702104D01*
X134852603Y-32702103D01*
X134642952Y-32633985D01*
X134508361Y-32612668D01*
X134425222Y-32599500D01*
X134204778Y-32599500D01*
X134132201Y-32610995D01*
X133987047Y-32633985D01*
X133777396Y-32702103D01*
X133777393Y-32702104D01*
X133580974Y-32802187D01*
X133402641Y-32931752D01*
X133402636Y-32931756D01*
X133352463Y-32981929D01*
X133291140Y-33015413D01*
X133221448Y-33010428D01*
X133165515Y-32968557D01*
X133148601Y-32937580D01*
X133118797Y-32857671D01*
X133118793Y-32857664D01*
X133032547Y-32742455D01*
X133032544Y-32742452D01*
X132917335Y-32656206D01*
X132917328Y-32656202D01*
X132782482Y-32605908D01*
X132782483Y-32605908D01*
X132722883Y-32599501D01*
X132722881Y-32599500D01*
X132722873Y-32599500D01*
X132722865Y-32599500D01*
X131275098Y-32599500D01*
X131208059Y-32579815D01*
X131187417Y-32563181D01*
X130259590Y-31635355D01*
X130259588Y-31635352D01*
X130140717Y-31516481D01*
X130140716Y-31516480D01*
X130053904Y-31466360D01*
X130053904Y-31466359D01*
X130053900Y-31466358D01*
X130003785Y-31437423D01*
X129851057Y-31396499D01*
X129692943Y-31396499D01*
X129685347Y-31396499D01*
X129685331Y-31396500D01*
X93787669Y-31396500D01*
X93787653Y-31396499D01*
X93780057Y-31396499D01*
X93621943Y-31396499D01*
X93514587Y-31425265D01*
X93469210Y-31437424D01*
X93469209Y-31437425D01*
X93419096Y-31466359D01*
X93419095Y-31466360D01*
X93394093Y-31480795D01*
X93332285Y-31516479D01*
X93332282Y-31516481D01*
X92588481Y-32260282D01*
X92588480Y-32260284D01*
X92554614Y-32318942D01*
X92509423Y-32397215D01*
X92468499Y-32549943D01*
X92468499Y-32549945D01*
X92468499Y-32718046D01*
X92468500Y-32718059D01*
X92468500Y-32784885D01*
X92448815Y-32851924D01*
X92396011Y-32897679D01*
X92326853Y-32907623D01*
X92325102Y-32907358D01*
X92252898Y-32895922D01*
X92212352Y-32889500D01*
X92007648Y-32889500D01*
X91983329Y-32893351D01*
X91805465Y-32921522D01*
X91610776Y-32984781D01*
X91428386Y-33077715D01*
X91262786Y-33198028D01*
X91118028Y-33342786D01*
X90997713Y-33508388D01*
X90950203Y-33601630D01*
X90902228Y-33652426D01*
X90834407Y-33669220D01*
X90768272Y-33646682D01*
X90729234Y-33601628D01*
X90681861Y-33508652D01*
X90649474Y-33464077D01*
X90649474Y-33464076D01*
X89970000Y-34143551D01*
X89970000Y-34137339D01*
X89942741Y-34035606D01*
X89890080Y-33944394D01*
X89815606Y-33869920D01*
X89724394Y-33817259D01*
X89622661Y-33790000D01*
X89616446Y-33790000D01*
X90295922Y-33110524D01*
X90295921Y-33110523D01*
X90251359Y-33078147D01*
X90251350Y-33078141D01*
X90069031Y-32985244D01*
X89874417Y-32922009D01*
X89672317Y-32890000D01*
X89467683Y-32890000D01*
X89265582Y-32922009D01*
X89070968Y-32985244D01*
X88888644Y-33078143D01*
X88844077Y-33110523D01*
X88844077Y-33110524D01*
X89523554Y-33790000D01*
X89517339Y-33790000D01*
X89415606Y-33817259D01*
X89324394Y-33869920D01*
X89249920Y-33944394D01*
X89197259Y-34035606D01*
X89170000Y-34137339D01*
X89170000Y-34143553D01*
X88490524Y-33464077D01*
X88490523Y-33464077D01*
X88458143Y-33508644D01*
X88365244Y-33690968D01*
X88302009Y-33885582D01*
X88270000Y-34087682D01*
X88270000Y-34292317D01*
X88302009Y-34494417D01*
X88365244Y-34689031D01*
X88458141Y-34871350D01*
X88458147Y-34871359D01*
X88490523Y-34915921D01*
X88490524Y-34915922D01*
X89170000Y-34236446D01*
X89170000Y-34242661D01*
X89197259Y-34344394D01*
X89249920Y-34435606D01*
X89324394Y-34510080D01*
X89415606Y-34562741D01*
X89517339Y-34590000D01*
X89523553Y-34590000D01*
X88844076Y-35269474D01*
X88888650Y-35301859D01*
X89070968Y-35394755D01*
X89265582Y-35457990D01*
X89467683Y-35490000D01*
X89672317Y-35490000D01*
X89874417Y-35457990D01*
X90069031Y-35394755D01*
X90251349Y-35301859D01*
X90295921Y-35269474D01*
X89616447Y-34590000D01*
X89622661Y-34590000D01*
X89724394Y-34562741D01*
X89815606Y-34510080D01*
X89890080Y-34435606D01*
X89942741Y-34344394D01*
X89970000Y-34242661D01*
X89970000Y-34236447D01*
X90649474Y-34915921D01*
X90681861Y-34871347D01*
X90681861Y-34871346D01*
X90729234Y-34778371D01*
X90777208Y-34727575D01*
X90845028Y-34710779D01*
X90911164Y-34733316D01*
X90950203Y-34778369D01*
X90997713Y-34871611D01*
X91118028Y-35037213D01*
X91262786Y-35181971D01*
X91414276Y-35292033D01*
X91428390Y-35302287D01*
X91533227Y-35355704D01*
X91610776Y-35395218D01*
X91610778Y-35395218D01*
X91610781Y-35395220D01*
X91695405Y-35422716D01*
X91805465Y-35458477D01*
X91879386Y-35470185D01*
X92007648Y-35490500D01*
X92007649Y-35490500D01*
X92212350Y-35490500D01*
X92212352Y-35490500D01*
X92263131Y-35482457D01*
X92332423Y-35491411D01*
X92385875Y-35536407D01*
X92406515Y-35603158D01*
X92387791Y-35670472D01*
X92370209Y-35692611D01*
X88890286Y-39172535D01*
X88778481Y-39284339D01*
X88778479Y-39284342D01*
X88728361Y-39371151D01*
X88728359Y-39371153D01*
X88699425Y-39421266D01*
X88699424Y-39421267D01*
X88699423Y-39421272D01*
X88658499Y-39574000D01*
X88658499Y-39574002D01*
X88658499Y-39742103D01*
X88658500Y-39742116D01*
X88658500Y-40416330D01*
X88658499Y-40416348D01*
X88658499Y-40582054D01*
X88658498Y-40582054D01*
X88668878Y-40620792D01*
X88691500Y-40705218D01*
X88701527Y-40742636D01*
X88699954Y-40743057D01*
X88706409Y-40803088D01*
X88675135Y-40865567D01*
X88672061Y-40868752D01*
X88578032Y-40962782D01*
X88578028Y-40962786D01*
X88457715Y-41128386D01*
X88364781Y-41310776D01*
X88301522Y-41505465D01*
X88269500Y-41707648D01*
X88269500Y-41912351D01*
X88301522Y-42114534D01*
X88364781Y-42309223D01*
X88428691Y-42434653D01*
X88452787Y-42481943D01*
X88457715Y-42491613D01*
X88578028Y-42657213D01*
X88722786Y-42801971D01*
X88858719Y-42900730D01*
X88888390Y-42922287D01*
X88982707Y-42970344D01*
X89070776Y-43015218D01*
X89070778Y-43015218D01*
X89070781Y-43015220D01*
X89175137Y-43049127D01*
X89265465Y-43078477D01*
X89366557Y-43094488D01*
X89467648Y-43110500D01*
X89467649Y-43110500D01*
X89596500Y-43110500D01*
X89663539Y-43130185D01*
X89709294Y-43182989D01*
X89720500Y-43234500D01*
X89720500Y-44625049D01*
X89700815Y-44692088D01*
X89648011Y-44737843D01*
X89578853Y-44747787D01*
X89558183Y-44742980D01*
X89524425Y-44732011D01*
X89524418Y-44732010D01*
X89322317Y-44700000D01*
X89117683Y-44700000D01*
X88915582Y-44732009D01*
X88720968Y-44795244D01*
X88538644Y-44888143D01*
X88494077Y-44920523D01*
X88494077Y-44920524D01*
X89173553Y-45600000D01*
X89167339Y-45600000D01*
X89065606Y-45627259D01*
X88974394Y-45679920D01*
X88899920Y-45754394D01*
X88847259Y-45845606D01*
X88820000Y-45947339D01*
X88820000Y-45953553D01*
X88140524Y-45274077D01*
X88140523Y-45274077D01*
X88108143Y-45318645D01*
X88108141Y-45318648D01*
X88092021Y-45350286D01*
X88044047Y-45401081D01*
X87976226Y-45417876D01*
X87910091Y-45395338D01*
X87893856Y-45381671D01*
X80124819Y-37612634D01*
X80091334Y-37551311D01*
X80088500Y-37524953D01*
X80088500Y-35732945D01*
X80088500Y-35732943D01*
X80047577Y-35580216D01*
X80022284Y-35536407D01*
X79968524Y-35443290D01*
X79968518Y-35443282D01*
X79856715Y-35331479D01*
X79853463Y-35329602D01*
X79853462Y-35329601D01*
X79719784Y-35252423D01*
X79609285Y-35222815D01*
X79567057Y-35211500D01*
X78986277Y-35211500D01*
X78919238Y-35191815D01*
X78873483Y-35139011D01*
X78863539Y-35069853D01*
X78868346Y-35049182D01*
X78891757Y-34977130D01*
X78891757Y-34977127D01*
X78925000Y-34767246D01*
X78925000Y-34554753D01*
X78891757Y-34344872D01*
X78891757Y-34344869D01*
X78826094Y-34142779D01*
X78826093Y-34142778D01*
X78824226Y-34139112D01*
X78824225Y-34139111D01*
X78729624Y-33953450D01*
X78690270Y-33899282D01*
X78690269Y-33899282D01*
X78057962Y-34531589D01*
X78040925Y-34468007D01*
X77975099Y-34353993D01*
X77882007Y-34260901D01*
X77767993Y-34195075D01*
X77704409Y-34178037D01*
X78336716Y-33545728D01*
X78282547Y-33506373D01*
X78282547Y-33506372D01*
X78273500Y-33501763D01*
X78222706Y-33453788D01*
X78205912Y-33385966D01*
X78228451Y-33319832D01*
X78273508Y-33280793D01*
X78282816Y-33276051D01*
X78407154Y-33185715D01*
X78454786Y-33151109D01*
X78454788Y-33151106D01*
X78454792Y-33151104D01*
X78605104Y-33000792D01*
X78605106Y-33000788D01*
X78605109Y-33000786D01*
X78730048Y-32828820D01*
X78730047Y-32828820D01*
X78730051Y-32828816D01*
X78826557Y-32639412D01*
X78892246Y-32437243D01*
X78925500Y-32227287D01*
X78925500Y-32014713D01*
X78892246Y-31804757D01*
X78826557Y-31602588D01*
X78730051Y-31413184D01*
X78730049Y-31413181D01*
X78730048Y-31413179D01*
X78605109Y-31241213D01*
X78454786Y-31090890D01*
X78282820Y-30965951D01*
X78093414Y-30869444D01*
X78093413Y-30869443D01*
X78093412Y-30869443D01*
X77891243Y-30803754D01*
X77891241Y-30803753D01*
X77891240Y-30803753D01*
X77729957Y-30778208D01*
X77681287Y-30770500D01*
X77468713Y-30770500D01*
X77420042Y-30778208D01*
X77258760Y-30803753D01*
X77056585Y-30869444D01*
X76867179Y-30965951D01*
X76695215Y-31090889D01*
X76581673Y-31204431D01*
X76520350Y-31237915D01*
X76450658Y-31232931D01*
X76394725Y-31191059D01*
X76377810Y-31160082D01*
X76328797Y-31028671D01*
X76328793Y-31028664D01*
X76242547Y-30913455D01*
X76242544Y-30913452D01*
X76127335Y-30827206D01*
X76127328Y-30827202D01*
X75992482Y-30776908D01*
X75992483Y-30776908D01*
X75932883Y-30770501D01*
X75932881Y-30770500D01*
X75932873Y-30770500D01*
X75932864Y-30770500D01*
X74137129Y-30770500D01*
X74137123Y-30770501D01*
X74077516Y-30776908D01*
X73942671Y-30827202D01*
X73942664Y-30827206D01*
X73827455Y-30913452D01*
X73827452Y-30913455D01*
X73741206Y-31028664D01*
X73741202Y-31028671D01*
X73690908Y-31163517D01*
X73684501Y-31223116D01*
X73684500Y-31223135D01*
X73684500Y-33018870D01*
X73684501Y-33018876D01*
X73690908Y-33078483D01*
X73741202Y-33213328D01*
X73741206Y-33213335D01*
X73827452Y-33328544D01*
X73827455Y-33328547D01*
X73942664Y-33414793D01*
X73942671Y-33414797D01*
X73987618Y-33431561D01*
X74077517Y-33465091D01*
X74137127Y-33471500D01*
X74147685Y-33471499D01*
X74214723Y-33491179D01*
X74235372Y-33507818D01*
X74905591Y-34178037D01*
X74842007Y-34195075D01*
X74727993Y-34260901D01*
X74634901Y-34353993D01*
X74569075Y-34468007D01*
X74552037Y-34531591D01*
X73919728Y-33899282D01*
X73919727Y-33899282D01*
X73880380Y-33953439D01*
X73783904Y-34142782D01*
X73718242Y-34344869D01*
X73718242Y-34344872D01*
X73685000Y-34554753D01*
X73685000Y-34767246D01*
X73718242Y-34977127D01*
X73718242Y-34977130D01*
X73783904Y-35179217D01*
X73880375Y-35368550D01*
X73919728Y-35422716D01*
X74552037Y-34790408D01*
X74569075Y-34853993D01*
X74634901Y-34968007D01*
X74727993Y-35061099D01*
X74842007Y-35126925D01*
X74905590Y-35143962D01*
X74273282Y-35776269D01*
X74273282Y-35776270D01*
X74327452Y-35815626D01*
X74327451Y-35815626D01*
X74336495Y-35820234D01*
X74387292Y-35868208D01*
X74404087Y-35936029D01*
X74381550Y-36002164D01*
X74336499Y-36041202D01*
X74327182Y-36045949D01*
X74155213Y-36170890D01*
X74004890Y-36321213D01*
X73879951Y-36493179D01*
X73783444Y-36682585D01*
X73717753Y-36884760D01*
X73684500Y-37094713D01*
X73684500Y-37307286D01*
X73704227Y-37431841D01*
X73717754Y-37517243D01*
X73765524Y-37664264D01*
X73783444Y-37719414D01*
X73879951Y-37908820D01*
X74004890Y-38080786D01*
X74155213Y-38231109D01*
X74327182Y-38356050D01*
X74335946Y-38360516D01*
X74386742Y-38408491D01*
X74403536Y-38476312D01*
X74380998Y-38542447D01*
X74335946Y-38581484D01*
X74327182Y-38585949D01*
X74155213Y-38710890D01*
X74004890Y-38861213D01*
X73879951Y-39033179D01*
X73783444Y-39222585D01*
X73717753Y-39424760D01*
X73686197Y-39624000D01*
X73684500Y-39634713D01*
X73684500Y-39847287D01*
X73688532Y-39872741D01*
X73717753Y-40057239D01*
X73717753Y-40057241D01*
X73717754Y-40057243D01*
X73773392Y-40228479D01*
X73783444Y-40259414D01*
X73879951Y-40448820D01*
X74004890Y-40620786D01*
X74155213Y-40771109D01*
X74327182Y-40896050D01*
X74335946Y-40900516D01*
X74386742Y-40948491D01*
X74403536Y-41016312D01*
X74380998Y-41082447D01*
X74335946Y-41121484D01*
X74327182Y-41125949D01*
X74155213Y-41250890D01*
X74004890Y-41401213D01*
X73879951Y-41573179D01*
X73783444Y-41762585D01*
X73717753Y-41964760D01*
X73684500Y-42174713D01*
X73684500Y-42387286D01*
X73714340Y-42575692D01*
X73717754Y-42597243D01*
X73770652Y-42760047D01*
X73783444Y-42799414D01*
X73879951Y-42988820D01*
X74004890Y-43160786D01*
X74155213Y-43311109D01*
X74327182Y-43436050D01*
X74335946Y-43440516D01*
X74386742Y-43488491D01*
X74403536Y-43556312D01*
X74380998Y-43622447D01*
X74335946Y-43661484D01*
X74327182Y-43665949D01*
X74155213Y-43790890D01*
X74004890Y-43941213D01*
X73879951Y-44113179D01*
X73783444Y-44302585D01*
X73717753Y-44504760D01*
X73684500Y-44714713D01*
X73684500Y-44927286D01*
X73697635Y-45010221D01*
X73717754Y-45137243D01*
X73776696Y-45318648D01*
X73783444Y-45339414D01*
X73879951Y-45528820D01*
X74004890Y-45700786D01*
X74155213Y-45851109D01*
X74327182Y-45976050D01*
X74335946Y-45980516D01*
X74386742Y-46028491D01*
X74403536Y-46096312D01*
X74380998Y-46162447D01*
X74335946Y-46201484D01*
X74327182Y-46205949D01*
X74155213Y-46330890D01*
X74004890Y-46481213D01*
X73879951Y-46653179D01*
X73783444Y-46842585D01*
X73717753Y-47044760D01*
X73684500Y-47254713D01*
X73684500Y-47467287D01*
X73717754Y-47677243D01*
X73757895Y-47800785D01*
X73783444Y-47879414D01*
X73879951Y-48068820D01*
X74004890Y-48240786D01*
X74155213Y-48391109D01*
X74327182Y-48516050D01*
X74335946Y-48520516D01*
X74386742Y-48568491D01*
X74403536Y-48636312D01*
X74380998Y-48702447D01*
X74335946Y-48741484D01*
X74327182Y-48745949D01*
X74155213Y-48870890D01*
X74004890Y-49021213D01*
X73879951Y-49193179D01*
X73783444Y-49382585D01*
X73717753Y-49584760D01*
X73684500Y-49794713D01*
X73684500Y-50007286D01*
X73716736Y-50210819D01*
X73717754Y-50217243D01*
X73767539Y-50370466D01*
X73783444Y-50419414D01*
X73879951Y-50608820D01*
X74004890Y-50780786D01*
X74155213Y-50931109D01*
X74327182Y-51056050D01*
X74335946Y-51060516D01*
X74386742Y-51108491D01*
X74403536Y-51176312D01*
X74380998Y-51242447D01*
X74335946Y-51281484D01*
X74327182Y-51285949D01*
X74155213Y-51410890D01*
X74004890Y-51561213D01*
X73879951Y-51733179D01*
X73783444Y-51922585D01*
X73717753Y-52124760D01*
X73685893Y-52325921D01*
X73684500Y-52334713D01*
X73684500Y-52547287D01*
X73717754Y-52757243D01*
X73776611Y-52938386D01*
X73783444Y-52959414D01*
X73879951Y-53148820D01*
X74004890Y-53320786D01*
X74155213Y-53471109D01*
X74327182Y-53596050D01*
X74335946Y-53600516D01*
X74386742Y-53648491D01*
X74403536Y-53716312D01*
X74380998Y-53782447D01*
X74335946Y-53821484D01*
X74327182Y-53825949D01*
X74155213Y-53950890D01*
X74004890Y-54101213D01*
X73879951Y-54273179D01*
X73783444Y-54462585D01*
X73717753Y-54664760D01*
X73684500Y-54874713D01*
X73684500Y-55087286D01*
X73717753Y-55297239D01*
X73717753Y-55297241D01*
X73717754Y-55297243D01*
X73772431Y-55465522D01*
X73783444Y-55499414D01*
X73879951Y-55688820D01*
X74004890Y-55860786D01*
X74155213Y-56011109D01*
X74327182Y-56136050D01*
X74335946Y-56140516D01*
X74386742Y-56188491D01*
X74403536Y-56256312D01*
X74380998Y-56322447D01*
X74335946Y-56361484D01*
X74327182Y-56365949D01*
X74155213Y-56490890D01*
X74004890Y-56641213D01*
X73879951Y-56813179D01*
X73783444Y-57002585D01*
X73717753Y-57204760D01*
X73684500Y-57414713D01*
X73684500Y-57627286D01*
X73717753Y-57837239D01*
X73717753Y-57837241D01*
X73717754Y-57837243D01*
X73777546Y-58021264D01*
X73783444Y-58039414D01*
X73879951Y-58228820D01*
X74004890Y-58400786D01*
X74155213Y-58551109D01*
X74327182Y-58676050D01*
X74335946Y-58680516D01*
X74386742Y-58728491D01*
X74403536Y-58796312D01*
X74380998Y-58862447D01*
X74335946Y-58901484D01*
X74327182Y-58905949D01*
X74155213Y-59030890D01*
X74004890Y-59181213D01*
X73879951Y-59353179D01*
X73783444Y-59542585D01*
X73717753Y-59744760D01*
X73685434Y-59948815D01*
X73684500Y-59954713D01*
X73684500Y-60167287D01*
X73685403Y-60172989D01*
X73712678Y-60345199D01*
X73717754Y-60377243D01*
X73773399Y-60548501D01*
X73783444Y-60579414D01*
X73879951Y-60768820D01*
X74004890Y-60940786D01*
X74155213Y-61091109D01*
X74327182Y-61216050D01*
X74335946Y-61220516D01*
X74386742Y-61268491D01*
X74403536Y-61336312D01*
X74380998Y-61402447D01*
X74335946Y-61441484D01*
X74327182Y-61445949D01*
X74155213Y-61570890D01*
X74004890Y-61721213D01*
X73879951Y-61893179D01*
X73783444Y-62082585D01*
X73717753Y-62284760D01*
X73684500Y-62494713D01*
X73684500Y-62707286D01*
X73717753Y-62917239D01*
X73783444Y-63119414D01*
X73879951Y-63308820D01*
X74004890Y-63480786D01*
X74023873Y-63499769D01*
X74057358Y-63561092D01*
X74052374Y-63630784D01*
X74023873Y-63675131D01*
X73002481Y-64696522D01*
X73002475Y-64696530D01*
X72960844Y-64768639D01*
X72960844Y-64768640D01*
X72923423Y-64833454D01*
X72923423Y-64833455D01*
X72882499Y-64986183D01*
X72882499Y-64986185D01*
X72882499Y-65154286D01*
X72882500Y-65154299D01*
X72882500Y-75290090D01*
X72882499Y-75290108D01*
X72882499Y-75455814D01*
X72882498Y-75455814D01*
X72882499Y-75455817D01*
X72923423Y-75608545D01*
X72927623Y-75615820D01*
X72937561Y-75633034D01*
X72937562Y-75633035D01*
X73002475Y-75745469D01*
X73002481Y-75745477D01*
X73121349Y-75864345D01*
X73121355Y-75864350D01*
X74311379Y-77054374D01*
X74311389Y-77054385D01*
X74315719Y-77058715D01*
X74315720Y-77058716D01*
X74427524Y-77170520D01*
X74502695Y-77213919D01*
X74514335Y-77220639D01*
X74514337Y-77220641D01*
X74552391Y-77242611D01*
X74564455Y-77249577D01*
X74717183Y-77290501D01*
X74717186Y-77290501D01*
X74786693Y-77290501D01*
X74853732Y-77310186D01*
X74874374Y-77326820D01*
X74905591Y-77358037D01*
X74842007Y-77375075D01*
X74727993Y-77440901D01*
X74634901Y-77533993D01*
X74569075Y-77648007D01*
X74552037Y-77711591D01*
X73919728Y-77079282D01*
X73919727Y-77079282D01*
X73880380Y-77133439D01*
X73783904Y-77322782D01*
X73718242Y-77524869D01*
X73718242Y-77524872D01*
X73685000Y-77734753D01*
X73685000Y-77947246D01*
X73718242Y-78157127D01*
X73718242Y-78157130D01*
X73783904Y-78359217D01*
X73880375Y-78548550D01*
X73919728Y-78602716D01*
X74552037Y-77970408D01*
X74569075Y-78033993D01*
X74634901Y-78148007D01*
X74727993Y-78241099D01*
X74842007Y-78306925D01*
X74905590Y-78323962D01*
X74273282Y-78956269D01*
X74273282Y-78956270D01*
X74327449Y-78995624D01*
X74516782Y-79092095D01*
X74718870Y-79157757D01*
X74928754Y-79191000D01*
X75141246Y-79191000D01*
X75351127Y-79157757D01*
X75351130Y-79157757D01*
X75553217Y-79092095D01*
X75742554Y-78995622D01*
X75796716Y-78956270D01*
X75796717Y-78956270D01*
X75164408Y-78323962D01*
X75227993Y-78306925D01*
X75342007Y-78241099D01*
X75435099Y-78148007D01*
X75500925Y-78033993D01*
X75517962Y-77970408D01*
X76150270Y-78602717D01*
X76150270Y-78602716D01*
X76189622Y-78548555D01*
X76194232Y-78539507D01*
X76242205Y-78488709D01*
X76310025Y-78471912D01*
X76376161Y-78494447D01*
X76415204Y-78539504D01*
X76419949Y-78548817D01*
X76544890Y-78720786D01*
X76695213Y-78871109D01*
X76867179Y-78996048D01*
X76867181Y-78996049D01*
X76867184Y-78996051D01*
X77056588Y-79092557D01*
X77258757Y-79158246D01*
X77468713Y-79191500D01*
X77468714Y-79191500D01*
X77681286Y-79191500D01*
X77681287Y-79191500D01*
X77891243Y-79158246D01*
X78093412Y-79092557D01*
X78282816Y-78996051D01*
X78346887Y-78949501D01*
X78454786Y-78871109D01*
X78454788Y-78871106D01*
X78454792Y-78871104D01*
X78605104Y-78720792D01*
X78605106Y-78720788D01*
X78605109Y-78720786D01*
X78730048Y-78548820D01*
X78730050Y-78548817D01*
X78730051Y-78548816D01*
X78826557Y-78359412D01*
X78892246Y-78157243D01*
X78925500Y-77947287D01*
X78925500Y-77734713D01*
X78892246Y-77524757D01*
X78868870Y-77452816D01*
X78866876Y-77382977D01*
X78902956Y-77323144D01*
X78965657Y-77292316D01*
X78986802Y-77290500D01*
X79962563Y-77290500D01*
X80029602Y-77310185D01*
X80050244Y-77326819D01*
X80739644Y-78016219D01*
X80773129Y-78077542D01*
X80768145Y-78147234D01*
X80726273Y-78203167D01*
X80660809Y-78227584D01*
X80592536Y-78212732D01*
X80583072Y-78207002D01*
X80494185Y-78147609D01*
X80494172Y-78147602D01*
X80348501Y-78087264D01*
X80348489Y-78087261D01*
X80193845Y-78056500D01*
X80193842Y-78056500D01*
X80036158Y-78056500D01*
X80036155Y-78056500D01*
X79881510Y-78087261D01*
X79881498Y-78087264D01*
X79735827Y-78147602D01*
X79735814Y-78147609D01*
X79604711Y-78235210D01*
X79604707Y-78235213D01*
X79493213Y-78346707D01*
X79493210Y-78346711D01*
X79405609Y-78477814D01*
X79405602Y-78477827D01*
X79345264Y-78623498D01*
X79345261Y-78623510D01*
X79314500Y-78778153D01*
X79314500Y-78935846D01*
X79345261Y-79090489D01*
X79345264Y-79090501D01*
X79405602Y-79236172D01*
X79405609Y-79236185D01*
X79493210Y-79367288D01*
X79493213Y-79367292D01*
X79604707Y-79478786D01*
X79604711Y-79478789D01*
X79735814Y-79566390D01*
X79735827Y-79566397D01*
X79881498Y-79626735D01*
X79881503Y-79626737D01*
X79946147Y-79639595D01*
X80036849Y-79657638D01*
X80098760Y-79690023D01*
X80100334Y-79691569D01*
X80508284Y-80099520D01*
X80554683Y-80126308D01*
X80602899Y-80176875D01*
X80616123Y-80245482D01*
X80590155Y-80310347D01*
X80533241Y-80350876D01*
X80493046Y-80357695D01*
X72624362Y-80380637D01*
X72557265Y-80361148D01*
X72511356Y-80308478D01*
X72500000Y-80256638D01*
X72500000Y-30124000D01*
X72519685Y-30056961D01*
X72572489Y-30011206D01*
X72624000Y-30000000D01*
X159493000Y-30000000D01*
X159560039Y-30019685D01*
G37*
%TD.AperFunction*%
%TA.AperFunction,Conductor*%
G36*
X79032439Y-73104148D02*
G01*
X79065409Y-73127745D01*
X79508031Y-73570367D01*
X80088184Y-74150520D01*
X80088186Y-74150521D01*
X80088190Y-74150524D01*
X80220424Y-74226868D01*
X80225116Y-74229577D01*
X80377843Y-74270501D01*
X80377845Y-74270501D01*
X80543554Y-74270501D01*
X80543570Y-74270500D01*
X93458903Y-74270500D01*
X93525942Y-74290185D01*
X93571697Y-74342989D01*
X93581641Y-74412147D01*
X93552616Y-74475703D01*
X93546584Y-74482181D01*
X92497842Y-75530921D01*
X92436519Y-75564406D01*
X92371848Y-75561173D01*
X92357534Y-75556522D01*
X92182995Y-75528878D01*
X92155352Y-75524500D01*
X91950648Y-75524500D01*
X91926329Y-75528351D01*
X91748465Y-75556522D01*
X91553776Y-75619781D01*
X91371386Y-75712715D01*
X91205786Y-75833028D01*
X91061032Y-75977782D01*
X90992616Y-76071949D01*
X90937286Y-76114614D01*
X90867672Y-76120593D01*
X90805877Y-76087987D01*
X90774592Y-76038067D01*
X90747358Y-75955880D01*
X90747356Y-75955875D01*
X90655315Y-75806654D01*
X90531345Y-75682684D01*
X90382124Y-75590643D01*
X90382119Y-75590641D01*
X90215697Y-75535494D01*
X90215690Y-75535493D01*
X90112986Y-75525000D01*
X89763000Y-75525000D01*
X89763000Y-76509314D01*
X89758606Y-76504920D01*
X89667394Y-76452259D01*
X89565661Y-76425000D01*
X89460339Y-76425000D01*
X89358606Y-76452259D01*
X89267394Y-76504920D01*
X89263000Y-76509314D01*
X89263000Y-75525000D01*
X88913028Y-75525000D01*
X88913012Y-75525001D01*
X88810302Y-75535494D01*
X88643880Y-75590641D01*
X88643875Y-75590643D01*
X88494654Y-75682684D01*
X88370684Y-75806654D01*
X88278643Y-75955875D01*
X88278641Y-75955880D01*
X88223494Y-76122302D01*
X88223493Y-76122309D01*
X88213000Y-76225013D01*
X88213000Y-76575000D01*
X89197314Y-76575000D01*
X89192920Y-76579394D01*
X89140259Y-76670606D01*
X89113000Y-76772339D01*
X89113000Y-76877661D01*
X89140259Y-76979394D01*
X89192920Y-77070606D01*
X89197314Y-77075000D01*
X88213001Y-77075000D01*
X88213001Y-77201500D01*
X88193316Y-77268539D01*
X88140512Y-77314294D01*
X88089001Y-77325500D01*
X82365857Y-77325500D01*
X82298818Y-77305815D01*
X82278176Y-77289181D01*
X78690377Y-73701382D01*
X78656892Y-73640059D01*
X78661876Y-73570367D01*
X78677740Y-73540815D01*
X78730051Y-73468816D01*
X78826557Y-73279412D01*
X78859798Y-73177105D01*
X78899234Y-73119433D01*
X78963593Y-73092234D01*
X79032439Y-73104148D01*
G37*
%TD.AperFunction*%
%TA.AperFunction,Conductor*%
G36*
X111973000Y-65447661D02*
G01*
X112000259Y-65549394D01*
X112052920Y-65640606D01*
X112127394Y-65715080D01*
X112218606Y-65767741D01*
X112320339Y-65795000D01*
X112326553Y-65795000D01*
X111634024Y-66487526D01*
X111629902Y-66507149D01*
X111580851Y-66556906D01*
X111520649Y-66572500D01*
X110794047Y-66572500D01*
X110727008Y-66552815D01*
X110681253Y-66500011D01*
X110671309Y-66430853D01*
X110700334Y-66367297D01*
X110706366Y-66360819D01*
X110751000Y-66316185D01*
X110824966Y-66242219D01*
X110824968Y-66242215D01*
X110824971Y-66242213D01*
X110945286Y-66076611D01*
X110945415Y-66076359D01*
X110992795Y-65983369D01*
X111040769Y-65932573D01*
X111108590Y-65915778D01*
X111174725Y-65938315D01*
X111213765Y-65983369D01*
X111261141Y-66076350D01*
X111261147Y-66076359D01*
X111293523Y-66120921D01*
X111293524Y-66120922D01*
X111973000Y-65441446D01*
X111973000Y-65447661D01*
G37*
%TD.AperFunction*%
%TA.AperFunction,Conductor*%
G36*
X122438039Y-50194185D02*
G01*
X122483794Y-50246989D01*
X122495000Y-50298500D01*
X122495000Y-50425000D01*
X123479314Y-50425000D01*
X123474920Y-50429394D01*
X123422259Y-50520606D01*
X123395000Y-50622339D01*
X123395000Y-50727661D01*
X123422259Y-50829394D01*
X123474920Y-50920606D01*
X123479314Y-50925000D01*
X122495000Y-50925000D01*
X122495000Y-51522844D01*
X122501401Y-51582372D01*
X122501403Y-51582379D01*
X122551645Y-51717086D01*
X122551647Y-51717090D01*
X122553966Y-51720187D01*
X122555318Y-51723811D01*
X122555897Y-51724872D01*
X122555744Y-51724955D01*
X122578385Y-51785651D01*
X122563535Y-51853924D01*
X122514130Y-51903331D01*
X122454701Y-51918500D01*
X110720057Y-51918500D01*
X110561943Y-51918500D01*
X110409215Y-51959423D01*
X110409214Y-51959423D01*
X110409212Y-51959424D01*
X110409209Y-51959425D01*
X110359096Y-51988359D01*
X110359095Y-51988360D01*
X110315689Y-52013420D01*
X110272285Y-52038479D01*
X110272282Y-52038481D01*
X110160478Y-52150286D01*
X109984842Y-52325921D01*
X109923519Y-52359406D01*
X109858848Y-52356173D01*
X109844534Y-52351522D01*
X109669995Y-52323878D01*
X109642352Y-52319500D01*
X109437648Y-52319500D01*
X109413329Y-52323351D01*
X109235465Y-52351522D01*
X109040776Y-52414781D01*
X108858386Y-52507715D01*
X108692786Y-52628028D01*
X108548028Y-52772786D01*
X108427715Y-52938386D01*
X108380485Y-53031080D01*
X108332510Y-53081876D01*
X108264689Y-53098671D01*
X108198554Y-53076134D01*
X108159515Y-53031080D01*
X108122998Y-52959412D01*
X108112287Y-52938390D01*
X108086321Y-52902650D01*
X107991971Y-52772786D01*
X107847213Y-52628028D01*
X107681613Y-52507715D01*
X107681612Y-52507714D01*
X107681610Y-52507713D01*
X107601565Y-52466928D01*
X107499223Y-52414781D01*
X107304534Y-52351522D01*
X107129995Y-52323878D01*
X107102352Y-52319500D01*
X106897648Y-52319500D01*
X106873329Y-52323351D01*
X106695465Y-52351522D01*
X106500776Y-52414781D01*
X106318386Y-52507715D01*
X106152786Y-52628028D01*
X106008028Y-52772786D01*
X105887715Y-52938386D01*
X105840485Y-53031080D01*
X105792510Y-53081876D01*
X105724689Y-53098671D01*
X105658554Y-53076134D01*
X105619515Y-53031080D01*
X105582998Y-52959412D01*
X105572287Y-52938390D01*
X105546321Y-52902650D01*
X105451971Y-52772786D01*
X105307213Y-52628028D01*
X105141613Y-52507715D01*
X105141612Y-52507714D01*
X105141610Y-52507713D01*
X105061565Y-52466928D01*
X104959223Y-52414781D01*
X104764534Y-52351522D01*
X104589995Y-52323878D01*
X104562352Y-52319500D01*
X104499096Y-52319500D01*
X104432057Y-52299815D01*
X104386302Y-52247011D01*
X104376358Y-52177853D01*
X104405383Y-52114297D01*
X104411415Y-52107819D01*
X105276788Y-51242447D01*
X106308416Y-50210819D01*
X106369739Y-50177334D01*
X106396097Y-50174500D01*
X122371000Y-50174500D01*
X122438039Y-50194185D01*
G37*
%TD.AperFunction*%
%TA.AperFunction,Conductor*%
G36*
X113155942Y-44425185D02*
G01*
X113176583Y-44441818D01*
X114090284Y-45355520D01*
X114090286Y-45355521D01*
X114090290Y-45355524D01*
X114198289Y-45417876D01*
X114227216Y-45434577D01*
X114379943Y-45475501D01*
X114379945Y-45475501D01*
X114545654Y-45475501D01*
X114545670Y-45475500D01*
X114925501Y-45475500D01*
X114992540Y-45495185D01*
X115038295Y-45547989D01*
X115049501Y-45599500D01*
X115049501Y-45822876D01*
X115055908Y-45882483D01*
X115106202Y-46017328D01*
X115106206Y-46017335D01*
X115192452Y-46132544D01*
X115192455Y-46132547D01*
X115307664Y-46218793D01*
X115307671Y-46218797D01*
X115418995Y-46260318D01*
X115474929Y-46302189D01*
X115499346Y-46367653D01*
X115484495Y-46435926D01*
X115435090Y-46485332D01*
X115375662Y-46500500D01*
X113504000Y-46500500D01*
X113436961Y-46480815D01*
X113391206Y-46428011D01*
X113380000Y-46376500D01*
X113380000Y-46250000D01*
X112395686Y-46250000D01*
X112400080Y-46245606D01*
X112452741Y-46154394D01*
X112480000Y-46052661D01*
X112480000Y-45947339D01*
X112452741Y-45845606D01*
X112400080Y-45754394D01*
X112395686Y-45750000D01*
X113379999Y-45750000D01*
X113379999Y-45400028D01*
X113379998Y-45400013D01*
X113369505Y-45297302D01*
X113314358Y-45130880D01*
X113314356Y-45130875D01*
X113222315Y-44981654D01*
X113098345Y-44857684D01*
X112949124Y-44765643D01*
X112949119Y-44765641D01*
X112782697Y-44710494D01*
X112782690Y-44710493D01*
X112679986Y-44700000D01*
X112330000Y-44700000D01*
X112330000Y-45684314D01*
X112325606Y-45679920D01*
X112234394Y-45627259D01*
X112132661Y-45600000D01*
X112027339Y-45600000D01*
X111925606Y-45627259D01*
X111834394Y-45679920D01*
X111830000Y-45684314D01*
X111830000Y-44685618D01*
X111813814Y-44655976D01*
X111818798Y-44586284D01*
X111847297Y-44541938D01*
X111947418Y-44441818D01*
X112008742Y-44408334D01*
X112035099Y-44405500D01*
X113088903Y-44405500D01*
X113155942Y-44425185D01*
G37*
%TD.AperFunction*%
%TA.AperFunction,Conductor*%
G36*
X76150270Y-35422717D02*
G01*
X76150270Y-35422716D01*
X76189622Y-35368554D01*
X76194514Y-35358954D01*
X76197583Y-35355704D01*
X76198713Y-35351379D01*
X76221353Y-35330534D01*
X76242488Y-35308157D01*
X76246827Y-35307082D01*
X76250116Y-35304055D01*
X76280435Y-35298759D01*
X76310308Y-35291361D01*
X76314538Y-35292802D01*
X76318943Y-35292033D01*
X76347311Y-35303969D01*
X76376444Y-35313897D01*
X76380382Y-35317885D01*
X76383344Y-35319132D01*
X76391096Y-35328736D01*
X76407250Y-35345097D01*
X76474549Y-35443191D01*
X76484897Y-35474872D01*
X76496097Y-35506261D01*
X76495703Y-35507954D01*
X76496243Y-35509607D01*
X76487822Y-35541849D01*
X76480272Y-35574315D01*
X76478854Y-35576180D01*
X76478586Y-35577209D01*
X76476879Y-35578780D01*
X76459980Y-35601022D01*
X76135595Y-35925409D01*
X76055286Y-36005718D01*
X76055284Y-36005720D01*
X76015059Y-36045945D01*
X75975382Y-36085622D01*
X75914058Y-36119106D01*
X75844367Y-36114121D01*
X75814817Y-36098259D01*
X75742816Y-36045949D01*
X75742810Y-36045945D01*
X75733504Y-36041204D01*
X75682707Y-35993230D01*
X75665912Y-35925409D01*
X75688449Y-35859274D01*
X75733507Y-35820232D01*
X75742555Y-35815622D01*
X75796716Y-35776270D01*
X75796717Y-35776270D01*
X75164408Y-35143962D01*
X75227993Y-35126925D01*
X75342007Y-35061099D01*
X75435099Y-34968007D01*
X75500925Y-34853993D01*
X75517962Y-34790408D01*
X76150270Y-35422717D01*
G37*
%TD.AperFunction*%
%TA.AperFunction,Conductor*%
G36*
X115272539Y-33419185D02*
G01*
X115318294Y-33471989D01*
X115329500Y-33523500D01*
X115329500Y-34947870D01*
X115329501Y-34947876D01*
X115335908Y-35007483D01*
X115386203Y-35142330D01*
X115388792Y-35147071D01*
X115403645Y-35215344D01*
X115379229Y-35280809D01*
X115323297Y-35322681D01*
X115279961Y-35330500D01*
X113719145Y-35330500D01*
X113652106Y-35310815D01*
X113606351Y-35258011D01*
X113596407Y-35188853D01*
X113613606Y-35141403D01*
X113664356Y-35059124D01*
X113664358Y-35059119D01*
X113719505Y-34892697D01*
X113719506Y-34892690D01*
X113729999Y-34789986D01*
X113730000Y-34789973D01*
X113730000Y-34440000D01*
X112745686Y-34440000D01*
X112750080Y-34435606D01*
X112802741Y-34344394D01*
X112830000Y-34242661D01*
X112830000Y-34137339D01*
X112802741Y-34035606D01*
X112750080Y-33944394D01*
X112745686Y-33940000D01*
X113729999Y-33940000D01*
X113729999Y-33590028D01*
X113729998Y-33590011D01*
X113724491Y-33536101D01*
X113737261Y-33467409D01*
X113785142Y-33416524D01*
X113847849Y-33399500D01*
X115205500Y-33399500D01*
X115272539Y-33419185D01*
G37*
%TD.AperFunction*%
%TA.AperFunction,Conductor*%
G36*
X76553418Y-33016417D02*
G01*
X76581673Y-33037569D01*
X76695213Y-33151109D01*
X76867179Y-33276048D01*
X76867181Y-33276049D01*
X76867184Y-33276051D01*
X76876493Y-33280794D01*
X76927290Y-33328766D01*
X76944087Y-33396587D01*
X76921552Y-33462722D01*
X76876505Y-33501760D01*
X76867446Y-33506376D01*
X76867440Y-33506380D01*
X76813282Y-33545727D01*
X76813282Y-33545728D01*
X77445591Y-34178037D01*
X77382007Y-34195075D01*
X77267993Y-34260901D01*
X77174901Y-34353993D01*
X77109075Y-34468007D01*
X77092037Y-34531591D01*
X76459728Y-33899282D01*
X76459727Y-33899282D01*
X76420380Y-33953440D01*
X76415483Y-33963051D01*
X76367506Y-34013845D01*
X76299684Y-34030638D01*
X76233550Y-34008098D01*
X76194516Y-33963048D01*
X76189626Y-33953452D01*
X76150270Y-33899282D01*
X76150269Y-33899282D01*
X75517962Y-34531590D01*
X75500925Y-34468007D01*
X75435099Y-34353993D01*
X75342007Y-34260901D01*
X75227993Y-34195075D01*
X75164409Y-34178037D01*
X75834627Y-33507818D01*
X75895950Y-33474333D01*
X75922307Y-33471499D01*
X75932872Y-33471499D01*
X75992483Y-33465091D01*
X76127331Y-33414796D01*
X76242546Y-33328546D01*
X76328796Y-33213331D01*
X76377810Y-33081916D01*
X76419681Y-33025984D01*
X76485145Y-33001566D01*
X76553418Y-33016417D01*
G37*
%TD.AperFunction*%
%TD*%
M02*
