%TF.GenerationSoftware,KiCad,Pcbnew,9.0.2*%
%TF.CreationDate,2025-06-11T12:23:04+01:00*%
%TF.ProjectId,SoundCard,536f756e-6443-4617-9264-2e6b69636164,rev?*%
%TF.SameCoordinates,Original*%
%TF.FileFunction,Legend,Top*%
%TF.FilePolarity,Positive*%
%FSLAX46Y46*%
G04 Gerber Fmt 4.6, Leading zero omitted, Abs format (unit mm)*
G04 Created by KiCad (PCBNEW 9.0.2) date 2025-06-11 12:23:04*
%MOMM*%
%LPD*%
G01*
G04 APERTURE LIST*
%ADD10C,0.150000*%
%ADD11C,0.129000*%
%ADD12C,0.120000*%
%ADD13C,0.100000*%
G04 APERTURE END LIST*
D10*
X177645219Y-99734476D02*
X177645219Y-100210666D01*
X177645219Y-100210666D02*
X176645219Y-100210666D01*
X177645219Y-99401142D02*
X176645219Y-99401142D01*
X176645219Y-99401142D02*
X177359504Y-99067809D01*
X177359504Y-99067809D02*
X176645219Y-98734476D01*
X176645219Y-98734476D02*
X177645219Y-98734476D01*
X176645219Y-98353523D02*
X176645219Y-97734476D01*
X176645219Y-97734476D02*
X177026171Y-98067809D01*
X177026171Y-98067809D02*
X177026171Y-97924952D01*
X177026171Y-97924952D02*
X177073790Y-97829714D01*
X177073790Y-97829714D02*
X177121409Y-97782095D01*
X177121409Y-97782095D02*
X177216647Y-97734476D01*
X177216647Y-97734476D02*
X177454742Y-97734476D01*
X177454742Y-97734476D02*
X177549980Y-97782095D01*
X177549980Y-97782095D02*
X177597600Y-97829714D01*
X177597600Y-97829714D02*
X177645219Y-97924952D01*
X177645219Y-97924952D02*
X177645219Y-98210666D01*
X177645219Y-98210666D02*
X177597600Y-98305904D01*
X177597600Y-98305904D02*
X177549980Y-98353523D01*
X177073790Y-97163047D02*
X177026171Y-97258285D01*
X177026171Y-97258285D02*
X176978552Y-97305904D01*
X176978552Y-97305904D02*
X176883314Y-97353523D01*
X176883314Y-97353523D02*
X176835695Y-97353523D01*
X176835695Y-97353523D02*
X176740457Y-97305904D01*
X176740457Y-97305904D02*
X176692838Y-97258285D01*
X176692838Y-97258285D02*
X176645219Y-97163047D01*
X176645219Y-97163047D02*
X176645219Y-96972571D01*
X176645219Y-96972571D02*
X176692838Y-96877333D01*
X176692838Y-96877333D02*
X176740457Y-96829714D01*
X176740457Y-96829714D02*
X176835695Y-96782095D01*
X176835695Y-96782095D02*
X176883314Y-96782095D01*
X176883314Y-96782095D02*
X176978552Y-96829714D01*
X176978552Y-96829714D02*
X177026171Y-96877333D01*
X177026171Y-96877333D02*
X177073790Y-96972571D01*
X177073790Y-96972571D02*
X177073790Y-97163047D01*
X177073790Y-97163047D02*
X177121409Y-97258285D01*
X177121409Y-97258285D02*
X177169028Y-97305904D01*
X177169028Y-97305904D02*
X177264266Y-97353523D01*
X177264266Y-97353523D02*
X177454742Y-97353523D01*
X177454742Y-97353523D02*
X177549980Y-97305904D01*
X177549980Y-97305904D02*
X177597600Y-97258285D01*
X177597600Y-97258285D02*
X177645219Y-97163047D01*
X177645219Y-97163047D02*
X177645219Y-96972571D01*
X177645219Y-96972571D02*
X177597600Y-96877333D01*
X177597600Y-96877333D02*
X177549980Y-96829714D01*
X177549980Y-96829714D02*
X177454742Y-96782095D01*
X177454742Y-96782095D02*
X177264266Y-96782095D01*
X177264266Y-96782095D02*
X177169028Y-96829714D01*
X177169028Y-96829714D02*
X177121409Y-96877333D01*
X177121409Y-96877333D02*
X177073790Y-96972571D01*
X176645219Y-95924952D02*
X176645219Y-96115428D01*
X176645219Y-96115428D02*
X176692838Y-96210666D01*
X176692838Y-96210666D02*
X176740457Y-96258285D01*
X176740457Y-96258285D02*
X176883314Y-96353523D01*
X176883314Y-96353523D02*
X177073790Y-96401142D01*
X177073790Y-96401142D02*
X177454742Y-96401142D01*
X177454742Y-96401142D02*
X177549980Y-96353523D01*
X177549980Y-96353523D02*
X177597600Y-96305904D01*
X177597600Y-96305904D02*
X177645219Y-96210666D01*
X177645219Y-96210666D02*
X177645219Y-96020190D01*
X177645219Y-96020190D02*
X177597600Y-95924952D01*
X177597600Y-95924952D02*
X177549980Y-95877333D01*
X177549980Y-95877333D02*
X177454742Y-95829714D01*
X177454742Y-95829714D02*
X177216647Y-95829714D01*
X177216647Y-95829714D02*
X177121409Y-95877333D01*
X177121409Y-95877333D02*
X177073790Y-95924952D01*
X177073790Y-95924952D02*
X177026171Y-96020190D01*
X177026171Y-96020190D02*
X177026171Y-96210666D01*
X177026171Y-96210666D02*
X177073790Y-96305904D01*
X177073790Y-96305904D02*
X177121409Y-96353523D01*
X177121409Y-96353523D02*
X177216647Y-96401142D01*
X178765295Y-97503819D02*
X178765295Y-98313342D01*
X178765295Y-98313342D02*
X178812914Y-98408580D01*
X178812914Y-98408580D02*
X178860533Y-98456200D01*
X178860533Y-98456200D02*
X178955771Y-98503819D01*
X178955771Y-98503819D02*
X179146247Y-98503819D01*
X179146247Y-98503819D02*
X179241485Y-98456200D01*
X179241485Y-98456200D02*
X179289104Y-98408580D01*
X179289104Y-98408580D02*
X179336723Y-98313342D01*
X179336723Y-98313342D02*
X179336723Y-97503819D01*
X179717676Y-97503819D02*
X180336723Y-97503819D01*
X180336723Y-97503819D02*
X180003390Y-97884771D01*
X180003390Y-97884771D02*
X180146247Y-97884771D01*
X180146247Y-97884771D02*
X180241485Y-97932390D01*
X180241485Y-97932390D02*
X180289104Y-97980009D01*
X180289104Y-97980009D02*
X180336723Y-98075247D01*
X180336723Y-98075247D02*
X180336723Y-98313342D01*
X180336723Y-98313342D02*
X180289104Y-98408580D01*
X180289104Y-98408580D02*
X180241485Y-98456200D01*
X180241485Y-98456200D02*
X180146247Y-98503819D01*
X180146247Y-98503819D02*
X179860533Y-98503819D01*
X179860533Y-98503819D02*
X179765295Y-98456200D01*
X179765295Y-98456200D02*
X179717676Y-98408580D01*
X169703904Y-78934552D02*
X169703904Y-79601219D01*
X169465809Y-78553600D02*
X169227714Y-79267885D01*
X169227714Y-79267885D02*
X169846761Y-79267885D01*
X170227714Y-79601219D02*
X170227714Y-78601219D01*
X170227714Y-78601219D02*
X170561047Y-79315504D01*
X170561047Y-79315504D02*
X170894380Y-78601219D01*
X170894380Y-78601219D02*
X170894380Y-79601219D01*
X171370571Y-79601219D02*
X171370571Y-78601219D01*
X171799142Y-79601219D02*
X171799142Y-79077409D01*
X171799142Y-79077409D02*
X171751523Y-78982171D01*
X171751523Y-78982171D02*
X171656285Y-78934552D01*
X171656285Y-78934552D02*
X171513428Y-78934552D01*
X171513428Y-78934552D02*
X171418190Y-78982171D01*
X171418190Y-78982171D02*
X171370571Y-79029790D01*
X172180095Y-78934552D02*
X172703904Y-78934552D01*
X172703904Y-78934552D02*
X172180095Y-79601219D01*
X172180095Y-79601219D02*
X172703904Y-79601219D01*
X170313409Y-81360228D02*
X170313409Y-81836419D01*
X169980076Y-80836419D02*
X170313409Y-81360228D01*
X170313409Y-81360228D02*
X170646742Y-80836419D01*
X171503885Y-81836419D02*
X170932457Y-81836419D01*
X171218171Y-81836419D02*
X171218171Y-80836419D01*
X171218171Y-80836419D02*
X171122933Y-80979276D01*
X171122933Y-80979276D02*
X171027695Y-81074514D01*
X171027695Y-81074514D02*
X170932457Y-81122133D01*
X186218628Y-98498819D02*
X185647200Y-98498819D01*
X185932914Y-98498819D02*
X185932914Y-97498819D01*
X185932914Y-97498819D02*
X185837676Y-97641676D01*
X185837676Y-97641676D02*
X185742438Y-97736914D01*
X185742438Y-97736914D02*
X185647200Y-97784533D01*
X186837676Y-97498819D02*
X186932914Y-97498819D01*
X186932914Y-97498819D02*
X187028152Y-97546438D01*
X187028152Y-97546438D02*
X187075771Y-97594057D01*
X187075771Y-97594057D02*
X187123390Y-97689295D01*
X187123390Y-97689295D02*
X187171009Y-97879771D01*
X187171009Y-97879771D02*
X187171009Y-98117866D01*
X187171009Y-98117866D02*
X187123390Y-98308342D01*
X187123390Y-98308342D02*
X187075771Y-98403580D01*
X187075771Y-98403580D02*
X187028152Y-98451200D01*
X187028152Y-98451200D02*
X186932914Y-98498819D01*
X186932914Y-98498819D02*
X186837676Y-98498819D01*
X186837676Y-98498819D02*
X186742438Y-98451200D01*
X186742438Y-98451200D02*
X186694819Y-98403580D01*
X186694819Y-98403580D02*
X186647200Y-98308342D01*
X186647200Y-98308342D02*
X186599581Y-98117866D01*
X186599581Y-98117866D02*
X186599581Y-97879771D01*
X186599581Y-97879771D02*
X186647200Y-97689295D01*
X186647200Y-97689295D02*
X186694819Y-97594057D01*
X186694819Y-97594057D02*
X186742438Y-97546438D01*
X186742438Y-97546438D02*
X186837676Y-97498819D01*
X188028152Y-97832152D02*
X188028152Y-98498819D01*
X187599581Y-97832152D02*
X187599581Y-98355961D01*
X187599581Y-98355961D02*
X187647200Y-98451200D01*
X187647200Y-98451200D02*
X187742438Y-98498819D01*
X187742438Y-98498819D02*
X187885295Y-98498819D01*
X187885295Y-98498819D02*
X187980533Y-98451200D01*
X187980533Y-98451200D02*
X188028152Y-98403580D01*
X188361486Y-97832152D02*
X188742438Y-97832152D01*
X188504343Y-98498819D02*
X188504343Y-97641676D01*
X188504343Y-97641676D02*
X188551962Y-97546438D01*
X188551962Y-97546438D02*
X188647200Y-97498819D01*
X188647200Y-97498819D02*
X188742438Y-97498819D01*
X167745580Y-98312266D02*
X167793200Y-98359885D01*
X167793200Y-98359885D02*
X167840819Y-98502742D01*
X167840819Y-98502742D02*
X167840819Y-98597980D01*
X167840819Y-98597980D02*
X167793200Y-98740837D01*
X167793200Y-98740837D02*
X167697961Y-98836075D01*
X167697961Y-98836075D02*
X167602723Y-98883694D01*
X167602723Y-98883694D02*
X167412247Y-98931313D01*
X167412247Y-98931313D02*
X167269390Y-98931313D01*
X167269390Y-98931313D02*
X167078914Y-98883694D01*
X167078914Y-98883694D02*
X166983676Y-98836075D01*
X166983676Y-98836075D02*
X166888438Y-98740837D01*
X166888438Y-98740837D02*
X166840819Y-98597980D01*
X166840819Y-98597980D02*
X166840819Y-98502742D01*
X166840819Y-98502742D02*
X166888438Y-98359885D01*
X166888438Y-98359885D02*
X166936057Y-98312266D01*
X166936057Y-97931313D02*
X166888438Y-97883694D01*
X166888438Y-97883694D02*
X166840819Y-97788456D01*
X166840819Y-97788456D02*
X166840819Y-97550361D01*
X166840819Y-97550361D02*
X166888438Y-97455123D01*
X166888438Y-97455123D02*
X166936057Y-97407504D01*
X166936057Y-97407504D02*
X167031295Y-97359885D01*
X167031295Y-97359885D02*
X167126533Y-97359885D01*
X167126533Y-97359885D02*
X167269390Y-97407504D01*
X167269390Y-97407504D02*
X167840819Y-97978932D01*
X167840819Y-97978932D02*
X167840819Y-97359885D01*
X170175723Y-68052419D02*
X169604295Y-68052419D01*
X169890009Y-68052419D02*
X169890009Y-67052419D01*
X169890009Y-67052419D02*
X169794771Y-67195276D01*
X169794771Y-67195276D02*
X169699533Y-67290514D01*
X169699533Y-67290514D02*
X169604295Y-67338133D01*
X170794771Y-67052419D02*
X170890009Y-67052419D01*
X170890009Y-67052419D02*
X170985247Y-67100038D01*
X170985247Y-67100038D02*
X171032866Y-67147657D01*
X171032866Y-67147657D02*
X171080485Y-67242895D01*
X171080485Y-67242895D02*
X171128104Y-67433371D01*
X171128104Y-67433371D02*
X171128104Y-67671466D01*
X171128104Y-67671466D02*
X171080485Y-67861942D01*
X171080485Y-67861942D02*
X171032866Y-67957180D01*
X171032866Y-67957180D02*
X170985247Y-68004800D01*
X170985247Y-68004800D02*
X170890009Y-68052419D01*
X170890009Y-68052419D02*
X170794771Y-68052419D01*
X170794771Y-68052419D02*
X170699533Y-68004800D01*
X170699533Y-68004800D02*
X170651914Y-67957180D01*
X170651914Y-67957180D02*
X170604295Y-67861942D01*
X170604295Y-67861942D02*
X170556676Y-67671466D01*
X170556676Y-67671466D02*
X170556676Y-67433371D01*
X170556676Y-67433371D02*
X170604295Y-67242895D01*
X170604295Y-67242895D02*
X170651914Y-67147657D01*
X170651914Y-67147657D02*
X170699533Y-67100038D01*
X170699533Y-67100038D02*
X170794771Y-67052419D01*
X183170533Y-84798380D02*
X183122914Y-84846000D01*
X183122914Y-84846000D02*
X182980057Y-84893619D01*
X182980057Y-84893619D02*
X182884819Y-84893619D01*
X182884819Y-84893619D02*
X182741962Y-84846000D01*
X182741962Y-84846000D02*
X182646724Y-84750761D01*
X182646724Y-84750761D02*
X182599105Y-84655523D01*
X182599105Y-84655523D02*
X182551486Y-84465047D01*
X182551486Y-84465047D02*
X182551486Y-84322190D01*
X182551486Y-84322190D02*
X182599105Y-84131714D01*
X182599105Y-84131714D02*
X182646724Y-84036476D01*
X182646724Y-84036476D02*
X182741962Y-83941238D01*
X182741962Y-83941238D02*
X182884819Y-83893619D01*
X182884819Y-83893619D02*
X182980057Y-83893619D01*
X182980057Y-83893619D02*
X183122914Y-83941238D01*
X183122914Y-83941238D02*
X183170533Y-83988857D01*
X184122914Y-84893619D02*
X183551486Y-84893619D01*
X183837200Y-84893619D02*
X183837200Y-83893619D01*
X183837200Y-83893619D02*
X183741962Y-84036476D01*
X183741962Y-84036476D02*
X183646724Y-84131714D01*
X183646724Y-84131714D02*
X183551486Y-84179333D01*
X183646723Y-92298380D02*
X183599104Y-92346000D01*
X183599104Y-92346000D02*
X183456247Y-92393619D01*
X183456247Y-92393619D02*
X183361009Y-92393619D01*
X183361009Y-92393619D02*
X183218152Y-92346000D01*
X183218152Y-92346000D02*
X183122914Y-92250761D01*
X183122914Y-92250761D02*
X183075295Y-92155523D01*
X183075295Y-92155523D02*
X183027676Y-91965047D01*
X183027676Y-91965047D02*
X183027676Y-91822190D01*
X183027676Y-91822190D02*
X183075295Y-91631714D01*
X183075295Y-91631714D02*
X183122914Y-91536476D01*
X183122914Y-91536476D02*
X183218152Y-91441238D01*
X183218152Y-91441238D02*
X183361009Y-91393619D01*
X183361009Y-91393619D02*
X183456247Y-91393619D01*
X183456247Y-91393619D02*
X183599104Y-91441238D01*
X183599104Y-91441238D02*
X183646723Y-91488857D01*
X183170533Y-88548380D02*
X183122914Y-88596000D01*
X183122914Y-88596000D02*
X182980057Y-88643619D01*
X182980057Y-88643619D02*
X182884819Y-88643619D01*
X182884819Y-88643619D02*
X182741962Y-88596000D01*
X182741962Y-88596000D02*
X182646724Y-88500761D01*
X182646724Y-88500761D02*
X182599105Y-88405523D01*
X182599105Y-88405523D02*
X182551486Y-88215047D01*
X182551486Y-88215047D02*
X182551486Y-88072190D01*
X182551486Y-88072190D02*
X182599105Y-87881714D01*
X182599105Y-87881714D02*
X182646724Y-87786476D01*
X182646724Y-87786476D02*
X182741962Y-87691238D01*
X182741962Y-87691238D02*
X182884819Y-87643619D01*
X182884819Y-87643619D02*
X182980057Y-87643619D01*
X182980057Y-87643619D02*
X183122914Y-87691238D01*
X183122914Y-87691238D02*
X183170533Y-87738857D01*
X184122914Y-88643619D02*
X183551486Y-88643619D01*
X183837200Y-88643619D02*
X183837200Y-87643619D01*
X183837200Y-87643619D02*
X183741962Y-87786476D01*
X183741962Y-87786476D02*
X183646724Y-87881714D01*
X183646724Y-87881714D02*
X183551486Y-87929333D01*
X156420019Y-98958304D02*
X157229542Y-98958304D01*
X157229542Y-98958304D02*
X157324780Y-98910685D01*
X157324780Y-98910685D02*
X157372400Y-98863066D01*
X157372400Y-98863066D02*
X157420019Y-98767828D01*
X157420019Y-98767828D02*
X157420019Y-98577352D01*
X157420019Y-98577352D02*
X157372400Y-98482114D01*
X157372400Y-98482114D02*
X157324780Y-98434495D01*
X157324780Y-98434495D02*
X157229542Y-98386876D01*
X157229542Y-98386876D02*
X156420019Y-98386876D01*
X156515257Y-97958304D02*
X156467638Y-97910685D01*
X156467638Y-97910685D02*
X156420019Y-97815447D01*
X156420019Y-97815447D02*
X156420019Y-97577352D01*
X156420019Y-97577352D02*
X156467638Y-97482114D01*
X156467638Y-97482114D02*
X156515257Y-97434495D01*
X156515257Y-97434495D02*
X156610495Y-97386876D01*
X156610495Y-97386876D02*
X156705733Y-97386876D01*
X156705733Y-97386876D02*
X156848590Y-97434495D01*
X156848590Y-97434495D02*
X157420019Y-98005923D01*
X157420019Y-98005923D02*
X157420019Y-97386876D01*
X144372343Y-97646219D02*
X145039009Y-97646219D01*
X145039009Y-97646219D02*
X144610438Y-98646219D01*
X145848533Y-97979552D02*
X145848533Y-98646219D01*
X145610438Y-97598600D02*
X145372343Y-98312885D01*
X145372343Y-98312885D02*
X145991390Y-98312885D01*
X146848533Y-98646219D02*
X146372343Y-98646219D01*
X146372343Y-98646219D02*
X146372343Y-97646219D01*
X147134248Y-98598600D02*
X147277105Y-98646219D01*
X147277105Y-98646219D02*
X147515200Y-98646219D01*
X147515200Y-98646219D02*
X147610438Y-98598600D01*
X147610438Y-98598600D02*
X147658057Y-98550980D01*
X147658057Y-98550980D02*
X147705676Y-98455742D01*
X147705676Y-98455742D02*
X147705676Y-98360504D01*
X147705676Y-98360504D02*
X147658057Y-98265266D01*
X147658057Y-98265266D02*
X147610438Y-98217647D01*
X147610438Y-98217647D02*
X147515200Y-98170028D01*
X147515200Y-98170028D02*
X147324724Y-98122409D01*
X147324724Y-98122409D02*
X147229486Y-98074790D01*
X147229486Y-98074790D02*
X147181867Y-98027171D01*
X147181867Y-98027171D02*
X147134248Y-97931933D01*
X147134248Y-97931933D02*
X147134248Y-97836695D01*
X147134248Y-97836695D02*
X147181867Y-97741457D01*
X147181867Y-97741457D02*
X147229486Y-97693838D01*
X147229486Y-97693838D02*
X147324724Y-97646219D01*
X147324724Y-97646219D02*
X147562819Y-97646219D01*
X147562819Y-97646219D02*
X147705676Y-97693838D01*
X148658057Y-98646219D02*
X148086629Y-98646219D01*
X148372343Y-98646219D02*
X148372343Y-97646219D01*
X148372343Y-97646219D02*
X148277105Y-97789076D01*
X148277105Y-97789076D02*
X148181867Y-97884314D01*
X148181867Y-97884314D02*
X148086629Y-97931933D01*
X149610438Y-98646219D02*
X149039010Y-98646219D01*
X149324724Y-98646219D02*
X149324724Y-97646219D01*
X149324724Y-97646219D02*
X149229486Y-97789076D01*
X149229486Y-97789076D02*
X149134248Y-97884314D01*
X149134248Y-97884314D02*
X149039010Y-97931933D01*
X154579495Y-88297219D02*
X154579495Y-89106742D01*
X154579495Y-89106742D02*
X154627114Y-89201980D01*
X154627114Y-89201980D02*
X154674733Y-89249600D01*
X154674733Y-89249600D02*
X154769971Y-89297219D01*
X154769971Y-89297219D02*
X154960447Y-89297219D01*
X154960447Y-89297219D02*
X155055685Y-89249600D01*
X155055685Y-89249600D02*
X155103304Y-89201980D01*
X155103304Y-89201980D02*
X155150923Y-89106742D01*
X155150923Y-89106742D02*
X155150923Y-88297219D01*
X156055685Y-88630552D02*
X156055685Y-89297219D01*
X155817590Y-88249600D02*
X155579495Y-88963885D01*
X155579495Y-88963885D02*
X156198542Y-88963885D01*
X154801219Y-81535256D02*
X154801219Y-80868590D01*
X154801219Y-80868590D02*
X155801219Y-81297161D01*
X155134552Y-80059066D02*
X155801219Y-80059066D01*
X154753600Y-80297161D02*
X155467885Y-80535256D01*
X155467885Y-80535256D02*
X155467885Y-79916209D01*
X155801219Y-79059066D02*
X155801219Y-79535256D01*
X155801219Y-79535256D02*
X154801219Y-79535256D01*
X155753600Y-78773351D02*
X155801219Y-78630494D01*
X155801219Y-78630494D02*
X155801219Y-78392399D01*
X155801219Y-78392399D02*
X155753600Y-78297161D01*
X155753600Y-78297161D02*
X155705980Y-78249542D01*
X155705980Y-78249542D02*
X155610742Y-78201923D01*
X155610742Y-78201923D02*
X155515504Y-78201923D01*
X155515504Y-78201923D02*
X155420266Y-78249542D01*
X155420266Y-78249542D02*
X155372647Y-78297161D01*
X155372647Y-78297161D02*
X155325028Y-78392399D01*
X155325028Y-78392399D02*
X155277409Y-78582875D01*
X155277409Y-78582875D02*
X155229790Y-78678113D01*
X155229790Y-78678113D02*
X155182171Y-78725732D01*
X155182171Y-78725732D02*
X155086933Y-78773351D01*
X155086933Y-78773351D02*
X154991695Y-78773351D01*
X154991695Y-78773351D02*
X154896457Y-78725732D01*
X154896457Y-78725732D02*
X154848838Y-78678113D01*
X154848838Y-78678113D02*
X154801219Y-78582875D01*
X154801219Y-78582875D02*
X154801219Y-78344780D01*
X154801219Y-78344780D02*
X154848838Y-78201923D01*
X154801219Y-77582875D02*
X154801219Y-77487637D01*
X154801219Y-77487637D02*
X154848838Y-77392399D01*
X154848838Y-77392399D02*
X154896457Y-77344780D01*
X154896457Y-77344780D02*
X154991695Y-77297161D01*
X154991695Y-77297161D02*
X155182171Y-77249542D01*
X155182171Y-77249542D02*
X155420266Y-77249542D01*
X155420266Y-77249542D02*
X155610742Y-77297161D01*
X155610742Y-77297161D02*
X155705980Y-77344780D01*
X155705980Y-77344780D02*
X155753600Y-77392399D01*
X155753600Y-77392399D02*
X155801219Y-77487637D01*
X155801219Y-77487637D02*
X155801219Y-77582875D01*
X155801219Y-77582875D02*
X155753600Y-77678113D01*
X155753600Y-77678113D02*
X155705980Y-77725732D01*
X155705980Y-77725732D02*
X155610742Y-77773351D01*
X155610742Y-77773351D02*
X155420266Y-77820970D01*
X155420266Y-77820970D02*
X155182171Y-77820970D01*
X155182171Y-77820970D02*
X154991695Y-77773351D01*
X154991695Y-77773351D02*
X154896457Y-77725732D01*
X154896457Y-77725732D02*
X154848838Y-77678113D01*
X154848838Y-77678113D02*
X154801219Y-77582875D01*
X154801219Y-76344780D02*
X154801219Y-76820970D01*
X154801219Y-76820970D02*
X155277409Y-76868589D01*
X155277409Y-76868589D02*
X155229790Y-76820970D01*
X155229790Y-76820970D02*
X155182171Y-76725732D01*
X155182171Y-76725732D02*
X155182171Y-76487637D01*
X155182171Y-76487637D02*
X155229790Y-76392399D01*
X155229790Y-76392399D02*
X155277409Y-76344780D01*
X155277409Y-76344780D02*
X155372647Y-76297161D01*
X155372647Y-76297161D02*
X155610742Y-76297161D01*
X155610742Y-76297161D02*
X155705980Y-76344780D01*
X155705980Y-76344780D02*
X155753600Y-76392399D01*
X155753600Y-76392399D02*
X155801219Y-76487637D01*
X155801219Y-76487637D02*
X155801219Y-76725732D01*
X155801219Y-76725732D02*
X155753600Y-76820970D01*
X155753600Y-76820970D02*
X155705980Y-76868589D01*
X141986800Y-82628856D02*
X142034419Y-82485999D01*
X142034419Y-82485999D02*
X142034419Y-82247904D01*
X142034419Y-82247904D02*
X141986800Y-82152666D01*
X141986800Y-82152666D02*
X141939180Y-82105047D01*
X141939180Y-82105047D02*
X141843942Y-82057428D01*
X141843942Y-82057428D02*
X141748704Y-82057428D01*
X141748704Y-82057428D02*
X141653466Y-82105047D01*
X141653466Y-82105047D02*
X141605847Y-82152666D01*
X141605847Y-82152666D02*
X141558228Y-82247904D01*
X141558228Y-82247904D02*
X141510609Y-82438380D01*
X141510609Y-82438380D02*
X141462990Y-82533618D01*
X141462990Y-82533618D02*
X141415371Y-82581237D01*
X141415371Y-82581237D02*
X141320133Y-82628856D01*
X141320133Y-82628856D02*
X141224895Y-82628856D01*
X141224895Y-82628856D02*
X141129657Y-82581237D01*
X141129657Y-82581237D02*
X141082038Y-82533618D01*
X141082038Y-82533618D02*
X141034419Y-82438380D01*
X141034419Y-82438380D02*
X141034419Y-82200285D01*
X141034419Y-82200285D02*
X141082038Y-82057428D01*
X142034419Y-81628856D02*
X141034419Y-81628856D01*
X141034419Y-81628856D02*
X142034419Y-81057428D01*
X142034419Y-81057428D02*
X141034419Y-81057428D01*
X141034419Y-80676475D02*
X141034419Y-80009809D01*
X141034419Y-80009809D02*
X142034419Y-80438380D01*
X141034419Y-79200285D02*
X141034419Y-79390761D01*
X141034419Y-79390761D02*
X141082038Y-79485999D01*
X141082038Y-79485999D02*
X141129657Y-79533618D01*
X141129657Y-79533618D02*
X141272514Y-79628856D01*
X141272514Y-79628856D02*
X141462990Y-79676475D01*
X141462990Y-79676475D02*
X141843942Y-79676475D01*
X141843942Y-79676475D02*
X141939180Y-79628856D01*
X141939180Y-79628856D02*
X141986800Y-79581237D01*
X141986800Y-79581237D02*
X142034419Y-79485999D01*
X142034419Y-79485999D02*
X142034419Y-79295523D01*
X142034419Y-79295523D02*
X141986800Y-79200285D01*
X141986800Y-79200285D02*
X141939180Y-79152666D01*
X141939180Y-79152666D02*
X141843942Y-79105047D01*
X141843942Y-79105047D02*
X141605847Y-79105047D01*
X141605847Y-79105047D02*
X141510609Y-79152666D01*
X141510609Y-79152666D02*
X141462990Y-79200285D01*
X141462990Y-79200285D02*
X141415371Y-79295523D01*
X141415371Y-79295523D02*
X141415371Y-79485999D01*
X141415371Y-79485999D02*
X141462990Y-79581237D01*
X141462990Y-79581237D02*
X141510609Y-79628856D01*
X141510609Y-79628856D02*
X141605847Y-79676475D01*
X141367752Y-78247904D02*
X142034419Y-78247904D01*
X140986800Y-78485999D02*
X141701085Y-78724094D01*
X141701085Y-78724094D02*
X141701085Y-78105047D01*
X141462990Y-77581237D02*
X141415371Y-77676475D01*
X141415371Y-77676475D02*
X141367752Y-77724094D01*
X141367752Y-77724094D02*
X141272514Y-77771713D01*
X141272514Y-77771713D02*
X141224895Y-77771713D01*
X141224895Y-77771713D02*
X141129657Y-77724094D01*
X141129657Y-77724094D02*
X141082038Y-77676475D01*
X141082038Y-77676475D02*
X141034419Y-77581237D01*
X141034419Y-77581237D02*
X141034419Y-77390761D01*
X141034419Y-77390761D02*
X141082038Y-77295523D01*
X141082038Y-77295523D02*
X141129657Y-77247904D01*
X141129657Y-77247904D02*
X141224895Y-77200285D01*
X141224895Y-77200285D02*
X141272514Y-77200285D01*
X141272514Y-77200285D02*
X141367752Y-77247904D01*
X141367752Y-77247904D02*
X141415371Y-77295523D01*
X141415371Y-77295523D02*
X141462990Y-77390761D01*
X141462990Y-77390761D02*
X141462990Y-77581237D01*
X141462990Y-77581237D02*
X141510609Y-77676475D01*
X141510609Y-77676475D02*
X141558228Y-77724094D01*
X141558228Y-77724094D02*
X141653466Y-77771713D01*
X141653466Y-77771713D02*
X141843942Y-77771713D01*
X141843942Y-77771713D02*
X141939180Y-77724094D01*
X141939180Y-77724094D02*
X141986800Y-77676475D01*
X141986800Y-77676475D02*
X142034419Y-77581237D01*
X142034419Y-77581237D02*
X142034419Y-77390761D01*
X142034419Y-77390761D02*
X141986800Y-77295523D01*
X141986800Y-77295523D02*
X141939180Y-77247904D01*
X141939180Y-77247904D02*
X141843942Y-77200285D01*
X141843942Y-77200285D02*
X141653466Y-77200285D01*
X141653466Y-77200285D02*
X141558228Y-77247904D01*
X141558228Y-77247904D02*
X141510609Y-77295523D01*
X141510609Y-77295523D02*
X141462990Y-77390761D01*
X142034419Y-76724094D02*
X142034419Y-76533618D01*
X142034419Y-76533618D02*
X141986800Y-76438380D01*
X141986800Y-76438380D02*
X141939180Y-76390761D01*
X141939180Y-76390761D02*
X141796323Y-76295523D01*
X141796323Y-76295523D02*
X141605847Y-76247904D01*
X141605847Y-76247904D02*
X141224895Y-76247904D01*
X141224895Y-76247904D02*
X141129657Y-76295523D01*
X141129657Y-76295523D02*
X141082038Y-76343142D01*
X141082038Y-76343142D02*
X141034419Y-76438380D01*
X141034419Y-76438380D02*
X141034419Y-76628856D01*
X141034419Y-76628856D02*
X141082038Y-76724094D01*
X141082038Y-76724094D02*
X141129657Y-76771713D01*
X141129657Y-76771713D02*
X141224895Y-76819332D01*
X141224895Y-76819332D02*
X141462990Y-76819332D01*
X141462990Y-76819332D02*
X141558228Y-76771713D01*
X141558228Y-76771713D02*
X141605847Y-76724094D01*
X141605847Y-76724094D02*
X141653466Y-76628856D01*
X141653466Y-76628856D02*
X141653466Y-76438380D01*
X141653466Y-76438380D02*
X141605847Y-76343142D01*
X141605847Y-76343142D02*
X141558228Y-76295523D01*
X141558228Y-76295523D02*
X141462990Y-76247904D01*
X141748704Y-75866951D02*
X141748704Y-75390761D01*
X142034419Y-75962189D02*
X141034419Y-75628856D01*
X141034419Y-75628856D02*
X142034419Y-75295523D01*
X142034419Y-74962189D02*
X141034419Y-74962189D01*
X141034419Y-74962189D02*
X142034419Y-74390761D01*
X142034419Y-74390761D02*
X141034419Y-74390761D01*
X140817695Y-66256819D02*
X140817695Y-67066342D01*
X140817695Y-67066342D02*
X140865314Y-67161580D01*
X140865314Y-67161580D02*
X140912933Y-67209200D01*
X140912933Y-67209200D02*
X141008171Y-67256819D01*
X141008171Y-67256819D02*
X141198647Y-67256819D01*
X141198647Y-67256819D02*
X141293885Y-67209200D01*
X141293885Y-67209200D02*
X141341504Y-67161580D01*
X141341504Y-67161580D02*
X141389123Y-67066342D01*
X141389123Y-67066342D02*
X141389123Y-66256819D01*
X142389123Y-67256819D02*
X141817695Y-67256819D01*
X142103409Y-67256819D02*
X142103409Y-66256819D01*
X142103409Y-66256819D02*
X142008171Y-66399676D01*
X142008171Y-66399676D02*
X141912933Y-66494914D01*
X141912933Y-66494914D02*
X141817695Y-66542533D01*
X132203866Y-59703619D02*
X132203866Y-60417904D01*
X132203866Y-60417904D02*
X132156247Y-60560761D01*
X132156247Y-60560761D02*
X132061009Y-60656000D01*
X132061009Y-60656000D02*
X131918152Y-60703619D01*
X131918152Y-60703619D02*
X131822914Y-60703619D01*
X132632438Y-59798857D02*
X132680057Y-59751238D01*
X132680057Y-59751238D02*
X132775295Y-59703619D01*
X132775295Y-59703619D02*
X133013390Y-59703619D01*
X133013390Y-59703619D02*
X133108628Y-59751238D01*
X133108628Y-59751238D02*
X133156247Y-59798857D01*
X133156247Y-59798857D02*
X133203866Y-59894095D01*
X133203866Y-59894095D02*
X133203866Y-59989333D01*
X133203866Y-59989333D02*
X133156247Y-60132190D01*
X133156247Y-60132190D02*
X132584819Y-60703619D01*
X132584819Y-60703619D02*
X133203866Y-60703619D01*
X132112609Y-98804952D02*
X132112609Y-98471619D01*
X132636419Y-98328762D02*
X132636419Y-98804952D01*
X132636419Y-98804952D02*
X131636419Y-98804952D01*
X131636419Y-98804952D02*
X131636419Y-98328762D01*
X132636419Y-97995428D02*
X131969752Y-97471619D01*
X131969752Y-97995428D02*
X132636419Y-97471619D01*
X131969752Y-97090666D02*
X132969752Y-97090666D01*
X132017371Y-97090666D02*
X131969752Y-96995428D01*
X131969752Y-96995428D02*
X131969752Y-96804952D01*
X131969752Y-96804952D02*
X132017371Y-96709714D01*
X132017371Y-96709714D02*
X132064990Y-96662095D01*
X132064990Y-96662095D02*
X132160228Y-96614476D01*
X132160228Y-96614476D02*
X132445942Y-96614476D01*
X132445942Y-96614476D02*
X132541180Y-96662095D01*
X132541180Y-96662095D02*
X132588800Y-96709714D01*
X132588800Y-96709714D02*
X132636419Y-96804952D01*
X132636419Y-96804952D02*
X132636419Y-96995428D01*
X132636419Y-96995428D02*
X132588800Y-97090666D01*
X132636419Y-95757333D02*
X132112609Y-95757333D01*
X132112609Y-95757333D02*
X132017371Y-95804952D01*
X132017371Y-95804952D02*
X131969752Y-95900190D01*
X131969752Y-95900190D02*
X131969752Y-96090666D01*
X131969752Y-96090666D02*
X132017371Y-96185904D01*
X132588800Y-95757333D02*
X132636419Y-95852571D01*
X132636419Y-95852571D02*
X132636419Y-96090666D01*
X132636419Y-96090666D02*
X132588800Y-96185904D01*
X132588800Y-96185904D02*
X132493561Y-96233523D01*
X132493561Y-96233523D02*
X132398323Y-96233523D01*
X132398323Y-96233523D02*
X132303085Y-96185904D01*
X132303085Y-96185904D02*
X132255466Y-96090666D01*
X132255466Y-96090666D02*
X132255466Y-95852571D01*
X132255466Y-95852571D02*
X132207847Y-95757333D01*
X131969752Y-95281142D02*
X132636419Y-95281142D01*
X132064990Y-95281142D02*
X132017371Y-95233523D01*
X132017371Y-95233523D02*
X131969752Y-95138285D01*
X131969752Y-95138285D02*
X131969752Y-94995428D01*
X131969752Y-94995428D02*
X132017371Y-94900190D01*
X132017371Y-94900190D02*
X132112609Y-94852571D01*
X132112609Y-94852571D02*
X132636419Y-94852571D01*
X132588800Y-94423999D02*
X132636419Y-94328761D01*
X132636419Y-94328761D02*
X132636419Y-94138285D01*
X132636419Y-94138285D02*
X132588800Y-94043047D01*
X132588800Y-94043047D02*
X132493561Y-93995428D01*
X132493561Y-93995428D02*
X132445942Y-93995428D01*
X132445942Y-93995428D02*
X132350704Y-94043047D01*
X132350704Y-94043047D02*
X132303085Y-94138285D01*
X132303085Y-94138285D02*
X132303085Y-94281142D01*
X132303085Y-94281142D02*
X132255466Y-94376380D01*
X132255466Y-94376380D02*
X132160228Y-94423999D01*
X132160228Y-94423999D02*
X132112609Y-94423999D01*
X132112609Y-94423999D02*
X132017371Y-94376380D01*
X132017371Y-94376380D02*
X131969752Y-94281142D01*
X131969752Y-94281142D02*
X131969752Y-94138285D01*
X131969752Y-94138285D02*
X132017371Y-94043047D01*
X132636419Y-93566856D02*
X131969752Y-93566856D01*
X131636419Y-93566856D02*
X131684038Y-93614475D01*
X131684038Y-93614475D02*
X131731657Y-93566856D01*
X131731657Y-93566856D02*
X131684038Y-93519237D01*
X131684038Y-93519237D02*
X131636419Y-93566856D01*
X131636419Y-93566856D02*
X131731657Y-93566856D01*
X132636419Y-92947809D02*
X132588800Y-93043047D01*
X132588800Y-93043047D02*
X132541180Y-93090666D01*
X132541180Y-93090666D02*
X132445942Y-93138285D01*
X132445942Y-93138285D02*
X132160228Y-93138285D01*
X132160228Y-93138285D02*
X132064990Y-93090666D01*
X132064990Y-93090666D02*
X132017371Y-93043047D01*
X132017371Y-93043047D02*
X131969752Y-92947809D01*
X131969752Y-92947809D02*
X131969752Y-92804952D01*
X131969752Y-92804952D02*
X132017371Y-92709714D01*
X132017371Y-92709714D02*
X132064990Y-92662095D01*
X132064990Y-92662095D02*
X132160228Y-92614476D01*
X132160228Y-92614476D02*
X132445942Y-92614476D01*
X132445942Y-92614476D02*
X132541180Y-92662095D01*
X132541180Y-92662095D02*
X132588800Y-92709714D01*
X132588800Y-92709714D02*
X132636419Y-92804952D01*
X132636419Y-92804952D02*
X132636419Y-92947809D01*
X131969752Y-92185904D02*
X132636419Y-92185904D01*
X132064990Y-92185904D02*
X132017371Y-92138285D01*
X132017371Y-92138285D02*
X131969752Y-92043047D01*
X131969752Y-92043047D02*
X131969752Y-91900190D01*
X131969752Y-91900190D02*
X132017371Y-91804952D01*
X132017371Y-91804952D02*
X132112609Y-91757333D01*
X132112609Y-91757333D02*
X132636419Y-91757333D01*
X131588800Y-89804952D02*
X132874514Y-90662094D01*
X132636419Y-88709713D02*
X131636419Y-88709713D01*
X131636419Y-88709713D02*
X131636419Y-88471618D01*
X131636419Y-88471618D02*
X131684038Y-88328761D01*
X131684038Y-88328761D02*
X131779276Y-88233523D01*
X131779276Y-88233523D02*
X131874514Y-88185904D01*
X131874514Y-88185904D02*
X132064990Y-88138285D01*
X132064990Y-88138285D02*
X132207847Y-88138285D01*
X132207847Y-88138285D02*
X132398323Y-88185904D01*
X132398323Y-88185904D02*
X132493561Y-88233523D01*
X132493561Y-88233523D02*
X132588800Y-88328761D01*
X132588800Y-88328761D02*
X132636419Y-88471618D01*
X132636419Y-88471618D02*
X132636419Y-88709713D01*
X132636419Y-87709713D02*
X131969752Y-87709713D01*
X131636419Y-87709713D02*
X131684038Y-87757332D01*
X131684038Y-87757332D02*
X131731657Y-87709713D01*
X131731657Y-87709713D02*
X131684038Y-87662094D01*
X131684038Y-87662094D02*
X131636419Y-87709713D01*
X131636419Y-87709713D02*
X131731657Y-87709713D01*
X132636419Y-86804952D02*
X132112609Y-86804952D01*
X132112609Y-86804952D02*
X132017371Y-86852571D01*
X132017371Y-86852571D02*
X131969752Y-86947809D01*
X131969752Y-86947809D02*
X131969752Y-87138285D01*
X131969752Y-87138285D02*
X132017371Y-87233523D01*
X132588800Y-86804952D02*
X132636419Y-86900190D01*
X132636419Y-86900190D02*
X132636419Y-87138285D01*
X132636419Y-87138285D02*
X132588800Y-87233523D01*
X132588800Y-87233523D02*
X132493561Y-87281142D01*
X132493561Y-87281142D02*
X132398323Y-87281142D01*
X132398323Y-87281142D02*
X132303085Y-87233523D01*
X132303085Y-87233523D02*
X132255466Y-87138285D01*
X132255466Y-87138285D02*
X132255466Y-86900190D01*
X132255466Y-86900190D02*
X132207847Y-86804952D01*
X131969752Y-85900190D02*
X132779276Y-85900190D01*
X132779276Y-85900190D02*
X132874514Y-85947809D01*
X132874514Y-85947809D02*
X132922133Y-85995428D01*
X132922133Y-85995428D02*
X132969752Y-86090666D01*
X132969752Y-86090666D02*
X132969752Y-86233523D01*
X132969752Y-86233523D02*
X132922133Y-86328761D01*
X132588800Y-85900190D02*
X132636419Y-85995428D01*
X132636419Y-85995428D02*
X132636419Y-86185904D01*
X132636419Y-86185904D02*
X132588800Y-86281142D01*
X132588800Y-86281142D02*
X132541180Y-86328761D01*
X132541180Y-86328761D02*
X132445942Y-86376380D01*
X132445942Y-86376380D02*
X132160228Y-86376380D01*
X132160228Y-86376380D02*
X132064990Y-86328761D01*
X132064990Y-86328761D02*
X132017371Y-86281142D01*
X132017371Y-86281142D02*
X131969752Y-86185904D01*
X131969752Y-86185904D02*
X131969752Y-85995428D01*
X131969752Y-85995428D02*
X132017371Y-85900190D01*
X132636419Y-84662094D02*
X131636419Y-84662094D01*
X131636419Y-84662094D02*
X131636419Y-84281142D01*
X131636419Y-84281142D02*
X131684038Y-84185904D01*
X131684038Y-84185904D02*
X131731657Y-84138285D01*
X131731657Y-84138285D02*
X131826895Y-84090666D01*
X131826895Y-84090666D02*
X131969752Y-84090666D01*
X131969752Y-84090666D02*
X132064990Y-84138285D01*
X132064990Y-84138285D02*
X132112609Y-84185904D01*
X132112609Y-84185904D02*
X132160228Y-84281142D01*
X132160228Y-84281142D02*
X132160228Y-84662094D01*
X132636419Y-83519237D02*
X132588800Y-83614475D01*
X132588800Y-83614475D02*
X132541180Y-83662094D01*
X132541180Y-83662094D02*
X132445942Y-83709713D01*
X132445942Y-83709713D02*
X132160228Y-83709713D01*
X132160228Y-83709713D02*
X132064990Y-83662094D01*
X132064990Y-83662094D02*
X132017371Y-83614475D01*
X132017371Y-83614475D02*
X131969752Y-83519237D01*
X131969752Y-83519237D02*
X131969752Y-83376380D01*
X131969752Y-83376380D02*
X132017371Y-83281142D01*
X132017371Y-83281142D02*
X132064990Y-83233523D01*
X132064990Y-83233523D02*
X132160228Y-83185904D01*
X132160228Y-83185904D02*
X132445942Y-83185904D01*
X132445942Y-83185904D02*
X132541180Y-83233523D01*
X132541180Y-83233523D02*
X132588800Y-83281142D01*
X132588800Y-83281142D02*
X132636419Y-83376380D01*
X132636419Y-83376380D02*
X132636419Y-83519237D01*
X132636419Y-82757332D02*
X131969752Y-82757332D01*
X132160228Y-82757332D02*
X132064990Y-82709713D01*
X132064990Y-82709713D02*
X132017371Y-82662094D01*
X132017371Y-82662094D02*
X131969752Y-82566856D01*
X131969752Y-82566856D02*
X131969752Y-82471618D01*
X131969752Y-82281141D02*
X131969752Y-81900189D01*
X131636419Y-82138284D02*
X132493561Y-82138284D01*
X132493561Y-82138284D02*
X132588800Y-82090665D01*
X132588800Y-82090665D02*
X132636419Y-81995427D01*
X132636419Y-81995427D02*
X132636419Y-81900189D01*
X127737619Y-83680933D02*
X128451904Y-83680933D01*
X128451904Y-83680933D02*
X128594761Y-83728552D01*
X128594761Y-83728552D02*
X128690000Y-83823790D01*
X128690000Y-83823790D02*
X128737619Y-83966647D01*
X128737619Y-83966647D02*
X128737619Y-84061885D01*
X127832857Y-83252361D02*
X127785238Y-83204742D01*
X127785238Y-83204742D02*
X127737619Y-83109504D01*
X127737619Y-83109504D02*
X127737619Y-82871409D01*
X127737619Y-82871409D02*
X127785238Y-82776171D01*
X127785238Y-82776171D02*
X127832857Y-82728552D01*
X127832857Y-82728552D02*
X127928095Y-82680933D01*
X127928095Y-82680933D02*
X128023333Y-82680933D01*
X128023333Y-82680933D02*
X128166190Y-82728552D01*
X128166190Y-82728552D02*
X128737619Y-83299980D01*
X128737619Y-83299980D02*
X128737619Y-82680933D01*
X171549219Y-90488971D02*
X171549219Y-91060399D01*
X171549219Y-90774685D02*
X170549219Y-90774685D01*
X170549219Y-90774685D02*
X170692076Y-90869923D01*
X170692076Y-90869923D02*
X170787314Y-90965161D01*
X170787314Y-90965161D02*
X170834933Y-91060399D01*
X170549219Y-89869923D02*
X170549219Y-89774685D01*
X170549219Y-89774685D02*
X170596838Y-89679447D01*
X170596838Y-89679447D02*
X170644457Y-89631828D01*
X170644457Y-89631828D02*
X170739695Y-89584209D01*
X170739695Y-89584209D02*
X170930171Y-89536590D01*
X170930171Y-89536590D02*
X171168266Y-89536590D01*
X171168266Y-89536590D02*
X171358742Y-89584209D01*
X171358742Y-89584209D02*
X171453980Y-89631828D01*
X171453980Y-89631828D02*
X171501600Y-89679447D01*
X171501600Y-89679447D02*
X171549219Y-89774685D01*
X171549219Y-89774685D02*
X171549219Y-89869923D01*
X171549219Y-89869923D02*
X171501600Y-89965161D01*
X171501600Y-89965161D02*
X171453980Y-90012780D01*
X171453980Y-90012780D02*
X171358742Y-90060399D01*
X171358742Y-90060399D02*
X171168266Y-90108018D01*
X171168266Y-90108018D02*
X170930171Y-90108018D01*
X170930171Y-90108018D02*
X170739695Y-90060399D01*
X170739695Y-90060399D02*
X170644457Y-90012780D01*
X170644457Y-90012780D02*
X170596838Y-89965161D01*
X170596838Y-89965161D02*
X170549219Y-89869923D01*
X170882552Y-88679447D02*
X171549219Y-88679447D01*
X170882552Y-89108018D02*
X171406361Y-89108018D01*
X171406361Y-89108018D02*
X171501600Y-89060399D01*
X171501600Y-89060399D02*
X171549219Y-88965161D01*
X171549219Y-88965161D02*
X171549219Y-88822304D01*
X171549219Y-88822304D02*
X171501600Y-88727066D01*
X171501600Y-88727066D02*
X171453980Y-88679447D01*
X170882552Y-88346113D02*
X170882552Y-87965161D01*
X171549219Y-88203256D02*
X170692076Y-88203256D01*
X170692076Y-88203256D02*
X170596838Y-88155637D01*
X170596838Y-88155637D02*
X170549219Y-88060399D01*
X170549219Y-88060399D02*
X170549219Y-87965161D01*
X141209733Y-63691580D02*
X141162114Y-63739200D01*
X141162114Y-63739200D02*
X141019257Y-63786819D01*
X141019257Y-63786819D02*
X140924019Y-63786819D01*
X140924019Y-63786819D02*
X140781162Y-63739200D01*
X140781162Y-63739200D02*
X140685924Y-63643961D01*
X140685924Y-63643961D02*
X140638305Y-63548723D01*
X140638305Y-63548723D02*
X140590686Y-63358247D01*
X140590686Y-63358247D02*
X140590686Y-63215390D01*
X140590686Y-63215390D02*
X140638305Y-63024914D01*
X140638305Y-63024914D02*
X140685924Y-62929676D01*
X140685924Y-62929676D02*
X140781162Y-62834438D01*
X140781162Y-62834438D02*
X140924019Y-62786819D01*
X140924019Y-62786819D02*
X141019257Y-62786819D01*
X141019257Y-62786819D02*
X141162114Y-62834438D01*
X141162114Y-62834438D02*
X141209733Y-62882057D01*
X142066876Y-62786819D02*
X141876400Y-62786819D01*
X141876400Y-62786819D02*
X141781162Y-62834438D01*
X141781162Y-62834438D02*
X141733543Y-62882057D01*
X141733543Y-62882057D02*
X141638305Y-63024914D01*
X141638305Y-63024914D02*
X141590686Y-63215390D01*
X141590686Y-63215390D02*
X141590686Y-63596342D01*
X141590686Y-63596342D02*
X141638305Y-63691580D01*
X141638305Y-63691580D02*
X141685924Y-63739200D01*
X141685924Y-63739200D02*
X141781162Y-63786819D01*
X141781162Y-63786819D02*
X141971638Y-63786819D01*
X141971638Y-63786819D02*
X142066876Y-63739200D01*
X142066876Y-63739200D02*
X142114495Y-63691580D01*
X142114495Y-63691580D02*
X142162114Y-63596342D01*
X142162114Y-63596342D02*
X142162114Y-63358247D01*
X142162114Y-63358247D02*
X142114495Y-63263009D01*
X142114495Y-63263009D02*
X142066876Y-63215390D01*
X142066876Y-63215390D02*
X141971638Y-63167771D01*
X141971638Y-63167771D02*
X141781162Y-63167771D01*
X141781162Y-63167771D02*
X141685924Y-63215390D01*
X141685924Y-63215390D02*
X141638305Y-63263009D01*
X141638305Y-63263009D02*
X141590686Y-63358247D01*
X194679961Y-91332819D02*
X194346628Y-90856628D01*
X194108533Y-91332819D02*
X194108533Y-90332819D01*
X194108533Y-90332819D02*
X194489485Y-90332819D01*
X194489485Y-90332819D02*
X194584723Y-90380438D01*
X194584723Y-90380438D02*
X194632342Y-90428057D01*
X194632342Y-90428057D02*
X194679961Y-90523295D01*
X194679961Y-90523295D02*
X194679961Y-90666152D01*
X194679961Y-90666152D02*
X194632342Y-90761390D01*
X194632342Y-90761390D02*
X194584723Y-90809009D01*
X194584723Y-90809009D02*
X194489485Y-90856628D01*
X194489485Y-90856628D02*
X194108533Y-90856628D01*
X194965676Y-90332819D02*
X195299009Y-91332819D01*
X195299009Y-91332819D02*
X195632342Y-90332819D01*
X196489485Y-91332819D02*
X195918057Y-91332819D01*
X196203771Y-91332819D02*
X196203771Y-90332819D01*
X196203771Y-90332819D02*
X196108533Y-90475676D01*
X196108533Y-90475676D02*
X196013295Y-90570914D01*
X196013295Y-90570914D02*
X195918057Y-90618533D01*
X194679961Y-103632819D02*
X194108533Y-103632819D01*
X194394247Y-103632819D02*
X194394247Y-102632819D01*
X194394247Y-102632819D02*
X194299009Y-102775676D01*
X194299009Y-102775676D02*
X194203771Y-102870914D01*
X194203771Y-102870914D02*
X194108533Y-102918533D01*
X195299009Y-102632819D02*
X195394247Y-102632819D01*
X195394247Y-102632819D02*
X195489485Y-102680438D01*
X195489485Y-102680438D02*
X195537104Y-102728057D01*
X195537104Y-102728057D02*
X195584723Y-102823295D01*
X195584723Y-102823295D02*
X195632342Y-103013771D01*
X195632342Y-103013771D02*
X195632342Y-103251866D01*
X195632342Y-103251866D02*
X195584723Y-103442342D01*
X195584723Y-103442342D02*
X195537104Y-103537580D01*
X195537104Y-103537580D02*
X195489485Y-103585200D01*
X195489485Y-103585200D02*
X195394247Y-103632819D01*
X195394247Y-103632819D02*
X195299009Y-103632819D01*
X195299009Y-103632819D02*
X195203771Y-103585200D01*
X195203771Y-103585200D02*
X195156152Y-103537580D01*
X195156152Y-103537580D02*
X195108533Y-103442342D01*
X195108533Y-103442342D02*
X195060914Y-103251866D01*
X195060914Y-103251866D02*
X195060914Y-103013771D01*
X195060914Y-103013771D02*
X195108533Y-102823295D01*
X195108533Y-102823295D02*
X195156152Y-102728057D01*
X195156152Y-102728057D02*
X195203771Y-102680438D01*
X195203771Y-102680438D02*
X195299009Y-102632819D01*
X196060914Y-103632819D02*
X196060914Y-102632819D01*
X196156152Y-103251866D02*
X196441866Y-103632819D01*
X196441866Y-102966152D02*
X196060914Y-103347104D01*
X177585180Y-81192666D02*
X177632800Y-81240285D01*
X177632800Y-81240285D02*
X177680419Y-81383142D01*
X177680419Y-81383142D02*
X177680419Y-81478380D01*
X177680419Y-81478380D02*
X177632800Y-81621237D01*
X177632800Y-81621237D02*
X177537561Y-81716475D01*
X177537561Y-81716475D02*
X177442323Y-81764094D01*
X177442323Y-81764094D02*
X177251847Y-81811713D01*
X177251847Y-81811713D02*
X177108990Y-81811713D01*
X177108990Y-81811713D02*
X176918514Y-81764094D01*
X176918514Y-81764094D02*
X176823276Y-81716475D01*
X176823276Y-81716475D02*
X176728038Y-81621237D01*
X176728038Y-81621237D02*
X176680419Y-81478380D01*
X176680419Y-81478380D02*
X176680419Y-81383142D01*
X176680419Y-81383142D02*
X176728038Y-81240285D01*
X176728038Y-81240285D02*
X176775657Y-81192666D01*
X177013752Y-80335523D02*
X177680419Y-80335523D01*
X176632800Y-80573618D02*
X177347085Y-80811713D01*
X177347085Y-80811713D02*
X177347085Y-80192666D01*
X182080419Y-81954571D02*
X182080419Y-82525999D01*
X182080419Y-82240285D02*
X181080419Y-82240285D01*
X181080419Y-82240285D02*
X181223276Y-82335523D01*
X181223276Y-82335523D02*
X181318514Y-82430761D01*
X181318514Y-82430761D02*
X181366133Y-82525999D01*
X181080419Y-81335523D02*
X181080419Y-81240285D01*
X181080419Y-81240285D02*
X181128038Y-81145047D01*
X181128038Y-81145047D02*
X181175657Y-81097428D01*
X181175657Y-81097428D02*
X181270895Y-81049809D01*
X181270895Y-81049809D02*
X181461371Y-81002190D01*
X181461371Y-81002190D02*
X181699466Y-81002190D01*
X181699466Y-81002190D02*
X181889942Y-81049809D01*
X181889942Y-81049809D02*
X181985180Y-81097428D01*
X181985180Y-81097428D02*
X182032800Y-81145047D01*
X182032800Y-81145047D02*
X182080419Y-81240285D01*
X182080419Y-81240285D02*
X182080419Y-81335523D01*
X182080419Y-81335523D02*
X182032800Y-81430761D01*
X182032800Y-81430761D02*
X181985180Y-81478380D01*
X181985180Y-81478380D02*
X181889942Y-81525999D01*
X181889942Y-81525999D02*
X181699466Y-81573618D01*
X181699466Y-81573618D02*
X181461371Y-81573618D01*
X181461371Y-81573618D02*
X181270895Y-81525999D01*
X181270895Y-81525999D02*
X181175657Y-81478380D01*
X181175657Y-81478380D02*
X181128038Y-81430761D01*
X181128038Y-81430761D02*
X181080419Y-81335523D01*
X181413752Y-80145047D02*
X182080419Y-80145047D01*
X181413752Y-80573618D02*
X181937561Y-80573618D01*
X181937561Y-80573618D02*
X182032800Y-80525999D01*
X182032800Y-80525999D02*
X182080419Y-80430761D01*
X182080419Y-80430761D02*
X182080419Y-80287904D01*
X182080419Y-80287904D02*
X182032800Y-80192666D01*
X182032800Y-80192666D02*
X181985180Y-80145047D01*
X181413752Y-79811713D02*
X181413752Y-79430761D01*
X182080419Y-79668856D02*
X181223276Y-79668856D01*
X181223276Y-79668856D02*
X181128038Y-79621237D01*
X181128038Y-79621237D02*
X181080419Y-79525999D01*
X181080419Y-79525999D02*
X181080419Y-79430761D01*
D11*
X166795640Y-87670533D02*
X166836593Y-87711485D01*
X166836593Y-87711485D02*
X166877545Y-87834343D01*
X166877545Y-87834343D02*
X166877545Y-87916247D01*
X166877545Y-87916247D02*
X166836593Y-88039104D01*
X166836593Y-88039104D02*
X166754688Y-88121009D01*
X166754688Y-88121009D02*
X166672783Y-88161962D01*
X166672783Y-88161962D02*
X166508973Y-88202914D01*
X166508973Y-88202914D02*
X166386116Y-88202914D01*
X166386116Y-88202914D02*
X166222307Y-88161962D01*
X166222307Y-88161962D02*
X166140402Y-88121009D01*
X166140402Y-88121009D02*
X166058497Y-88039104D01*
X166058497Y-88039104D02*
X166017545Y-87916247D01*
X166017545Y-87916247D02*
X166017545Y-87834343D01*
X166017545Y-87834343D02*
X166058497Y-87711485D01*
X166058497Y-87711485D02*
X166099450Y-87670533D01*
X166304212Y-86933390D02*
X166877545Y-86933390D01*
X165976593Y-87138152D02*
X166590878Y-87342914D01*
X166590878Y-87342914D02*
X166590878Y-86810533D01*
D10*
X189904019Y-80241733D02*
X190618304Y-80241733D01*
X190618304Y-80241733D02*
X190761161Y-80289352D01*
X190761161Y-80289352D02*
X190856400Y-80384590D01*
X190856400Y-80384590D02*
X190904019Y-80527447D01*
X190904019Y-80527447D02*
X190904019Y-80622685D01*
X189904019Y-79860780D02*
X189904019Y-79241733D01*
X189904019Y-79241733D02*
X190284971Y-79575066D01*
X190284971Y-79575066D02*
X190284971Y-79432209D01*
X190284971Y-79432209D02*
X190332590Y-79336971D01*
X190332590Y-79336971D02*
X190380209Y-79289352D01*
X190380209Y-79289352D02*
X190475447Y-79241733D01*
X190475447Y-79241733D02*
X190713542Y-79241733D01*
X190713542Y-79241733D02*
X190808780Y-79289352D01*
X190808780Y-79289352D02*
X190856400Y-79336971D01*
X190856400Y-79336971D02*
X190904019Y-79432209D01*
X190904019Y-79432209D02*
X190904019Y-79717923D01*
X190904019Y-79717923D02*
X190856400Y-79813161D01*
X190856400Y-79813161D02*
X190808780Y-79860780D01*
D12*
%TO.C,U3*%
X174387200Y-95399000D02*
X174387200Y-100699000D01*
X174387200Y-100699000D02*
X184667200Y-100699000D01*
D13*
X174447200Y-94874000D02*
X183607200Y-94874000D01*
X174447200Y-101224000D02*
X174447200Y-94874000D01*
X183607200Y-94874000D02*
X184607200Y-95874000D01*
X184607200Y-95874000D02*
X184607200Y-101224000D01*
X184607200Y-101224000D02*
X174447200Y-101224000D01*
D12*
X184667200Y-95399000D02*
X174387200Y-95399000D01*
X184667200Y-97049000D02*
X184667200Y-95399000D01*
X184667200Y-100699000D02*
X184667200Y-99049000D01*
X184667200Y-99049000D02*
G75*
G02*
X184667200Y-97049000I0J1000000D01*
G01*
%TO.C,Y1*%
X164339600Y-75681600D02*
X164339600Y-87831600D01*
X164339600Y-87831600D02*
X176489600Y-87831600D01*
D13*
X164439600Y-87731600D02*
X164439600Y-75681600D01*
X164439600Y-87731600D02*
X176489600Y-87731600D01*
X165089600Y-75031600D02*
X176489600Y-75031600D01*
X165439600Y-86731600D02*
X165439600Y-76381600D01*
X165439600Y-86731600D02*
X175789600Y-86731600D01*
X165789600Y-76031600D02*
X175789600Y-76031600D01*
X176139600Y-86381600D02*
X176139600Y-76381600D01*
D12*
X176489600Y-74931600D02*
X165089600Y-74931600D01*
D13*
X177139600Y-75681600D02*
X177139600Y-87081600D01*
D12*
X177239600Y-87081600D02*
X177239600Y-75681600D01*
X164339600Y-75681600D02*
G75*
G02*
X165089600Y-74931600I750000J0D01*
G01*
D13*
X164439600Y-75681600D02*
G75*
G02*
X165089600Y-75031600I650001J-1D01*
G01*
X165439600Y-76381600D02*
G75*
G02*
X165789600Y-76031600I350001J-1D01*
G01*
X175789600Y-76031600D02*
G75*
G02*
X176139600Y-76381600I0J-350000D01*
G01*
X176139600Y-86381600D02*
G75*
G02*
X175789600Y-86731600I-350000J0D01*
G01*
D12*
X176489600Y-74931600D02*
G75*
G02*
X177239600Y-75681600I0J-750000D01*
G01*
D13*
X176489600Y-75031600D02*
G75*
G02*
X177139600Y-75681600I0J-650000D01*
G01*
X177139600Y-87081600D02*
G75*
G02*
X176489600Y-87731600I-650000J0D01*
G01*
D12*
X177239600Y-87081600D02*
G75*
G02*
X176489600Y-87831600I-750000J0D01*
G01*
%TO.C,C3*%
X186077200Y-95774000D02*
X186077200Y-100314000D01*
X186133200Y-95774000D02*
X186077200Y-95774000D01*
X186133200Y-100314000D02*
X186077200Y-100314000D01*
X188217200Y-95774000D02*
X188217200Y-100314000D01*
D13*
X188097200Y-95894000D02*
X186197200Y-95894000D01*
X186197200Y-100194000D01*
X188097200Y-100194000D01*
X188097200Y-95894000D01*
D12*
%TO.C,C2*%
X168329600Y-98180400D02*
G75*
G02*
X163089600Y-98180400I-2620000J0D01*
G01*
X163089600Y-98180400D02*
G75*
G02*
X168329600Y-98180400I2620000J0D01*
G01*
D13*
X168209600Y-98180400D02*
G75*
G02*
X163209600Y-98180400I-2500000J0D01*
G01*
X163209600Y-98180400D02*
G75*
G02*
X168209600Y-98180400I2500000J0D01*
G01*
D12*
%TO.C,R1*%
X171806200Y-70967600D02*
X168056200Y-70967600D01*
D13*
X174176200Y-70967600D02*
X166556200Y-70967600D01*
D12*
X176546200Y-70967600D02*
G75*
G02*
X171806200Y-70967600I-2370000J0D01*
G01*
X171806200Y-70967600D02*
G75*
G02*
X176546200Y-70967600I2370000J0D01*
G01*
D13*
X176426200Y-70967600D02*
G75*
G02*
X171926200Y-70967600I-2250000J0D01*
G01*
X171926200Y-70967600D02*
G75*
G02*
X176426200Y-70967600I2250000J0D01*
G01*
%TO.C,C1*%
X185837200Y-88188800D02*
G75*
G02*
X180837200Y-88188800I-2500000J0D01*
G01*
X180837200Y-88188800D02*
G75*
G02*
X185837200Y-88188800I2500000J0D01*
G01*
D12*
X185957200Y-88188800D02*
G75*
G02*
X180717200Y-88188800I-2620000J0D01*
G01*
X180717200Y-88188800D02*
G75*
G02*
X185957200Y-88188800I2620000J0D01*
G01*
%TO.C,U2*%
X138065200Y-95546400D02*
X138065200Y-100846400D01*
X138065200Y-100846400D02*
X155965200Y-100846400D01*
D13*
X138125200Y-95021400D02*
X154905200Y-95021400D01*
X138125200Y-101371400D02*
X138125200Y-95021400D01*
X154905200Y-95021400D02*
X155905200Y-96021400D01*
X155905200Y-96021400D02*
X155905200Y-101371400D01*
X155905200Y-101371400D02*
X138125200Y-101371400D01*
D12*
X155965200Y-95546400D02*
X138065200Y-95546400D01*
X155965200Y-97196400D02*
X155965200Y-95546400D01*
X155965200Y-100846400D02*
X155965200Y-99196400D01*
X155965200Y-99196400D02*
G75*
G02*
X155965200Y-97196400I0J1000000D01*
G01*
D13*
%TO.C,U4*%
X152166400Y-70002400D02*
X158516400Y-70002400D01*
X152166400Y-87782400D02*
X152166400Y-70002400D01*
D12*
X152691400Y-69942400D02*
X152691400Y-87842400D01*
X152691400Y-87842400D02*
X154341400Y-87842400D01*
X156341400Y-87842400D02*
X157991400Y-87842400D01*
D13*
X157516400Y-87782400D02*
X152166400Y-87782400D01*
D12*
X157991400Y-69942400D02*
X152691400Y-69942400D01*
X157991400Y-87842400D02*
X157991400Y-69942400D01*
D13*
X158516400Y-70002400D02*
X158516400Y-86782400D01*
X158516400Y-86782400D02*
X157516400Y-87782400D01*
D12*
X154341400Y-87842400D02*
G75*
G02*
X156341400Y-87842400I1000000J0D01*
G01*
D13*
%TO.C,U1*%
X138409600Y-69326000D02*
X139409600Y-68326000D01*
X138409600Y-88646000D02*
X138409600Y-69326000D01*
D12*
X138934600Y-68266000D02*
X138934600Y-88706000D01*
X138934600Y-88706000D02*
X144234600Y-88706000D01*
D13*
X139409600Y-68326000D02*
X144759600Y-68326000D01*
D12*
X140584600Y-68266000D02*
X138934600Y-68266000D01*
X144234600Y-68266000D02*
X142584600Y-68266000D01*
X144234600Y-88706000D02*
X144234600Y-68266000D01*
D13*
X144759600Y-68326000D02*
X144759600Y-88646000D01*
X144759600Y-88646000D02*
X138409600Y-88646000D01*
D12*
X142584600Y-68266000D02*
G75*
G02*
X140584600Y-68266000I-1000000J0D01*
G01*
%TO.C,J2*%
X125632800Y-59107600D02*
X127012800Y-59107600D01*
X125632800Y-60487600D02*
X125632800Y-59107600D01*
X125632800Y-61757600D02*
X125632800Y-107587600D01*
X125632800Y-61757600D02*
X128282800Y-61757600D01*
X125632800Y-107587600D02*
X130932800Y-107587600D01*
D13*
X125742800Y-60487600D02*
X127012800Y-59217600D01*
X125742800Y-107477600D02*
X125742800Y-60487600D01*
X127012800Y-59217600D02*
X130822800Y-59217600D01*
D12*
X128282800Y-59107600D02*
X130932800Y-59107600D01*
X128282800Y-61757600D02*
X128282800Y-59107600D01*
D13*
X130822800Y-59217600D02*
X130822800Y-107477600D01*
X130822800Y-107477600D02*
X125742800Y-107477600D01*
D12*
X130932800Y-59107600D02*
X130932800Y-107587600D01*
%TO.C,C5*%
X168824400Y-88546400D02*
X168824400Y-88490400D01*
X173364400Y-88490400D02*
X168824400Y-88490400D01*
X173364400Y-88546400D02*
X173364400Y-88490400D01*
X173364400Y-90630400D02*
X168824400Y-90630400D01*
D13*
X173244400Y-90510400D02*
X168944400Y-90510400D01*
X168944400Y-88610400D01*
X173244400Y-88610400D01*
X173244400Y-90510400D01*
D12*
%TO.C,C7*%
X156460800Y-95824800D02*
X156460800Y-100364800D01*
X156516800Y-95824800D02*
X156460800Y-95824800D01*
X156516800Y-100364800D02*
X156460800Y-100364800D01*
X158600800Y-95824800D02*
X158600800Y-100364800D01*
%TO.C,C6*%
X139106400Y-64462000D02*
X143646400Y-64462000D01*
X139106400Y-66546000D02*
X139106400Y-66602000D01*
X139106400Y-66602000D02*
X143646400Y-66602000D01*
X143646400Y-66546000D02*
X143646400Y-66602000D01*
%TO.C,J1*%
X189056800Y-70579200D02*
X189056800Y-62019200D01*
X189056800Y-70579200D02*
X191566800Y-70579200D01*
D13*
X189166800Y-58969200D02*
X203166800Y-58969200D01*
X189166800Y-70469200D02*
X189166800Y-58969200D01*
X189166800Y-70469200D02*
X203166800Y-70469200D01*
D12*
X191366800Y-58859200D02*
X202586000Y-58859200D01*
X194566800Y-70579200D02*
X202586000Y-70579200D01*
D13*
X203166800Y-58969200D02*
X203166800Y-61719200D01*
X203166800Y-61719200D02*
X206666800Y-61719200D01*
X203166800Y-67719200D02*
X206666800Y-67719200D01*
X203166800Y-70469200D02*
X203166800Y-67719200D01*
X206666800Y-67719200D02*
X206666800Y-61719200D01*
D12*
%TO.C,C8*%
X152771600Y-67312000D02*
X152771600Y-67256000D01*
X157311600Y-67256000D02*
X152771600Y-67256000D01*
X157311600Y-67312000D02*
X157311600Y-67256000D01*
X157311600Y-69396000D02*
X152771600Y-69396000D01*
%TO.C,RV1*%
X190165200Y-92018000D02*
X190165200Y-93132000D01*
X190165200Y-92018000D02*
X200385200Y-92018000D01*
X190165200Y-95924000D02*
X190165200Y-98132000D01*
X190165200Y-100924000D02*
X190165200Y-102038000D01*
X190165200Y-102038000D02*
X200385200Y-102038000D01*
X200385200Y-92018000D02*
X200385200Y-95632000D01*
X200385200Y-98424000D02*
X200385200Y-102038000D01*
D13*
X190275200Y-92128000D02*
X200275200Y-92128000D01*
X200275200Y-101928000D01*
X190275200Y-101928000D01*
X190275200Y-92128000D01*
D12*
%TO.C,C4*%
X178355600Y-83296000D02*
X178355600Y-78756000D01*
X180439600Y-78756000D02*
X180495600Y-78756000D01*
X180439600Y-83296000D02*
X180495600Y-83296000D01*
X180495600Y-83296000D02*
X180495600Y-78756000D01*
D13*
X178475600Y-83176000D02*
X180375600Y-83176000D01*
X180375600Y-78876000D01*
X178475600Y-78876000D01*
X178475600Y-83176000D01*
D12*
%TO.C,J3*%
X188149200Y-72408400D02*
X203149200Y-72408400D01*
X188149200Y-87408400D02*
X188149200Y-72408400D01*
D13*
X188249200Y-72558400D02*
X188249200Y-87258400D01*
X188249200Y-87258400D02*
X203149200Y-87258400D01*
D12*
X202949200Y-79908400D02*
X201949200Y-78908400D01*
X202949200Y-79908400D02*
X201949200Y-80908400D01*
X203149200Y-72408400D02*
X203149200Y-87408400D01*
D13*
X203149200Y-72558400D02*
X188249200Y-72558400D01*
X203149200Y-86258400D02*
X211849200Y-86258400D01*
X203149200Y-87258400D02*
X203149200Y-72558400D01*
D12*
X203149200Y-87408400D02*
X188149200Y-87408400D01*
D13*
X204449200Y-74908400D02*
X205449200Y-84908400D01*
X205449200Y-74908400D02*
X206449200Y-84908400D01*
X206449200Y-74908400D02*
X207449200Y-84908400D01*
X207449200Y-74908400D02*
X208449200Y-84908400D01*
X208449200Y-74908400D02*
X209449200Y-84908400D01*
X209449200Y-74908400D02*
X210449200Y-84908400D01*
X210449200Y-74908400D02*
X211449200Y-84908400D01*
X211849200Y-73558400D02*
X203149200Y-73558400D01*
X211849200Y-84708400D02*
X223749200Y-84708400D01*
X211849200Y-86258400D02*
X211849200Y-73558400D01*
X223749200Y-75108400D02*
X211849200Y-75108400D01*
X223749200Y-84708400D02*
X223749200Y-75108400D01*
X219519200Y-79908400D02*
G75*
G02*
X217519200Y-79908400I-1000000J0D01*
G01*
X217519200Y-79908400D02*
G75*
G02*
X219519200Y-79908400I1000000J0D01*
G01*
%TD*%
M02*
