%TF.GenerationSoftware,KiCad,Pcbnew,9.0.2*%
%TF.CreationDate,2025-06-11T12:23:04+01:00*%
%TF.ProjectId,SoundCard,536f756e-6443-4617-9264-2e6b69636164,rev?*%
%TF.SameCoordinates,Original*%
%TF.FileFunction,Soldermask,Bot*%
%TF.FilePolarity,Negative*%
%FSLAX46Y46*%
G04 Gerber Fmt 4.6, Leading zero omitted, Abs format (unit mm)*
G04 Created by KiCad (PCBNEW 9.0.2) date 2025-06-11 12:23:04*
%MOMM*%
%LPD*%
G01*
G04 APERTURE LIST*
G04 Aperture macros list*
%AMRoundRect*
0 Rectangle with rounded corners*
0 $1 Rounding radius*
0 $2 $3 $4 $5 $6 $7 $8 $9 X,Y pos of 4 corners*
0 Add a 4 corners polygon primitive as box body*
4,1,4,$2,$3,$4,$5,$6,$7,$8,$9,$2,$3,0*
0 Add four circle primitives for the rounded corners*
1,1,$1+$1,$2,$3*
1,1,$1+$1,$4,$5*
1,1,$1+$1,$6,$7*
1,1,$1+$1,$8,$9*
0 Add four rect primitives between the rounded corners*
20,1,$1+$1,$2,$3,$4,$5,0*
20,1,$1+$1,$4,$5,$6,$7,0*
20,1,$1+$1,$6,$7,$8,$9,0*
20,1,$1+$1,$8,$9,$2,$3,0*%
G04 Aperture macros list end*
%ADD10RoundRect,0.250000X-0.550000X0.550000X-0.550000X-0.550000X0.550000X-0.550000X0.550000X0.550000X0*%
%ADD11C,1.600000*%
%ADD12R,1.600000X1.600000*%
%ADD13C,1.200000*%
%ADD14C,2.400000*%
%ADD15RoundRect,0.250000X0.550000X0.550000X-0.550000X0.550000X-0.550000X-0.550000X0.550000X-0.550000X0*%
%ADD16RoundRect,0.250000X-0.550000X-0.550000X0.550000X-0.550000X0.550000X0.550000X-0.550000X0.550000X0*%
%ADD17R,1.700000X1.700000*%
%ADD18C,1.700000*%
%ADD19O,3.000000X1.500000*%
%ADD20O,2.500000X3.500000*%
%ADD21O,3.500000X2.500000*%
%ADD22C,4.000000*%
%ADD23C,2.340000*%
%ADD24O,2.500000X1.600000*%
%ADD25O,7.000000X3.500000*%
G04 APERTURE END LIST*
D10*
%TO.C,U3*%
X183337200Y-94239000D03*
D11*
X180797200Y-94239000D03*
X178257200Y-94239000D03*
X175717200Y-94239000D03*
X175717200Y-101859000D03*
X178257200Y-101859000D03*
X180797200Y-101859000D03*
X183337200Y-101859000D03*
%TD*%
D12*
%TO.C,Y1*%
X166979600Y-85191600D03*
D11*
X174599600Y-85191600D03*
X174599600Y-77571600D03*
X166979600Y-77571600D03*
%TD*%
%TO.C,C3*%
X187147200Y-95544000D03*
X187147200Y-100544000D03*
%TD*%
D13*
%TO.C,C2*%
X165709600Y-99180400D03*
X165709600Y-97180400D03*
%TD*%
D14*
%TO.C,R1*%
X174176200Y-70967600D03*
X166556200Y-70967600D03*
%TD*%
D13*
%TO.C,C1*%
X182337200Y-88188800D03*
X184337200Y-88188800D03*
%TD*%
D10*
%TO.C,U2*%
X154635200Y-94386400D03*
D11*
X152095200Y-94386400D03*
X149555200Y-94386400D03*
X147015200Y-94386400D03*
X144475200Y-94386400D03*
X141935200Y-94386400D03*
X139395200Y-94386400D03*
X139395200Y-102006400D03*
X141935200Y-102006400D03*
X144475200Y-102006400D03*
X147015200Y-102006400D03*
X149555200Y-102006400D03*
X152095200Y-102006400D03*
X154635200Y-102006400D03*
%TD*%
D15*
%TO.C,U4*%
X159151400Y-86512400D03*
D11*
X159151400Y-83972400D03*
X159151400Y-81432400D03*
X159151400Y-78892400D03*
X159151400Y-76352400D03*
X159151400Y-73812400D03*
X159151400Y-71272400D03*
X151531400Y-71272400D03*
X151531400Y-73812400D03*
X151531400Y-76352400D03*
X151531400Y-78892400D03*
X151531400Y-81432400D03*
X151531400Y-83972400D03*
X151531400Y-86512400D03*
%TD*%
D16*
%TO.C,U1*%
X137774600Y-69596000D03*
D11*
X137774600Y-72136000D03*
X137774600Y-74676000D03*
X137774600Y-77216000D03*
X137774600Y-79756000D03*
X137774600Y-82296000D03*
X137774600Y-84836000D03*
X137774600Y-87376000D03*
X145394600Y-87376000D03*
X145394600Y-84836000D03*
X145394600Y-82296000D03*
X145394600Y-79756000D03*
X145394600Y-77216000D03*
X145394600Y-74676000D03*
X145394600Y-72136000D03*
X145394600Y-69596000D03*
%TD*%
D17*
%TO.C,J2*%
X127012800Y-60487600D03*
D18*
X129552800Y-60487600D03*
X127012800Y-63027600D03*
X129552800Y-63027600D03*
X127012800Y-65567600D03*
X129552800Y-65567600D03*
X127012800Y-68107600D03*
X129552800Y-68107600D03*
X127012800Y-70647600D03*
X129552800Y-70647600D03*
X127012800Y-73187600D03*
X129552800Y-73187600D03*
X127012800Y-75727600D03*
X129552800Y-75727600D03*
X127012800Y-78267600D03*
X129552800Y-78267600D03*
X127012800Y-80807600D03*
X129552800Y-80807600D03*
X127012800Y-83347600D03*
X129552800Y-83347600D03*
X127012800Y-85887600D03*
X129552800Y-85887600D03*
X127012800Y-88427600D03*
X129552800Y-88427600D03*
X127012800Y-90967600D03*
X129552800Y-90967600D03*
X127012800Y-93507600D03*
X129552800Y-93507600D03*
X127012800Y-96047600D03*
X129552800Y-96047600D03*
X127012800Y-98587600D03*
X129552800Y-98587600D03*
X127012800Y-101127600D03*
X129552800Y-101127600D03*
X127012800Y-103667600D03*
X129552800Y-103667600D03*
X127012800Y-106207600D03*
X129552800Y-106207600D03*
%TD*%
D11*
%TO.C,C5*%
X173594400Y-89560400D03*
X168594400Y-89560400D03*
%TD*%
%TO.C,C7*%
X157530800Y-95594800D03*
X157530800Y-100594800D03*
%TD*%
%TO.C,C6*%
X138876400Y-65532000D03*
X143876400Y-65532000D03*
%TD*%
D19*
%TO.C,J1*%
X193066800Y-69719200D03*
D20*
X201366800Y-64719200D03*
D21*
X197866800Y-60219200D03*
%TD*%
D11*
%TO.C,C8*%
X157541600Y-68326000D03*
X152541600Y-68326000D03*
%TD*%
D22*
%TO.C,RV1*%
X195275200Y-97028000D03*
D23*
X190275200Y-99528000D03*
X200275200Y-97028000D03*
X190275200Y-94528000D03*
%TD*%
D11*
%TO.C,C4*%
X179425600Y-83526000D03*
X179425600Y-78526000D03*
%TD*%
D24*
%TO.C,J3*%
X190449200Y-79908400D03*
D25*
X195529200Y-74828400D03*
D24*
X190449200Y-77368400D03*
D25*
X195529200Y-84988400D03*
%TD*%
M02*
