%TF.GenerationSoftware,KiCad,Pcbnew,9.0.2*%
%TF.CreationDate,2025-06-11T12:23:08+01:00*%
%TF.ProjectId,SoundCard,536f756e-6443-4617-9264-2e6b69636164,rev?*%
%TF.SameCoordinates,Original*%
%TF.FileFunction,Plated,1,2,PTH,Mixed*%
%TF.FilePolarity,Positive*%
%FSLAX46Y46*%
G04 Gerber Fmt 4.6, Leading zero omitted, Abs format (unit mm)*
G04 Created by KiCad (PCBNEW 9.0.2) date 2025-06-11 12:23:08*
%MOMM*%
%LPD*%
G01*
G04 APERTURE LIST*
%TA.AperFunction,ViaDrill*%
%ADD10C,0.300000*%
%TD*%
%TA.AperFunction,ComponentDrill*%
%ADD11C,0.600000*%
%TD*%
%TA.AperFunction,ComponentDrill*%
%ADD12C,0.800000*%
%TD*%
%TA.AperFunction,ComponentDrill*%
%ADD13C,0.890000*%
%TD*%
%TA.AperFunction,ComponentDrill*%
%ADD14C,1.000000*%
%TD*%
G04 aperture for slot hole*
%TA.AperFunction,ComponentDrill*%
%ADD15C,1.000000*%
%TD*%
%TA.AperFunction,ComponentDrill*%
%ADD16C,1.200000*%
%TD*%
%TA.AperFunction,ComponentDrill*%
%ADD17C,1.300000*%
%TD*%
%TA.AperFunction,ComponentDrill*%
%ADD18C,2.010000*%
%TD*%
G04 APERTURE END LIST*
D10*
X154533600Y-91744800D03*
X155295600Y-71526400D03*
X159410400Y-98907600D03*
X164998400Y-92811600D03*
D11*
%TO.C,C2*%
X165709600Y-97180400D03*
X165709600Y-99180400D03*
%TO.C,C1*%
X182337200Y-88188800D03*
X184337200Y-88188800D03*
D12*
%TO.C,U1*%
X137774600Y-69596000D03*
X137774600Y-72136000D03*
X137774600Y-74676000D03*
X137774600Y-77216000D03*
X137774600Y-79756000D03*
X137774600Y-82296000D03*
X137774600Y-84836000D03*
X137774600Y-87376000D03*
%TO.C,C6*%
X138876400Y-65532000D03*
%TO.C,U2*%
X139395200Y-94386400D03*
X139395200Y-102006400D03*
X141935200Y-94386400D03*
X141935200Y-102006400D03*
%TO.C,C6*%
X143876400Y-65532000D03*
%TO.C,U2*%
X144475200Y-94386400D03*
X144475200Y-102006400D03*
%TO.C,U1*%
X145394600Y-69596000D03*
X145394600Y-72136000D03*
X145394600Y-74676000D03*
X145394600Y-77216000D03*
X145394600Y-79756000D03*
X145394600Y-82296000D03*
X145394600Y-84836000D03*
X145394600Y-87376000D03*
%TO.C,U2*%
X147015200Y-94386400D03*
X147015200Y-102006400D03*
X149555200Y-94386400D03*
X149555200Y-102006400D03*
%TO.C,U4*%
X151531400Y-71272400D03*
X151531400Y-73812400D03*
X151531400Y-76352400D03*
X151531400Y-78892400D03*
X151531400Y-81432400D03*
X151531400Y-83972400D03*
X151531400Y-86512400D03*
%TO.C,U2*%
X152095200Y-94386400D03*
X152095200Y-102006400D03*
%TO.C,C8*%
X152541600Y-68326000D03*
%TO.C,U2*%
X154635200Y-94386400D03*
X154635200Y-102006400D03*
%TO.C,C7*%
X157530800Y-95594800D03*
X157530800Y-100594800D03*
%TO.C,C8*%
X157541600Y-68326000D03*
%TO.C,U4*%
X159151400Y-71272400D03*
X159151400Y-73812400D03*
X159151400Y-76352400D03*
X159151400Y-78892400D03*
X159151400Y-81432400D03*
X159151400Y-83972400D03*
X159151400Y-86512400D03*
%TO.C,Y1*%
X166979600Y-77571600D03*
X166979600Y-85191600D03*
%TO.C,C5*%
X168594400Y-89560400D03*
X173594400Y-89560400D03*
%TO.C,Y1*%
X174599600Y-77571600D03*
X174599600Y-85191600D03*
%TO.C,U3*%
X175717200Y-94239000D03*
X175717200Y-101859000D03*
X178257200Y-94239000D03*
X178257200Y-101859000D03*
%TO.C,C4*%
X179425600Y-78526000D03*
X179425600Y-83526000D03*
%TO.C,U3*%
X180797200Y-94239000D03*
X180797200Y-101859000D03*
X183337200Y-94239000D03*
X183337200Y-101859000D03*
%TO.C,C3*%
X187147200Y-95544000D03*
X187147200Y-100544000D03*
D13*
%TO.C,J3*%
X190449200Y-77368400D03*
X190449200Y-79908400D03*
D14*
%TO.C,J2*%
X127012800Y-60487600D03*
X127012800Y-63027600D03*
X127012800Y-65567600D03*
X127012800Y-68107600D03*
X127012800Y-70647600D03*
X127012800Y-73187600D03*
X127012800Y-75727600D03*
X127012800Y-78267600D03*
X127012800Y-80807600D03*
X127012800Y-83347600D03*
X127012800Y-85887600D03*
X127012800Y-88427600D03*
X127012800Y-90967600D03*
X127012800Y-93507600D03*
X127012800Y-96047600D03*
X127012800Y-98587600D03*
X127012800Y-101127600D03*
X127012800Y-103667600D03*
X127012800Y-106207600D03*
X129552800Y-60487600D03*
X129552800Y-63027600D03*
X129552800Y-65567600D03*
X129552800Y-68107600D03*
X129552800Y-70647600D03*
X129552800Y-73187600D03*
X129552800Y-75727600D03*
X129552800Y-78267600D03*
X129552800Y-80807600D03*
X129552800Y-83347600D03*
X129552800Y-85887600D03*
X129552800Y-88427600D03*
X129552800Y-90967600D03*
X129552800Y-93507600D03*
X129552800Y-96047600D03*
X129552800Y-98587600D03*
X129552800Y-101127600D03*
X129552800Y-103667600D03*
X129552800Y-106207600D03*
D15*
%TO.C,J1*%
X192566800Y-69719200D02*
X193566800Y-69719200D01*
X197366800Y-60219200D02*
X198366800Y-60219200D01*
X201366800Y-64219200D02*
X201366800Y-65219200D01*
D16*
%TO.C,R1*%
X166556200Y-70967600D03*
X174176200Y-70967600D03*
D17*
%TO.C,RV1*%
X190275200Y-94528000D03*
X190275200Y-99528000D03*
X200275200Y-97028000D03*
D18*
%TO.C,J3*%
X195529200Y-74828400D03*
X195529200Y-84988400D03*
M02*
