M48
; DRILL file {KiCad 9.0.2-9.0.2-0~ubuntu24.04.1} date 2025-06-13T19:30:23+0100
; FORMAT={-:-/ absolute / metric / decimal}
; #@! TF.CreationDate,2025-06-13T19:30:23+01:00
; #@! TF.GenerationSoftware,Kicad,Pcbnew,9.0.2-9.0.2-0~ubuntu24.04.1
; #@! TF.FileFunction,Plated,1,2,PTH
FMAT,2
METRIC
; #@! TA.AperFunction,Plated,PTH,ViaDrill
T1C0.300
; #@! TA.AperFunction,Plated,PTH,ComponentDrill
T2C0.700
; #@! TA.AperFunction,Plated,PTH,ComponentDrill
T3C0.800
; #@! TA.AperFunction,Plated,PTH,ComponentDrill
T4C0.890
; #@! TA.AperFunction,Plated,PTH,ComponentDrill
T5C1.000
; #@! TA.AperFunction,Plated,PTH,ComponentDrill
T6C2.010
%
G90
G05
T1
X154.534Y-91.745
X155.296Y-71.526
X159.41Y-98.908
X164.998Y-92.812
T2
X165.71Y-94.1
X165.71Y-99.18
X169.096Y-70.968
X174.176Y-70.968
X182.337Y-88.189
X187.417Y-88.189
T3
X137.775Y-69.596
X137.775Y-72.136
X137.775Y-74.676
X137.775Y-77.216
X137.775Y-79.756
X137.775Y-82.296
X137.775Y-84.836
X137.775Y-87.376
X138.876Y-65.532
X139.395Y-94.386
X139.395Y-102.006
X141.935Y-94.386
X141.935Y-102.006
X143.876Y-65.532
X144.475Y-94.386
X144.475Y-102.006
X145.395Y-69.596
X145.395Y-72.136
X145.395Y-74.676
X145.395Y-77.216
X145.395Y-79.756
X145.395Y-82.296
X145.395Y-84.836
X145.395Y-87.376
X147.015Y-94.386
X147.015Y-102.006
X149.555Y-94.386
X149.555Y-102.006
X151.531Y-71.272
X151.531Y-73.812
X151.531Y-76.352
X151.531Y-78.892
X151.531Y-81.432
X151.531Y-83.972
X151.531Y-86.512
X152.095Y-94.386
X152.095Y-102.006
X152.542Y-68.326
X154.635Y-94.386
X154.635Y-102.006
X157.531Y-95.595
X157.531Y-100.595
X157.542Y-68.326
X159.151Y-71.272
X159.151Y-73.812
X159.151Y-76.352
X159.151Y-78.892
X159.151Y-81.432
X159.151Y-83.972
X159.151Y-86.512
X166.98Y-77.572
X166.98Y-85.192
X168.594Y-89.56
X173.594Y-89.56
X174.6Y-77.572
X174.6Y-85.192
X175.717Y-94.239
X175.717Y-101.859
X178.257Y-94.239
X178.257Y-101.859
X179.426Y-78.526
X179.426Y-83.526
X180.797Y-94.239
X180.797Y-101.859
X183.337Y-94.239
X183.337Y-101.859
X187.147Y-95.544
X187.147Y-100.544
X192.92Y-99.0
X195.46Y-99.0
X198.0Y-99.0
T4
X190.449Y-77.368
X190.449Y-79.908
T5
X127.013Y-60.488
X127.013Y-63.028
X127.013Y-65.568
X127.013Y-68.108
X127.013Y-70.648
X127.013Y-73.188
X127.013Y-75.728
X127.013Y-78.268
X127.013Y-80.808
X127.013Y-83.348
X127.013Y-85.888
X127.013Y-88.428
X127.013Y-90.968
X127.013Y-93.508
X127.013Y-96.048
X127.013Y-98.588
X127.013Y-101.128
X127.013Y-103.668
X127.013Y-106.208
X129.553Y-60.488
X129.553Y-63.028
X129.553Y-65.568
X129.553Y-68.108
X129.553Y-70.648
X129.553Y-73.188
X129.553Y-75.728
X129.553Y-78.268
X129.553Y-80.808
X129.553Y-83.348
X129.553Y-85.888
X129.553Y-88.428
X129.553Y-90.968
X129.553Y-93.508
X129.553Y-96.048
X129.553Y-98.588
X129.553Y-101.128
X129.553Y-103.668
X129.553Y-106.208
T6
X195.529Y-74.828
X195.529Y-84.988
T5
G00X193.567Y-69.719
M15
G01X192.567Y-69.719
M16
G05
G00X198.367Y-60.219
M15
G01X197.367Y-60.219
M16
G05
G00X201.367Y-65.219
M15
G01X201.367Y-64.219
M16
G05
M30
