M48
; DRILL file {KiCad 9.0.2} date 2025-06-04T02:29:22+0100
; FORMAT={-:-/ absolute / inch / decimal}
; #@! TF.CreationDate,2025-06-04T02:29:22+01:00
; #@! TF.GenerationSoftware,Kicad,Pcbnew,9.0.2
; #@! TF.FileFunction,Plated,1,2,PTH
FMAT,2
INCH
; #@! TA.AperFunction,Plated,PTH,ComponentDrill
T1C0.0315
; #@! TA.AperFunction,Plated,PTH,ComponentDrill
T2C0.0354
; #@! TA.AperFunction,Plated,PTH,ComponentDrill
T3C0.0394
%
G90
G05
T1
X3.5126Y-1.811
X3.5126Y-2.111
X3.5241Y-2.2746
X3.5241Y-2.5746
X3.5241Y-2.7246
X3.5241Y-3.0246
X3.5264Y-1.3461
X3.5264Y-1.6461
X3.6126Y-1.811
X3.6126Y-2.111
X3.6241Y-2.2746
X3.6241Y-2.5746
X3.6241Y-2.7246
X3.6241Y-3.0246
X3.6264Y-1.3461
X3.6264Y-1.6461
X3.7126Y-1.811
X3.7126Y-2.111
X3.7241Y-2.2746
X3.7241Y-2.5746
X3.7241Y-2.7246
X3.7241Y-3.0246
X3.7264Y-1.3461
X3.7264Y-1.6461
X3.8126Y-1.811
X3.8126Y-2.111
X3.8241Y-2.2746
X3.8241Y-2.5746
X3.8241Y-2.7246
X3.8241Y-3.0246
X3.8264Y-1.3461
X3.8264Y-1.6461
X3.9126Y-1.811
X3.9126Y-2.111
X3.9241Y-2.2746
X3.9241Y-2.5746
X3.9241Y-2.7246
X3.9241Y-3.0246
X3.9264Y-1.3461
X3.9264Y-1.6461
X4.0126Y-1.811
X4.0126Y-2.111
X4.0241Y-2.2746
X4.0241Y-2.5746
X4.0241Y-2.7246
X4.0241Y-3.0246
X4.0264Y-1.3461
X4.0264Y-1.6461
X4.1126Y-1.811
X4.1126Y-2.111
X4.1241Y-2.2746
X4.1241Y-2.5746
X4.1241Y-2.7246
X4.1241Y-3.0246
X4.1264Y-1.3461
X4.1264Y-1.6461
X4.2126Y-1.811
X4.2126Y-2.111
X4.2241Y-2.2746
X4.2241Y-2.5746
X4.2241Y-2.7246
X4.2241Y-3.0246
X4.2264Y-1.3461
X4.2264Y-1.6461
X4.3126Y-1.811
X4.3126Y-2.111
X4.3241Y-2.2746
X4.3241Y-2.5746
X4.3241Y-2.7246
X4.3241Y-3.0246
X4.3264Y-1.3461
X4.3264Y-1.6461
X4.4126Y-1.811
X4.4126Y-2.111
X4.4241Y-2.2746
X4.4241Y-2.5746
X4.4241Y-2.7246
X4.4241Y-3.0246
X4.4264Y-1.3461
X4.4264Y-1.6461
X4.8738Y-1.9951
X4.8783Y-3.0167
X4.8793Y-1.5551
X4.8827Y-2.5482
X4.9738Y-1.9951
X4.9783Y-3.0167
X4.9793Y-1.5551
X4.9827Y-2.5482
X5.0738Y-1.9951
X5.0783Y-3.0167
X5.0793Y-1.5551
X5.0827Y-2.5482
X5.1738Y-1.9951
X5.1783Y-3.0167
X5.1793Y-1.5551
X5.1827Y-2.5482
X5.2738Y-1.9951
X5.2783Y-3.0167
X5.2793Y-1.5551
X5.2827Y-2.5482
X5.3738Y-1.9951
X5.3783Y-3.0167
X5.3793Y-1.5551
X5.3827Y-2.5482
X5.4738Y-1.9951
X5.4783Y-3.0167
X5.4793Y-1.5551
X5.4827Y-2.5482
X5.5738Y-1.9951
X5.5783Y-3.0167
X5.5793Y-1.5551
X5.5827Y-2.5482
X5.6738Y-1.9951
X5.6783Y-3.0167
X5.6793Y-1.5551
X5.6827Y-2.5482
X5.7738Y-1.9951
X5.7783Y-3.0167
X5.7793Y-1.5551
X5.7827Y-2.5482
T2
X4.5846Y-1.7667
X4.5848Y-2.311
X4.5957Y-1.3386
X4.6846Y-1.7667
X4.6848Y-2.311
X4.6957Y-1.3386
X4.7685Y-2.7785
X4.7844Y-1.7667
X4.7907Y-2.311
X4.7933Y-1.3386
X4.8685Y-2.7785
X4.8844Y-1.7667
X4.8907Y-2.311
X4.8933Y-1.3386
X4.9654Y-2.7785
X4.9852Y-1.7667
X4.9876Y-2.311
X4.9902Y-1.3386
X5.0654Y-2.7785
X5.0852Y-1.7667
X5.0876Y-2.311
X5.0902Y-1.3386
X5.1622Y-2.7785
X5.1841Y-1.7677
X5.1844Y-2.311
X5.188Y-1.3386
X5.2622Y-2.7785
X5.2841Y-1.7677
X5.2844Y-2.311
X5.288Y-1.3386
X5.3591Y-2.7785
X5.3811Y-1.7677
X5.3813Y-2.311
X5.3858Y-1.3406
X5.4591Y-2.7785
X5.4811Y-1.7677
X5.4813Y-2.311
X5.4858Y-1.3406
X5.5551Y-2.7785
X5.5781Y-2.311
X5.5787Y-1.7667
X5.5827Y-1.3406
X5.6551Y-2.7785
X5.6781Y-2.311
X5.6787Y-1.7667
X5.6827Y-1.3406
X5.7461Y-2.7785
X5.775Y-2.311
X5.7758Y-1.7677
X5.7805Y-1.3406
X5.8461Y-2.7785
X5.875Y-2.311
X5.8758Y-1.7677
X5.8805Y-1.3406
X5.939Y-2.7785
X5.9719Y-2.311
X5.9734Y-1.7677
X5.9774Y-1.3396
X6.039Y-2.7785
X6.0719Y-2.311
X6.0734Y-1.7677
X6.0774Y-1.3396
T3
X2.9541Y-1.2646
X2.9541Y-1.3646
X2.9541Y-1.4646
X2.9541Y-1.5646
X2.9541Y-1.6646
X2.9541Y-1.7646
X2.9541Y-1.8646
X2.9541Y-1.9646
X2.9541Y-2.0646
X2.9541Y-2.1646
X2.9541Y-2.2646
X2.9541Y-2.3646
X2.9541Y-2.4646
X2.9541Y-2.5646
X2.9541Y-2.6646
X2.9541Y-2.7646
X2.9541Y-2.8646
X2.9541Y-2.9646
X2.9541Y-3.0646
X3.0541Y-1.2646
X3.0541Y-1.3646
X3.0541Y-1.4646
X3.0541Y-1.5646
X3.0541Y-1.6646
X3.0541Y-1.7646
X3.0541Y-1.8646
X3.0541Y-1.9646
X3.0541Y-2.0646
X3.0541Y-2.1646
X3.0541Y-2.2646
X3.0541Y-2.3646
X3.0541Y-2.4646
X3.0541Y-2.5646
X3.0541Y-2.6646
X3.0541Y-2.7646
X3.0541Y-2.8646
X3.0541Y-2.9646
X3.0541Y-3.0646
M30
