%TF.GenerationSoftware,KiCad,Pcbnew,9.0.2*%
%TF.CreationDate,2025-06-04T16:37:23+01:00*%
%TF.ProjectId,6502ExpBoard,36353032-4578-4704-926f-6172642e6b69,rev?*%
%TF.SameCoordinates,Original*%
%TF.FileFunction,Legend,Top*%
%TF.FilePolarity,Positive*%
%FSLAX46Y46*%
G04 Gerber Fmt 4.6, Leading zero omitted, Abs format (unit mm)*
G04 Created by KiCad (PCBNEW 9.0.2) date 2025-06-04 16:37:23*
%MOMM*%
%LPD*%
G01*
G04 APERTURE LIST*
%ADD10C,0.150000*%
%ADD11C,0.120000*%
%ADD12C,0.100000*%
G04 APERTURE END LIST*
D10*
X97823952Y-72469819D02*
X98490618Y-72469819D01*
X98490618Y-72469819D02*
X98062047Y-73469819D01*
X99300142Y-72803152D02*
X99300142Y-73469819D01*
X99062047Y-72422200D02*
X98823952Y-73136485D01*
X98823952Y-73136485D02*
X99442999Y-73136485D01*
X100300142Y-73469819D02*
X99823952Y-73469819D01*
X99823952Y-73469819D02*
X99823952Y-72469819D01*
X100585857Y-73422200D02*
X100728714Y-73469819D01*
X100728714Y-73469819D02*
X100966809Y-73469819D01*
X100966809Y-73469819D02*
X101062047Y-73422200D01*
X101062047Y-73422200D02*
X101109666Y-73374580D01*
X101109666Y-73374580D02*
X101157285Y-73279342D01*
X101157285Y-73279342D02*
X101157285Y-73184104D01*
X101157285Y-73184104D02*
X101109666Y-73088866D01*
X101109666Y-73088866D02*
X101062047Y-73041247D01*
X101062047Y-73041247D02*
X100966809Y-72993628D01*
X100966809Y-72993628D02*
X100776333Y-72946009D01*
X100776333Y-72946009D02*
X100681095Y-72898390D01*
X100681095Y-72898390D02*
X100633476Y-72850771D01*
X100633476Y-72850771D02*
X100585857Y-72755533D01*
X100585857Y-72755533D02*
X100585857Y-72660295D01*
X100585857Y-72660295D02*
X100633476Y-72565057D01*
X100633476Y-72565057D02*
X100681095Y-72517438D01*
X100681095Y-72517438D02*
X100776333Y-72469819D01*
X100776333Y-72469819D02*
X101014428Y-72469819D01*
X101014428Y-72469819D02*
X101157285Y-72517438D01*
X101490619Y-72469819D02*
X102109666Y-72469819D01*
X102109666Y-72469819D02*
X101776333Y-72850771D01*
X101776333Y-72850771D02*
X101919190Y-72850771D01*
X101919190Y-72850771D02*
X102014428Y-72898390D01*
X102014428Y-72898390D02*
X102062047Y-72946009D01*
X102062047Y-72946009D02*
X102109666Y-73041247D01*
X102109666Y-73041247D02*
X102109666Y-73279342D01*
X102109666Y-73279342D02*
X102062047Y-73374580D01*
X102062047Y-73374580D02*
X102014428Y-73422200D01*
X102014428Y-73422200D02*
X101919190Y-73469819D01*
X101919190Y-73469819D02*
X101633476Y-73469819D01*
X101633476Y-73469819D02*
X101538238Y-73422200D01*
X101538238Y-73422200D02*
X101490619Y-73374580D01*
X102443000Y-72469819D02*
X103109666Y-72469819D01*
X103109666Y-72469819D02*
X102681095Y-73469819D01*
X103395381Y-72469819D02*
X104014428Y-72469819D01*
X104014428Y-72469819D02*
X103681095Y-72850771D01*
X103681095Y-72850771D02*
X103823952Y-72850771D01*
X103823952Y-72850771D02*
X103919190Y-72898390D01*
X103919190Y-72898390D02*
X103966809Y-72946009D01*
X103966809Y-72946009D02*
X104014428Y-73041247D01*
X104014428Y-73041247D02*
X104014428Y-73279342D01*
X104014428Y-73279342D02*
X103966809Y-73374580D01*
X103966809Y-73374580D02*
X103919190Y-73422200D01*
X103919190Y-73422200D02*
X103823952Y-73469819D01*
X103823952Y-73469819D02*
X103538238Y-73469819D01*
X103538238Y-73469819D02*
X103443000Y-73422200D01*
X103443000Y-73422200D02*
X103395381Y-73374580D01*
X132330714Y-37129104D02*
X132806904Y-37129104D01*
X132235476Y-37414819D02*
X132568809Y-36414819D01*
X132568809Y-36414819D02*
X132902142Y-37414819D01*
X133140238Y-36414819D02*
X133759285Y-36414819D01*
X133759285Y-36414819D02*
X133425952Y-36795771D01*
X133425952Y-36795771D02*
X133568809Y-36795771D01*
X133568809Y-36795771D02*
X133664047Y-36843390D01*
X133664047Y-36843390D02*
X133711666Y-36891009D01*
X133711666Y-36891009D02*
X133759285Y-36986247D01*
X133759285Y-36986247D02*
X133759285Y-37224342D01*
X133759285Y-37224342D02*
X133711666Y-37319580D01*
X133711666Y-37319580D02*
X133664047Y-37367200D01*
X133664047Y-37367200D02*
X133568809Y-37414819D01*
X133568809Y-37414819D02*
X133283095Y-37414819D01*
X133283095Y-37414819D02*
X133187857Y-37367200D01*
X133187857Y-37367200D02*
X133140238Y-37319580D01*
D11*
X132073571Y-34363855D02*
X132073571Y-33563855D01*
X132073571Y-33563855D02*
X132264047Y-33563855D01*
X132264047Y-33563855D02*
X132378333Y-33601950D01*
X132378333Y-33601950D02*
X132454523Y-33678140D01*
X132454523Y-33678140D02*
X132492618Y-33754331D01*
X132492618Y-33754331D02*
X132530714Y-33906712D01*
X132530714Y-33906712D02*
X132530714Y-34020998D01*
X132530714Y-34020998D02*
X132492618Y-34173379D01*
X132492618Y-34173379D02*
X132454523Y-34249569D01*
X132454523Y-34249569D02*
X132378333Y-34325760D01*
X132378333Y-34325760D02*
X132264047Y-34363855D01*
X132264047Y-34363855D02*
X132073571Y-34363855D01*
X133292618Y-34363855D02*
X132835475Y-34363855D01*
X133064047Y-34363855D02*
X133064047Y-33563855D01*
X133064047Y-33563855D02*
X132987856Y-33678140D01*
X132987856Y-33678140D02*
X132911666Y-33754331D01*
X132911666Y-33754331D02*
X132835475Y-33792426D01*
X133597380Y-33640045D02*
X133635476Y-33601950D01*
X133635476Y-33601950D02*
X133711666Y-33563855D01*
X133711666Y-33563855D02*
X133902142Y-33563855D01*
X133902142Y-33563855D02*
X133978333Y-33601950D01*
X133978333Y-33601950D02*
X134016428Y-33640045D01*
X134016428Y-33640045D02*
X134054523Y-33716236D01*
X134054523Y-33716236D02*
X134054523Y-33792426D01*
X134054523Y-33792426D02*
X134016428Y-33906712D01*
X134016428Y-33906712D02*
X133559285Y-34363855D01*
X133559285Y-34363855D02*
X134054523Y-34363855D01*
D10*
X141779524Y-48004104D02*
X142255714Y-48004104D01*
X141684286Y-48289819D02*
X142017619Y-47289819D01*
X142017619Y-47289819D02*
X142350952Y-48289819D01*
X143208095Y-48289819D02*
X142636667Y-48289819D01*
X142922381Y-48289819D02*
X142922381Y-47289819D01*
X142922381Y-47289819D02*
X142827143Y-47432676D01*
X142827143Y-47432676D02*
X142731905Y-47527914D01*
X142731905Y-47527914D02*
X142636667Y-47575533D01*
X143541429Y-47289819D02*
X144160476Y-47289819D01*
X144160476Y-47289819D02*
X143827143Y-47670771D01*
X143827143Y-47670771D02*
X143970000Y-47670771D01*
X143970000Y-47670771D02*
X144065238Y-47718390D01*
X144065238Y-47718390D02*
X144112857Y-47766009D01*
X144112857Y-47766009D02*
X144160476Y-47861247D01*
X144160476Y-47861247D02*
X144160476Y-48099342D01*
X144160476Y-48099342D02*
X144112857Y-48194580D01*
X144112857Y-48194580D02*
X144065238Y-48242200D01*
X144065238Y-48242200D02*
X143970000Y-48289819D01*
X143970000Y-48289819D02*
X143684286Y-48289819D01*
X143684286Y-48289819D02*
X143589048Y-48242200D01*
X143589048Y-48242200D02*
X143541429Y-48194580D01*
D11*
X141998571Y-45238855D02*
X141998571Y-44438855D01*
X141998571Y-44438855D02*
X142189047Y-44438855D01*
X142189047Y-44438855D02*
X142303333Y-44476950D01*
X142303333Y-44476950D02*
X142379523Y-44553140D01*
X142379523Y-44553140D02*
X142417618Y-44629331D01*
X142417618Y-44629331D02*
X142455714Y-44781712D01*
X142455714Y-44781712D02*
X142455714Y-44895998D01*
X142455714Y-44895998D02*
X142417618Y-45048379D01*
X142417618Y-45048379D02*
X142379523Y-45124569D01*
X142379523Y-45124569D02*
X142303333Y-45200760D01*
X142303333Y-45200760D02*
X142189047Y-45238855D01*
X142189047Y-45238855D02*
X141998571Y-45238855D01*
X142760475Y-44515045D02*
X142798571Y-44476950D01*
X142798571Y-44476950D02*
X142874761Y-44438855D01*
X142874761Y-44438855D02*
X143065237Y-44438855D01*
X143065237Y-44438855D02*
X143141428Y-44476950D01*
X143141428Y-44476950D02*
X143179523Y-44515045D01*
X143179523Y-44515045D02*
X143217618Y-44591236D01*
X143217618Y-44591236D02*
X143217618Y-44667426D01*
X143217618Y-44667426D02*
X143179523Y-44781712D01*
X143179523Y-44781712D02*
X142722380Y-45238855D01*
X142722380Y-45238855D02*
X143217618Y-45238855D01*
X143522380Y-44515045D02*
X143560476Y-44476950D01*
X143560476Y-44476950D02*
X143636666Y-44438855D01*
X143636666Y-44438855D02*
X143827142Y-44438855D01*
X143827142Y-44438855D02*
X143903333Y-44476950D01*
X143903333Y-44476950D02*
X143941428Y-44515045D01*
X143941428Y-44515045D02*
X143979523Y-44591236D01*
X143979523Y-44591236D02*
X143979523Y-44667426D01*
X143979523Y-44667426D02*
X143941428Y-44781712D01*
X143941428Y-44781712D02*
X143484285Y-45238855D01*
X143484285Y-45238855D02*
X143979523Y-45238855D01*
D10*
X122305714Y-37129104D02*
X122781904Y-37129104D01*
X122210476Y-37414819D02*
X122543809Y-36414819D01*
X122543809Y-36414819D02*
X122877142Y-37414819D01*
X123734285Y-37414819D02*
X123162857Y-37414819D01*
X123448571Y-37414819D02*
X123448571Y-36414819D01*
X123448571Y-36414819D02*
X123353333Y-36557676D01*
X123353333Y-36557676D02*
X123258095Y-36652914D01*
X123258095Y-36652914D02*
X123162857Y-36700533D01*
D11*
X122048571Y-34363855D02*
X122048571Y-33563855D01*
X122048571Y-33563855D02*
X122239047Y-33563855D01*
X122239047Y-33563855D02*
X122353333Y-33601950D01*
X122353333Y-33601950D02*
X122429523Y-33678140D01*
X122429523Y-33678140D02*
X122467618Y-33754331D01*
X122467618Y-33754331D02*
X122505714Y-33906712D01*
X122505714Y-33906712D02*
X122505714Y-34020998D01*
X122505714Y-34020998D02*
X122467618Y-34173379D01*
X122467618Y-34173379D02*
X122429523Y-34249569D01*
X122429523Y-34249569D02*
X122353333Y-34325760D01*
X122353333Y-34325760D02*
X122239047Y-34363855D01*
X122239047Y-34363855D02*
X122048571Y-34363855D01*
X123267618Y-34363855D02*
X122810475Y-34363855D01*
X123039047Y-34363855D02*
X123039047Y-33563855D01*
X123039047Y-33563855D02*
X122962856Y-33678140D01*
X122962856Y-33678140D02*
X122886666Y-33754331D01*
X122886666Y-33754331D02*
X122810475Y-33792426D01*
X123762857Y-33563855D02*
X123839047Y-33563855D01*
X123839047Y-33563855D02*
X123915238Y-33601950D01*
X123915238Y-33601950D02*
X123953333Y-33640045D01*
X123953333Y-33640045D02*
X123991428Y-33716236D01*
X123991428Y-33716236D02*
X124029523Y-33868617D01*
X124029523Y-33868617D02*
X124029523Y-34059093D01*
X124029523Y-34059093D02*
X123991428Y-34211474D01*
X123991428Y-34211474D02*
X123953333Y-34287664D01*
X123953333Y-34287664D02*
X123915238Y-34325760D01*
X123915238Y-34325760D02*
X123839047Y-34363855D01*
X123839047Y-34363855D02*
X123762857Y-34363855D01*
X123762857Y-34363855D02*
X123686666Y-34325760D01*
X123686666Y-34325760D02*
X123648571Y-34287664D01*
X123648571Y-34287664D02*
X123610476Y-34211474D01*
X123610476Y-34211474D02*
X123572380Y-34059093D01*
X123572380Y-34059093D02*
X123572380Y-33868617D01*
X123572380Y-33868617D02*
X123610476Y-33716236D01*
X123610476Y-33716236D02*
X123648571Y-33640045D01*
X123648571Y-33640045D02*
X123686666Y-33601950D01*
X123686666Y-33601950D02*
X123762857Y-33563855D01*
D10*
X127305714Y-37129104D02*
X127781904Y-37129104D01*
X127210476Y-37414819D02*
X127543809Y-36414819D01*
X127543809Y-36414819D02*
X127877142Y-37414819D01*
X128162857Y-36510057D02*
X128210476Y-36462438D01*
X128210476Y-36462438D02*
X128305714Y-36414819D01*
X128305714Y-36414819D02*
X128543809Y-36414819D01*
X128543809Y-36414819D02*
X128639047Y-36462438D01*
X128639047Y-36462438D02*
X128686666Y-36510057D01*
X128686666Y-36510057D02*
X128734285Y-36605295D01*
X128734285Y-36605295D02*
X128734285Y-36700533D01*
X128734285Y-36700533D02*
X128686666Y-36843390D01*
X128686666Y-36843390D02*
X128115238Y-37414819D01*
X128115238Y-37414819D02*
X128734285Y-37414819D01*
D11*
X127048571Y-34363855D02*
X127048571Y-33563855D01*
X127048571Y-33563855D02*
X127239047Y-33563855D01*
X127239047Y-33563855D02*
X127353333Y-33601950D01*
X127353333Y-33601950D02*
X127429523Y-33678140D01*
X127429523Y-33678140D02*
X127467618Y-33754331D01*
X127467618Y-33754331D02*
X127505714Y-33906712D01*
X127505714Y-33906712D02*
X127505714Y-34020998D01*
X127505714Y-34020998D02*
X127467618Y-34173379D01*
X127467618Y-34173379D02*
X127429523Y-34249569D01*
X127429523Y-34249569D02*
X127353333Y-34325760D01*
X127353333Y-34325760D02*
X127239047Y-34363855D01*
X127239047Y-34363855D02*
X127048571Y-34363855D01*
X128267618Y-34363855D02*
X127810475Y-34363855D01*
X128039047Y-34363855D02*
X128039047Y-33563855D01*
X128039047Y-33563855D02*
X127962856Y-33678140D01*
X127962856Y-33678140D02*
X127886666Y-33754331D01*
X127886666Y-33754331D02*
X127810475Y-33792426D01*
X129029523Y-34363855D02*
X128572380Y-34363855D01*
X128800952Y-34363855D02*
X128800952Y-33563855D01*
X128800952Y-33563855D02*
X128724761Y-33678140D01*
X128724761Y-33678140D02*
X128648571Y-33754331D01*
X128648571Y-33754331D02*
X128572380Y-33792426D01*
D10*
X142355714Y-37179104D02*
X142831904Y-37179104D01*
X142260476Y-37464819D02*
X142593809Y-36464819D01*
X142593809Y-36464819D02*
X142927142Y-37464819D01*
X143736666Y-36464819D02*
X143260476Y-36464819D01*
X143260476Y-36464819D02*
X143212857Y-36941009D01*
X143212857Y-36941009D02*
X143260476Y-36893390D01*
X143260476Y-36893390D02*
X143355714Y-36845771D01*
X143355714Y-36845771D02*
X143593809Y-36845771D01*
X143593809Y-36845771D02*
X143689047Y-36893390D01*
X143689047Y-36893390D02*
X143736666Y-36941009D01*
X143736666Y-36941009D02*
X143784285Y-37036247D01*
X143784285Y-37036247D02*
X143784285Y-37274342D01*
X143784285Y-37274342D02*
X143736666Y-37369580D01*
X143736666Y-37369580D02*
X143689047Y-37417200D01*
X143689047Y-37417200D02*
X143593809Y-37464819D01*
X143593809Y-37464819D02*
X143355714Y-37464819D01*
X143355714Y-37464819D02*
X143260476Y-37417200D01*
X143260476Y-37417200D02*
X143212857Y-37369580D01*
D11*
X142098571Y-34413855D02*
X142098571Y-33613855D01*
X142098571Y-33613855D02*
X142289047Y-33613855D01*
X142289047Y-33613855D02*
X142403333Y-33651950D01*
X142403333Y-33651950D02*
X142479523Y-33728140D01*
X142479523Y-33728140D02*
X142517618Y-33804331D01*
X142517618Y-33804331D02*
X142555714Y-33956712D01*
X142555714Y-33956712D02*
X142555714Y-34070998D01*
X142555714Y-34070998D02*
X142517618Y-34223379D01*
X142517618Y-34223379D02*
X142479523Y-34299569D01*
X142479523Y-34299569D02*
X142403333Y-34375760D01*
X142403333Y-34375760D02*
X142289047Y-34413855D01*
X142289047Y-34413855D02*
X142098571Y-34413855D01*
X143317618Y-34413855D02*
X142860475Y-34413855D01*
X143089047Y-34413855D02*
X143089047Y-33613855D01*
X143089047Y-33613855D02*
X143012856Y-33728140D01*
X143012856Y-33728140D02*
X142936666Y-33804331D01*
X142936666Y-33804331D02*
X142860475Y-33842426D01*
X144003333Y-33880521D02*
X144003333Y-34413855D01*
X143812857Y-33575760D02*
X143622380Y-34147188D01*
X143622380Y-34147188D02*
X144117619Y-34147188D01*
D10*
X137216905Y-62114819D02*
X137216905Y-61114819D01*
X137216905Y-61114819D02*
X137455000Y-61114819D01*
X137455000Y-61114819D02*
X137597857Y-61162438D01*
X137597857Y-61162438D02*
X137693095Y-61257676D01*
X137693095Y-61257676D02*
X137740714Y-61352914D01*
X137740714Y-61352914D02*
X137788333Y-61543390D01*
X137788333Y-61543390D02*
X137788333Y-61686247D01*
X137788333Y-61686247D02*
X137740714Y-61876723D01*
X137740714Y-61876723D02*
X137693095Y-61971961D01*
X137693095Y-61971961D02*
X137597857Y-62067200D01*
X137597857Y-62067200D02*
X137455000Y-62114819D01*
X137455000Y-62114819D02*
X137216905Y-62114819D01*
X138645476Y-61448152D02*
X138645476Y-62114819D01*
X138407381Y-61067200D02*
X138169286Y-61781485D01*
X138169286Y-61781485D02*
X138788333Y-61781485D01*
D11*
X136983571Y-59063855D02*
X136983571Y-58263855D01*
X136983571Y-58263855D02*
X137174047Y-58263855D01*
X137174047Y-58263855D02*
X137288333Y-58301950D01*
X137288333Y-58301950D02*
X137364523Y-58378140D01*
X137364523Y-58378140D02*
X137402618Y-58454331D01*
X137402618Y-58454331D02*
X137440714Y-58606712D01*
X137440714Y-58606712D02*
X137440714Y-58720998D01*
X137440714Y-58720998D02*
X137402618Y-58873379D01*
X137402618Y-58873379D02*
X137364523Y-58949569D01*
X137364523Y-58949569D02*
X137288333Y-59025760D01*
X137288333Y-59025760D02*
X137174047Y-59063855D01*
X137174047Y-59063855D02*
X136983571Y-59063855D01*
X137745475Y-58340045D02*
X137783571Y-58301950D01*
X137783571Y-58301950D02*
X137859761Y-58263855D01*
X137859761Y-58263855D02*
X138050237Y-58263855D01*
X138050237Y-58263855D02*
X138126428Y-58301950D01*
X138126428Y-58301950D02*
X138164523Y-58340045D01*
X138164523Y-58340045D02*
X138202618Y-58416236D01*
X138202618Y-58416236D02*
X138202618Y-58492426D01*
X138202618Y-58492426D02*
X138164523Y-58606712D01*
X138164523Y-58606712D02*
X137707380Y-59063855D01*
X137707380Y-59063855D02*
X138202618Y-59063855D01*
X138583571Y-59063855D02*
X138735952Y-59063855D01*
X138735952Y-59063855D02*
X138812142Y-59025760D01*
X138812142Y-59025760D02*
X138850238Y-58987664D01*
X138850238Y-58987664D02*
X138926428Y-58873379D01*
X138926428Y-58873379D02*
X138964523Y-58720998D01*
X138964523Y-58720998D02*
X138964523Y-58416236D01*
X138964523Y-58416236D02*
X138926428Y-58340045D01*
X138926428Y-58340045D02*
X138888333Y-58301950D01*
X138888333Y-58301950D02*
X138812142Y-58263855D01*
X138812142Y-58263855D02*
X138659761Y-58263855D01*
X138659761Y-58263855D02*
X138583571Y-58301950D01*
X138583571Y-58301950D02*
X138545476Y-58340045D01*
X138545476Y-58340045D02*
X138507380Y-58416236D01*
X138507380Y-58416236D02*
X138507380Y-58606712D01*
X138507380Y-58606712D02*
X138545476Y-58682902D01*
X138545476Y-58682902D02*
X138583571Y-58720998D01*
X138583571Y-58720998D02*
X138659761Y-58759093D01*
X138659761Y-58759093D02*
X138812142Y-58759093D01*
X138812142Y-58759093D02*
X138888333Y-58720998D01*
X138888333Y-58720998D02*
X138926428Y-58682902D01*
X138926428Y-58682902D02*
X138964523Y-58606712D01*
D10*
X147216905Y-62114819D02*
X147216905Y-61114819D01*
X147216905Y-61114819D02*
X147455000Y-61114819D01*
X147455000Y-61114819D02*
X147597857Y-61162438D01*
X147597857Y-61162438D02*
X147693095Y-61257676D01*
X147693095Y-61257676D02*
X147740714Y-61352914D01*
X147740714Y-61352914D02*
X147788333Y-61543390D01*
X147788333Y-61543390D02*
X147788333Y-61686247D01*
X147788333Y-61686247D02*
X147740714Y-61876723D01*
X147740714Y-61876723D02*
X147693095Y-61971961D01*
X147693095Y-61971961D02*
X147597857Y-62067200D01*
X147597857Y-62067200D02*
X147455000Y-62114819D01*
X147455000Y-62114819D02*
X147216905Y-62114819D01*
X148645476Y-61114819D02*
X148455000Y-61114819D01*
X148455000Y-61114819D02*
X148359762Y-61162438D01*
X148359762Y-61162438D02*
X148312143Y-61210057D01*
X148312143Y-61210057D02*
X148216905Y-61352914D01*
X148216905Y-61352914D02*
X148169286Y-61543390D01*
X148169286Y-61543390D02*
X148169286Y-61924342D01*
X148169286Y-61924342D02*
X148216905Y-62019580D01*
X148216905Y-62019580D02*
X148264524Y-62067200D01*
X148264524Y-62067200D02*
X148359762Y-62114819D01*
X148359762Y-62114819D02*
X148550238Y-62114819D01*
X148550238Y-62114819D02*
X148645476Y-62067200D01*
X148645476Y-62067200D02*
X148693095Y-62019580D01*
X148693095Y-62019580D02*
X148740714Y-61924342D01*
X148740714Y-61924342D02*
X148740714Y-61686247D01*
X148740714Y-61686247D02*
X148693095Y-61591009D01*
X148693095Y-61591009D02*
X148645476Y-61543390D01*
X148645476Y-61543390D02*
X148550238Y-61495771D01*
X148550238Y-61495771D02*
X148359762Y-61495771D01*
X148359762Y-61495771D02*
X148264524Y-61543390D01*
X148264524Y-61543390D02*
X148216905Y-61591009D01*
X148216905Y-61591009D02*
X148169286Y-61686247D01*
D11*
X146983571Y-59063855D02*
X146983571Y-58263855D01*
X146983571Y-58263855D02*
X147174047Y-58263855D01*
X147174047Y-58263855D02*
X147288333Y-58301950D01*
X147288333Y-58301950D02*
X147364523Y-58378140D01*
X147364523Y-58378140D02*
X147402618Y-58454331D01*
X147402618Y-58454331D02*
X147440714Y-58606712D01*
X147440714Y-58606712D02*
X147440714Y-58720998D01*
X147440714Y-58720998D02*
X147402618Y-58873379D01*
X147402618Y-58873379D02*
X147364523Y-58949569D01*
X147364523Y-58949569D02*
X147288333Y-59025760D01*
X147288333Y-59025760D02*
X147174047Y-59063855D01*
X147174047Y-59063855D02*
X146983571Y-59063855D01*
X147707380Y-58263855D02*
X148202618Y-58263855D01*
X148202618Y-58263855D02*
X147935952Y-58568617D01*
X147935952Y-58568617D02*
X148050237Y-58568617D01*
X148050237Y-58568617D02*
X148126428Y-58606712D01*
X148126428Y-58606712D02*
X148164523Y-58644807D01*
X148164523Y-58644807D02*
X148202618Y-58720998D01*
X148202618Y-58720998D02*
X148202618Y-58911474D01*
X148202618Y-58911474D02*
X148164523Y-58987664D01*
X148164523Y-58987664D02*
X148126428Y-59025760D01*
X148126428Y-59025760D02*
X148050237Y-59063855D01*
X148050237Y-59063855D02*
X147821666Y-59063855D01*
X147821666Y-59063855D02*
X147745475Y-59025760D01*
X147745475Y-59025760D02*
X147707380Y-58987664D01*
X148964523Y-59063855D02*
X148507380Y-59063855D01*
X148735952Y-59063855D02*
X148735952Y-58263855D01*
X148735952Y-58263855D02*
X148659761Y-58378140D01*
X148659761Y-58378140D02*
X148583571Y-58454331D01*
X148583571Y-58454331D02*
X148507380Y-58492426D01*
D10*
X126223333Y-73989819D02*
X126223333Y-72989819D01*
X126223333Y-72989819D02*
X126604285Y-72989819D01*
X126604285Y-72989819D02*
X126699523Y-73037438D01*
X126699523Y-73037438D02*
X126747142Y-73085057D01*
X126747142Y-73085057D02*
X126794761Y-73180295D01*
X126794761Y-73180295D02*
X126794761Y-73323152D01*
X126794761Y-73323152D02*
X126747142Y-73418390D01*
X126747142Y-73418390D02*
X126699523Y-73466009D01*
X126699523Y-73466009D02*
X126604285Y-73513628D01*
X126604285Y-73513628D02*
X126223333Y-73513628D01*
X127175714Y-73704104D02*
X127651904Y-73704104D01*
X127080476Y-73989819D02*
X127413809Y-72989819D01*
X127413809Y-72989819D02*
X127747142Y-73989819D01*
X128509047Y-73323152D02*
X128509047Y-73989819D01*
X128270952Y-72942200D02*
X128032857Y-73656485D01*
X128032857Y-73656485D02*
X128651904Y-73656485D01*
D11*
X126799524Y-70938855D02*
X126799524Y-70138855D01*
X126799524Y-70138855D02*
X126990000Y-70138855D01*
X126990000Y-70138855D02*
X127104286Y-70176950D01*
X127104286Y-70176950D02*
X127180476Y-70253140D01*
X127180476Y-70253140D02*
X127218571Y-70329331D01*
X127218571Y-70329331D02*
X127256667Y-70481712D01*
X127256667Y-70481712D02*
X127256667Y-70595998D01*
X127256667Y-70595998D02*
X127218571Y-70748379D01*
X127218571Y-70748379D02*
X127180476Y-70824569D01*
X127180476Y-70824569D02*
X127104286Y-70900760D01*
X127104286Y-70900760D02*
X126990000Y-70938855D01*
X126990000Y-70938855D02*
X126799524Y-70938855D01*
X127561428Y-70215045D02*
X127599524Y-70176950D01*
X127599524Y-70176950D02*
X127675714Y-70138855D01*
X127675714Y-70138855D02*
X127866190Y-70138855D01*
X127866190Y-70138855D02*
X127942381Y-70176950D01*
X127942381Y-70176950D02*
X127980476Y-70215045D01*
X127980476Y-70215045D02*
X128018571Y-70291236D01*
X128018571Y-70291236D02*
X128018571Y-70367426D01*
X128018571Y-70367426D02*
X127980476Y-70481712D01*
X127980476Y-70481712D02*
X127523333Y-70938855D01*
X127523333Y-70938855D02*
X128018571Y-70938855D01*
D10*
X97880952Y-37454819D02*
X98547618Y-37454819D01*
X98547618Y-37454819D02*
X98119047Y-38454819D01*
X99357142Y-37788152D02*
X99357142Y-38454819D01*
X99119047Y-37407200D02*
X98880952Y-38121485D01*
X98880952Y-38121485D02*
X99499999Y-38121485D01*
X100357142Y-38454819D02*
X99880952Y-38454819D01*
X99880952Y-38454819D02*
X99880952Y-37454819D01*
X100642857Y-38407200D02*
X100785714Y-38454819D01*
X100785714Y-38454819D02*
X101023809Y-38454819D01*
X101023809Y-38454819D02*
X101119047Y-38407200D01*
X101119047Y-38407200D02*
X101166666Y-38359580D01*
X101166666Y-38359580D02*
X101214285Y-38264342D01*
X101214285Y-38264342D02*
X101214285Y-38169104D01*
X101214285Y-38169104D02*
X101166666Y-38073866D01*
X101166666Y-38073866D02*
X101119047Y-38026247D01*
X101119047Y-38026247D02*
X101023809Y-37978628D01*
X101023809Y-37978628D02*
X100833333Y-37931009D01*
X100833333Y-37931009D02*
X100738095Y-37883390D01*
X100738095Y-37883390D02*
X100690476Y-37835771D01*
X100690476Y-37835771D02*
X100642857Y-37740533D01*
X100642857Y-37740533D02*
X100642857Y-37645295D01*
X100642857Y-37645295D02*
X100690476Y-37550057D01*
X100690476Y-37550057D02*
X100738095Y-37502438D01*
X100738095Y-37502438D02*
X100833333Y-37454819D01*
X100833333Y-37454819D02*
X101071428Y-37454819D01*
X101071428Y-37454819D02*
X101214285Y-37502438D01*
X101547619Y-37454819D02*
X102166666Y-37454819D01*
X102166666Y-37454819D02*
X101833333Y-37835771D01*
X101833333Y-37835771D02*
X101976190Y-37835771D01*
X101976190Y-37835771D02*
X102071428Y-37883390D01*
X102071428Y-37883390D02*
X102119047Y-37931009D01*
X102119047Y-37931009D02*
X102166666Y-38026247D01*
X102166666Y-38026247D02*
X102166666Y-38264342D01*
X102166666Y-38264342D02*
X102119047Y-38359580D01*
X102119047Y-38359580D02*
X102071428Y-38407200D01*
X102071428Y-38407200D02*
X101976190Y-38454819D01*
X101976190Y-38454819D02*
X101690476Y-38454819D01*
X101690476Y-38454819D02*
X101595238Y-38407200D01*
X101595238Y-38407200D02*
X101547619Y-38359580D01*
X102500000Y-37454819D02*
X103166666Y-37454819D01*
X103166666Y-37454819D02*
X102738095Y-38454819D01*
X103452381Y-37454819D02*
X104071428Y-37454819D01*
X104071428Y-37454819D02*
X103738095Y-37835771D01*
X103738095Y-37835771D02*
X103880952Y-37835771D01*
X103880952Y-37835771D02*
X103976190Y-37883390D01*
X103976190Y-37883390D02*
X104023809Y-37931009D01*
X104023809Y-37931009D02*
X104071428Y-38026247D01*
X104071428Y-38026247D02*
X104071428Y-38264342D01*
X104071428Y-38264342D02*
X104023809Y-38359580D01*
X104023809Y-38359580D02*
X103976190Y-38407200D01*
X103976190Y-38407200D02*
X103880952Y-38454819D01*
X103880952Y-38454819D02*
X103595238Y-38454819D01*
X103595238Y-38454819D02*
X103500000Y-38407200D01*
X103500000Y-38407200D02*
X103452381Y-38359580D01*
X146196191Y-73989819D02*
X146196191Y-72989819D01*
X147243809Y-73989819D02*
X146910476Y-73513628D01*
X146672381Y-73989819D02*
X146672381Y-72989819D01*
X146672381Y-72989819D02*
X147053333Y-72989819D01*
X147053333Y-72989819D02*
X147148571Y-73037438D01*
X147148571Y-73037438D02*
X147196190Y-73085057D01*
X147196190Y-73085057D02*
X147243809Y-73180295D01*
X147243809Y-73180295D02*
X147243809Y-73323152D01*
X147243809Y-73323152D02*
X147196190Y-73418390D01*
X147196190Y-73418390D02*
X147148571Y-73466009D01*
X147148571Y-73466009D02*
X147053333Y-73513628D01*
X147053333Y-73513628D02*
X146672381Y-73513628D01*
X148339047Y-74085057D02*
X148243809Y-74037438D01*
X148243809Y-74037438D02*
X148148571Y-73942200D01*
X148148571Y-73942200D02*
X148005714Y-73799342D01*
X148005714Y-73799342D02*
X147910476Y-73751723D01*
X147910476Y-73751723D02*
X147815238Y-73751723D01*
X147862857Y-73989819D02*
X147767619Y-73942200D01*
X147767619Y-73942200D02*
X147672381Y-73846961D01*
X147672381Y-73846961D02*
X147624762Y-73656485D01*
X147624762Y-73656485D02*
X147624762Y-73323152D01*
X147624762Y-73323152D02*
X147672381Y-73132676D01*
X147672381Y-73132676D02*
X147767619Y-73037438D01*
X147767619Y-73037438D02*
X147862857Y-72989819D01*
X147862857Y-72989819D02*
X148053333Y-72989819D01*
X148053333Y-72989819D02*
X148148571Y-73037438D01*
X148148571Y-73037438D02*
X148243809Y-73132676D01*
X148243809Y-73132676D02*
X148291428Y-73323152D01*
X148291428Y-73323152D02*
X148291428Y-73656485D01*
X148291428Y-73656485D02*
X148243809Y-73846961D01*
X148243809Y-73846961D02*
X148148571Y-73942200D01*
X148148571Y-73942200D02*
X148053333Y-73989819D01*
X148053333Y-73989819D02*
X147862857Y-73989819D01*
D11*
X146629524Y-70938855D02*
X146629524Y-70138855D01*
X146629524Y-70138855D02*
X146820000Y-70138855D01*
X146820000Y-70138855D02*
X146934286Y-70176950D01*
X146934286Y-70176950D02*
X147010476Y-70253140D01*
X147010476Y-70253140D02*
X147048571Y-70329331D01*
X147048571Y-70329331D02*
X147086667Y-70481712D01*
X147086667Y-70481712D02*
X147086667Y-70595998D01*
X147086667Y-70595998D02*
X147048571Y-70748379D01*
X147048571Y-70748379D02*
X147010476Y-70824569D01*
X147010476Y-70824569D02*
X146934286Y-70900760D01*
X146934286Y-70900760D02*
X146820000Y-70938855D01*
X146820000Y-70938855D02*
X146629524Y-70938855D01*
X147772381Y-70138855D02*
X147620000Y-70138855D01*
X147620000Y-70138855D02*
X147543809Y-70176950D01*
X147543809Y-70176950D02*
X147505714Y-70215045D01*
X147505714Y-70215045D02*
X147429524Y-70329331D01*
X147429524Y-70329331D02*
X147391428Y-70481712D01*
X147391428Y-70481712D02*
X147391428Y-70786474D01*
X147391428Y-70786474D02*
X147429524Y-70862664D01*
X147429524Y-70862664D02*
X147467619Y-70900760D01*
X147467619Y-70900760D02*
X147543809Y-70938855D01*
X147543809Y-70938855D02*
X147696190Y-70938855D01*
X147696190Y-70938855D02*
X147772381Y-70900760D01*
X147772381Y-70900760D02*
X147810476Y-70862664D01*
X147810476Y-70862664D02*
X147848571Y-70786474D01*
X147848571Y-70786474D02*
X147848571Y-70595998D01*
X147848571Y-70595998D02*
X147810476Y-70519807D01*
X147810476Y-70519807D02*
X147772381Y-70481712D01*
X147772381Y-70481712D02*
X147696190Y-70443617D01*
X147696190Y-70443617D02*
X147543809Y-70443617D01*
X147543809Y-70443617D02*
X147467619Y-70481712D01*
X147467619Y-70481712D02*
X147429524Y-70519807D01*
X147429524Y-70519807D02*
X147391428Y-70595998D01*
D10*
X122699523Y-73894580D02*
X122651904Y-73942200D01*
X122651904Y-73942200D02*
X122509047Y-73989819D01*
X122509047Y-73989819D02*
X122413809Y-73989819D01*
X122413809Y-73989819D02*
X122270952Y-73942200D01*
X122270952Y-73942200D02*
X122175714Y-73846961D01*
X122175714Y-73846961D02*
X122128095Y-73751723D01*
X122128095Y-73751723D02*
X122080476Y-73561247D01*
X122080476Y-73561247D02*
X122080476Y-73418390D01*
X122080476Y-73418390D02*
X122128095Y-73227914D01*
X122128095Y-73227914D02*
X122175714Y-73132676D01*
X122175714Y-73132676D02*
X122270952Y-73037438D01*
X122270952Y-73037438D02*
X122413809Y-72989819D01*
X122413809Y-72989819D02*
X122509047Y-72989819D01*
X122509047Y-72989819D02*
X122651904Y-73037438D01*
X122651904Y-73037438D02*
X122699523Y-73085057D01*
D11*
X121799524Y-70938855D02*
X121799524Y-70138855D01*
X121799524Y-70138855D02*
X121990000Y-70138855D01*
X121990000Y-70138855D02*
X122104286Y-70176950D01*
X122104286Y-70176950D02*
X122180476Y-70253140D01*
X122180476Y-70253140D02*
X122218571Y-70329331D01*
X122218571Y-70329331D02*
X122256667Y-70481712D01*
X122256667Y-70481712D02*
X122256667Y-70595998D01*
X122256667Y-70595998D02*
X122218571Y-70748379D01*
X122218571Y-70748379D02*
X122180476Y-70824569D01*
X122180476Y-70824569D02*
X122104286Y-70900760D01*
X122104286Y-70900760D02*
X121990000Y-70938855D01*
X121990000Y-70938855D02*
X121799524Y-70938855D01*
X123018571Y-70938855D02*
X122561428Y-70938855D01*
X122790000Y-70938855D02*
X122790000Y-70138855D01*
X122790000Y-70138855D02*
X122713809Y-70253140D01*
X122713809Y-70253140D02*
X122637619Y-70329331D01*
X122637619Y-70329331D02*
X122561428Y-70367426D01*
D10*
X135919523Y-77079819D02*
X135586190Y-76603628D01*
X135348095Y-77079819D02*
X135348095Y-76079819D01*
X135348095Y-76079819D02*
X135729047Y-76079819D01*
X135729047Y-76079819D02*
X135824285Y-76127438D01*
X135824285Y-76127438D02*
X135871904Y-76175057D01*
X135871904Y-76175057D02*
X135919523Y-76270295D01*
X135919523Y-76270295D02*
X135919523Y-76413152D01*
X135919523Y-76413152D02*
X135871904Y-76508390D01*
X135871904Y-76508390D02*
X135824285Y-76556009D01*
X135824285Y-76556009D02*
X135729047Y-76603628D01*
X135729047Y-76603628D02*
X135348095Y-76603628D01*
X136348095Y-77079819D02*
X136348095Y-76079819D01*
X136348095Y-76079819D02*
X136919523Y-77079819D01*
X136919523Y-77079819D02*
X136919523Y-76079819D01*
X137919523Y-77079819D02*
X137348095Y-77079819D01*
X137633809Y-77079819D02*
X137633809Y-76079819D01*
X137633809Y-76079819D02*
X137538571Y-76222676D01*
X137538571Y-76222676D02*
X137443333Y-76317914D01*
X137443333Y-76317914D02*
X137348095Y-76365533D01*
X117285714Y-37129104D02*
X117761904Y-37129104D01*
X117190476Y-37414819D02*
X117523809Y-36414819D01*
X117523809Y-36414819D02*
X117857142Y-37414819D01*
X118380952Y-36414819D02*
X118476190Y-36414819D01*
X118476190Y-36414819D02*
X118571428Y-36462438D01*
X118571428Y-36462438D02*
X118619047Y-36510057D01*
X118619047Y-36510057D02*
X118666666Y-36605295D01*
X118666666Y-36605295D02*
X118714285Y-36795771D01*
X118714285Y-36795771D02*
X118714285Y-37033866D01*
X118714285Y-37033866D02*
X118666666Y-37224342D01*
X118666666Y-37224342D02*
X118619047Y-37319580D01*
X118619047Y-37319580D02*
X118571428Y-37367200D01*
X118571428Y-37367200D02*
X118476190Y-37414819D01*
X118476190Y-37414819D02*
X118380952Y-37414819D01*
X118380952Y-37414819D02*
X118285714Y-37367200D01*
X118285714Y-37367200D02*
X118238095Y-37319580D01*
X118238095Y-37319580D02*
X118190476Y-37224342D01*
X118190476Y-37224342D02*
X118142857Y-37033866D01*
X118142857Y-37033866D02*
X118142857Y-36795771D01*
X118142857Y-36795771D02*
X118190476Y-36605295D01*
X118190476Y-36605295D02*
X118238095Y-36510057D01*
X118238095Y-36510057D02*
X118285714Y-36462438D01*
X118285714Y-36462438D02*
X118380952Y-36414819D01*
D11*
X117409524Y-34363855D02*
X117409524Y-33563855D01*
X117409524Y-33563855D02*
X117600000Y-33563855D01*
X117600000Y-33563855D02*
X117714286Y-33601950D01*
X117714286Y-33601950D02*
X117790476Y-33678140D01*
X117790476Y-33678140D02*
X117828571Y-33754331D01*
X117828571Y-33754331D02*
X117866667Y-33906712D01*
X117866667Y-33906712D02*
X117866667Y-34020998D01*
X117866667Y-34020998D02*
X117828571Y-34173379D01*
X117828571Y-34173379D02*
X117790476Y-34249569D01*
X117790476Y-34249569D02*
X117714286Y-34325760D01*
X117714286Y-34325760D02*
X117600000Y-34363855D01*
X117600000Y-34363855D02*
X117409524Y-34363855D01*
X118247619Y-34363855D02*
X118400000Y-34363855D01*
X118400000Y-34363855D02*
X118476190Y-34325760D01*
X118476190Y-34325760D02*
X118514286Y-34287664D01*
X118514286Y-34287664D02*
X118590476Y-34173379D01*
X118590476Y-34173379D02*
X118628571Y-34020998D01*
X118628571Y-34020998D02*
X118628571Y-33716236D01*
X118628571Y-33716236D02*
X118590476Y-33640045D01*
X118590476Y-33640045D02*
X118552381Y-33601950D01*
X118552381Y-33601950D02*
X118476190Y-33563855D01*
X118476190Y-33563855D02*
X118323809Y-33563855D01*
X118323809Y-33563855D02*
X118247619Y-33601950D01*
X118247619Y-33601950D02*
X118209524Y-33640045D01*
X118209524Y-33640045D02*
X118171428Y-33716236D01*
X118171428Y-33716236D02*
X118171428Y-33906712D01*
X118171428Y-33906712D02*
X118209524Y-33982902D01*
X118209524Y-33982902D02*
X118247619Y-34020998D01*
X118247619Y-34020998D02*
X118323809Y-34059093D01*
X118323809Y-34059093D02*
X118476190Y-34059093D01*
X118476190Y-34059093D02*
X118552381Y-34020998D01*
X118552381Y-34020998D02*
X118590476Y-33982902D01*
X118590476Y-33982902D02*
X118628571Y-33906712D01*
D10*
X126704524Y-48004104D02*
X127180714Y-48004104D01*
X126609286Y-48289819D02*
X126942619Y-47289819D01*
X126942619Y-47289819D02*
X127275952Y-48289819D01*
X128133095Y-48289819D02*
X127561667Y-48289819D01*
X127847381Y-48289819D02*
X127847381Y-47289819D01*
X127847381Y-47289819D02*
X127752143Y-47432676D01*
X127752143Y-47432676D02*
X127656905Y-47527914D01*
X127656905Y-47527914D02*
X127561667Y-47575533D01*
X128752143Y-47289819D02*
X128847381Y-47289819D01*
X128847381Y-47289819D02*
X128942619Y-47337438D01*
X128942619Y-47337438D02*
X128990238Y-47385057D01*
X128990238Y-47385057D02*
X129037857Y-47480295D01*
X129037857Y-47480295D02*
X129085476Y-47670771D01*
X129085476Y-47670771D02*
X129085476Y-47908866D01*
X129085476Y-47908866D02*
X129037857Y-48099342D01*
X129037857Y-48099342D02*
X128990238Y-48194580D01*
X128990238Y-48194580D02*
X128942619Y-48242200D01*
X128942619Y-48242200D02*
X128847381Y-48289819D01*
X128847381Y-48289819D02*
X128752143Y-48289819D01*
X128752143Y-48289819D02*
X128656905Y-48242200D01*
X128656905Y-48242200D02*
X128609286Y-48194580D01*
X128609286Y-48194580D02*
X128561667Y-48099342D01*
X128561667Y-48099342D02*
X128514048Y-47908866D01*
X128514048Y-47908866D02*
X128514048Y-47670771D01*
X128514048Y-47670771D02*
X128561667Y-47480295D01*
X128561667Y-47480295D02*
X128609286Y-47385057D01*
X128609286Y-47385057D02*
X128656905Y-47337438D01*
X128656905Y-47337438D02*
X128752143Y-47289819D01*
D11*
X126923571Y-45238855D02*
X126923571Y-44438855D01*
X126923571Y-44438855D02*
X127114047Y-44438855D01*
X127114047Y-44438855D02*
X127228333Y-44476950D01*
X127228333Y-44476950D02*
X127304523Y-44553140D01*
X127304523Y-44553140D02*
X127342618Y-44629331D01*
X127342618Y-44629331D02*
X127380714Y-44781712D01*
X127380714Y-44781712D02*
X127380714Y-44895998D01*
X127380714Y-44895998D02*
X127342618Y-45048379D01*
X127342618Y-45048379D02*
X127304523Y-45124569D01*
X127304523Y-45124569D02*
X127228333Y-45200760D01*
X127228333Y-45200760D02*
X127114047Y-45238855D01*
X127114047Y-45238855D02*
X126923571Y-45238855D01*
X128142618Y-45238855D02*
X127685475Y-45238855D01*
X127914047Y-45238855D02*
X127914047Y-44438855D01*
X127914047Y-44438855D02*
X127837856Y-44553140D01*
X127837856Y-44553140D02*
X127761666Y-44629331D01*
X127761666Y-44629331D02*
X127685475Y-44667426D01*
X128523571Y-45238855D02*
X128675952Y-45238855D01*
X128675952Y-45238855D02*
X128752142Y-45200760D01*
X128752142Y-45200760D02*
X128790238Y-45162664D01*
X128790238Y-45162664D02*
X128866428Y-45048379D01*
X128866428Y-45048379D02*
X128904523Y-44895998D01*
X128904523Y-44895998D02*
X128904523Y-44591236D01*
X128904523Y-44591236D02*
X128866428Y-44515045D01*
X128866428Y-44515045D02*
X128828333Y-44476950D01*
X128828333Y-44476950D02*
X128752142Y-44438855D01*
X128752142Y-44438855D02*
X128599761Y-44438855D01*
X128599761Y-44438855D02*
X128523571Y-44476950D01*
X128523571Y-44476950D02*
X128485476Y-44515045D01*
X128485476Y-44515045D02*
X128447380Y-44591236D01*
X128447380Y-44591236D02*
X128447380Y-44781712D01*
X128447380Y-44781712D02*
X128485476Y-44857902D01*
X128485476Y-44857902D02*
X128523571Y-44895998D01*
X128523571Y-44895998D02*
X128599761Y-44934093D01*
X128599761Y-44934093D02*
X128752142Y-44934093D01*
X128752142Y-44934093D02*
X128828333Y-44895998D01*
X128828333Y-44895998D02*
X128866428Y-44857902D01*
X128866428Y-44857902D02*
X128904523Y-44781712D01*
D10*
X142216905Y-62114819D02*
X142216905Y-61114819D01*
X142216905Y-61114819D02*
X142455000Y-61114819D01*
X142455000Y-61114819D02*
X142597857Y-61162438D01*
X142597857Y-61162438D02*
X142693095Y-61257676D01*
X142693095Y-61257676D02*
X142740714Y-61352914D01*
X142740714Y-61352914D02*
X142788333Y-61543390D01*
X142788333Y-61543390D02*
X142788333Y-61686247D01*
X142788333Y-61686247D02*
X142740714Y-61876723D01*
X142740714Y-61876723D02*
X142693095Y-61971961D01*
X142693095Y-61971961D02*
X142597857Y-62067200D01*
X142597857Y-62067200D02*
X142455000Y-62114819D01*
X142455000Y-62114819D02*
X142216905Y-62114819D01*
X143693095Y-61114819D02*
X143216905Y-61114819D01*
X143216905Y-61114819D02*
X143169286Y-61591009D01*
X143169286Y-61591009D02*
X143216905Y-61543390D01*
X143216905Y-61543390D02*
X143312143Y-61495771D01*
X143312143Y-61495771D02*
X143550238Y-61495771D01*
X143550238Y-61495771D02*
X143645476Y-61543390D01*
X143645476Y-61543390D02*
X143693095Y-61591009D01*
X143693095Y-61591009D02*
X143740714Y-61686247D01*
X143740714Y-61686247D02*
X143740714Y-61924342D01*
X143740714Y-61924342D02*
X143693095Y-62019580D01*
X143693095Y-62019580D02*
X143645476Y-62067200D01*
X143645476Y-62067200D02*
X143550238Y-62114819D01*
X143550238Y-62114819D02*
X143312143Y-62114819D01*
X143312143Y-62114819D02*
X143216905Y-62067200D01*
X143216905Y-62067200D02*
X143169286Y-62019580D01*
D11*
X141983571Y-59063855D02*
X141983571Y-58263855D01*
X141983571Y-58263855D02*
X142174047Y-58263855D01*
X142174047Y-58263855D02*
X142288333Y-58301950D01*
X142288333Y-58301950D02*
X142364523Y-58378140D01*
X142364523Y-58378140D02*
X142402618Y-58454331D01*
X142402618Y-58454331D02*
X142440714Y-58606712D01*
X142440714Y-58606712D02*
X142440714Y-58720998D01*
X142440714Y-58720998D02*
X142402618Y-58873379D01*
X142402618Y-58873379D02*
X142364523Y-58949569D01*
X142364523Y-58949569D02*
X142288333Y-59025760D01*
X142288333Y-59025760D02*
X142174047Y-59063855D01*
X142174047Y-59063855D02*
X141983571Y-59063855D01*
X142707380Y-58263855D02*
X143202618Y-58263855D01*
X143202618Y-58263855D02*
X142935952Y-58568617D01*
X142935952Y-58568617D02*
X143050237Y-58568617D01*
X143050237Y-58568617D02*
X143126428Y-58606712D01*
X143126428Y-58606712D02*
X143164523Y-58644807D01*
X143164523Y-58644807D02*
X143202618Y-58720998D01*
X143202618Y-58720998D02*
X143202618Y-58911474D01*
X143202618Y-58911474D02*
X143164523Y-58987664D01*
X143164523Y-58987664D02*
X143126428Y-59025760D01*
X143126428Y-59025760D02*
X143050237Y-59063855D01*
X143050237Y-59063855D02*
X142821666Y-59063855D01*
X142821666Y-59063855D02*
X142745475Y-59025760D01*
X142745475Y-59025760D02*
X142707380Y-58987664D01*
X143697857Y-58263855D02*
X143774047Y-58263855D01*
X143774047Y-58263855D02*
X143850238Y-58301950D01*
X143850238Y-58301950D02*
X143888333Y-58340045D01*
X143888333Y-58340045D02*
X143926428Y-58416236D01*
X143926428Y-58416236D02*
X143964523Y-58568617D01*
X143964523Y-58568617D02*
X143964523Y-58759093D01*
X143964523Y-58759093D02*
X143926428Y-58911474D01*
X143926428Y-58911474D02*
X143888333Y-58987664D01*
X143888333Y-58987664D02*
X143850238Y-59025760D01*
X143850238Y-59025760D02*
X143774047Y-59063855D01*
X143774047Y-59063855D02*
X143697857Y-59063855D01*
X143697857Y-59063855D02*
X143621666Y-59025760D01*
X143621666Y-59025760D02*
X143583571Y-58987664D01*
X143583571Y-58987664D02*
X143545476Y-58911474D01*
X143545476Y-58911474D02*
X143507380Y-58759093D01*
X143507380Y-58759093D02*
X143507380Y-58568617D01*
X143507380Y-58568617D02*
X143545476Y-58416236D01*
X143545476Y-58416236D02*
X143583571Y-58340045D01*
X143583571Y-58340045D02*
X143621666Y-58301950D01*
X143621666Y-58301950D02*
X143697857Y-58263855D01*
D10*
X116986905Y-62114819D02*
X116986905Y-61114819D01*
X116986905Y-61114819D02*
X117225000Y-61114819D01*
X117225000Y-61114819D02*
X117367857Y-61162438D01*
X117367857Y-61162438D02*
X117463095Y-61257676D01*
X117463095Y-61257676D02*
X117510714Y-61352914D01*
X117510714Y-61352914D02*
X117558333Y-61543390D01*
X117558333Y-61543390D02*
X117558333Y-61686247D01*
X117558333Y-61686247D02*
X117510714Y-61876723D01*
X117510714Y-61876723D02*
X117463095Y-61971961D01*
X117463095Y-61971961D02*
X117367857Y-62067200D01*
X117367857Y-62067200D02*
X117225000Y-62114819D01*
X117225000Y-62114819D02*
X116986905Y-62114819D01*
X118177381Y-61114819D02*
X118272619Y-61114819D01*
X118272619Y-61114819D02*
X118367857Y-61162438D01*
X118367857Y-61162438D02*
X118415476Y-61210057D01*
X118415476Y-61210057D02*
X118463095Y-61305295D01*
X118463095Y-61305295D02*
X118510714Y-61495771D01*
X118510714Y-61495771D02*
X118510714Y-61733866D01*
X118510714Y-61733866D02*
X118463095Y-61924342D01*
X118463095Y-61924342D02*
X118415476Y-62019580D01*
X118415476Y-62019580D02*
X118367857Y-62067200D01*
X118367857Y-62067200D02*
X118272619Y-62114819D01*
X118272619Y-62114819D02*
X118177381Y-62114819D01*
X118177381Y-62114819D02*
X118082143Y-62067200D01*
X118082143Y-62067200D02*
X118034524Y-62019580D01*
X118034524Y-62019580D02*
X117986905Y-61924342D01*
X117986905Y-61924342D02*
X117939286Y-61733866D01*
X117939286Y-61733866D02*
X117939286Y-61495771D01*
X117939286Y-61495771D02*
X117986905Y-61305295D01*
X117986905Y-61305295D02*
X118034524Y-61210057D01*
X118034524Y-61210057D02*
X118082143Y-61162438D01*
X118082143Y-61162438D02*
X118177381Y-61114819D01*
D11*
X116753571Y-59063855D02*
X116753571Y-58263855D01*
X116753571Y-58263855D02*
X116944047Y-58263855D01*
X116944047Y-58263855D02*
X117058333Y-58301950D01*
X117058333Y-58301950D02*
X117134523Y-58378140D01*
X117134523Y-58378140D02*
X117172618Y-58454331D01*
X117172618Y-58454331D02*
X117210714Y-58606712D01*
X117210714Y-58606712D02*
X117210714Y-58720998D01*
X117210714Y-58720998D02*
X117172618Y-58873379D01*
X117172618Y-58873379D02*
X117134523Y-58949569D01*
X117134523Y-58949569D02*
X117058333Y-59025760D01*
X117058333Y-59025760D02*
X116944047Y-59063855D01*
X116944047Y-59063855D02*
X116753571Y-59063855D01*
X117515475Y-58340045D02*
X117553571Y-58301950D01*
X117553571Y-58301950D02*
X117629761Y-58263855D01*
X117629761Y-58263855D02*
X117820237Y-58263855D01*
X117820237Y-58263855D02*
X117896428Y-58301950D01*
X117896428Y-58301950D02*
X117934523Y-58340045D01*
X117934523Y-58340045D02*
X117972618Y-58416236D01*
X117972618Y-58416236D02*
X117972618Y-58492426D01*
X117972618Y-58492426D02*
X117934523Y-58606712D01*
X117934523Y-58606712D02*
X117477380Y-59063855D01*
X117477380Y-59063855D02*
X117972618Y-59063855D01*
X118696428Y-58263855D02*
X118315476Y-58263855D01*
X118315476Y-58263855D02*
X118277380Y-58644807D01*
X118277380Y-58644807D02*
X118315476Y-58606712D01*
X118315476Y-58606712D02*
X118391666Y-58568617D01*
X118391666Y-58568617D02*
X118582142Y-58568617D01*
X118582142Y-58568617D02*
X118658333Y-58606712D01*
X118658333Y-58606712D02*
X118696428Y-58644807D01*
X118696428Y-58644807D02*
X118734523Y-58720998D01*
X118734523Y-58720998D02*
X118734523Y-58911474D01*
X118734523Y-58911474D02*
X118696428Y-58987664D01*
X118696428Y-58987664D02*
X118658333Y-59025760D01*
X118658333Y-59025760D02*
X118582142Y-59063855D01*
X118582142Y-59063855D02*
X118391666Y-59063855D01*
X118391666Y-59063855D02*
X118315476Y-59025760D01*
X118315476Y-59025760D02*
X118277380Y-58987664D01*
D10*
X131754524Y-48029104D02*
X132230714Y-48029104D01*
X131659286Y-48314819D02*
X131992619Y-47314819D01*
X131992619Y-47314819D02*
X132325952Y-48314819D01*
X133183095Y-48314819D02*
X132611667Y-48314819D01*
X132897381Y-48314819D02*
X132897381Y-47314819D01*
X132897381Y-47314819D02*
X132802143Y-47457676D01*
X132802143Y-47457676D02*
X132706905Y-47552914D01*
X132706905Y-47552914D02*
X132611667Y-47600533D01*
X134135476Y-48314819D02*
X133564048Y-48314819D01*
X133849762Y-48314819D02*
X133849762Y-47314819D01*
X133849762Y-47314819D02*
X133754524Y-47457676D01*
X133754524Y-47457676D02*
X133659286Y-47552914D01*
X133659286Y-47552914D02*
X133564048Y-47600533D01*
D11*
X131973571Y-45263855D02*
X131973571Y-44463855D01*
X131973571Y-44463855D02*
X132164047Y-44463855D01*
X132164047Y-44463855D02*
X132278333Y-44501950D01*
X132278333Y-44501950D02*
X132354523Y-44578140D01*
X132354523Y-44578140D02*
X132392618Y-44654331D01*
X132392618Y-44654331D02*
X132430714Y-44806712D01*
X132430714Y-44806712D02*
X132430714Y-44920998D01*
X132430714Y-44920998D02*
X132392618Y-45073379D01*
X132392618Y-45073379D02*
X132354523Y-45149569D01*
X132354523Y-45149569D02*
X132278333Y-45225760D01*
X132278333Y-45225760D02*
X132164047Y-45263855D01*
X132164047Y-45263855D02*
X131973571Y-45263855D01*
X132735475Y-44540045D02*
X132773571Y-44501950D01*
X132773571Y-44501950D02*
X132849761Y-44463855D01*
X132849761Y-44463855D02*
X133040237Y-44463855D01*
X133040237Y-44463855D02*
X133116428Y-44501950D01*
X133116428Y-44501950D02*
X133154523Y-44540045D01*
X133154523Y-44540045D02*
X133192618Y-44616236D01*
X133192618Y-44616236D02*
X133192618Y-44692426D01*
X133192618Y-44692426D02*
X133154523Y-44806712D01*
X133154523Y-44806712D02*
X132697380Y-45263855D01*
X132697380Y-45263855D02*
X133192618Y-45263855D01*
X133687857Y-44463855D02*
X133764047Y-44463855D01*
X133764047Y-44463855D02*
X133840238Y-44501950D01*
X133840238Y-44501950D02*
X133878333Y-44540045D01*
X133878333Y-44540045D02*
X133916428Y-44616236D01*
X133916428Y-44616236D02*
X133954523Y-44768617D01*
X133954523Y-44768617D02*
X133954523Y-44959093D01*
X133954523Y-44959093D02*
X133916428Y-45111474D01*
X133916428Y-45111474D02*
X133878333Y-45187664D01*
X133878333Y-45187664D02*
X133840238Y-45225760D01*
X133840238Y-45225760D02*
X133764047Y-45263855D01*
X133764047Y-45263855D02*
X133687857Y-45263855D01*
X133687857Y-45263855D02*
X133611666Y-45225760D01*
X133611666Y-45225760D02*
X133573571Y-45187664D01*
X133573571Y-45187664D02*
X133535476Y-45111474D01*
X133535476Y-45111474D02*
X133497380Y-44959093D01*
X133497380Y-44959093D02*
X133497380Y-44768617D01*
X133497380Y-44768617D02*
X133535476Y-44616236D01*
X133535476Y-44616236D02*
X133573571Y-44540045D01*
X133573571Y-44540045D02*
X133611666Y-44501950D01*
X133611666Y-44501950D02*
X133687857Y-44463855D01*
D10*
X131223333Y-73989819D02*
X131223333Y-72989819D01*
X131223333Y-72989819D02*
X131604285Y-72989819D01*
X131604285Y-72989819D02*
X131699523Y-73037438D01*
X131699523Y-73037438D02*
X131747142Y-73085057D01*
X131747142Y-73085057D02*
X131794761Y-73180295D01*
X131794761Y-73180295D02*
X131794761Y-73323152D01*
X131794761Y-73323152D02*
X131747142Y-73418390D01*
X131747142Y-73418390D02*
X131699523Y-73466009D01*
X131699523Y-73466009D02*
X131604285Y-73513628D01*
X131604285Y-73513628D02*
X131223333Y-73513628D01*
X132175714Y-73704104D02*
X132651904Y-73704104D01*
X132080476Y-73989819D02*
X132413809Y-72989819D01*
X132413809Y-72989819D02*
X132747142Y-73989819D01*
X133556666Y-72989819D02*
X133080476Y-72989819D01*
X133080476Y-72989819D02*
X133032857Y-73466009D01*
X133032857Y-73466009D02*
X133080476Y-73418390D01*
X133080476Y-73418390D02*
X133175714Y-73370771D01*
X133175714Y-73370771D02*
X133413809Y-73370771D01*
X133413809Y-73370771D02*
X133509047Y-73418390D01*
X133509047Y-73418390D02*
X133556666Y-73466009D01*
X133556666Y-73466009D02*
X133604285Y-73561247D01*
X133604285Y-73561247D02*
X133604285Y-73799342D01*
X133604285Y-73799342D02*
X133556666Y-73894580D01*
X133556666Y-73894580D02*
X133509047Y-73942200D01*
X133509047Y-73942200D02*
X133413809Y-73989819D01*
X133413809Y-73989819D02*
X133175714Y-73989819D01*
X133175714Y-73989819D02*
X133080476Y-73942200D01*
X133080476Y-73942200D02*
X133032857Y-73894580D01*
D11*
X131799524Y-70938855D02*
X131799524Y-70138855D01*
X131799524Y-70138855D02*
X131990000Y-70138855D01*
X131990000Y-70138855D02*
X132104286Y-70176950D01*
X132104286Y-70176950D02*
X132180476Y-70253140D01*
X132180476Y-70253140D02*
X132218571Y-70329331D01*
X132218571Y-70329331D02*
X132256667Y-70481712D01*
X132256667Y-70481712D02*
X132256667Y-70595998D01*
X132256667Y-70595998D02*
X132218571Y-70748379D01*
X132218571Y-70748379D02*
X132180476Y-70824569D01*
X132180476Y-70824569D02*
X132104286Y-70900760D01*
X132104286Y-70900760D02*
X131990000Y-70938855D01*
X131990000Y-70938855D02*
X131799524Y-70938855D01*
X132523333Y-70138855D02*
X133018571Y-70138855D01*
X133018571Y-70138855D02*
X132751905Y-70443617D01*
X132751905Y-70443617D02*
X132866190Y-70443617D01*
X132866190Y-70443617D02*
X132942381Y-70481712D01*
X132942381Y-70481712D02*
X132980476Y-70519807D01*
X132980476Y-70519807D02*
X133018571Y-70595998D01*
X133018571Y-70595998D02*
X133018571Y-70786474D01*
X133018571Y-70786474D02*
X132980476Y-70862664D01*
X132980476Y-70862664D02*
X132942381Y-70900760D01*
X132942381Y-70900760D02*
X132866190Y-70938855D01*
X132866190Y-70938855D02*
X132637619Y-70938855D01*
X132637619Y-70938855D02*
X132561428Y-70900760D01*
X132561428Y-70900760D02*
X132523333Y-70862664D01*
D10*
X135944523Y-39954819D02*
X135611190Y-39478628D01*
X135373095Y-39954819D02*
X135373095Y-38954819D01*
X135373095Y-38954819D02*
X135754047Y-38954819D01*
X135754047Y-38954819D02*
X135849285Y-39002438D01*
X135849285Y-39002438D02*
X135896904Y-39050057D01*
X135896904Y-39050057D02*
X135944523Y-39145295D01*
X135944523Y-39145295D02*
X135944523Y-39288152D01*
X135944523Y-39288152D02*
X135896904Y-39383390D01*
X135896904Y-39383390D02*
X135849285Y-39431009D01*
X135849285Y-39431009D02*
X135754047Y-39478628D01*
X135754047Y-39478628D02*
X135373095Y-39478628D01*
X136373095Y-39954819D02*
X136373095Y-38954819D01*
X136373095Y-38954819D02*
X136944523Y-39954819D01*
X136944523Y-39954819D02*
X136944523Y-38954819D01*
X137373095Y-39050057D02*
X137420714Y-39002438D01*
X137420714Y-39002438D02*
X137515952Y-38954819D01*
X137515952Y-38954819D02*
X137754047Y-38954819D01*
X137754047Y-38954819D02*
X137849285Y-39002438D01*
X137849285Y-39002438D02*
X137896904Y-39050057D01*
X137896904Y-39050057D02*
X137944523Y-39145295D01*
X137944523Y-39145295D02*
X137944523Y-39240533D01*
X137944523Y-39240533D02*
X137896904Y-39383390D01*
X137896904Y-39383390D02*
X137325476Y-39954819D01*
X137325476Y-39954819D02*
X137944523Y-39954819D01*
X127216905Y-62114819D02*
X127216905Y-61114819D01*
X127216905Y-61114819D02*
X127455000Y-61114819D01*
X127455000Y-61114819D02*
X127597857Y-61162438D01*
X127597857Y-61162438D02*
X127693095Y-61257676D01*
X127693095Y-61257676D02*
X127740714Y-61352914D01*
X127740714Y-61352914D02*
X127788333Y-61543390D01*
X127788333Y-61543390D02*
X127788333Y-61686247D01*
X127788333Y-61686247D02*
X127740714Y-61876723D01*
X127740714Y-61876723D02*
X127693095Y-61971961D01*
X127693095Y-61971961D02*
X127597857Y-62067200D01*
X127597857Y-62067200D02*
X127455000Y-62114819D01*
X127455000Y-62114819D02*
X127216905Y-62114819D01*
X128169286Y-61210057D02*
X128216905Y-61162438D01*
X128216905Y-61162438D02*
X128312143Y-61114819D01*
X128312143Y-61114819D02*
X128550238Y-61114819D01*
X128550238Y-61114819D02*
X128645476Y-61162438D01*
X128645476Y-61162438D02*
X128693095Y-61210057D01*
X128693095Y-61210057D02*
X128740714Y-61305295D01*
X128740714Y-61305295D02*
X128740714Y-61400533D01*
X128740714Y-61400533D02*
X128693095Y-61543390D01*
X128693095Y-61543390D02*
X128121667Y-62114819D01*
X128121667Y-62114819D02*
X128740714Y-62114819D01*
D11*
X126983571Y-59063855D02*
X126983571Y-58263855D01*
X126983571Y-58263855D02*
X127174047Y-58263855D01*
X127174047Y-58263855D02*
X127288333Y-58301950D01*
X127288333Y-58301950D02*
X127364523Y-58378140D01*
X127364523Y-58378140D02*
X127402618Y-58454331D01*
X127402618Y-58454331D02*
X127440714Y-58606712D01*
X127440714Y-58606712D02*
X127440714Y-58720998D01*
X127440714Y-58720998D02*
X127402618Y-58873379D01*
X127402618Y-58873379D02*
X127364523Y-58949569D01*
X127364523Y-58949569D02*
X127288333Y-59025760D01*
X127288333Y-59025760D02*
X127174047Y-59063855D01*
X127174047Y-59063855D02*
X126983571Y-59063855D01*
X127745475Y-58340045D02*
X127783571Y-58301950D01*
X127783571Y-58301950D02*
X127859761Y-58263855D01*
X127859761Y-58263855D02*
X128050237Y-58263855D01*
X128050237Y-58263855D02*
X128126428Y-58301950D01*
X128126428Y-58301950D02*
X128164523Y-58340045D01*
X128164523Y-58340045D02*
X128202618Y-58416236D01*
X128202618Y-58416236D02*
X128202618Y-58492426D01*
X128202618Y-58492426D02*
X128164523Y-58606712D01*
X128164523Y-58606712D02*
X127707380Y-59063855D01*
X127707380Y-59063855D02*
X128202618Y-59063855D01*
X128469285Y-58263855D02*
X129002619Y-58263855D01*
X129002619Y-58263855D02*
X128659761Y-59063855D01*
D10*
X97823952Y-61039819D02*
X98490618Y-61039819D01*
X98490618Y-61039819D02*
X98062047Y-62039819D01*
X99300142Y-61373152D02*
X99300142Y-62039819D01*
X99062047Y-60992200D02*
X98823952Y-61706485D01*
X98823952Y-61706485D02*
X99442999Y-61706485D01*
X100300142Y-62039819D02*
X99823952Y-62039819D01*
X99823952Y-62039819D02*
X99823952Y-61039819D01*
X100585857Y-61992200D02*
X100728714Y-62039819D01*
X100728714Y-62039819D02*
X100966809Y-62039819D01*
X100966809Y-62039819D02*
X101062047Y-61992200D01*
X101062047Y-61992200D02*
X101109666Y-61944580D01*
X101109666Y-61944580D02*
X101157285Y-61849342D01*
X101157285Y-61849342D02*
X101157285Y-61754104D01*
X101157285Y-61754104D02*
X101109666Y-61658866D01*
X101109666Y-61658866D02*
X101062047Y-61611247D01*
X101062047Y-61611247D02*
X100966809Y-61563628D01*
X100966809Y-61563628D02*
X100776333Y-61516009D01*
X100776333Y-61516009D02*
X100681095Y-61468390D01*
X100681095Y-61468390D02*
X100633476Y-61420771D01*
X100633476Y-61420771D02*
X100585857Y-61325533D01*
X100585857Y-61325533D02*
X100585857Y-61230295D01*
X100585857Y-61230295D02*
X100633476Y-61135057D01*
X100633476Y-61135057D02*
X100681095Y-61087438D01*
X100681095Y-61087438D02*
X100776333Y-61039819D01*
X100776333Y-61039819D02*
X101014428Y-61039819D01*
X101014428Y-61039819D02*
X101157285Y-61087438D01*
X101490619Y-61039819D02*
X102109666Y-61039819D01*
X102109666Y-61039819D02*
X101776333Y-61420771D01*
X101776333Y-61420771D02*
X101919190Y-61420771D01*
X101919190Y-61420771D02*
X102014428Y-61468390D01*
X102014428Y-61468390D02*
X102062047Y-61516009D01*
X102062047Y-61516009D02*
X102109666Y-61611247D01*
X102109666Y-61611247D02*
X102109666Y-61849342D01*
X102109666Y-61849342D02*
X102062047Y-61944580D01*
X102062047Y-61944580D02*
X102014428Y-61992200D01*
X102014428Y-61992200D02*
X101919190Y-62039819D01*
X101919190Y-62039819D02*
X101633476Y-62039819D01*
X101633476Y-62039819D02*
X101538238Y-61992200D01*
X101538238Y-61992200D02*
X101490619Y-61944580D01*
X102443000Y-61039819D02*
X103109666Y-61039819D01*
X103109666Y-61039819D02*
X102681095Y-62039819D01*
X103395381Y-61039819D02*
X104014428Y-61039819D01*
X104014428Y-61039819D02*
X103681095Y-61420771D01*
X103681095Y-61420771D02*
X103823952Y-61420771D01*
X103823952Y-61420771D02*
X103919190Y-61468390D01*
X103919190Y-61468390D02*
X103966809Y-61516009D01*
X103966809Y-61516009D02*
X104014428Y-61611247D01*
X104014428Y-61611247D02*
X104014428Y-61849342D01*
X104014428Y-61849342D02*
X103966809Y-61944580D01*
X103966809Y-61944580D02*
X103919190Y-61992200D01*
X103919190Y-61992200D02*
X103823952Y-62039819D01*
X103823952Y-62039819D02*
X103538238Y-62039819D01*
X103538238Y-62039819D02*
X103443000Y-61992200D01*
X103443000Y-61992200D02*
X103395381Y-61944580D01*
X122216905Y-62114819D02*
X122216905Y-61114819D01*
X122216905Y-61114819D02*
X122455000Y-61114819D01*
X122455000Y-61114819D02*
X122597857Y-61162438D01*
X122597857Y-61162438D02*
X122693095Y-61257676D01*
X122693095Y-61257676D02*
X122740714Y-61352914D01*
X122740714Y-61352914D02*
X122788333Y-61543390D01*
X122788333Y-61543390D02*
X122788333Y-61686247D01*
X122788333Y-61686247D02*
X122740714Y-61876723D01*
X122740714Y-61876723D02*
X122693095Y-61971961D01*
X122693095Y-61971961D02*
X122597857Y-62067200D01*
X122597857Y-62067200D02*
X122455000Y-62114819D01*
X122455000Y-62114819D02*
X122216905Y-62114819D01*
X123740714Y-62114819D02*
X123169286Y-62114819D01*
X123455000Y-62114819D02*
X123455000Y-61114819D01*
X123455000Y-61114819D02*
X123359762Y-61257676D01*
X123359762Y-61257676D02*
X123264524Y-61352914D01*
X123264524Y-61352914D02*
X123169286Y-61400533D01*
D11*
X121983571Y-59063855D02*
X121983571Y-58263855D01*
X121983571Y-58263855D02*
X122174047Y-58263855D01*
X122174047Y-58263855D02*
X122288333Y-58301950D01*
X122288333Y-58301950D02*
X122364523Y-58378140D01*
X122364523Y-58378140D02*
X122402618Y-58454331D01*
X122402618Y-58454331D02*
X122440714Y-58606712D01*
X122440714Y-58606712D02*
X122440714Y-58720998D01*
X122440714Y-58720998D02*
X122402618Y-58873379D01*
X122402618Y-58873379D02*
X122364523Y-58949569D01*
X122364523Y-58949569D02*
X122288333Y-59025760D01*
X122288333Y-59025760D02*
X122174047Y-59063855D01*
X122174047Y-59063855D02*
X121983571Y-59063855D01*
X122745475Y-58340045D02*
X122783571Y-58301950D01*
X122783571Y-58301950D02*
X122859761Y-58263855D01*
X122859761Y-58263855D02*
X123050237Y-58263855D01*
X123050237Y-58263855D02*
X123126428Y-58301950D01*
X123126428Y-58301950D02*
X123164523Y-58340045D01*
X123164523Y-58340045D02*
X123202618Y-58416236D01*
X123202618Y-58416236D02*
X123202618Y-58492426D01*
X123202618Y-58492426D02*
X123164523Y-58606712D01*
X123164523Y-58606712D02*
X122707380Y-59063855D01*
X122707380Y-59063855D02*
X123202618Y-59063855D01*
X123888333Y-58263855D02*
X123735952Y-58263855D01*
X123735952Y-58263855D02*
X123659761Y-58301950D01*
X123659761Y-58301950D02*
X123621666Y-58340045D01*
X123621666Y-58340045D02*
X123545476Y-58454331D01*
X123545476Y-58454331D02*
X123507380Y-58606712D01*
X123507380Y-58606712D02*
X123507380Y-58911474D01*
X123507380Y-58911474D02*
X123545476Y-58987664D01*
X123545476Y-58987664D02*
X123583571Y-59025760D01*
X123583571Y-59025760D02*
X123659761Y-59063855D01*
X123659761Y-59063855D02*
X123812142Y-59063855D01*
X123812142Y-59063855D02*
X123888333Y-59025760D01*
X123888333Y-59025760D02*
X123926428Y-58987664D01*
X123926428Y-58987664D02*
X123964523Y-58911474D01*
X123964523Y-58911474D02*
X123964523Y-58720998D01*
X123964523Y-58720998D02*
X123926428Y-58644807D01*
X123926428Y-58644807D02*
X123888333Y-58606712D01*
X123888333Y-58606712D02*
X123812142Y-58568617D01*
X123812142Y-58568617D02*
X123659761Y-58568617D01*
X123659761Y-58568617D02*
X123583571Y-58606712D01*
X123583571Y-58606712D02*
X123545476Y-58644807D01*
X123545476Y-58644807D02*
X123507380Y-58720998D01*
D10*
X151858095Y-73989819D02*
X151524762Y-73513628D01*
X151286667Y-73989819D02*
X151286667Y-72989819D01*
X151286667Y-72989819D02*
X151667619Y-72989819D01*
X151667619Y-72989819D02*
X151762857Y-73037438D01*
X151762857Y-73037438D02*
X151810476Y-73085057D01*
X151810476Y-73085057D02*
X151858095Y-73180295D01*
X151858095Y-73180295D02*
X151858095Y-73323152D01*
X151858095Y-73323152D02*
X151810476Y-73418390D01*
X151810476Y-73418390D02*
X151762857Y-73466009D01*
X151762857Y-73466009D02*
X151667619Y-73513628D01*
X151667619Y-73513628D02*
X151286667Y-73513628D01*
X152191429Y-72989819D02*
X152429524Y-73989819D01*
X152429524Y-73989819D02*
X152620000Y-73275533D01*
X152620000Y-73275533D02*
X152810476Y-73989819D01*
X152810476Y-73989819D02*
X153048572Y-72989819D01*
D11*
X151529524Y-70938855D02*
X151529524Y-70138855D01*
X151529524Y-70138855D02*
X151720000Y-70138855D01*
X151720000Y-70138855D02*
X151834286Y-70176950D01*
X151834286Y-70176950D02*
X151910476Y-70253140D01*
X151910476Y-70253140D02*
X151948571Y-70329331D01*
X151948571Y-70329331D02*
X151986667Y-70481712D01*
X151986667Y-70481712D02*
X151986667Y-70595998D01*
X151986667Y-70595998D02*
X151948571Y-70748379D01*
X151948571Y-70748379D02*
X151910476Y-70824569D01*
X151910476Y-70824569D02*
X151834286Y-70900760D01*
X151834286Y-70900760D02*
X151720000Y-70938855D01*
X151720000Y-70938855D02*
X151529524Y-70938855D01*
X152253333Y-70138855D02*
X152786667Y-70138855D01*
X152786667Y-70138855D02*
X152443809Y-70938855D01*
D10*
X152216905Y-62114819D02*
X152216905Y-61114819D01*
X152216905Y-61114819D02*
X152455000Y-61114819D01*
X152455000Y-61114819D02*
X152597857Y-61162438D01*
X152597857Y-61162438D02*
X152693095Y-61257676D01*
X152693095Y-61257676D02*
X152740714Y-61352914D01*
X152740714Y-61352914D02*
X152788333Y-61543390D01*
X152788333Y-61543390D02*
X152788333Y-61686247D01*
X152788333Y-61686247D02*
X152740714Y-61876723D01*
X152740714Y-61876723D02*
X152693095Y-61971961D01*
X152693095Y-61971961D02*
X152597857Y-62067200D01*
X152597857Y-62067200D02*
X152455000Y-62114819D01*
X152455000Y-62114819D02*
X152216905Y-62114819D01*
X153121667Y-61114819D02*
X153788333Y-61114819D01*
X153788333Y-61114819D02*
X153359762Y-62114819D01*
D11*
X151983571Y-59063855D02*
X151983571Y-58263855D01*
X151983571Y-58263855D02*
X152174047Y-58263855D01*
X152174047Y-58263855D02*
X152288333Y-58301950D01*
X152288333Y-58301950D02*
X152364523Y-58378140D01*
X152364523Y-58378140D02*
X152402618Y-58454331D01*
X152402618Y-58454331D02*
X152440714Y-58606712D01*
X152440714Y-58606712D02*
X152440714Y-58720998D01*
X152440714Y-58720998D02*
X152402618Y-58873379D01*
X152402618Y-58873379D02*
X152364523Y-58949569D01*
X152364523Y-58949569D02*
X152288333Y-59025760D01*
X152288333Y-59025760D02*
X152174047Y-59063855D01*
X152174047Y-59063855D02*
X151983571Y-59063855D01*
X152707380Y-58263855D02*
X153202618Y-58263855D01*
X153202618Y-58263855D02*
X152935952Y-58568617D01*
X152935952Y-58568617D02*
X153050237Y-58568617D01*
X153050237Y-58568617D02*
X153126428Y-58606712D01*
X153126428Y-58606712D02*
X153164523Y-58644807D01*
X153164523Y-58644807D02*
X153202618Y-58720998D01*
X153202618Y-58720998D02*
X153202618Y-58911474D01*
X153202618Y-58911474D02*
X153164523Y-58987664D01*
X153164523Y-58987664D02*
X153126428Y-59025760D01*
X153126428Y-59025760D02*
X153050237Y-59063855D01*
X153050237Y-59063855D02*
X152821666Y-59063855D01*
X152821666Y-59063855D02*
X152745475Y-59025760D01*
X152745475Y-59025760D02*
X152707380Y-58987664D01*
X153507380Y-58340045D02*
X153545476Y-58301950D01*
X153545476Y-58301950D02*
X153621666Y-58263855D01*
X153621666Y-58263855D02*
X153812142Y-58263855D01*
X153812142Y-58263855D02*
X153888333Y-58301950D01*
X153888333Y-58301950D02*
X153926428Y-58340045D01*
X153926428Y-58340045D02*
X153964523Y-58416236D01*
X153964523Y-58416236D02*
X153964523Y-58492426D01*
X153964523Y-58492426D02*
X153926428Y-58606712D01*
X153926428Y-58606712D02*
X153469285Y-59063855D01*
X153469285Y-59063855D02*
X153964523Y-59063855D01*
D10*
X137355714Y-37179104D02*
X137831904Y-37179104D01*
X137260476Y-37464819D02*
X137593809Y-36464819D01*
X137593809Y-36464819D02*
X137927142Y-37464819D01*
X138689047Y-36798152D02*
X138689047Y-37464819D01*
X138450952Y-36417200D02*
X138212857Y-37131485D01*
X138212857Y-37131485D02*
X138831904Y-37131485D01*
D11*
X137098571Y-34413855D02*
X137098571Y-33613855D01*
X137098571Y-33613855D02*
X137289047Y-33613855D01*
X137289047Y-33613855D02*
X137403333Y-33651950D01*
X137403333Y-33651950D02*
X137479523Y-33728140D01*
X137479523Y-33728140D02*
X137517618Y-33804331D01*
X137517618Y-33804331D02*
X137555714Y-33956712D01*
X137555714Y-33956712D02*
X137555714Y-34070998D01*
X137555714Y-34070998D02*
X137517618Y-34223379D01*
X137517618Y-34223379D02*
X137479523Y-34299569D01*
X137479523Y-34299569D02*
X137403333Y-34375760D01*
X137403333Y-34375760D02*
X137289047Y-34413855D01*
X137289047Y-34413855D02*
X137098571Y-34413855D01*
X138317618Y-34413855D02*
X137860475Y-34413855D01*
X138089047Y-34413855D02*
X138089047Y-33613855D01*
X138089047Y-33613855D02*
X138012856Y-33728140D01*
X138012856Y-33728140D02*
X137936666Y-33804331D01*
X137936666Y-33804331D02*
X137860475Y-33842426D01*
X138584285Y-33613855D02*
X139079523Y-33613855D01*
X139079523Y-33613855D02*
X138812857Y-33918617D01*
X138812857Y-33918617D02*
X138927142Y-33918617D01*
X138927142Y-33918617D02*
X139003333Y-33956712D01*
X139003333Y-33956712D02*
X139041428Y-33994807D01*
X139041428Y-33994807D02*
X139079523Y-34070998D01*
X139079523Y-34070998D02*
X139079523Y-34261474D01*
X139079523Y-34261474D02*
X139041428Y-34337664D01*
X139041428Y-34337664D02*
X139003333Y-34375760D01*
X139003333Y-34375760D02*
X138927142Y-34413855D01*
X138927142Y-34413855D02*
X138698571Y-34413855D01*
X138698571Y-34413855D02*
X138622380Y-34375760D01*
X138622380Y-34375760D02*
X138584285Y-34337664D01*
D10*
X136223333Y-73989819D02*
X136223333Y-72989819D01*
X136223333Y-72989819D02*
X136604285Y-72989819D01*
X136604285Y-72989819D02*
X136699523Y-73037438D01*
X136699523Y-73037438D02*
X136747142Y-73085057D01*
X136747142Y-73085057D02*
X136794761Y-73180295D01*
X136794761Y-73180295D02*
X136794761Y-73323152D01*
X136794761Y-73323152D02*
X136747142Y-73418390D01*
X136747142Y-73418390D02*
X136699523Y-73466009D01*
X136699523Y-73466009D02*
X136604285Y-73513628D01*
X136604285Y-73513628D02*
X136223333Y-73513628D01*
X137175714Y-73704104D02*
X137651904Y-73704104D01*
X137080476Y-73989819D02*
X137413809Y-72989819D01*
X137413809Y-72989819D02*
X137747142Y-73989819D01*
X138509047Y-72989819D02*
X138318571Y-72989819D01*
X138318571Y-72989819D02*
X138223333Y-73037438D01*
X138223333Y-73037438D02*
X138175714Y-73085057D01*
X138175714Y-73085057D02*
X138080476Y-73227914D01*
X138080476Y-73227914D02*
X138032857Y-73418390D01*
X138032857Y-73418390D02*
X138032857Y-73799342D01*
X138032857Y-73799342D02*
X138080476Y-73894580D01*
X138080476Y-73894580D02*
X138128095Y-73942200D01*
X138128095Y-73942200D02*
X138223333Y-73989819D01*
X138223333Y-73989819D02*
X138413809Y-73989819D01*
X138413809Y-73989819D02*
X138509047Y-73942200D01*
X138509047Y-73942200D02*
X138556666Y-73894580D01*
X138556666Y-73894580D02*
X138604285Y-73799342D01*
X138604285Y-73799342D02*
X138604285Y-73561247D01*
X138604285Y-73561247D02*
X138556666Y-73466009D01*
X138556666Y-73466009D02*
X138509047Y-73418390D01*
X138509047Y-73418390D02*
X138413809Y-73370771D01*
X138413809Y-73370771D02*
X138223333Y-73370771D01*
X138223333Y-73370771D02*
X138128095Y-73418390D01*
X138128095Y-73418390D02*
X138080476Y-73466009D01*
X138080476Y-73466009D02*
X138032857Y-73561247D01*
D11*
X136799524Y-70938855D02*
X136799524Y-70138855D01*
X136799524Y-70138855D02*
X136990000Y-70138855D01*
X136990000Y-70138855D02*
X137104286Y-70176950D01*
X137104286Y-70176950D02*
X137180476Y-70253140D01*
X137180476Y-70253140D02*
X137218571Y-70329331D01*
X137218571Y-70329331D02*
X137256667Y-70481712D01*
X137256667Y-70481712D02*
X137256667Y-70595998D01*
X137256667Y-70595998D02*
X137218571Y-70748379D01*
X137218571Y-70748379D02*
X137180476Y-70824569D01*
X137180476Y-70824569D02*
X137104286Y-70900760D01*
X137104286Y-70900760D02*
X136990000Y-70938855D01*
X136990000Y-70938855D02*
X136799524Y-70938855D01*
X137942381Y-70405521D02*
X137942381Y-70938855D01*
X137751905Y-70100760D02*
X137561428Y-70672188D01*
X137561428Y-70672188D02*
X138056667Y-70672188D01*
D10*
X135804523Y-51129819D02*
X135471190Y-50653628D01*
X135233095Y-51129819D02*
X135233095Y-50129819D01*
X135233095Y-50129819D02*
X135614047Y-50129819D01*
X135614047Y-50129819D02*
X135709285Y-50177438D01*
X135709285Y-50177438D02*
X135756904Y-50225057D01*
X135756904Y-50225057D02*
X135804523Y-50320295D01*
X135804523Y-50320295D02*
X135804523Y-50463152D01*
X135804523Y-50463152D02*
X135756904Y-50558390D01*
X135756904Y-50558390D02*
X135709285Y-50606009D01*
X135709285Y-50606009D02*
X135614047Y-50653628D01*
X135614047Y-50653628D02*
X135233095Y-50653628D01*
X136233095Y-51129819D02*
X136233095Y-50129819D01*
X136233095Y-50129819D02*
X136804523Y-51129819D01*
X136804523Y-51129819D02*
X136804523Y-50129819D01*
X137185476Y-50129819D02*
X137804523Y-50129819D01*
X137804523Y-50129819D02*
X137471190Y-50510771D01*
X137471190Y-50510771D02*
X137614047Y-50510771D01*
X137614047Y-50510771D02*
X137709285Y-50558390D01*
X137709285Y-50558390D02*
X137756904Y-50606009D01*
X137756904Y-50606009D02*
X137804523Y-50701247D01*
X137804523Y-50701247D02*
X137804523Y-50939342D01*
X137804523Y-50939342D02*
X137756904Y-51034580D01*
X137756904Y-51034580D02*
X137709285Y-51082200D01*
X137709285Y-51082200D02*
X137614047Y-51129819D01*
X137614047Y-51129819D02*
X137328333Y-51129819D01*
X137328333Y-51129819D02*
X137233095Y-51082200D01*
X137233095Y-51082200D02*
X137185476Y-51034580D01*
X152380714Y-37154104D02*
X152856904Y-37154104D01*
X152285476Y-37439819D02*
X152618809Y-36439819D01*
X152618809Y-36439819D02*
X152952142Y-37439819D01*
X153190238Y-36439819D02*
X153856904Y-36439819D01*
X153856904Y-36439819D02*
X153428333Y-37439819D01*
D11*
X152123571Y-34388855D02*
X152123571Y-33588855D01*
X152123571Y-33588855D02*
X152314047Y-33588855D01*
X152314047Y-33588855D02*
X152428333Y-33626950D01*
X152428333Y-33626950D02*
X152504523Y-33703140D01*
X152504523Y-33703140D02*
X152542618Y-33779331D01*
X152542618Y-33779331D02*
X152580714Y-33931712D01*
X152580714Y-33931712D02*
X152580714Y-34045998D01*
X152580714Y-34045998D02*
X152542618Y-34198379D01*
X152542618Y-34198379D02*
X152504523Y-34274569D01*
X152504523Y-34274569D02*
X152428333Y-34350760D01*
X152428333Y-34350760D02*
X152314047Y-34388855D01*
X152314047Y-34388855D02*
X152123571Y-34388855D01*
X153342618Y-34388855D02*
X152885475Y-34388855D01*
X153114047Y-34388855D02*
X153114047Y-33588855D01*
X153114047Y-33588855D02*
X153037856Y-33703140D01*
X153037856Y-33703140D02*
X152961666Y-33779331D01*
X152961666Y-33779331D02*
X152885475Y-33817426D01*
X154028333Y-33588855D02*
X153875952Y-33588855D01*
X153875952Y-33588855D02*
X153799761Y-33626950D01*
X153799761Y-33626950D02*
X153761666Y-33665045D01*
X153761666Y-33665045D02*
X153685476Y-33779331D01*
X153685476Y-33779331D02*
X153647380Y-33931712D01*
X153647380Y-33931712D02*
X153647380Y-34236474D01*
X153647380Y-34236474D02*
X153685476Y-34312664D01*
X153685476Y-34312664D02*
X153723571Y-34350760D01*
X153723571Y-34350760D02*
X153799761Y-34388855D01*
X153799761Y-34388855D02*
X153952142Y-34388855D01*
X153952142Y-34388855D02*
X154028333Y-34350760D01*
X154028333Y-34350760D02*
X154066428Y-34312664D01*
X154066428Y-34312664D02*
X154104523Y-34236474D01*
X154104523Y-34236474D02*
X154104523Y-34045998D01*
X154104523Y-34045998D02*
X154066428Y-33969807D01*
X154066428Y-33969807D02*
X154028333Y-33931712D01*
X154028333Y-33931712D02*
X153952142Y-33893617D01*
X153952142Y-33893617D02*
X153799761Y-33893617D01*
X153799761Y-33893617D02*
X153723571Y-33931712D01*
X153723571Y-33931712D02*
X153685476Y-33969807D01*
X153685476Y-33969807D02*
X153647380Y-34045998D01*
D10*
X75971666Y-29195819D02*
X75971666Y-29910104D01*
X75971666Y-29910104D02*
X75924047Y-30052961D01*
X75924047Y-30052961D02*
X75828809Y-30148200D01*
X75828809Y-30148200D02*
X75685952Y-30195819D01*
X75685952Y-30195819D02*
X75590714Y-30195819D01*
X76400238Y-29291057D02*
X76447857Y-29243438D01*
X76447857Y-29243438D02*
X76543095Y-29195819D01*
X76543095Y-29195819D02*
X76781190Y-29195819D01*
X76781190Y-29195819D02*
X76876428Y-29243438D01*
X76876428Y-29243438D02*
X76924047Y-29291057D01*
X76924047Y-29291057D02*
X76971666Y-29386295D01*
X76971666Y-29386295D02*
X76971666Y-29481533D01*
X76971666Y-29481533D02*
X76924047Y-29624390D01*
X76924047Y-29624390D02*
X76352619Y-30195819D01*
X76352619Y-30195819D02*
X76971666Y-30195819D01*
X81062009Y-71235952D02*
X81062009Y-70902619D01*
X81585819Y-70759762D02*
X81585819Y-71235952D01*
X81585819Y-71235952D02*
X80585819Y-71235952D01*
X80585819Y-71235952D02*
X80585819Y-70759762D01*
X81585819Y-70426428D02*
X80919152Y-69902619D01*
X80919152Y-70426428D02*
X81585819Y-69902619D01*
X80919152Y-69521666D02*
X81919152Y-69521666D01*
X80966771Y-69521666D02*
X80919152Y-69426428D01*
X80919152Y-69426428D02*
X80919152Y-69235952D01*
X80919152Y-69235952D02*
X80966771Y-69140714D01*
X80966771Y-69140714D02*
X81014390Y-69093095D01*
X81014390Y-69093095D02*
X81109628Y-69045476D01*
X81109628Y-69045476D02*
X81395342Y-69045476D01*
X81395342Y-69045476D02*
X81490580Y-69093095D01*
X81490580Y-69093095D02*
X81538200Y-69140714D01*
X81538200Y-69140714D02*
X81585819Y-69235952D01*
X81585819Y-69235952D02*
X81585819Y-69426428D01*
X81585819Y-69426428D02*
X81538200Y-69521666D01*
X81585819Y-68188333D02*
X81062009Y-68188333D01*
X81062009Y-68188333D02*
X80966771Y-68235952D01*
X80966771Y-68235952D02*
X80919152Y-68331190D01*
X80919152Y-68331190D02*
X80919152Y-68521666D01*
X80919152Y-68521666D02*
X80966771Y-68616904D01*
X81538200Y-68188333D02*
X81585819Y-68283571D01*
X81585819Y-68283571D02*
X81585819Y-68521666D01*
X81585819Y-68521666D02*
X81538200Y-68616904D01*
X81538200Y-68616904D02*
X81442961Y-68664523D01*
X81442961Y-68664523D02*
X81347723Y-68664523D01*
X81347723Y-68664523D02*
X81252485Y-68616904D01*
X81252485Y-68616904D02*
X81204866Y-68521666D01*
X81204866Y-68521666D02*
X81204866Y-68283571D01*
X81204866Y-68283571D02*
X81157247Y-68188333D01*
X80919152Y-67712142D02*
X81585819Y-67712142D01*
X81014390Y-67712142D02*
X80966771Y-67664523D01*
X80966771Y-67664523D02*
X80919152Y-67569285D01*
X80919152Y-67569285D02*
X80919152Y-67426428D01*
X80919152Y-67426428D02*
X80966771Y-67331190D01*
X80966771Y-67331190D02*
X81062009Y-67283571D01*
X81062009Y-67283571D02*
X81585819Y-67283571D01*
X81538200Y-66854999D02*
X81585819Y-66759761D01*
X81585819Y-66759761D02*
X81585819Y-66569285D01*
X81585819Y-66569285D02*
X81538200Y-66474047D01*
X81538200Y-66474047D02*
X81442961Y-66426428D01*
X81442961Y-66426428D02*
X81395342Y-66426428D01*
X81395342Y-66426428D02*
X81300104Y-66474047D01*
X81300104Y-66474047D02*
X81252485Y-66569285D01*
X81252485Y-66569285D02*
X81252485Y-66712142D01*
X81252485Y-66712142D02*
X81204866Y-66807380D01*
X81204866Y-66807380D02*
X81109628Y-66854999D01*
X81109628Y-66854999D02*
X81062009Y-66854999D01*
X81062009Y-66854999D02*
X80966771Y-66807380D01*
X80966771Y-66807380D02*
X80919152Y-66712142D01*
X80919152Y-66712142D02*
X80919152Y-66569285D01*
X80919152Y-66569285D02*
X80966771Y-66474047D01*
X81585819Y-65997856D02*
X80919152Y-65997856D01*
X80585819Y-65997856D02*
X80633438Y-66045475D01*
X80633438Y-66045475D02*
X80681057Y-65997856D01*
X80681057Y-65997856D02*
X80633438Y-65950237D01*
X80633438Y-65950237D02*
X80585819Y-65997856D01*
X80585819Y-65997856D02*
X80681057Y-65997856D01*
X81585819Y-65378809D02*
X81538200Y-65474047D01*
X81538200Y-65474047D02*
X81490580Y-65521666D01*
X81490580Y-65521666D02*
X81395342Y-65569285D01*
X81395342Y-65569285D02*
X81109628Y-65569285D01*
X81109628Y-65569285D02*
X81014390Y-65521666D01*
X81014390Y-65521666D02*
X80966771Y-65474047D01*
X80966771Y-65474047D02*
X80919152Y-65378809D01*
X80919152Y-65378809D02*
X80919152Y-65235952D01*
X80919152Y-65235952D02*
X80966771Y-65140714D01*
X80966771Y-65140714D02*
X81014390Y-65093095D01*
X81014390Y-65093095D02*
X81109628Y-65045476D01*
X81109628Y-65045476D02*
X81395342Y-65045476D01*
X81395342Y-65045476D02*
X81490580Y-65093095D01*
X81490580Y-65093095D02*
X81538200Y-65140714D01*
X81538200Y-65140714D02*
X81585819Y-65235952D01*
X81585819Y-65235952D02*
X81585819Y-65378809D01*
X80919152Y-64616904D02*
X81585819Y-64616904D01*
X81014390Y-64616904D02*
X80966771Y-64569285D01*
X80966771Y-64569285D02*
X80919152Y-64474047D01*
X80919152Y-64474047D02*
X80919152Y-64331190D01*
X80919152Y-64331190D02*
X80966771Y-64235952D01*
X80966771Y-64235952D02*
X81062009Y-64188333D01*
X81062009Y-64188333D02*
X81585819Y-64188333D01*
X80538200Y-62235952D02*
X81823914Y-63093094D01*
X81585819Y-61140713D02*
X80585819Y-61140713D01*
X80585819Y-61140713D02*
X80585819Y-60902618D01*
X80585819Y-60902618D02*
X80633438Y-60759761D01*
X80633438Y-60759761D02*
X80728676Y-60664523D01*
X80728676Y-60664523D02*
X80823914Y-60616904D01*
X80823914Y-60616904D02*
X81014390Y-60569285D01*
X81014390Y-60569285D02*
X81157247Y-60569285D01*
X81157247Y-60569285D02*
X81347723Y-60616904D01*
X81347723Y-60616904D02*
X81442961Y-60664523D01*
X81442961Y-60664523D02*
X81538200Y-60759761D01*
X81538200Y-60759761D02*
X81585819Y-60902618D01*
X81585819Y-60902618D02*
X81585819Y-61140713D01*
X81585819Y-60140713D02*
X80919152Y-60140713D01*
X80585819Y-60140713D02*
X80633438Y-60188332D01*
X80633438Y-60188332D02*
X80681057Y-60140713D01*
X80681057Y-60140713D02*
X80633438Y-60093094D01*
X80633438Y-60093094D02*
X80585819Y-60140713D01*
X80585819Y-60140713D02*
X80681057Y-60140713D01*
X81585819Y-59235952D02*
X81062009Y-59235952D01*
X81062009Y-59235952D02*
X80966771Y-59283571D01*
X80966771Y-59283571D02*
X80919152Y-59378809D01*
X80919152Y-59378809D02*
X80919152Y-59569285D01*
X80919152Y-59569285D02*
X80966771Y-59664523D01*
X81538200Y-59235952D02*
X81585819Y-59331190D01*
X81585819Y-59331190D02*
X81585819Y-59569285D01*
X81585819Y-59569285D02*
X81538200Y-59664523D01*
X81538200Y-59664523D02*
X81442961Y-59712142D01*
X81442961Y-59712142D02*
X81347723Y-59712142D01*
X81347723Y-59712142D02*
X81252485Y-59664523D01*
X81252485Y-59664523D02*
X81204866Y-59569285D01*
X81204866Y-59569285D02*
X81204866Y-59331190D01*
X81204866Y-59331190D02*
X81157247Y-59235952D01*
X80919152Y-58331190D02*
X81728676Y-58331190D01*
X81728676Y-58331190D02*
X81823914Y-58378809D01*
X81823914Y-58378809D02*
X81871533Y-58426428D01*
X81871533Y-58426428D02*
X81919152Y-58521666D01*
X81919152Y-58521666D02*
X81919152Y-58664523D01*
X81919152Y-58664523D02*
X81871533Y-58759761D01*
X81538200Y-58331190D02*
X81585819Y-58426428D01*
X81585819Y-58426428D02*
X81585819Y-58616904D01*
X81585819Y-58616904D02*
X81538200Y-58712142D01*
X81538200Y-58712142D02*
X81490580Y-58759761D01*
X81490580Y-58759761D02*
X81395342Y-58807380D01*
X81395342Y-58807380D02*
X81109628Y-58807380D01*
X81109628Y-58807380D02*
X81014390Y-58759761D01*
X81014390Y-58759761D02*
X80966771Y-58712142D01*
X80966771Y-58712142D02*
X80919152Y-58616904D01*
X80919152Y-58616904D02*
X80919152Y-58426428D01*
X80919152Y-58426428D02*
X80966771Y-58331190D01*
X81585819Y-57093094D02*
X80585819Y-57093094D01*
X80585819Y-57093094D02*
X80585819Y-56712142D01*
X80585819Y-56712142D02*
X80633438Y-56616904D01*
X80633438Y-56616904D02*
X80681057Y-56569285D01*
X80681057Y-56569285D02*
X80776295Y-56521666D01*
X80776295Y-56521666D02*
X80919152Y-56521666D01*
X80919152Y-56521666D02*
X81014390Y-56569285D01*
X81014390Y-56569285D02*
X81062009Y-56616904D01*
X81062009Y-56616904D02*
X81109628Y-56712142D01*
X81109628Y-56712142D02*
X81109628Y-57093094D01*
X81585819Y-55950237D02*
X81538200Y-56045475D01*
X81538200Y-56045475D02*
X81490580Y-56093094D01*
X81490580Y-56093094D02*
X81395342Y-56140713D01*
X81395342Y-56140713D02*
X81109628Y-56140713D01*
X81109628Y-56140713D02*
X81014390Y-56093094D01*
X81014390Y-56093094D02*
X80966771Y-56045475D01*
X80966771Y-56045475D02*
X80919152Y-55950237D01*
X80919152Y-55950237D02*
X80919152Y-55807380D01*
X80919152Y-55807380D02*
X80966771Y-55712142D01*
X80966771Y-55712142D02*
X81014390Y-55664523D01*
X81014390Y-55664523D02*
X81109628Y-55616904D01*
X81109628Y-55616904D02*
X81395342Y-55616904D01*
X81395342Y-55616904D02*
X81490580Y-55664523D01*
X81490580Y-55664523D02*
X81538200Y-55712142D01*
X81538200Y-55712142D02*
X81585819Y-55807380D01*
X81585819Y-55807380D02*
X81585819Y-55950237D01*
X81585819Y-55188332D02*
X80919152Y-55188332D01*
X81109628Y-55188332D02*
X81014390Y-55140713D01*
X81014390Y-55140713D02*
X80966771Y-55093094D01*
X80966771Y-55093094D02*
X80919152Y-54997856D01*
X80919152Y-54997856D02*
X80919152Y-54902618D01*
X80919152Y-54712141D02*
X80919152Y-54331189D01*
X80585819Y-54569284D02*
X81442961Y-54569284D01*
X81442961Y-54569284D02*
X81538200Y-54521665D01*
X81538200Y-54521665D02*
X81585819Y-54426427D01*
X81585819Y-54426427D02*
X81585819Y-54331189D01*
X75759819Y-55314333D02*
X76474104Y-55314333D01*
X76474104Y-55314333D02*
X76616961Y-55361952D01*
X76616961Y-55361952D02*
X76712200Y-55457190D01*
X76712200Y-55457190D02*
X76759819Y-55600047D01*
X76759819Y-55600047D02*
X76759819Y-55695285D01*
X75855057Y-54885761D02*
X75807438Y-54838142D01*
X75807438Y-54838142D02*
X75759819Y-54742904D01*
X75759819Y-54742904D02*
X75759819Y-54504809D01*
X75759819Y-54504809D02*
X75807438Y-54409571D01*
X75807438Y-54409571D02*
X75855057Y-54361952D01*
X75855057Y-54361952D02*
X75950295Y-54314333D01*
X75950295Y-54314333D02*
X76045533Y-54314333D01*
X76045533Y-54314333D02*
X76188390Y-54361952D01*
X76188390Y-54361952D02*
X76759819Y-54933380D01*
X76759819Y-54933380D02*
X76759819Y-54314333D01*
X132216905Y-62114819D02*
X132216905Y-61114819D01*
X132216905Y-61114819D02*
X132455000Y-61114819D01*
X132455000Y-61114819D02*
X132597857Y-61162438D01*
X132597857Y-61162438D02*
X132693095Y-61257676D01*
X132693095Y-61257676D02*
X132740714Y-61352914D01*
X132740714Y-61352914D02*
X132788333Y-61543390D01*
X132788333Y-61543390D02*
X132788333Y-61686247D01*
X132788333Y-61686247D02*
X132740714Y-61876723D01*
X132740714Y-61876723D02*
X132693095Y-61971961D01*
X132693095Y-61971961D02*
X132597857Y-62067200D01*
X132597857Y-62067200D02*
X132455000Y-62114819D01*
X132455000Y-62114819D02*
X132216905Y-62114819D01*
X133121667Y-61114819D02*
X133740714Y-61114819D01*
X133740714Y-61114819D02*
X133407381Y-61495771D01*
X133407381Y-61495771D02*
X133550238Y-61495771D01*
X133550238Y-61495771D02*
X133645476Y-61543390D01*
X133645476Y-61543390D02*
X133693095Y-61591009D01*
X133693095Y-61591009D02*
X133740714Y-61686247D01*
X133740714Y-61686247D02*
X133740714Y-61924342D01*
X133740714Y-61924342D02*
X133693095Y-62019580D01*
X133693095Y-62019580D02*
X133645476Y-62067200D01*
X133645476Y-62067200D02*
X133550238Y-62114819D01*
X133550238Y-62114819D02*
X133264524Y-62114819D01*
X133264524Y-62114819D02*
X133169286Y-62067200D01*
X133169286Y-62067200D02*
X133121667Y-62019580D01*
D11*
X131983571Y-59063855D02*
X131983571Y-58263855D01*
X131983571Y-58263855D02*
X132174047Y-58263855D01*
X132174047Y-58263855D02*
X132288333Y-58301950D01*
X132288333Y-58301950D02*
X132364523Y-58378140D01*
X132364523Y-58378140D02*
X132402618Y-58454331D01*
X132402618Y-58454331D02*
X132440714Y-58606712D01*
X132440714Y-58606712D02*
X132440714Y-58720998D01*
X132440714Y-58720998D02*
X132402618Y-58873379D01*
X132402618Y-58873379D02*
X132364523Y-58949569D01*
X132364523Y-58949569D02*
X132288333Y-59025760D01*
X132288333Y-59025760D02*
X132174047Y-59063855D01*
X132174047Y-59063855D02*
X131983571Y-59063855D01*
X132745475Y-58340045D02*
X132783571Y-58301950D01*
X132783571Y-58301950D02*
X132859761Y-58263855D01*
X132859761Y-58263855D02*
X133050237Y-58263855D01*
X133050237Y-58263855D02*
X133126428Y-58301950D01*
X133126428Y-58301950D02*
X133164523Y-58340045D01*
X133164523Y-58340045D02*
X133202618Y-58416236D01*
X133202618Y-58416236D02*
X133202618Y-58492426D01*
X133202618Y-58492426D02*
X133164523Y-58606712D01*
X133164523Y-58606712D02*
X132707380Y-59063855D01*
X132707380Y-59063855D02*
X133202618Y-59063855D01*
X133659761Y-58606712D02*
X133583571Y-58568617D01*
X133583571Y-58568617D02*
X133545476Y-58530521D01*
X133545476Y-58530521D02*
X133507380Y-58454331D01*
X133507380Y-58454331D02*
X133507380Y-58416236D01*
X133507380Y-58416236D02*
X133545476Y-58340045D01*
X133545476Y-58340045D02*
X133583571Y-58301950D01*
X133583571Y-58301950D02*
X133659761Y-58263855D01*
X133659761Y-58263855D02*
X133812142Y-58263855D01*
X133812142Y-58263855D02*
X133888333Y-58301950D01*
X133888333Y-58301950D02*
X133926428Y-58340045D01*
X133926428Y-58340045D02*
X133964523Y-58416236D01*
X133964523Y-58416236D02*
X133964523Y-58454331D01*
X133964523Y-58454331D02*
X133926428Y-58530521D01*
X133926428Y-58530521D02*
X133888333Y-58568617D01*
X133888333Y-58568617D02*
X133812142Y-58606712D01*
X133812142Y-58606712D02*
X133659761Y-58606712D01*
X133659761Y-58606712D02*
X133583571Y-58644807D01*
X133583571Y-58644807D02*
X133545476Y-58682902D01*
X133545476Y-58682902D02*
X133507380Y-58759093D01*
X133507380Y-58759093D02*
X133507380Y-58911474D01*
X133507380Y-58911474D02*
X133545476Y-58987664D01*
X133545476Y-58987664D02*
X133583571Y-59025760D01*
X133583571Y-59025760D02*
X133659761Y-59063855D01*
X133659761Y-59063855D02*
X133812142Y-59063855D01*
X133812142Y-59063855D02*
X133888333Y-59025760D01*
X133888333Y-59025760D02*
X133926428Y-58987664D01*
X133926428Y-58987664D02*
X133964523Y-58911474D01*
X133964523Y-58911474D02*
X133964523Y-58759093D01*
X133964523Y-58759093D02*
X133926428Y-58682902D01*
X133926428Y-58682902D02*
X133888333Y-58644807D01*
X133888333Y-58644807D02*
X133812142Y-58606712D01*
D10*
X146784524Y-48029104D02*
X147260714Y-48029104D01*
X146689286Y-48314819D02*
X147022619Y-47314819D01*
X147022619Y-47314819D02*
X147355952Y-48314819D01*
X148213095Y-48314819D02*
X147641667Y-48314819D01*
X147927381Y-48314819D02*
X147927381Y-47314819D01*
X147927381Y-47314819D02*
X147832143Y-47457676D01*
X147832143Y-47457676D02*
X147736905Y-47552914D01*
X147736905Y-47552914D02*
X147641667Y-47600533D01*
X149070238Y-47648152D02*
X149070238Y-48314819D01*
X148832143Y-47267200D02*
X148594048Y-47981485D01*
X148594048Y-47981485D02*
X149213095Y-47981485D01*
D11*
X147003571Y-45263855D02*
X147003571Y-44463855D01*
X147003571Y-44463855D02*
X147194047Y-44463855D01*
X147194047Y-44463855D02*
X147308333Y-44501950D01*
X147308333Y-44501950D02*
X147384523Y-44578140D01*
X147384523Y-44578140D02*
X147422618Y-44654331D01*
X147422618Y-44654331D02*
X147460714Y-44806712D01*
X147460714Y-44806712D02*
X147460714Y-44920998D01*
X147460714Y-44920998D02*
X147422618Y-45073379D01*
X147422618Y-45073379D02*
X147384523Y-45149569D01*
X147384523Y-45149569D02*
X147308333Y-45225760D01*
X147308333Y-45225760D02*
X147194047Y-45263855D01*
X147194047Y-45263855D02*
X147003571Y-45263855D01*
X147765475Y-44540045D02*
X147803571Y-44501950D01*
X147803571Y-44501950D02*
X147879761Y-44463855D01*
X147879761Y-44463855D02*
X148070237Y-44463855D01*
X148070237Y-44463855D02*
X148146428Y-44501950D01*
X148146428Y-44501950D02*
X148184523Y-44540045D01*
X148184523Y-44540045D02*
X148222618Y-44616236D01*
X148222618Y-44616236D02*
X148222618Y-44692426D01*
X148222618Y-44692426D02*
X148184523Y-44806712D01*
X148184523Y-44806712D02*
X147727380Y-45263855D01*
X147727380Y-45263855D02*
X148222618Y-45263855D01*
X148489285Y-44463855D02*
X148984523Y-44463855D01*
X148984523Y-44463855D02*
X148717857Y-44768617D01*
X148717857Y-44768617D02*
X148832142Y-44768617D01*
X148832142Y-44768617D02*
X148908333Y-44806712D01*
X148908333Y-44806712D02*
X148946428Y-44844807D01*
X148946428Y-44844807D02*
X148984523Y-44920998D01*
X148984523Y-44920998D02*
X148984523Y-45111474D01*
X148984523Y-45111474D02*
X148946428Y-45187664D01*
X148946428Y-45187664D02*
X148908333Y-45225760D01*
X148908333Y-45225760D02*
X148832142Y-45263855D01*
X148832142Y-45263855D02*
X148603571Y-45263855D01*
X148603571Y-45263855D02*
X148527380Y-45225760D01*
X148527380Y-45225760D02*
X148489285Y-45187664D01*
D10*
X117005714Y-48004104D02*
X117481904Y-48004104D01*
X116910476Y-48289819D02*
X117243809Y-47289819D01*
X117243809Y-47289819D02*
X117577142Y-48289819D01*
X118053333Y-47718390D02*
X117958095Y-47670771D01*
X117958095Y-47670771D02*
X117910476Y-47623152D01*
X117910476Y-47623152D02*
X117862857Y-47527914D01*
X117862857Y-47527914D02*
X117862857Y-47480295D01*
X117862857Y-47480295D02*
X117910476Y-47385057D01*
X117910476Y-47385057D02*
X117958095Y-47337438D01*
X117958095Y-47337438D02*
X118053333Y-47289819D01*
X118053333Y-47289819D02*
X118243809Y-47289819D01*
X118243809Y-47289819D02*
X118339047Y-47337438D01*
X118339047Y-47337438D02*
X118386666Y-47385057D01*
X118386666Y-47385057D02*
X118434285Y-47480295D01*
X118434285Y-47480295D02*
X118434285Y-47527914D01*
X118434285Y-47527914D02*
X118386666Y-47623152D01*
X118386666Y-47623152D02*
X118339047Y-47670771D01*
X118339047Y-47670771D02*
X118243809Y-47718390D01*
X118243809Y-47718390D02*
X118053333Y-47718390D01*
X118053333Y-47718390D02*
X117958095Y-47766009D01*
X117958095Y-47766009D02*
X117910476Y-47813628D01*
X117910476Y-47813628D02*
X117862857Y-47908866D01*
X117862857Y-47908866D02*
X117862857Y-48099342D01*
X117862857Y-48099342D02*
X117910476Y-48194580D01*
X117910476Y-48194580D02*
X117958095Y-48242200D01*
X117958095Y-48242200D02*
X118053333Y-48289819D01*
X118053333Y-48289819D02*
X118243809Y-48289819D01*
X118243809Y-48289819D02*
X118339047Y-48242200D01*
X118339047Y-48242200D02*
X118386666Y-48194580D01*
X118386666Y-48194580D02*
X118434285Y-48099342D01*
X118434285Y-48099342D02*
X118434285Y-47908866D01*
X118434285Y-47908866D02*
X118386666Y-47813628D01*
X118386666Y-47813628D02*
X118339047Y-47766009D01*
X118339047Y-47766009D02*
X118243809Y-47718390D01*
D11*
X116748571Y-45238855D02*
X116748571Y-44438855D01*
X116748571Y-44438855D02*
X116939047Y-44438855D01*
X116939047Y-44438855D02*
X117053333Y-44476950D01*
X117053333Y-44476950D02*
X117129523Y-44553140D01*
X117129523Y-44553140D02*
X117167618Y-44629331D01*
X117167618Y-44629331D02*
X117205714Y-44781712D01*
X117205714Y-44781712D02*
X117205714Y-44895998D01*
X117205714Y-44895998D02*
X117167618Y-45048379D01*
X117167618Y-45048379D02*
X117129523Y-45124569D01*
X117129523Y-45124569D02*
X117053333Y-45200760D01*
X117053333Y-45200760D02*
X116939047Y-45238855D01*
X116939047Y-45238855D02*
X116748571Y-45238855D01*
X117967618Y-45238855D02*
X117510475Y-45238855D01*
X117739047Y-45238855D02*
X117739047Y-44438855D01*
X117739047Y-44438855D02*
X117662856Y-44553140D01*
X117662856Y-44553140D02*
X117586666Y-44629331D01*
X117586666Y-44629331D02*
X117510475Y-44667426D01*
X118234285Y-44438855D02*
X118767619Y-44438855D01*
X118767619Y-44438855D02*
X118424761Y-45238855D01*
D10*
X140917618Y-73989819D02*
X140584285Y-73513628D01*
X140346190Y-73989819D02*
X140346190Y-72989819D01*
X140346190Y-72989819D02*
X140727142Y-72989819D01*
X140727142Y-72989819D02*
X140822380Y-73037438D01*
X140822380Y-73037438D02*
X140869999Y-73085057D01*
X140869999Y-73085057D02*
X140917618Y-73180295D01*
X140917618Y-73180295D02*
X140917618Y-73323152D01*
X140917618Y-73323152D02*
X140869999Y-73418390D01*
X140869999Y-73418390D02*
X140822380Y-73466009D01*
X140822380Y-73466009D02*
X140727142Y-73513628D01*
X140727142Y-73513628D02*
X140346190Y-73513628D01*
X141346190Y-73466009D02*
X141679523Y-73466009D01*
X141822380Y-73989819D02*
X141346190Y-73989819D01*
X141346190Y-73989819D02*
X141346190Y-72989819D01*
X141346190Y-72989819D02*
X141822380Y-72989819D01*
X142203333Y-73942200D02*
X142346190Y-73989819D01*
X142346190Y-73989819D02*
X142584285Y-73989819D01*
X142584285Y-73989819D02*
X142679523Y-73942200D01*
X142679523Y-73942200D02*
X142727142Y-73894580D01*
X142727142Y-73894580D02*
X142774761Y-73799342D01*
X142774761Y-73799342D02*
X142774761Y-73704104D01*
X142774761Y-73704104D02*
X142727142Y-73608866D01*
X142727142Y-73608866D02*
X142679523Y-73561247D01*
X142679523Y-73561247D02*
X142584285Y-73513628D01*
X142584285Y-73513628D02*
X142393809Y-73466009D01*
X142393809Y-73466009D02*
X142298571Y-73418390D01*
X142298571Y-73418390D02*
X142250952Y-73370771D01*
X142250952Y-73370771D02*
X142203333Y-73275533D01*
X142203333Y-73275533D02*
X142203333Y-73180295D01*
X142203333Y-73180295D02*
X142250952Y-73085057D01*
X142250952Y-73085057D02*
X142298571Y-73037438D01*
X142298571Y-73037438D02*
X142393809Y-72989819D01*
X142393809Y-72989819D02*
X142631904Y-72989819D01*
X142631904Y-72989819D02*
X142774761Y-73037438D01*
X143203333Y-73466009D02*
X143536666Y-73466009D01*
X143679523Y-73989819D02*
X143203333Y-73989819D01*
X143203333Y-73989819D02*
X143203333Y-72989819D01*
X143203333Y-72989819D02*
X143679523Y-72989819D01*
X143965238Y-72989819D02*
X144536666Y-72989819D01*
X144250952Y-73989819D02*
X144250952Y-72989819D01*
D11*
X141779524Y-70938855D02*
X141779524Y-70138855D01*
X141779524Y-70138855D02*
X141970000Y-70138855D01*
X141970000Y-70138855D02*
X142084286Y-70176950D01*
X142084286Y-70176950D02*
X142160476Y-70253140D01*
X142160476Y-70253140D02*
X142198571Y-70329331D01*
X142198571Y-70329331D02*
X142236667Y-70481712D01*
X142236667Y-70481712D02*
X142236667Y-70595998D01*
X142236667Y-70595998D02*
X142198571Y-70748379D01*
X142198571Y-70748379D02*
X142160476Y-70824569D01*
X142160476Y-70824569D02*
X142084286Y-70900760D01*
X142084286Y-70900760D02*
X141970000Y-70938855D01*
X141970000Y-70938855D02*
X141779524Y-70938855D01*
X142960476Y-70138855D02*
X142579524Y-70138855D01*
X142579524Y-70138855D02*
X142541428Y-70519807D01*
X142541428Y-70519807D02*
X142579524Y-70481712D01*
X142579524Y-70481712D02*
X142655714Y-70443617D01*
X142655714Y-70443617D02*
X142846190Y-70443617D01*
X142846190Y-70443617D02*
X142922381Y-70481712D01*
X142922381Y-70481712D02*
X142960476Y-70519807D01*
X142960476Y-70519807D02*
X142998571Y-70595998D01*
X142998571Y-70595998D02*
X142998571Y-70786474D01*
X142998571Y-70786474D02*
X142960476Y-70862664D01*
X142960476Y-70862664D02*
X142922381Y-70900760D01*
X142922381Y-70900760D02*
X142846190Y-70938855D01*
X142846190Y-70938855D02*
X142655714Y-70938855D01*
X142655714Y-70938855D02*
X142579524Y-70900760D01*
X142579524Y-70900760D02*
X142541428Y-70862664D01*
D10*
X136759524Y-48029104D02*
X137235714Y-48029104D01*
X136664286Y-48314819D02*
X136997619Y-47314819D01*
X136997619Y-47314819D02*
X137330952Y-48314819D01*
X138188095Y-48314819D02*
X137616667Y-48314819D01*
X137902381Y-48314819D02*
X137902381Y-47314819D01*
X137902381Y-47314819D02*
X137807143Y-47457676D01*
X137807143Y-47457676D02*
X137711905Y-47552914D01*
X137711905Y-47552914D02*
X137616667Y-47600533D01*
X138569048Y-47410057D02*
X138616667Y-47362438D01*
X138616667Y-47362438D02*
X138711905Y-47314819D01*
X138711905Y-47314819D02*
X138950000Y-47314819D01*
X138950000Y-47314819D02*
X139045238Y-47362438D01*
X139045238Y-47362438D02*
X139092857Y-47410057D01*
X139092857Y-47410057D02*
X139140476Y-47505295D01*
X139140476Y-47505295D02*
X139140476Y-47600533D01*
X139140476Y-47600533D02*
X139092857Y-47743390D01*
X139092857Y-47743390D02*
X138521429Y-48314819D01*
X138521429Y-48314819D02*
X139140476Y-48314819D01*
D11*
X136978571Y-45263855D02*
X136978571Y-44463855D01*
X136978571Y-44463855D02*
X137169047Y-44463855D01*
X137169047Y-44463855D02*
X137283333Y-44501950D01*
X137283333Y-44501950D02*
X137359523Y-44578140D01*
X137359523Y-44578140D02*
X137397618Y-44654331D01*
X137397618Y-44654331D02*
X137435714Y-44806712D01*
X137435714Y-44806712D02*
X137435714Y-44920998D01*
X137435714Y-44920998D02*
X137397618Y-45073379D01*
X137397618Y-45073379D02*
X137359523Y-45149569D01*
X137359523Y-45149569D02*
X137283333Y-45225760D01*
X137283333Y-45225760D02*
X137169047Y-45263855D01*
X137169047Y-45263855D02*
X136978571Y-45263855D01*
X137740475Y-44540045D02*
X137778571Y-44501950D01*
X137778571Y-44501950D02*
X137854761Y-44463855D01*
X137854761Y-44463855D02*
X138045237Y-44463855D01*
X138045237Y-44463855D02*
X138121428Y-44501950D01*
X138121428Y-44501950D02*
X138159523Y-44540045D01*
X138159523Y-44540045D02*
X138197618Y-44616236D01*
X138197618Y-44616236D02*
X138197618Y-44692426D01*
X138197618Y-44692426D02*
X138159523Y-44806712D01*
X138159523Y-44806712D02*
X137702380Y-45263855D01*
X137702380Y-45263855D02*
X138197618Y-45263855D01*
X138959523Y-45263855D02*
X138502380Y-45263855D01*
X138730952Y-45263855D02*
X138730952Y-44463855D01*
X138730952Y-44463855D02*
X138654761Y-44578140D01*
X138654761Y-44578140D02*
X138578571Y-44654331D01*
X138578571Y-44654331D02*
X138502380Y-44692426D01*
D10*
X147380714Y-37179104D02*
X147856904Y-37179104D01*
X147285476Y-37464819D02*
X147618809Y-36464819D01*
X147618809Y-36464819D02*
X147952142Y-37464819D01*
X148714047Y-36464819D02*
X148523571Y-36464819D01*
X148523571Y-36464819D02*
X148428333Y-36512438D01*
X148428333Y-36512438D02*
X148380714Y-36560057D01*
X148380714Y-36560057D02*
X148285476Y-36702914D01*
X148285476Y-36702914D02*
X148237857Y-36893390D01*
X148237857Y-36893390D02*
X148237857Y-37274342D01*
X148237857Y-37274342D02*
X148285476Y-37369580D01*
X148285476Y-37369580D02*
X148333095Y-37417200D01*
X148333095Y-37417200D02*
X148428333Y-37464819D01*
X148428333Y-37464819D02*
X148618809Y-37464819D01*
X148618809Y-37464819D02*
X148714047Y-37417200D01*
X148714047Y-37417200D02*
X148761666Y-37369580D01*
X148761666Y-37369580D02*
X148809285Y-37274342D01*
X148809285Y-37274342D02*
X148809285Y-37036247D01*
X148809285Y-37036247D02*
X148761666Y-36941009D01*
X148761666Y-36941009D02*
X148714047Y-36893390D01*
X148714047Y-36893390D02*
X148618809Y-36845771D01*
X148618809Y-36845771D02*
X148428333Y-36845771D01*
X148428333Y-36845771D02*
X148333095Y-36893390D01*
X148333095Y-36893390D02*
X148285476Y-36941009D01*
X148285476Y-36941009D02*
X148237857Y-37036247D01*
D11*
X147123571Y-34413855D02*
X147123571Y-33613855D01*
X147123571Y-33613855D02*
X147314047Y-33613855D01*
X147314047Y-33613855D02*
X147428333Y-33651950D01*
X147428333Y-33651950D02*
X147504523Y-33728140D01*
X147504523Y-33728140D02*
X147542618Y-33804331D01*
X147542618Y-33804331D02*
X147580714Y-33956712D01*
X147580714Y-33956712D02*
X147580714Y-34070998D01*
X147580714Y-34070998D02*
X147542618Y-34223379D01*
X147542618Y-34223379D02*
X147504523Y-34299569D01*
X147504523Y-34299569D02*
X147428333Y-34375760D01*
X147428333Y-34375760D02*
X147314047Y-34413855D01*
X147314047Y-34413855D02*
X147123571Y-34413855D01*
X148342618Y-34413855D02*
X147885475Y-34413855D01*
X148114047Y-34413855D02*
X148114047Y-33613855D01*
X148114047Y-33613855D02*
X148037856Y-33728140D01*
X148037856Y-33728140D02*
X147961666Y-33804331D01*
X147961666Y-33804331D02*
X147885475Y-33842426D01*
X149066428Y-33613855D02*
X148685476Y-33613855D01*
X148685476Y-33613855D02*
X148647380Y-33994807D01*
X148647380Y-33994807D02*
X148685476Y-33956712D01*
X148685476Y-33956712D02*
X148761666Y-33918617D01*
X148761666Y-33918617D02*
X148952142Y-33918617D01*
X148952142Y-33918617D02*
X149028333Y-33956712D01*
X149028333Y-33956712D02*
X149066428Y-33994807D01*
X149066428Y-33994807D02*
X149104523Y-34070998D01*
X149104523Y-34070998D02*
X149104523Y-34261474D01*
X149104523Y-34261474D02*
X149066428Y-34337664D01*
X149066428Y-34337664D02*
X149028333Y-34375760D01*
X149028333Y-34375760D02*
X148952142Y-34413855D01*
X148952142Y-34413855D02*
X148761666Y-34413855D01*
X148761666Y-34413855D02*
X148685476Y-34375760D01*
X148685476Y-34375760D02*
X148647380Y-34337664D01*
D10*
X122080714Y-48004104D02*
X122556904Y-48004104D01*
X121985476Y-48289819D02*
X122318809Y-47289819D01*
X122318809Y-47289819D02*
X122652142Y-48289819D01*
X123033095Y-48289819D02*
X123223571Y-48289819D01*
X123223571Y-48289819D02*
X123318809Y-48242200D01*
X123318809Y-48242200D02*
X123366428Y-48194580D01*
X123366428Y-48194580D02*
X123461666Y-48051723D01*
X123461666Y-48051723D02*
X123509285Y-47861247D01*
X123509285Y-47861247D02*
X123509285Y-47480295D01*
X123509285Y-47480295D02*
X123461666Y-47385057D01*
X123461666Y-47385057D02*
X123414047Y-47337438D01*
X123414047Y-47337438D02*
X123318809Y-47289819D01*
X123318809Y-47289819D02*
X123128333Y-47289819D01*
X123128333Y-47289819D02*
X123033095Y-47337438D01*
X123033095Y-47337438D02*
X122985476Y-47385057D01*
X122985476Y-47385057D02*
X122937857Y-47480295D01*
X122937857Y-47480295D02*
X122937857Y-47718390D01*
X122937857Y-47718390D02*
X122985476Y-47813628D01*
X122985476Y-47813628D02*
X123033095Y-47861247D01*
X123033095Y-47861247D02*
X123128333Y-47908866D01*
X123128333Y-47908866D02*
X123318809Y-47908866D01*
X123318809Y-47908866D02*
X123414047Y-47861247D01*
X123414047Y-47861247D02*
X123461666Y-47813628D01*
X123461666Y-47813628D02*
X123509285Y-47718390D01*
D11*
X121823571Y-45238855D02*
X121823571Y-44438855D01*
X121823571Y-44438855D02*
X122014047Y-44438855D01*
X122014047Y-44438855D02*
X122128333Y-44476950D01*
X122128333Y-44476950D02*
X122204523Y-44553140D01*
X122204523Y-44553140D02*
X122242618Y-44629331D01*
X122242618Y-44629331D02*
X122280714Y-44781712D01*
X122280714Y-44781712D02*
X122280714Y-44895998D01*
X122280714Y-44895998D02*
X122242618Y-45048379D01*
X122242618Y-45048379D02*
X122204523Y-45124569D01*
X122204523Y-45124569D02*
X122128333Y-45200760D01*
X122128333Y-45200760D02*
X122014047Y-45238855D01*
X122014047Y-45238855D02*
X121823571Y-45238855D01*
X123042618Y-45238855D02*
X122585475Y-45238855D01*
X122814047Y-45238855D02*
X122814047Y-44438855D01*
X122814047Y-44438855D02*
X122737856Y-44553140D01*
X122737856Y-44553140D02*
X122661666Y-44629331D01*
X122661666Y-44629331D02*
X122585475Y-44667426D01*
X123499761Y-44781712D02*
X123423571Y-44743617D01*
X123423571Y-44743617D02*
X123385476Y-44705521D01*
X123385476Y-44705521D02*
X123347380Y-44629331D01*
X123347380Y-44629331D02*
X123347380Y-44591236D01*
X123347380Y-44591236D02*
X123385476Y-44515045D01*
X123385476Y-44515045D02*
X123423571Y-44476950D01*
X123423571Y-44476950D02*
X123499761Y-44438855D01*
X123499761Y-44438855D02*
X123652142Y-44438855D01*
X123652142Y-44438855D02*
X123728333Y-44476950D01*
X123728333Y-44476950D02*
X123766428Y-44515045D01*
X123766428Y-44515045D02*
X123804523Y-44591236D01*
X123804523Y-44591236D02*
X123804523Y-44629331D01*
X123804523Y-44629331D02*
X123766428Y-44705521D01*
X123766428Y-44705521D02*
X123728333Y-44743617D01*
X123728333Y-44743617D02*
X123652142Y-44781712D01*
X123652142Y-44781712D02*
X123499761Y-44781712D01*
X123499761Y-44781712D02*
X123423571Y-44819807D01*
X123423571Y-44819807D02*
X123385476Y-44857902D01*
X123385476Y-44857902D02*
X123347380Y-44934093D01*
X123347380Y-44934093D02*
X123347380Y-45086474D01*
X123347380Y-45086474D02*
X123385476Y-45162664D01*
X123385476Y-45162664D02*
X123423571Y-45200760D01*
X123423571Y-45200760D02*
X123499761Y-45238855D01*
X123499761Y-45238855D02*
X123652142Y-45238855D01*
X123652142Y-45238855D02*
X123728333Y-45200760D01*
X123728333Y-45200760D02*
X123766428Y-45162664D01*
X123766428Y-45162664D02*
X123804523Y-45086474D01*
X123804523Y-45086474D02*
X123804523Y-44934093D01*
X123804523Y-44934093D02*
X123766428Y-44857902D01*
X123766428Y-44857902D02*
X123728333Y-44819807D01*
X123728333Y-44819807D02*
X123652142Y-44781712D01*
D10*
X97530952Y-49264819D02*
X98197618Y-49264819D01*
X98197618Y-49264819D02*
X97769047Y-50264819D01*
X99007142Y-49598152D02*
X99007142Y-50264819D01*
X98769047Y-49217200D02*
X98530952Y-49931485D01*
X98530952Y-49931485D02*
X99149999Y-49931485D01*
X100007142Y-50264819D02*
X99530952Y-50264819D01*
X99530952Y-50264819D02*
X99530952Y-49264819D01*
X100292857Y-50217200D02*
X100435714Y-50264819D01*
X100435714Y-50264819D02*
X100673809Y-50264819D01*
X100673809Y-50264819D02*
X100769047Y-50217200D01*
X100769047Y-50217200D02*
X100816666Y-50169580D01*
X100816666Y-50169580D02*
X100864285Y-50074342D01*
X100864285Y-50074342D02*
X100864285Y-49979104D01*
X100864285Y-49979104D02*
X100816666Y-49883866D01*
X100816666Y-49883866D02*
X100769047Y-49836247D01*
X100769047Y-49836247D02*
X100673809Y-49788628D01*
X100673809Y-49788628D02*
X100483333Y-49741009D01*
X100483333Y-49741009D02*
X100388095Y-49693390D01*
X100388095Y-49693390D02*
X100340476Y-49645771D01*
X100340476Y-49645771D02*
X100292857Y-49550533D01*
X100292857Y-49550533D02*
X100292857Y-49455295D01*
X100292857Y-49455295D02*
X100340476Y-49360057D01*
X100340476Y-49360057D02*
X100388095Y-49312438D01*
X100388095Y-49312438D02*
X100483333Y-49264819D01*
X100483333Y-49264819D02*
X100721428Y-49264819D01*
X100721428Y-49264819D02*
X100864285Y-49312438D01*
X101197619Y-49264819D02*
X101816666Y-49264819D01*
X101816666Y-49264819D02*
X101483333Y-49645771D01*
X101483333Y-49645771D02*
X101626190Y-49645771D01*
X101626190Y-49645771D02*
X101721428Y-49693390D01*
X101721428Y-49693390D02*
X101769047Y-49741009D01*
X101769047Y-49741009D02*
X101816666Y-49836247D01*
X101816666Y-49836247D02*
X101816666Y-50074342D01*
X101816666Y-50074342D02*
X101769047Y-50169580D01*
X101769047Y-50169580D02*
X101721428Y-50217200D01*
X101721428Y-50217200D02*
X101626190Y-50264819D01*
X101626190Y-50264819D02*
X101340476Y-50264819D01*
X101340476Y-50264819D02*
X101245238Y-50217200D01*
X101245238Y-50217200D02*
X101197619Y-50169580D01*
X102150000Y-49264819D02*
X102816666Y-49264819D01*
X102816666Y-49264819D02*
X102388095Y-50264819D01*
X103102381Y-49264819D02*
X103721428Y-49264819D01*
X103721428Y-49264819D02*
X103388095Y-49645771D01*
X103388095Y-49645771D02*
X103530952Y-49645771D01*
X103530952Y-49645771D02*
X103626190Y-49693390D01*
X103626190Y-49693390D02*
X103673809Y-49741009D01*
X103673809Y-49741009D02*
X103721428Y-49836247D01*
X103721428Y-49836247D02*
X103721428Y-50074342D01*
X103721428Y-50074342D02*
X103673809Y-50169580D01*
X103673809Y-50169580D02*
X103626190Y-50217200D01*
X103626190Y-50217200D02*
X103530952Y-50264819D01*
X103530952Y-50264819D02*
X103245238Y-50264819D01*
X103245238Y-50264819D02*
X103150000Y-50217200D01*
X103150000Y-50217200D02*
X103102381Y-50169580D01*
X136029523Y-65179819D02*
X135696190Y-64703628D01*
X135458095Y-65179819D02*
X135458095Y-64179819D01*
X135458095Y-64179819D02*
X135839047Y-64179819D01*
X135839047Y-64179819D02*
X135934285Y-64227438D01*
X135934285Y-64227438D02*
X135981904Y-64275057D01*
X135981904Y-64275057D02*
X136029523Y-64370295D01*
X136029523Y-64370295D02*
X136029523Y-64513152D01*
X136029523Y-64513152D02*
X135981904Y-64608390D01*
X135981904Y-64608390D02*
X135934285Y-64656009D01*
X135934285Y-64656009D02*
X135839047Y-64703628D01*
X135839047Y-64703628D02*
X135458095Y-64703628D01*
X136458095Y-65179819D02*
X136458095Y-64179819D01*
X136458095Y-64179819D02*
X137029523Y-65179819D01*
X137029523Y-65179819D02*
X137029523Y-64179819D01*
X137934285Y-64513152D02*
X137934285Y-65179819D01*
X137696190Y-64132200D02*
X137458095Y-64846485D01*
X137458095Y-64846485D02*
X138077142Y-64846485D01*
X151804524Y-48029104D02*
X152280714Y-48029104D01*
X151709286Y-48314819D02*
X152042619Y-47314819D01*
X152042619Y-47314819D02*
X152375952Y-48314819D01*
X153233095Y-48314819D02*
X152661667Y-48314819D01*
X152947381Y-48314819D02*
X152947381Y-47314819D01*
X152947381Y-47314819D02*
X152852143Y-47457676D01*
X152852143Y-47457676D02*
X152756905Y-47552914D01*
X152756905Y-47552914D02*
X152661667Y-47600533D01*
X154137857Y-47314819D02*
X153661667Y-47314819D01*
X153661667Y-47314819D02*
X153614048Y-47791009D01*
X153614048Y-47791009D02*
X153661667Y-47743390D01*
X153661667Y-47743390D02*
X153756905Y-47695771D01*
X153756905Y-47695771D02*
X153995000Y-47695771D01*
X153995000Y-47695771D02*
X154090238Y-47743390D01*
X154090238Y-47743390D02*
X154137857Y-47791009D01*
X154137857Y-47791009D02*
X154185476Y-47886247D01*
X154185476Y-47886247D02*
X154185476Y-48124342D01*
X154185476Y-48124342D02*
X154137857Y-48219580D01*
X154137857Y-48219580D02*
X154090238Y-48267200D01*
X154090238Y-48267200D02*
X153995000Y-48314819D01*
X153995000Y-48314819D02*
X153756905Y-48314819D01*
X153756905Y-48314819D02*
X153661667Y-48267200D01*
X153661667Y-48267200D02*
X153614048Y-48219580D01*
D11*
X152023571Y-45263855D02*
X152023571Y-44463855D01*
X152023571Y-44463855D02*
X152214047Y-44463855D01*
X152214047Y-44463855D02*
X152328333Y-44501950D01*
X152328333Y-44501950D02*
X152404523Y-44578140D01*
X152404523Y-44578140D02*
X152442618Y-44654331D01*
X152442618Y-44654331D02*
X152480714Y-44806712D01*
X152480714Y-44806712D02*
X152480714Y-44920998D01*
X152480714Y-44920998D02*
X152442618Y-45073379D01*
X152442618Y-45073379D02*
X152404523Y-45149569D01*
X152404523Y-45149569D02*
X152328333Y-45225760D01*
X152328333Y-45225760D02*
X152214047Y-45263855D01*
X152214047Y-45263855D02*
X152023571Y-45263855D01*
X152785475Y-44540045D02*
X152823571Y-44501950D01*
X152823571Y-44501950D02*
X152899761Y-44463855D01*
X152899761Y-44463855D02*
X153090237Y-44463855D01*
X153090237Y-44463855D02*
X153166428Y-44501950D01*
X153166428Y-44501950D02*
X153204523Y-44540045D01*
X153204523Y-44540045D02*
X153242618Y-44616236D01*
X153242618Y-44616236D02*
X153242618Y-44692426D01*
X153242618Y-44692426D02*
X153204523Y-44806712D01*
X153204523Y-44806712D02*
X152747380Y-45263855D01*
X152747380Y-45263855D02*
X153242618Y-45263855D01*
X153928333Y-44730521D02*
X153928333Y-45263855D01*
X153737857Y-44425760D02*
X153547380Y-44997188D01*
X153547380Y-44997188D02*
X154042619Y-44997188D01*
%TO.C,U4*%
X88183000Y-70365000D02*
X88183000Y-72015000D01*
X88183000Y-74015000D02*
X88183000Y-75665000D01*
X88183000Y-75665000D02*
X113703000Y-75665000D01*
D12*
X88243000Y-69840000D02*
X113643000Y-69840000D01*
X88243000Y-75190000D02*
X88243000Y-69840000D01*
X89243000Y-76190000D02*
X88243000Y-75190000D01*
X113643000Y-69840000D02*
X113643000Y-76190000D01*
X113643000Y-76190000D02*
X89243000Y-76190000D01*
D11*
X113703000Y-70365000D02*
X88183000Y-70365000D01*
X113703000Y-75665000D02*
X113703000Y-70365000D01*
X88123000Y-78155000D02*
X113763000Y-78155000D01*
X113763000Y-67875000D01*
X88123000Y-67875000D01*
X88123000Y-78155000D01*
D12*
X88183000Y-78095000D02*
X113703000Y-78095000D01*
X113703000Y-67935000D01*
X88183000Y-67935000D01*
X88183000Y-78095000D01*
D11*
X88183000Y-72015000D02*
G75*
G02*
X88183000Y-74015000I0J-1000000D01*
G01*
%TO.C,D12*%
X131485000Y-32764000D02*
X131485000Y-32920000D01*
X131485000Y-35080000D02*
X131485000Y-35236000D01*
D12*
X131545000Y-32833810D02*
X131545000Y-35166190D01*
D11*
X131485000Y-32764484D02*
G75*
G02*
X134716437Y-32920000I1560000J-1235516D01*
G01*
D12*
X131545000Y-32833810D02*
G75*
G02*
X131545000Y-35166190I1500000J-1166190D01*
G01*
D11*
X132004039Y-32920000D02*
G75*
G02*
X134085961Y-32920000I1040961J-1080000D01*
G01*
X134085961Y-35080000D02*
G75*
G02*
X132004039Y-35080000I-1040961J1080000D01*
G01*
X134716437Y-35080000D02*
G75*
G02*
X131485000Y-35235516I-1671437J1080000D01*
G01*
D12*
X134545000Y-34000000D02*
G75*
G02*
X131545000Y-34000000I-1500000J0D01*
G01*
X131545000Y-34000000D02*
G75*
G02*
X134545000Y-34000000I1500000J0D01*
G01*
D11*
%TO.C,D22*%
X141410000Y-43639000D02*
X141410000Y-43795000D01*
X141410000Y-45955000D02*
X141410000Y-46111000D01*
D12*
X141470000Y-43708810D02*
X141470000Y-46041190D01*
D11*
X141410000Y-43639484D02*
G75*
G02*
X144641437Y-43795000I1560000J-1235516D01*
G01*
D12*
X141470000Y-43708810D02*
G75*
G02*
X141470000Y-46041190I1500000J-1166190D01*
G01*
D11*
X141929039Y-43795000D02*
G75*
G02*
X144010961Y-43795000I1040961J-1080000D01*
G01*
X144010961Y-45955000D02*
G75*
G02*
X141929039Y-45955000I-1040961J1080000D01*
G01*
X144641437Y-45955000D02*
G75*
G02*
X141410000Y-46110516I-1671437J1080000D01*
G01*
D12*
X144470000Y-44875000D02*
G75*
G02*
X141470000Y-44875000I-1500000J0D01*
G01*
X141470000Y-44875000D02*
G75*
G02*
X144470000Y-44875000I1500000J0D01*
G01*
D11*
%TO.C,D10*%
X121460000Y-32764000D02*
X121460000Y-32920000D01*
X121460000Y-35080000D02*
X121460000Y-35236000D01*
D12*
X121520000Y-32833810D02*
X121520000Y-35166190D01*
D11*
X121460000Y-32764484D02*
G75*
G02*
X124691437Y-32920000I1560000J-1235516D01*
G01*
D12*
X121520000Y-32833810D02*
G75*
G02*
X121520000Y-35166190I1500000J-1166190D01*
G01*
D11*
X121979039Y-32920000D02*
G75*
G02*
X124060961Y-32920000I1040961J-1080000D01*
G01*
X124060961Y-35080000D02*
G75*
G02*
X121979039Y-35080000I-1040961J1080000D01*
G01*
X124691437Y-35080000D02*
G75*
G02*
X121460000Y-35235516I-1671437J1080000D01*
G01*
D12*
X124520000Y-34000000D02*
G75*
G02*
X121520000Y-34000000I-1500000J0D01*
G01*
X121520000Y-34000000D02*
G75*
G02*
X124520000Y-34000000I1500000J0D01*
G01*
D11*
%TO.C,D11*%
X126460000Y-32764000D02*
X126460000Y-32920000D01*
X126460000Y-35080000D02*
X126460000Y-35236000D01*
D12*
X126520000Y-32833810D02*
X126520000Y-35166190D01*
D11*
X126460000Y-32764484D02*
G75*
G02*
X129691437Y-32920000I1560000J-1235516D01*
G01*
D12*
X126520000Y-32833810D02*
G75*
G02*
X126520000Y-35166190I1500000J-1166190D01*
G01*
D11*
X126979039Y-32920000D02*
G75*
G02*
X129060961Y-32920000I1040961J-1080000D01*
G01*
X129060961Y-35080000D02*
G75*
G02*
X126979039Y-35080000I-1040961J1080000D01*
G01*
X129691437Y-35080000D02*
G75*
G02*
X126460000Y-35235516I-1671437J1080000D01*
G01*
D12*
X129520000Y-34000000D02*
G75*
G02*
X126520000Y-34000000I-1500000J0D01*
G01*
X126520000Y-34000000D02*
G75*
G02*
X129520000Y-34000000I1500000J0D01*
G01*
D11*
%TO.C,D14*%
X141510000Y-32814000D02*
X141510000Y-32970000D01*
X141510000Y-35130000D02*
X141510000Y-35286000D01*
D12*
X141570000Y-32883810D02*
X141570000Y-35216190D01*
D11*
X141510000Y-32814484D02*
G75*
G02*
X144741437Y-32970000I1560000J-1235516D01*
G01*
D12*
X141570000Y-32883810D02*
G75*
G02*
X141570000Y-35216190I1500000J-1166190D01*
G01*
D11*
X142029039Y-32970000D02*
G75*
G02*
X144110961Y-32970000I1040961J-1080000D01*
G01*
X144110961Y-35130000D02*
G75*
G02*
X142029039Y-35130000I-1040961J1080000D01*
G01*
X144741437Y-35130000D02*
G75*
G02*
X141510000Y-35285516I-1671437J1080000D01*
G01*
D12*
X144570000Y-34050000D02*
G75*
G02*
X141570000Y-34050000I-1500000J0D01*
G01*
X141570000Y-34050000D02*
G75*
G02*
X144570000Y-34050000I1500000J0D01*
G01*
D11*
%TO.C,D29*%
X136395000Y-57464000D02*
X136395000Y-57620000D01*
X136395000Y-59780000D02*
X136395000Y-59936000D01*
D12*
X136455000Y-57533810D02*
X136455000Y-59866190D01*
D11*
X136395000Y-57464484D02*
G75*
G02*
X139626437Y-57620000I1560000J-1235516D01*
G01*
D12*
X136455000Y-57533810D02*
G75*
G02*
X136455000Y-59866190I1500000J-1166190D01*
G01*
D11*
X136914039Y-57620000D02*
G75*
G02*
X138995961Y-57620000I1040961J-1080000D01*
G01*
X138995961Y-59780000D02*
G75*
G02*
X136914039Y-59780000I-1040961J1080000D01*
G01*
X139626437Y-59780000D02*
G75*
G02*
X136395000Y-59935516I-1671437J1080000D01*
G01*
D12*
X139455000Y-58700000D02*
G75*
G02*
X136455000Y-58700000I-1500000J0D01*
G01*
X136455000Y-58700000D02*
G75*
G02*
X139455000Y-58700000I1500000J0D01*
G01*
D11*
%TO.C,D31*%
X146395000Y-57464000D02*
X146395000Y-57620000D01*
X146395000Y-59780000D02*
X146395000Y-59936000D01*
D12*
X146455000Y-57533810D02*
X146455000Y-59866190D01*
D11*
X146395000Y-57464484D02*
G75*
G02*
X149626437Y-57620000I1560000J-1235516D01*
G01*
D12*
X146455000Y-57533810D02*
G75*
G02*
X146455000Y-59866190I1500000J-1166190D01*
G01*
D11*
X146914039Y-57620000D02*
G75*
G02*
X148995961Y-57620000I1040961J-1080000D01*
G01*
X148995961Y-59780000D02*
G75*
G02*
X146914039Y-59780000I-1040961J1080000D01*
G01*
X149626437Y-59780000D02*
G75*
G02*
X146395000Y-59935516I-1671437J1080000D01*
G01*
D12*
X149455000Y-58700000D02*
G75*
G02*
X146455000Y-58700000I-1500000J0D01*
G01*
X146455000Y-58700000D02*
G75*
G02*
X149455000Y-58700000I1500000J0D01*
G01*
D11*
%TO.C,D2*%
X125830000Y-69339000D02*
X125830000Y-69495000D01*
X125830000Y-71655000D02*
X125830000Y-71811000D01*
D12*
X125890000Y-69408810D02*
X125890000Y-71741190D01*
D11*
X125830000Y-69339484D02*
G75*
G02*
X129061437Y-69495000I1560000J-1235516D01*
G01*
D12*
X125890000Y-69408810D02*
G75*
G02*
X125890000Y-71741190I1500000J-1166190D01*
G01*
D11*
X126349039Y-69495000D02*
G75*
G02*
X128430961Y-69495000I1040961J-1080000D01*
G01*
X128430961Y-71655000D02*
G75*
G02*
X126349039Y-71655000I-1040961J1080000D01*
G01*
X129061437Y-71655000D02*
G75*
G02*
X125830000Y-71810516I-1671437J1080000D01*
G01*
D12*
X128890000Y-70575000D02*
G75*
G02*
X125890000Y-70575000I-1500000J0D01*
G01*
X125890000Y-70575000D02*
G75*
G02*
X128890000Y-70575000I1500000J0D01*
G01*
D11*
%TO.C,U1*%
X88240000Y-35350000D02*
X88240000Y-40650000D01*
X88240000Y-40650000D02*
X113760000Y-40650000D01*
D12*
X88300000Y-34825000D02*
X112700000Y-34825000D01*
X88300000Y-41175000D02*
X88300000Y-34825000D01*
X112700000Y-34825000D02*
X113700000Y-35825000D01*
X113700000Y-35825000D02*
X113700000Y-41175000D01*
X113700000Y-41175000D02*
X88300000Y-41175000D01*
D11*
X113760000Y-35350000D02*
X88240000Y-35350000D01*
X113760000Y-37000000D02*
X113760000Y-35350000D01*
X113760000Y-40650000D02*
X113760000Y-39000000D01*
D12*
X113760000Y-32920000D02*
X88240000Y-32920000D01*
X88240000Y-43080000D01*
X113760000Y-43080000D01*
X113760000Y-32920000D01*
D11*
X113820000Y-32860000D02*
X88180000Y-32860000D01*
X88180000Y-43140000D01*
X113820000Y-43140000D01*
X113820000Y-32860000D01*
X113760000Y-39000000D02*
G75*
G02*
X113760000Y-37000000I0J1000000D01*
G01*
%TO.C,D6*%
X145660000Y-69339000D02*
X145660000Y-69495000D01*
X145660000Y-71655000D02*
X145660000Y-71811000D01*
D12*
X145720000Y-69408810D02*
X145720000Y-71741190D01*
D11*
X145660000Y-69339484D02*
G75*
G02*
X148891437Y-69495000I1560000J-1235516D01*
G01*
D12*
X145720000Y-69408810D02*
G75*
G02*
X145720000Y-71741190I1500000J-1166190D01*
G01*
D11*
X146179039Y-69495000D02*
G75*
G02*
X148260961Y-69495000I1040961J-1080000D01*
G01*
X148260961Y-71655000D02*
G75*
G02*
X146179039Y-71655000I-1040961J1080000D01*
G01*
X148891437Y-71655000D02*
G75*
G02*
X145660000Y-71810516I-1671437J1080000D01*
G01*
D12*
X148720000Y-70575000D02*
G75*
G02*
X145720000Y-70575000I-1500000J0D01*
G01*
X145720000Y-70575000D02*
G75*
G02*
X148720000Y-70575000I1500000J0D01*
G01*
D11*
%TO.C,D1*%
X120830000Y-69339000D02*
X120830000Y-69495000D01*
X120830000Y-71655000D02*
X120830000Y-71811000D01*
D12*
X120890000Y-69408810D02*
X120890000Y-71741190D01*
D11*
X120830000Y-69339484D02*
G75*
G02*
X124061437Y-69495000I1560000J-1235516D01*
G01*
D12*
X120890000Y-69408810D02*
G75*
G02*
X120890000Y-71741190I1500000J-1166190D01*
G01*
D11*
X121349039Y-69495000D02*
G75*
G02*
X123430961Y-69495000I1040961J-1080000D01*
G01*
X123430961Y-71655000D02*
G75*
G02*
X121349039Y-71655000I-1040961J1080000D01*
G01*
X124061437Y-71655000D02*
G75*
G02*
X120830000Y-71810516I-1671437J1080000D01*
G01*
D12*
X123890000Y-70575000D02*
G75*
G02*
X120890000Y-70575000I-1500000J0D01*
G01*
X120890000Y-70575000D02*
G75*
G02*
X123890000Y-70575000I1500000J0D01*
G01*
D11*
%TO.C,RN1*%
X122560000Y-75315000D02*
X122560000Y-77935000D01*
X122560000Y-77935000D02*
X148120000Y-77935000D01*
D12*
X122620000Y-75375000D02*
X122620000Y-77875000D01*
X122620000Y-77875000D02*
X148060000Y-77875000D01*
D11*
X125180000Y-75315000D02*
X125180000Y-77935000D01*
D12*
X125180000Y-75375000D02*
X125180000Y-77875000D01*
X148060000Y-75375000D02*
X122620000Y-75375000D01*
X148060000Y-77875000D02*
X148060000Y-75375000D01*
D11*
X148120000Y-75315000D02*
X122560000Y-75315000D01*
X148120000Y-77935000D02*
X148120000Y-75315000D01*
%TO.C,D9*%
X116440000Y-32764000D02*
X116440000Y-32920000D01*
X116440000Y-35080000D02*
X116440000Y-35236000D01*
D12*
X116500000Y-32833810D02*
X116500000Y-35166190D01*
D11*
X116440000Y-32764484D02*
G75*
G02*
X119671437Y-32920000I1560000J-1235516D01*
G01*
D12*
X116500000Y-32833810D02*
G75*
G02*
X116500000Y-35166190I1500000J-1166190D01*
G01*
D11*
X116959039Y-32920000D02*
G75*
G02*
X119040961Y-32920000I1040961J-1080000D01*
G01*
X119040961Y-35080000D02*
G75*
G02*
X116959039Y-35080000I-1040961J1080000D01*
G01*
X119671437Y-35080000D02*
G75*
G02*
X116440000Y-35235516I-1671437J1080000D01*
G01*
D12*
X119500000Y-34000000D02*
G75*
G02*
X116500000Y-34000000I-1500000J0D01*
G01*
X116500000Y-34000000D02*
G75*
G02*
X119500000Y-34000000I1500000J0D01*
G01*
D11*
%TO.C,D19*%
X126335000Y-43639000D02*
X126335000Y-43795000D01*
X126335000Y-45955000D02*
X126335000Y-46111000D01*
D12*
X126395000Y-43708810D02*
X126395000Y-46041190D01*
D11*
X126335000Y-43639484D02*
G75*
G02*
X129566437Y-43795000I1560000J-1235516D01*
G01*
D12*
X126395000Y-43708810D02*
G75*
G02*
X126395000Y-46041190I1500000J-1166190D01*
G01*
D11*
X126854039Y-43795000D02*
G75*
G02*
X128935961Y-43795000I1040961J-1080000D01*
G01*
X128935961Y-45955000D02*
G75*
G02*
X126854039Y-45955000I-1040961J1080000D01*
G01*
X129566437Y-45955000D02*
G75*
G02*
X126335000Y-46110516I-1671437J1080000D01*
G01*
D12*
X129395000Y-44875000D02*
G75*
G02*
X126395000Y-44875000I-1500000J0D01*
G01*
X126395000Y-44875000D02*
G75*
G02*
X129395000Y-44875000I1500000J0D01*
G01*
D11*
%TO.C,D30*%
X141395000Y-57464000D02*
X141395000Y-57620000D01*
X141395000Y-59780000D02*
X141395000Y-59936000D01*
D12*
X141455000Y-57533810D02*
X141455000Y-59866190D01*
D11*
X141395000Y-57464484D02*
G75*
G02*
X144626437Y-57620000I1560000J-1235516D01*
G01*
D12*
X141455000Y-57533810D02*
G75*
G02*
X141455000Y-59866190I1500000J-1166190D01*
G01*
D11*
X141914039Y-57620000D02*
G75*
G02*
X143995961Y-57620000I1040961J-1080000D01*
G01*
X143995961Y-59780000D02*
G75*
G02*
X141914039Y-59780000I-1040961J1080000D01*
G01*
X144626437Y-59780000D02*
G75*
G02*
X141395000Y-59935516I-1671437J1080000D01*
G01*
D12*
X144455000Y-58700000D02*
G75*
G02*
X141455000Y-58700000I-1500000J0D01*
G01*
X141455000Y-58700000D02*
G75*
G02*
X144455000Y-58700000I1500000J0D01*
G01*
D11*
%TO.C,D25*%
X116165000Y-57464000D02*
X116165000Y-57620000D01*
X116165000Y-59780000D02*
X116165000Y-59936000D01*
D12*
X116225000Y-57533810D02*
X116225000Y-59866190D01*
D11*
X116165000Y-57464484D02*
G75*
G02*
X119396437Y-57620000I1560000J-1235516D01*
G01*
D12*
X116225000Y-57533810D02*
G75*
G02*
X116225000Y-59866190I1500000J-1166190D01*
G01*
D11*
X116684039Y-57620000D02*
G75*
G02*
X118765961Y-57620000I1040961J-1080000D01*
G01*
X118765961Y-59780000D02*
G75*
G02*
X116684039Y-59780000I-1040961J1080000D01*
G01*
X119396437Y-59780000D02*
G75*
G02*
X116165000Y-59935516I-1671437J1080000D01*
G01*
D12*
X119225000Y-58700000D02*
G75*
G02*
X116225000Y-58700000I-1500000J0D01*
G01*
X116225000Y-58700000D02*
G75*
G02*
X119225000Y-58700000I1500000J0D01*
G01*
D11*
%TO.C,D20*%
X131385000Y-43664000D02*
X131385000Y-43820000D01*
X131385000Y-45980000D02*
X131385000Y-46136000D01*
D12*
X131445000Y-43733810D02*
X131445000Y-46066190D01*
D11*
X131385000Y-43664484D02*
G75*
G02*
X134616437Y-43820000I1560000J-1235516D01*
G01*
D12*
X131445000Y-43733810D02*
G75*
G02*
X131445000Y-46066190I1500000J-1166190D01*
G01*
D11*
X131904039Y-43820000D02*
G75*
G02*
X133985961Y-43820000I1040961J-1080000D01*
G01*
X133985961Y-45980000D02*
G75*
G02*
X131904039Y-45980000I-1040961J1080000D01*
G01*
X134616437Y-45980000D02*
G75*
G02*
X131385000Y-46135516I-1671437J1080000D01*
G01*
D12*
X134445000Y-44900000D02*
G75*
G02*
X131445000Y-44900000I-1500000J0D01*
G01*
X131445000Y-44900000D02*
G75*
G02*
X134445000Y-44900000I1500000J0D01*
G01*
D11*
%TO.C,D3*%
X130830000Y-69339000D02*
X130830000Y-69495000D01*
X130830000Y-71655000D02*
X130830000Y-71811000D01*
D12*
X130890000Y-69408810D02*
X130890000Y-71741190D01*
D11*
X130830000Y-69339484D02*
G75*
G02*
X134061437Y-69495000I1560000J-1235516D01*
G01*
D12*
X130890000Y-69408810D02*
G75*
G02*
X130890000Y-71741190I1500000J-1166190D01*
G01*
D11*
X131349039Y-69495000D02*
G75*
G02*
X133430961Y-69495000I1040961J-1080000D01*
G01*
X133430961Y-71655000D02*
G75*
G02*
X131349039Y-71655000I-1040961J1080000D01*
G01*
X134061437Y-71655000D02*
G75*
G02*
X130830000Y-71810516I-1671437J1080000D01*
G01*
D12*
X133890000Y-70575000D02*
G75*
G02*
X130890000Y-70575000I-1500000J0D01*
G01*
X130890000Y-70575000D02*
G75*
G02*
X133890000Y-70575000I1500000J0D01*
G01*
D11*
%TO.C,RN2*%
X122585000Y-38190000D02*
X122585000Y-40810000D01*
X122585000Y-40810000D02*
X148145000Y-40810000D01*
D12*
X122645000Y-38250000D02*
X122645000Y-40750000D01*
X122645000Y-40750000D02*
X148085000Y-40750000D01*
D11*
X125205000Y-38190000D02*
X125205000Y-40810000D01*
D12*
X125205000Y-38250000D02*
X125205000Y-40750000D01*
X148085000Y-38250000D02*
X122645000Y-38250000D01*
X148085000Y-40750000D02*
X148085000Y-38250000D01*
D11*
X148145000Y-38190000D02*
X122585000Y-38190000D01*
X148145000Y-40810000D02*
X148145000Y-38190000D01*
%TO.C,D27*%
X126395000Y-57464000D02*
X126395000Y-57620000D01*
X126395000Y-59780000D02*
X126395000Y-59936000D01*
D12*
X126455000Y-57533810D02*
X126455000Y-59866190D01*
D11*
X126395000Y-57464484D02*
G75*
G02*
X129626437Y-57620000I1560000J-1235516D01*
G01*
D12*
X126455000Y-57533810D02*
G75*
G02*
X126455000Y-59866190I1500000J-1166190D01*
G01*
D11*
X126914039Y-57620000D02*
G75*
G02*
X128995961Y-57620000I1040961J-1080000D01*
G01*
X128995961Y-59780000D02*
G75*
G02*
X126914039Y-59780000I-1040961J1080000D01*
G01*
X129626437Y-59780000D02*
G75*
G02*
X126395000Y-59935516I-1671437J1080000D01*
G01*
D12*
X129455000Y-58700000D02*
G75*
G02*
X126455000Y-58700000I-1500000J0D01*
G01*
X126455000Y-58700000D02*
G75*
G02*
X129455000Y-58700000I1500000J0D01*
G01*
D11*
%TO.C,UPackage_DIP:DIP-20_W7.62mm_Socket1*%
X88183000Y-58935000D02*
X88183000Y-60585000D01*
X88183000Y-62585000D02*
X88183000Y-64235000D01*
X88183000Y-64235000D02*
X113703000Y-64235000D01*
D12*
X88243000Y-58410000D02*
X113643000Y-58410000D01*
X88243000Y-63760000D02*
X88243000Y-58410000D01*
X89243000Y-64760000D02*
X88243000Y-63760000D01*
X113643000Y-58410000D02*
X113643000Y-64760000D01*
X113643000Y-64760000D02*
X89243000Y-64760000D01*
D11*
X113703000Y-58935000D02*
X88183000Y-58935000D01*
X113703000Y-64235000D02*
X113703000Y-58935000D01*
X88123000Y-66725000D02*
X113763000Y-66725000D01*
X113763000Y-56445000D01*
X88123000Y-56445000D01*
X88123000Y-66725000D01*
D12*
X88183000Y-66665000D02*
X113703000Y-66665000D01*
X113703000Y-56505000D01*
X88183000Y-56505000D01*
X88183000Y-66665000D01*
D11*
X88183000Y-60585000D02*
G75*
G02*
X88183000Y-62585000I0J-1000000D01*
G01*
%TO.C,D26*%
X121395000Y-57464000D02*
X121395000Y-57620000D01*
X121395000Y-59780000D02*
X121395000Y-59936000D01*
D12*
X121455000Y-57533810D02*
X121455000Y-59866190D01*
D11*
X121395000Y-57464484D02*
G75*
G02*
X124626437Y-57620000I1560000J-1235516D01*
G01*
D12*
X121455000Y-57533810D02*
G75*
G02*
X121455000Y-59866190I1500000J-1166190D01*
G01*
D11*
X121914039Y-57620000D02*
G75*
G02*
X123995961Y-57620000I1040961J-1080000D01*
G01*
X123995961Y-59780000D02*
G75*
G02*
X121914039Y-59780000I-1040961J1080000D01*
G01*
X124626437Y-59780000D02*
G75*
G02*
X121395000Y-59935516I-1671437J1080000D01*
G01*
D12*
X124455000Y-58700000D02*
G75*
G02*
X121455000Y-58700000I-1500000J0D01*
G01*
X121455000Y-58700000D02*
G75*
G02*
X124455000Y-58700000I1500000J0D01*
G01*
D11*
%TO.C,D7*%
X150560000Y-69339000D02*
X150560000Y-69495000D01*
X150560000Y-71655000D02*
X150560000Y-71811000D01*
D12*
X150620000Y-69408810D02*
X150620000Y-71741190D01*
D11*
X150560000Y-69339484D02*
G75*
G02*
X153791437Y-69495000I1560000J-1235516D01*
G01*
D12*
X150620000Y-69408810D02*
G75*
G02*
X150620000Y-71741190I1500000J-1166190D01*
G01*
D11*
X151079039Y-69495000D02*
G75*
G02*
X153160961Y-69495000I1040961J-1080000D01*
G01*
X153160961Y-71655000D02*
G75*
G02*
X151079039Y-71655000I-1040961J1080000D01*
G01*
X153791437Y-71655000D02*
G75*
G02*
X150560000Y-71810516I-1671437J1080000D01*
G01*
D12*
X153620000Y-70575000D02*
G75*
G02*
X150620000Y-70575000I-1500000J0D01*
G01*
X150620000Y-70575000D02*
G75*
G02*
X153620000Y-70575000I1500000J0D01*
G01*
D11*
%TO.C,D32*%
X151395000Y-57464000D02*
X151395000Y-57620000D01*
X151395000Y-59780000D02*
X151395000Y-59936000D01*
D12*
X151455000Y-57533810D02*
X151455000Y-59866190D01*
D11*
X151395000Y-57464484D02*
G75*
G02*
X154626437Y-57620000I1560000J-1235516D01*
G01*
D12*
X151455000Y-57533810D02*
G75*
G02*
X151455000Y-59866190I1500000J-1166190D01*
G01*
D11*
X151914039Y-57620000D02*
G75*
G02*
X153995961Y-57620000I1040961J-1080000D01*
G01*
X153995961Y-59780000D02*
G75*
G02*
X151914039Y-59780000I-1040961J1080000D01*
G01*
X154626437Y-59780000D02*
G75*
G02*
X151395000Y-59935516I-1671437J1080000D01*
G01*
D12*
X154455000Y-58700000D02*
G75*
G02*
X151455000Y-58700000I-1500000J0D01*
G01*
X151455000Y-58700000D02*
G75*
G02*
X154455000Y-58700000I1500000J0D01*
G01*
D11*
%TO.C,D13*%
X136510000Y-32814000D02*
X136510000Y-32970000D01*
X136510000Y-35130000D02*
X136510000Y-35286000D01*
D12*
X136570000Y-32883810D02*
X136570000Y-35216190D01*
D11*
X136510000Y-32814484D02*
G75*
G02*
X139741437Y-32970000I1560000J-1235516D01*
G01*
D12*
X136570000Y-32883810D02*
G75*
G02*
X136570000Y-35216190I1500000J-1166190D01*
G01*
D11*
X137029039Y-32970000D02*
G75*
G02*
X139110961Y-32970000I1040961J-1080000D01*
G01*
X139110961Y-35130000D02*
G75*
G02*
X137029039Y-35130000I-1040961J1080000D01*
G01*
X139741437Y-35130000D02*
G75*
G02*
X136510000Y-35285516I-1671437J1080000D01*
G01*
D12*
X139570000Y-34050000D02*
G75*
G02*
X136570000Y-34050000I-1500000J0D01*
G01*
X136570000Y-34050000D02*
G75*
G02*
X139570000Y-34050000I1500000J0D01*
G01*
D11*
%TO.C,D4*%
X135830000Y-69339000D02*
X135830000Y-69495000D01*
X135830000Y-71655000D02*
X135830000Y-71811000D01*
D12*
X135890000Y-69408810D02*
X135890000Y-71741190D01*
D11*
X135830000Y-69339484D02*
G75*
G02*
X139061437Y-69495000I1560000J-1235516D01*
G01*
D12*
X135890000Y-69408810D02*
G75*
G02*
X135890000Y-71741190I1500000J-1166190D01*
G01*
D11*
X136349039Y-69495000D02*
G75*
G02*
X138430961Y-69495000I1040961J-1080000D01*
G01*
X138430961Y-71655000D02*
G75*
G02*
X136349039Y-71655000I-1040961J1080000D01*
G01*
X139061437Y-71655000D02*
G75*
G02*
X135830000Y-71810516I-1671437J1080000D01*
G01*
D12*
X138890000Y-70575000D02*
G75*
G02*
X135890000Y-70575000I-1500000J0D01*
G01*
X135890000Y-70575000D02*
G75*
G02*
X138890000Y-70575000I1500000J0D01*
G01*
D11*
%TO.C,RN3*%
X122445000Y-49365000D02*
X122445000Y-51985000D01*
X122445000Y-51985000D02*
X148005000Y-51985000D01*
D12*
X122505000Y-49425000D02*
X122505000Y-51925000D01*
X122505000Y-51925000D02*
X147945000Y-51925000D01*
D11*
X125065000Y-49365000D02*
X125065000Y-51985000D01*
D12*
X125065000Y-49425000D02*
X125065000Y-51925000D01*
X147945000Y-49425000D02*
X122505000Y-49425000D01*
X147945000Y-51925000D02*
X147945000Y-49425000D01*
D11*
X148005000Y-49365000D02*
X122445000Y-49365000D01*
X148005000Y-51985000D02*
X148005000Y-49365000D01*
%TO.C,D16*%
X151535000Y-32789000D02*
X151535000Y-32945000D01*
X151535000Y-35105000D02*
X151535000Y-35261000D01*
D12*
X151595000Y-32858810D02*
X151595000Y-35191190D01*
D11*
X151535000Y-32789484D02*
G75*
G02*
X154766437Y-32945000I1560000J-1235516D01*
G01*
D12*
X151595000Y-32858810D02*
G75*
G02*
X151595000Y-35191190I1500000J-1166190D01*
G01*
D11*
X152054039Y-32945000D02*
G75*
G02*
X154135961Y-32945000I1040961J-1080000D01*
G01*
X154135961Y-35105000D02*
G75*
G02*
X152054039Y-35105000I-1040961J1080000D01*
G01*
X154766437Y-35105000D02*
G75*
G02*
X151535000Y-35260516I-1671437J1080000D01*
G01*
D12*
X154595000Y-34025000D02*
G75*
G02*
X151595000Y-34025000I-1500000J0D01*
G01*
X151595000Y-34025000D02*
G75*
G02*
X154595000Y-34025000I1500000J0D01*
G01*
D11*
%TO.C,J2*%
X73655000Y-30741000D02*
X75035000Y-30741000D01*
X73655000Y-32121000D02*
X73655000Y-30741000D01*
X73655000Y-33391000D02*
X73655000Y-79221000D01*
X73655000Y-33391000D02*
X76305000Y-33391000D01*
X73655000Y-79221000D02*
X78955000Y-79221000D01*
D12*
X73765000Y-32121000D02*
X75035000Y-30851000D01*
X73765000Y-79111000D02*
X73765000Y-32121000D01*
X75035000Y-30851000D02*
X78845000Y-30851000D01*
D11*
X76305000Y-30741000D02*
X78955000Y-30741000D01*
X76305000Y-33391000D02*
X76305000Y-30741000D01*
D12*
X78845000Y-30851000D02*
X78845000Y-79111000D01*
X78845000Y-79111000D02*
X73765000Y-79111000D01*
D11*
X78955000Y-30741000D02*
X78955000Y-79221000D01*
%TO.C,D28*%
X131395000Y-57464000D02*
X131395000Y-57620000D01*
X131395000Y-59780000D02*
X131395000Y-59936000D01*
D12*
X131455000Y-57533810D02*
X131455000Y-59866190D01*
D11*
X131395000Y-57464484D02*
G75*
G02*
X134626437Y-57620000I1560000J-1235516D01*
G01*
D12*
X131455000Y-57533810D02*
G75*
G02*
X131455000Y-59866190I1500000J-1166190D01*
G01*
D11*
X131914039Y-57620000D02*
G75*
G02*
X133995961Y-57620000I1040961J-1080000D01*
G01*
X133995961Y-59780000D02*
G75*
G02*
X131914039Y-59780000I-1040961J1080000D01*
G01*
X134626437Y-59780000D02*
G75*
G02*
X131395000Y-59935516I-1671437J1080000D01*
G01*
D12*
X134455000Y-58700000D02*
G75*
G02*
X131455000Y-58700000I-1500000J0D01*
G01*
X131455000Y-58700000D02*
G75*
G02*
X134455000Y-58700000I1500000J0D01*
G01*
D11*
%TO.C,D23*%
X146415000Y-43664000D02*
X146415000Y-43820000D01*
X146415000Y-45980000D02*
X146415000Y-46136000D01*
D12*
X146475000Y-43733810D02*
X146475000Y-46066190D01*
D11*
X146415000Y-43664484D02*
G75*
G02*
X149646437Y-43820000I1560000J-1235516D01*
G01*
D12*
X146475000Y-43733810D02*
G75*
G02*
X146475000Y-46066190I1500000J-1166190D01*
G01*
D11*
X146934039Y-43820000D02*
G75*
G02*
X149015961Y-43820000I1040961J-1080000D01*
G01*
X149015961Y-45980000D02*
G75*
G02*
X146934039Y-45980000I-1040961J1080000D01*
G01*
X149646437Y-45980000D02*
G75*
G02*
X146415000Y-46135516I-1671437J1080000D01*
G01*
D12*
X149475000Y-44900000D02*
G75*
G02*
X146475000Y-44900000I-1500000J0D01*
G01*
X146475000Y-44900000D02*
G75*
G02*
X149475000Y-44900000I1500000J0D01*
G01*
D11*
%TO.C,D17*%
X116160000Y-43639000D02*
X116160000Y-43795000D01*
X116160000Y-45955000D02*
X116160000Y-46111000D01*
D12*
X116220000Y-43708810D02*
X116220000Y-46041190D01*
D11*
X116160000Y-43639484D02*
G75*
G02*
X119391437Y-43795000I1560000J-1235516D01*
G01*
D12*
X116220000Y-43708810D02*
G75*
G02*
X116220000Y-46041190I1500000J-1166190D01*
G01*
D11*
X116679039Y-43795000D02*
G75*
G02*
X118760961Y-43795000I1040961J-1080000D01*
G01*
X118760961Y-45955000D02*
G75*
G02*
X116679039Y-45955000I-1040961J1080000D01*
G01*
X119391437Y-45955000D02*
G75*
G02*
X116160000Y-46110516I-1671437J1080000D01*
G01*
D12*
X119220000Y-44875000D02*
G75*
G02*
X116220000Y-44875000I-1500000J0D01*
G01*
X116220000Y-44875000D02*
G75*
G02*
X119220000Y-44875000I1500000J0D01*
G01*
D11*
%TO.C,D5*%
X140810000Y-69339000D02*
X140810000Y-69495000D01*
X140810000Y-71655000D02*
X140810000Y-71811000D01*
D12*
X140870000Y-69408810D02*
X140870000Y-71741190D01*
D11*
X140810000Y-69339484D02*
G75*
G02*
X144041437Y-69495000I1560000J-1235516D01*
G01*
D12*
X140870000Y-69408810D02*
G75*
G02*
X140870000Y-71741190I1500000J-1166190D01*
G01*
D11*
X141329039Y-69495000D02*
G75*
G02*
X143410961Y-69495000I1040961J-1080000D01*
G01*
X143410961Y-71655000D02*
G75*
G02*
X141329039Y-71655000I-1040961J1080000D01*
G01*
X144041437Y-71655000D02*
G75*
G02*
X140810000Y-71810516I-1671437J1080000D01*
G01*
D12*
X143870000Y-70575000D02*
G75*
G02*
X140870000Y-70575000I-1500000J0D01*
G01*
X140870000Y-70575000D02*
G75*
G02*
X143870000Y-70575000I1500000J0D01*
G01*
D11*
%TO.C,D21*%
X136390000Y-43664000D02*
X136390000Y-43820000D01*
X136390000Y-45980000D02*
X136390000Y-46136000D01*
D12*
X136450000Y-43733810D02*
X136450000Y-46066190D01*
D11*
X136390000Y-43664484D02*
G75*
G02*
X139621437Y-43820000I1560000J-1235516D01*
G01*
D12*
X136450000Y-43733810D02*
G75*
G02*
X136450000Y-46066190I1500000J-1166190D01*
G01*
D11*
X136909039Y-43820000D02*
G75*
G02*
X138990961Y-43820000I1040961J-1080000D01*
G01*
X138990961Y-45980000D02*
G75*
G02*
X136909039Y-45980000I-1040961J1080000D01*
G01*
X139621437Y-45980000D02*
G75*
G02*
X136390000Y-46135516I-1671437J1080000D01*
G01*
D12*
X139450000Y-44900000D02*
G75*
G02*
X136450000Y-44900000I-1500000J0D01*
G01*
X136450000Y-44900000D02*
G75*
G02*
X139450000Y-44900000I1500000J0D01*
G01*
D11*
%TO.C,D15*%
X146535000Y-32814000D02*
X146535000Y-32970000D01*
X146535000Y-35130000D02*
X146535000Y-35286000D01*
D12*
X146595000Y-32883810D02*
X146595000Y-35216190D01*
D11*
X146535000Y-32814484D02*
G75*
G02*
X149766437Y-32970000I1560000J-1235516D01*
G01*
D12*
X146595000Y-32883810D02*
G75*
G02*
X146595000Y-35216190I1500000J-1166190D01*
G01*
D11*
X147054039Y-32970000D02*
G75*
G02*
X149135961Y-32970000I1040961J-1080000D01*
G01*
X149135961Y-35130000D02*
G75*
G02*
X147054039Y-35130000I-1040961J1080000D01*
G01*
X149766437Y-35130000D02*
G75*
G02*
X146535000Y-35285516I-1671437J1080000D01*
G01*
D12*
X149595000Y-34050000D02*
G75*
G02*
X146595000Y-34050000I-1500000J0D01*
G01*
X146595000Y-34050000D02*
G75*
G02*
X149595000Y-34050000I1500000J0D01*
G01*
D11*
%TO.C,D18*%
X121235000Y-43639000D02*
X121235000Y-43795000D01*
X121235000Y-45955000D02*
X121235000Y-46111000D01*
D12*
X121295000Y-43708810D02*
X121295000Y-46041190D01*
D11*
X121235000Y-43639484D02*
G75*
G02*
X124466437Y-43795000I1560000J-1235516D01*
G01*
D12*
X121295000Y-43708810D02*
G75*
G02*
X121295000Y-46041190I1500000J-1166190D01*
G01*
D11*
X121754039Y-43795000D02*
G75*
G02*
X123835961Y-43795000I1040961J-1080000D01*
G01*
X123835961Y-45955000D02*
G75*
G02*
X121754039Y-45955000I-1040961J1080000D01*
G01*
X124466437Y-45955000D02*
G75*
G02*
X121235000Y-46110516I-1671437J1080000D01*
G01*
D12*
X124295000Y-44875000D02*
G75*
G02*
X121295000Y-44875000I-1500000J0D01*
G01*
X121295000Y-44875000D02*
G75*
G02*
X124295000Y-44875000I1500000J0D01*
G01*
D11*
%TO.C,U2*%
X87890000Y-47160000D02*
X87890000Y-52460000D01*
X87890000Y-52460000D02*
X113410000Y-52460000D01*
D12*
X87950000Y-46635000D02*
X112350000Y-46635000D01*
X87950000Y-52985000D02*
X87950000Y-46635000D01*
X112350000Y-46635000D02*
X113350000Y-47635000D01*
X113350000Y-47635000D02*
X113350000Y-52985000D01*
X113350000Y-52985000D02*
X87950000Y-52985000D01*
D11*
X113410000Y-47160000D02*
X87890000Y-47160000D01*
X113410000Y-48810000D02*
X113410000Y-47160000D01*
X113410000Y-52460000D02*
X113410000Y-50810000D01*
D12*
X113410000Y-44730000D02*
X87890000Y-44730000D01*
X87890000Y-54890000D01*
X113410000Y-54890000D01*
X113410000Y-44730000D01*
D11*
X113470000Y-44670000D02*
X87830000Y-44670000D01*
X87830000Y-54950000D01*
X113470000Y-54950000D01*
X113470000Y-44670000D01*
X113410000Y-50810000D02*
G75*
G02*
X113410000Y-48810000I0J1000000D01*
G01*
%TO.C,RN4*%
X122670000Y-63415000D02*
X122670000Y-66035000D01*
X122670000Y-66035000D02*
X148230000Y-66035000D01*
D12*
X122730000Y-63475000D02*
X122730000Y-65975000D01*
X122730000Y-65975000D02*
X148170000Y-65975000D01*
D11*
X125290000Y-63415000D02*
X125290000Y-66035000D01*
D12*
X125290000Y-63475000D02*
X125290000Y-65975000D01*
X148170000Y-63475000D02*
X122730000Y-63475000D01*
X148170000Y-65975000D02*
X148170000Y-63475000D01*
D11*
X148230000Y-63415000D02*
X122670000Y-63415000D01*
X148230000Y-66035000D02*
X148230000Y-63415000D01*
%TO.C,D24*%
X151435000Y-43664000D02*
X151435000Y-43820000D01*
X151435000Y-45980000D02*
X151435000Y-46136000D01*
D12*
X151495000Y-43733810D02*
X151495000Y-46066190D01*
D11*
X151435000Y-43664484D02*
G75*
G02*
X154666437Y-43820000I1560000J-1235516D01*
G01*
D12*
X151495000Y-43733810D02*
G75*
G02*
X151495000Y-46066190I1500000J-1166190D01*
G01*
D11*
X151954039Y-43820000D02*
G75*
G02*
X154035961Y-43820000I1040961J-1080000D01*
G01*
X154035961Y-45980000D02*
G75*
G02*
X151954039Y-45980000I-1040961J1080000D01*
G01*
X154666437Y-45980000D02*
G75*
G02*
X151435000Y-46135516I-1671437J1080000D01*
G01*
D12*
X154495000Y-44900000D02*
G75*
G02*
X151495000Y-44900000I-1500000J0D01*
G01*
X151495000Y-44900000D02*
G75*
G02*
X154495000Y-44900000I1500000J0D01*
G01*
%TD*%
M02*
