%TF.GenerationSoftware,KiCad,Pcbnew,9.0.2*%
%TF.CreationDate,2025-06-04T16:37:23+01:00*%
%TF.ProjectId,6502ExpBoard,36353032-4578-4704-926f-6172642e6b69,rev?*%
%TF.SameCoordinates,Original*%
%TF.FileFunction,Soldermask,Bot*%
%TF.FilePolarity,Negative*%
%FSLAX46Y46*%
G04 Gerber Fmt 4.6, Leading zero omitted, Abs format (unit mm)*
G04 Created by KiCad (PCBNEW 9.0.2) date 2025-06-04 16:37:23*
%MOMM*%
%LPD*%
G01*
G04 APERTURE LIST*
G04 Aperture macros list*
%AMRoundRect*
0 Rectangle with rounded corners*
0 $1 Rounding radius*
0 $2 $3 $4 $5 $6 $7 $8 $9 X,Y pos of 4 corners*
0 Add a 4 corners polygon primitive as box body*
4,1,4,$2,$3,$4,$5,$6,$7,$8,$9,$2,$3,0*
0 Add four circle primitives for the rounded corners*
1,1,$1+$1,$2,$3*
1,1,$1+$1,$4,$5*
1,1,$1+$1,$6,$7*
1,1,$1+$1,$8,$9*
0 Add four rect primitives between the rounded corners*
20,1,$1+$1,$2,$3,$4,$5,0*
20,1,$1+$1,$4,$5,$6,$7,0*
20,1,$1+$1,$6,$7,$8,$9,0*
20,1,$1+$1,$8,$9,$2,$3,0*%
G04 Aperture macros list end*
%ADD10RoundRect,0.250000X0.550000X-0.550000X0.550000X0.550000X-0.550000X0.550000X-0.550000X-0.550000X0*%
%ADD11C,1.600000*%
%ADD12R,1.800000X1.800000*%
%ADD13C,1.800000*%
%ADD14RoundRect,0.250000X-0.550000X0.550000X-0.550000X-0.550000X0.550000X-0.550000X0.550000X0.550000X0*%
%ADD15R,1.600000X1.600000*%
%ADD16R,1.700000X1.700000*%
%ADD17C,1.700000*%
G04 APERTURE END LIST*
D10*
%TO.C,U4*%
X89513000Y-76825000D03*
D11*
X92053000Y-76825000D03*
X94593000Y-76825000D03*
X97133000Y-76825000D03*
X99673000Y-76825000D03*
X102213000Y-76825000D03*
X104753000Y-76825000D03*
X107293000Y-76825000D03*
X109833000Y-76825000D03*
X112373000Y-76825000D03*
X112373000Y-69205000D03*
X109833000Y-69205000D03*
X107293000Y-69205000D03*
X104753000Y-69205000D03*
X102213000Y-69205000D03*
X99673000Y-69205000D03*
X97133000Y-69205000D03*
X94593000Y-69205000D03*
X92053000Y-69205000D03*
X89513000Y-69205000D03*
%TD*%
D12*
%TO.C,D12*%
X131775000Y-34000000D03*
D13*
X134315000Y-34000000D03*
%TD*%
D12*
%TO.C,D22*%
X141700000Y-44875000D03*
D13*
X144240000Y-44875000D03*
%TD*%
D12*
%TO.C,D10*%
X121750000Y-34000000D03*
D13*
X124290000Y-34000000D03*
%TD*%
D12*
%TO.C,D11*%
X126750000Y-34000000D03*
D13*
X129290000Y-34000000D03*
%TD*%
D12*
%TO.C,D14*%
X141800000Y-34050000D03*
D13*
X144340000Y-34050000D03*
%TD*%
D12*
%TO.C,D29*%
X136685000Y-58700000D03*
D13*
X139225000Y-58700000D03*
%TD*%
D12*
%TO.C,D31*%
X146685000Y-58700000D03*
D13*
X149225000Y-58700000D03*
%TD*%
D12*
%TO.C,D2*%
X126120000Y-70575000D03*
D13*
X128660000Y-70575000D03*
%TD*%
D14*
%TO.C,U1*%
X112430000Y-34190000D03*
D11*
X109890000Y-34190000D03*
X107350000Y-34190000D03*
X104810000Y-34190000D03*
X102270000Y-34190000D03*
X99730000Y-34190000D03*
X97190000Y-34190000D03*
X94650000Y-34190000D03*
X92110000Y-34190000D03*
X89570000Y-34190000D03*
X89570000Y-41810000D03*
X92110000Y-41810000D03*
X94650000Y-41810000D03*
X97190000Y-41810000D03*
X99730000Y-41810000D03*
X102270000Y-41810000D03*
X104810000Y-41810000D03*
X107350000Y-41810000D03*
X109890000Y-41810000D03*
X112430000Y-41810000D03*
%TD*%
D12*
%TO.C,D6*%
X145950000Y-70575000D03*
D13*
X148490000Y-70575000D03*
%TD*%
D12*
%TO.C,D1*%
X121120000Y-70575000D03*
D13*
X123660000Y-70575000D03*
%TD*%
D15*
%TO.C,RN1*%
X123910000Y-76625000D03*
D11*
X126450000Y-76625000D03*
X128990000Y-76625000D03*
X131530000Y-76625000D03*
X134070000Y-76625000D03*
X136610000Y-76625000D03*
X139150000Y-76625000D03*
X141690000Y-76625000D03*
X144230000Y-76625000D03*
X146770000Y-76625000D03*
%TD*%
D12*
%TO.C,D9*%
X116730000Y-34000000D03*
D13*
X119270000Y-34000000D03*
%TD*%
D12*
%TO.C,D19*%
X126625000Y-44875000D03*
D13*
X129165000Y-44875000D03*
%TD*%
D12*
%TO.C,D30*%
X141685000Y-58700000D03*
D13*
X144225000Y-58700000D03*
%TD*%
D12*
%TO.C,D25*%
X116455000Y-58700000D03*
D13*
X118995000Y-58700000D03*
%TD*%
D12*
%TO.C,D20*%
X131675000Y-44900000D03*
D13*
X134215000Y-44900000D03*
%TD*%
D12*
%TO.C,D3*%
X131120000Y-70575000D03*
D13*
X133660000Y-70575000D03*
%TD*%
D15*
%TO.C,RN2*%
X123935000Y-39500000D03*
D11*
X126475000Y-39500000D03*
X129015000Y-39500000D03*
X131555000Y-39500000D03*
X134095000Y-39500000D03*
X136635000Y-39500000D03*
X139175000Y-39500000D03*
X141715000Y-39500000D03*
X144255000Y-39500000D03*
X146795000Y-39500000D03*
%TD*%
D12*
%TO.C,D27*%
X126685000Y-58700000D03*
D13*
X129225000Y-58700000D03*
%TD*%
D10*
%TO.C,UPackage_DIP:DIP-20_W7.62mm_Socket1*%
X89513000Y-65395000D03*
D11*
X92053000Y-65395000D03*
X94593000Y-65395000D03*
X97133000Y-65395000D03*
X99673000Y-65395000D03*
X102213000Y-65395000D03*
X104753000Y-65395000D03*
X107293000Y-65395000D03*
X109833000Y-65395000D03*
X112373000Y-65395000D03*
X112373000Y-57775000D03*
X109833000Y-57775000D03*
X107293000Y-57775000D03*
X104753000Y-57775000D03*
X102213000Y-57775000D03*
X99673000Y-57775000D03*
X97133000Y-57775000D03*
X94593000Y-57775000D03*
X92053000Y-57775000D03*
X89513000Y-57775000D03*
%TD*%
D12*
%TO.C,D26*%
X121685000Y-58700000D03*
D13*
X124225000Y-58700000D03*
%TD*%
D12*
%TO.C,D7*%
X150850000Y-70575000D03*
D13*
X153390000Y-70575000D03*
%TD*%
D12*
%TO.C,D32*%
X151685000Y-58700000D03*
D13*
X154225000Y-58700000D03*
%TD*%
D12*
%TO.C,D13*%
X136800000Y-34050000D03*
D13*
X139340000Y-34050000D03*
%TD*%
D12*
%TO.C,D4*%
X136120000Y-70575000D03*
D13*
X138660000Y-70575000D03*
%TD*%
D15*
%TO.C,RN3*%
X123795000Y-50675000D03*
D11*
X126335000Y-50675000D03*
X128875000Y-50675000D03*
X131415000Y-50675000D03*
X133955000Y-50675000D03*
X136495000Y-50675000D03*
X139035000Y-50675000D03*
X141575000Y-50675000D03*
X144115000Y-50675000D03*
X146655000Y-50675000D03*
%TD*%
D12*
%TO.C,D16*%
X151825000Y-34025000D03*
D13*
X154365000Y-34025000D03*
%TD*%
D16*
%TO.C,J2*%
X75035000Y-32121000D03*
D17*
X77575000Y-32121000D03*
X75035000Y-34661000D03*
X77575000Y-34661000D03*
X75035000Y-37201000D03*
X77575000Y-37201000D03*
X75035000Y-39741000D03*
X77575000Y-39741000D03*
X75035000Y-42281000D03*
X77575000Y-42281000D03*
X75035000Y-44821000D03*
X77575000Y-44821000D03*
X75035000Y-47361000D03*
X77575000Y-47361000D03*
X75035000Y-49901000D03*
X77575000Y-49901000D03*
X75035000Y-52441000D03*
X77575000Y-52441000D03*
X75035000Y-54981000D03*
X77575000Y-54981000D03*
X75035000Y-57521000D03*
X77575000Y-57521000D03*
X75035000Y-60061000D03*
X77575000Y-60061000D03*
X75035000Y-62601000D03*
X77575000Y-62601000D03*
X75035000Y-65141000D03*
X77575000Y-65141000D03*
X75035000Y-67681000D03*
X77575000Y-67681000D03*
X75035000Y-70221000D03*
X77575000Y-70221000D03*
X75035000Y-72761000D03*
X77575000Y-72761000D03*
X75035000Y-75301000D03*
X77575000Y-75301000D03*
X75035000Y-77841000D03*
X77575000Y-77841000D03*
%TD*%
D12*
%TO.C,D28*%
X131685000Y-58700000D03*
D13*
X134225000Y-58700000D03*
%TD*%
D12*
%TO.C,D23*%
X146705000Y-44900000D03*
D13*
X149245000Y-44900000D03*
%TD*%
D12*
%TO.C,D17*%
X116450000Y-44875000D03*
D13*
X118990000Y-44875000D03*
%TD*%
D12*
%TO.C,D5*%
X141100000Y-70575000D03*
D13*
X143640000Y-70575000D03*
%TD*%
D12*
%TO.C,D21*%
X136680000Y-44900000D03*
D13*
X139220000Y-44900000D03*
%TD*%
D12*
%TO.C,D15*%
X146825000Y-34050000D03*
D13*
X149365000Y-34050000D03*
%TD*%
D12*
%TO.C,D18*%
X121525000Y-44875000D03*
D13*
X124065000Y-44875000D03*
%TD*%
D14*
%TO.C,U2*%
X112080000Y-46000000D03*
D11*
X109540000Y-46000000D03*
X107000000Y-46000000D03*
X104460000Y-46000000D03*
X101920000Y-46000000D03*
X99380000Y-46000000D03*
X96840000Y-46000000D03*
X94300000Y-46000000D03*
X91760000Y-46000000D03*
X89220000Y-46000000D03*
X89220000Y-53620000D03*
X91760000Y-53620000D03*
X94300000Y-53620000D03*
X96840000Y-53620000D03*
X99380000Y-53620000D03*
X101920000Y-53620000D03*
X104460000Y-53620000D03*
X107000000Y-53620000D03*
X109540000Y-53620000D03*
X112080000Y-53620000D03*
%TD*%
D15*
%TO.C,RN4*%
X124020000Y-64725000D03*
D11*
X126560000Y-64725000D03*
X129100000Y-64725000D03*
X131640000Y-64725000D03*
X134180000Y-64725000D03*
X136720000Y-64725000D03*
X139260000Y-64725000D03*
X141800000Y-64725000D03*
X144340000Y-64725000D03*
X146880000Y-64725000D03*
%TD*%
D12*
%TO.C,D24*%
X151725000Y-44900000D03*
D13*
X154265000Y-44900000D03*
%TD*%
M02*
